G04 #@! TF.GenerationSoftware,KiCad,Pcbnew,8.0.0*
G04 #@! TF.CreationDate,2024-07-06T17:56:43-07:00*
G04 #@! TF.ProjectId,rpi_hat_v1,7270695f-6861-4745-9f76-312e6b696361,rev?*
G04 #@! TF.SameCoordinates,Original*
G04 #@! TF.FileFunction,Legend,Bot*
G04 #@! TF.FilePolarity,Positive*
%FSLAX46Y46*%
G04 Gerber Fmt 4.6, Leading zero omitted, Abs format (unit mm)*
G04 Created by KiCad (PCBNEW 8.0.0) date 2024-07-06 17:56:43*
%MOMM*%
%LPD*%
G01*
G04 APERTURE LIST*
G04 Aperture macros list*
%AMRoundRect*
0 Rectangle with rounded corners*
0 $1 Rounding radius*
0 $2 $3 $4 $5 $6 $7 $8 $9 X,Y pos of 4 corners*
0 Add a 4 corners polygon primitive as box body*
4,1,4,$2,$3,$4,$5,$6,$7,$8,$9,$2,$3,0*
0 Add four circle primitives for the rounded corners*
1,1,$1+$1,$2,$3*
1,1,$1+$1,$4,$5*
1,1,$1+$1,$6,$7*
1,1,$1+$1,$8,$9*
0 Add four rect primitives between the rounded corners*
20,1,$1+$1,$2,$3,$4,$5,0*
20,1,$1+$1,$4,$5,$6,$7,0*
20,1,$1+$1,$6,$7,$8,$9,0*
20,1,$1+$1,$8,$9,$2,$3,0*%
G04 Aperture macros list end*
%ADD10C,0.300000*%
%ADD11C,0.150000*%
%ADD12C,0.120000*%
%ADD13C,0.127000*%
%ADD14C,0.280000*%
%ADD15C,2.700000*%
%ADD16C,0.600000*%
%ADD17O,0.850000X0.600000*%
%ADD18O,1.300000X2.300000*%
%ADD19O,1.300000X2.600000*%
%ADD20R,1.700000X1.700000*%
%ADD21O,1.700000X1.700000*%
%ADD22C,1.270000*%
%ADD23C,3.810000*%
%ADD24RoundRect,0.102000X0.855000X0.855000X-0.855000X0.855000X-0.855000X-0.855000X0.855000X-0.855000X0*%
%ADD25C,1.914000*%
G04 APERTURE END LIST*
D10*
X149348243Y-51865896D02*
X150348243Y-51865896D01*
X150348243Y-51865896D02*
X150548243Y-51799229D01*
X150548243Y-51799229D02*
X150681577Y-51665896D01*
X150681577Y-51665896D02*
X150748243Y-51465896D01*
X150748243Y-51465896D02*
X150748243Y-51332563D01*
X150681577Y-53065896D02*
X150748243Y-52932563D01*
X150748243Y-52932563D02*
X150748243Y-52665896D01*
X150748243Y-52665896D02*
X150681577Y-52532563D01*
X150681577Y-52532563D02*
X150548243Y-52465896D01*
X150548243Y-52465896D02*
X150014910Y-52465896D01*
X150014910Y-52465896D02*
X149881577Y-52532563D01*
X149881577Y-52532563D02*
X149814910Y-52665896D01*
X149814910Y-52665896D02*
X149814910Y-52932563D01*
X149814910Y-52932563D02*
X149881577Y-53065896D01*
X149881577Y-53065896D02*
X150014910Y-53132563D01*
X150014910Y-53132563D02*
X150148243Y-53132563D01*
X150148243Y-53132563D02*
X150281577Y-52465896D01*
X149814910Y-53532563D02*
X149814910Y-54065896D01*
X150748243Y-53732563D02*
X149548243Y-53732563D01*
X149548243Y-53732563D02*
X149414910Y-53799230D01*
X149414910Y-53799230D02*
X149348243Y-53932563D01*
X149348243Y-53932563D02*
X149348243Y-54065896D01*
X149814910Y-54332563D02*
X149814910Y-54865896D01*
X150748243Y-54532563D02*
X149548243Y-54532563D01*
X149548243Y-54532563D02*
X149414910Y-54599230D01*
X149414910Y-54599230D02*
X149348243Y-54732563D01*
X149348243Y-54732563D02*
X149348243Y-54865896D01*
X149348243Y-56332563D02*
X149614910Y-56332563D01*
X149348243Y-56865897D02*
X149614910Y-56865897D01*
X150014910Y-57465897D02*
X150014910Y-57932564D01*
X150748243Y-58132564D02*
X150748243Y-57465897D01*
X150748243Y-57465897D02*
X149348243Y-57465897D01*
X149348243Y-57465897D02*
X149348243Y-58132564D01*
X149814910Y-59332564D02*
X150948243Y-59332564D01*
X150948243Y-59332564D02*
X151081577Y-59265897D01*
X151081577Y-59265897D02*
X151148243Y-59199231D01*
X151148243Y-59199231D02*
X151214910Y-59065897D01*
X151214910Y-59065897D02*
X151214910Y-58865897D01*
X151214910Y-58865897D02*
X151148243Y-58732564D01*
X150681577Y-59332564D02*
X150748243Y-59199231D01*
X150748243Y-59199231D02*
X150748243Y-58932564D01*
X150748243Y-58932564D02*
X150681577Y-58799231D01*
X150681577Y-58799231D02*
X150614910Y-58732564D01*
X150614910Y-58732564D02*
X150481577Y-58665897D01*
X150481577Y-58665897D02*
X150081577Y-58665897D01*
X150081577Y-58665897D02*
X149948243Y-58732564D01*
X149948243Y-58732564D02*
X149881577Y-58799231D01*
X149881577Y-58799231D02*
X149814910Y-58932564D01*
X149814910Y-58932564D02*
X149814910Y-59199231D01*
X149814910Y-59199231D02*
X149881577Y-59332564D01*
X149814910Y-60599231D02*
X150948243Y-60599231D01*
X150948243Y-60599231D02*
X151081577Y-60532564D01*
X151081577Y-60532564D02*
X151148243Y-60465898D01*
X151148243Y-60465898D02*
X151214910Y-60332564D01*
X151214910Y-60332564D02*
X151214910Y-60132564D01*
X151214910Y-60132564D02*
X151148243Y-59999231D01*
X150681577Y-60599231D02*
X150748243Y-60465898D01*
X150748243Y-60465898D02*
X150748243Y-60199231D01*
X150748243Y-60199231D02*
X150681577Y-60065898D01*
X150681577Y-60065898D02*
X150614910Y-59999231D01*
X150614910Y-59999231D02*
X150481577Y-59932564D01*
X150481577Y-59932564D02*
X150081577Y-59932564D01*
X150081577Y-59932564D02*
X149948243Y-59999231D01*
X149948243Y-59999231D02*
X149881577Y-60065898D01*
X149881577Y-60065898D02*
X149814910Y-60199231D01*
X149814910Y-60199231D02*
X149814910Y-60465898D01*
X149814910Y-60465898D02*
X149881577Y-60599231D01*
X149814910Y-61132565D02*
X150748243Y-61465898D01*
X149814910Y-61799231D02*
X150748243Y-61465898D01*
X150748243Y-61465898D02*
X151081577Y-61332565D01*
X151081577Y-61332565D02*
X151148243Y-61265898D01*
X151148243Y-61265898D02*
X151214910Y-61132565D01*
X149348243Y-62265898D02*
X149614910Y-62265898D01*
X149348243Y-62799232D02*
X149614910Y-62799232D01*
X150014910Y-64465899D02*
X150014910Y-64932566D01*
X150748243Y-65132566D02*
X150748243Y-64465899D01*
X150748243Y-64465899D02*
X149348243Y-64465899D01*
X149348243Y-64465899D02*
X149348243Y-65132566D01*
X149814910Y-66332566D02*
X150948243Y-66332566D01*
X150948243Y-66332566D02*
X151081577Y-66265899D01*
X151081577Y-66265899D02*
X151148243Y-66199233D01*
X151148243Y-66199233D02*
X151214910Y-66065899D01*
X151214910Y-66065899D02*
X151214910Y-65865899D01*
X151214910Y-65865899D02*
X151148243Y-65732566D01*
X150681577Y-66332566D02*
X150748243Y-66199233D01*
X150748243Y-66199233D02*
X150748243Y-65932566D01*
X150748243Y-65932566D02*
X150681577Y-65799233D01*
X150681577Y-65799233D02*
X150614910Y-65732566D01*
X150614910Y-65732566D02*
X150481577Y-65665899D01*
X150481577Y-65665899D02*
X150081577Y-65665899D01*
X150081577Y-65665899D02*
X149948243Y-65732566D01*
X149948243Y-65732566D02*
X149881577Y-65799233D01*
X149881577Y-65799233D02*
X149814910Y-65932566D01*
X149814910Y-65932566D02*
X149814910Y-66199233D01*
X149814910Y-66199233D02*
X149881577Y-66332566D01*
X150748243Y-67199233D02*
X150681577Y-67065900D01*
X150681577Y-67065900D02*
X150548243Y-66999233D01*
X150548243Y-66999233D02*
X149348243Y-66999233D01*
X150748243Y-67732566D02*
X149814910Y-67732566D01*
X149348243Y-67732566D02*
X149414910Y-67665899D01*
X149414910Y-67665899D02*
X149481577Y-67732566D01*
X149481577Y-67732566D02*
X149414910Y-67799233D01*
X149414910Y-67799233D02*
X149348243Y-67732566D01*
X149348243Y-67732566D02*
X149481577Y-67732566D01*
X149814910Y-68399233D02*
X150748243Y-68399233D01*
X149948243Y-68399233D02*
X149881577Y-68465900D01*
X149881577Y-68465900D02*
X149814910Y-68599233D01*
X149814910Y-68599233D02*
X149814910Y-68799233D01*
X149814910Y-68799233D02*
X149881577Y-68932566D01*
X149881577Y-68932566D02*
X150014910Y-68999233D01*
X150014910Y-68999233D02*
X150748243Y-68999233D01*
X149814910Y-70265900D02*
X150948243Y-70265900D01*
X150948243Y-70265900D02*
X151081577Y-70199233D01*
X151081577Y-70199233D02*
X151148243Y-70132567D01*
X151148243Y-70132567D02*
X151214910Y-69999233D01*
X151214910Y-69999233D02*
X151214910Y-69799233D01*
X151214910Y-69799233D02*
X151148243Y-69665900D01*
X150681577Y-70265900D02*
X150748243Y-70132567D01*
X150748243Y-70132567D02*
X150748243Y-69865900D01*
X150748243Y-69865900D02*
X150681577Y-69732567D01*
X150681577Y-69732567D02*
X150614910Y-69665900D01*
X150614910Y-69665900D02*
X150481577Y-69599233D01*
X150481577Y-69599233D02*
X150081577Y-69599233D01*
X150081577Y-69599233D02*
X149948243Y-69665900D01*
X149948243Y-69665900D02*
X149881577Y-69732567D01*
X149881577Y-69732567D02*
X149814910Y-69865900D01*
X149814910Y-69865900D02*
X149814910Y-70132567D01*
X149814910Y-70132567D02*
X149881577Y-70265900D01*
X150681577Y-71465900D02*
X150748243Y-71332567D01*
X150748243Y-71332567D02*
X150748243Y-71065900D01*
X150748243Y-71065900D02*
X150681577Y-70932567D01*
X150681577Y-70932567D02*
X150548243Y-70865900D01*
X150548243Y-70865900D02*
X150014910Y-70865900D01*
X150014910Y-70865900D02*
X149881577Y-70932567D01*
X149881577Y-70932567D02*
X149814910Y-71065900D01*
X149814910Y-71065900D02*
X149814910Y-71332567D01*
X149814910Y-71332567D02*
X149881577Y-71465900D01*
X149881577Y-71465900D02*
X150014910Y-71532567D01*
X150014910Y-71532567D02*
X150148243Y-71532567D01*
X150148243Y-71532567D02*
X150281577Y-70865900D01*
X150748243Y-72132567D02*
X149814910Y-72132567D01*
X150081577Y-72132567D02*
X149948243Y-72199234D01*
X149948243Y-72199234D02*
X149881577Y-72265900D01*
X149881577Y-72265900D02*
X149814910Y-72399234D01*
X149814910Y-72399234D02*
X149814910Y-72532567D01*
X153002165Y-52265896D02*
X152335499Y-51799229D01*
X153002165Y-51465896D02*
X151602165Y-51465896D01*
X151602165Y-51465896D02*
X151602165Y-51999229D01*
X151602165Y-51999229D02*
X151668832Y-52132563D01*
X151668832Y-52132563D02*
X151735499Y-52199229D01*
X151735499Y-52199229D02*
X151868832Y-52265896D01*
X151868832Y-52265896D02*
X152068832Y-52265896D01*
X152068832Y-52265896D02*
X152202165Y-52199229D01*
X152202165Y-52199229D02*
X152268832Y-52132563D01*
X152268832Y-52132563D02*
X152335499Y-51999229D01*
X152335499Y-51999229D02*
X152335499Y-51465896D01*
X153002165Y-52865896D02*
X151602165Y-52865896D01*
X151602165Y-52865896D02*
X151602165Y-53399229D01*
X151602165Y-53399229D02*
X151668832Y-53532563D01*
X151668832Y-53532563D02*
X151735499Y-53599229D01*
X151735499Y-53599229D02*
X151868832Y-53665896D01*
X151868832Y-53665896D02*
X152068832Y-53665896D01*
X152068832Y-53665896D02*
X152202165Y-53599229D01*
X152202165Y-53599229D02*
X152268832Y-53532563D01*
X152268832Y-53532563D02*
X152335499Y-53399229D01*
X152335499Y-53399229D02*
X152335499Y-52865896D01*
X153002165Y-54265896D02*
X151602165Y-54265896D01*
X153135499Y-54599230D02*
X153135499Y-55665896D01*
X153002165Y-55999230D02*
X151602165Y-55999230D01*
X152268832Y-55999230D02*
X152268832Y-56799230D01*
X153002165Y-56799230D02*
X151602165Y-56799230D01*
X152602165Y-57399230D02*
X152602165Y-58065897D01*
X153002165Y-57265897D02*
X151602165Y-57732564D01*
X151602165Y-57732564D02*
X153002165Y-58199230D01*
X151602165Y-58465897D02*
X151602165Y-59265897D01*
X153002165Y-58865897D02*
X151602165Y-58865897D01*
X151602165Y-60599231D02*
X153002165Y-61065898D01*
X153002165Y-61065898D02*
X151602165Y-61532564D01*
X153002165Y-62732564D02*
X153002165Y-61932564D01*
X153002165Y-62332564D02*
X151602165Y-62332564D01*
X151602165Y-62332564D02*
X151802165Y-62199231D01*
X151802165Y-62199231D02*
X151935499Y-62065898D01*
X151935499Y-62065898D02*
X152002165Y-61932564D01*
X153856087Y-51865896D02*
X154856087Y-51865896D01*
X154856087Y-51865896D02*
X155056087Y-51799229D01*
X155056087Y-51799229D02*
X155189421Y-51665896D01*
X155189421Y-51665896D02*
X155256087Y-51465896D01*
X155256087Y-51465896D02*
X155256087Y-51332563D01*
X154322754Y-53132563D02*
X155256087Y-53132563D01*
X154322754Y-52532563D02*
X155056087Y-52532563D01*
X155056087Y-52532563D02*
X155189421Y-52599230D01*
X155189421Y-52599230D02*
X155256087Y-52732563D01*
X155256087Y-52732563D02*
X155256087Y-52932563D01*
X155256087Y-52932563D02*
X155189421Y-53065896D01*
X155189421Y-53065896D02*
X155122754Y-53132563D01*
X155256087Y-53999230D02*
X155189421Y-53865897D01*
X155189421Y-53865897D02*
X155056087Y-53799230D01*
X155056087Y-53799230D02*
X153856087Y-53799230D01*
X154322754Y-54399230D02*
X155256087Y-54732563D01*
X154322754Y-55065896D02*
X155256087Y-54732563D01*
X155256087Y-54732563D02*
X155589421Y-54599230D01*
X155589421Y-54599230D02*
X155656087Y-54532563D01*
X155656087Y-54532563D02*
X155722754Y-54399230D01*
X153989421Y-56599230D02*
X153922754Y-56665897D01*
X153922754Y-56665897D02*
X153856087Y-56799230D01*
X153856087Y-56799230D02*
X153856087Y-57132564D01*
X153856087Y-57132564D02*
X153922754Y-57265897D01*
X153922754Y-57265897D02*
X153989421Y-57332564D01*
X153989421Y-57332564D02*
X154122754Y-57399230D01*
X154122754Y-57399230D02*
X154256087Y-57399230D01*
X154256087Y-57399230D02*
X154456087Y-57332564D01*
X154456087Y-57332564D02*
X155256087Y-56532564D01*
X155256087Y-56532564D02*
X155256087Y-57399230D01*
X153856087Y-58265897D02*
X153856087Y-58399230D01*
X153856087Y-58399230D02*
X153922754Y-58532563D01*
X153922754Y-58532563D02*
X153989421Y-58599230D01*
X153989421Y-58599230D02*
X154122754Y-58665897D01*
X154122754Y-58665897D02*
X154389421Y-58732563D01*
X154389421Y-58732563D02*
X154722754Y-58732563D01*
X154722754Y-58732563D02*
X154989421Y-58665897D01*
X154989421Y-58665897D02*
X155122754Y-58599230D01*
X155122754Y-58599230D02*
X155189421Y-58532563D01*
X155189421Y-58532563D02*
X155256087Y-58399230D01*
X155256087Y-58399230D02*
X155256087Y-58265897D01*
X155256087Y-58265897D02*
X155189421Y-58132563D01*
X155189421Y-58132563D02*
X155122754Y-58065897D01*
X155122754Y-58065897D02*
X154989421Y-57999230D01*
X154989421Y-57999230D02*
X154722754Y-57932563D01*
X154722754Y-57932563D02*
X154389421Y-57932563D01*
X154389421Y-57932563D02*
X154122754Y-57999230D01*
X154122754Y-57999230D02*
X153989421Y-58065897D01*
X153989421Y-58065897D02*
X153922754Y-58132563D01*
X153922754Y-58132563D02*
X153856087Y-58265897D01*
X153989421Y-59265896D02*
X153922754Y-59332563D01*
X153922754Y-59332563D02*
X153856087Y-59465896D01*
X153856087Y-59465896D02*
X153856087Y-59799230D01*
X153856087Y-59799230D02*
X153922754Y-59932563D01*
X153922754Y-59932563D02*
X153989421Y-59999230D01*
X153989421Y-59999230D02*
X154122754Y-60065896D01*
X154122754Y-60065896D02*
X154256087Y-60065896D01*
X154256087Y-60065896D02*
X154456087Y-59999230D01*
X154456087Y-59999230D02*
X155256087Y-59199230D01*
X155256087Y-59199230D02*
X155256087Y-60065896D01*
X154322754Y-61265896D02*
X155256087Y-61265896D01*
X153789421Y-60932563D02*
X154789421Y-60599229D01*
X154789421Y-60599229D02*
X154789421Y-61465896D01*
X157510009Y-51465896D02*
X156110009Y-51465896D01*
X157510009Y-52065896D02*
X156776676Y-52065896D01*
X156776676Y-52065896D02*
X156643343Y-51999229D01*
X156643343Y-51999229D02*
X156576676Y-51865896D01*
X156576676Y-51865896D02*
X156576676Y-51665896D01*
X156576676Y-51665896D02*
X156643343Y-51532563D01*
X156643343Y-51532563D02*
X156710009Y-51465896D01*
X156576676Y-52532563D02*
X156576676Y-53065896D01*
X156110009Y-52732563D02*
X157310009Y-52732563D01*
X157310009Y-52732563D02*
X157443343Y-52799230D01*
X157443343Y-52799230D02*
X157510009Y-52932563D01*
X157510009Y-52932563D02*
X157510009Y-53065896D01*
X156576676Y-53332563D02*
X156576676Y-53865896D01*
X156110009Y-53532563D02*
X157310009Y-53532563D01*
X157310009Y-53532563D02*
X157443343Y-53599230D01*
X157443343Y-53599230D02*
X157510009Y-53732563D01*
X157510009Y-53732563D02*
X157510009Y-53865896D01*
X156576676Y-54332563D02*
X157976676Y-54332563D01*
X156643343Y-54332563D02*
X156576676Y-54465896D01*
X156576676Y-54465896D02*
X156576676Y-54732563D01*
X156576676Y-54732563D02*
X156643343Y-54865896D01*
X156643343Y-54865896D02*
X156710009Y-54932563D01*
X156710009Y-54932563D02*
X156843343Y-54999230D01*
X156843343Y-54999230D02*
X157243343Y-54999230D01*
X157243343Y-54999230D02*
X157376676Y-54932563D01*
X157376676Y-54932563D02*
X157443343Y-54865896D01*
X157443343Y-54865896D02*
X157510009Y-54732563D01*
X157510009Y-54732563D02*
X157510009Y-54465896D01*
X157510009Y-54465896D02*
X157443343Y-54332563D01*
X157443343Y-55532563D02*
X157510009Y-55665897D01*
X157510009Y-55665897D02*
X157510009Y-55932563D01*
X157510009Y-55932563D02*
X157443343Y-56065897D01*
X157443343Y-56065897D02*
X157310009Y-56132563D01*
X157310009Y-56132563D02*
X157243343Y-56132563D01*
X157243343Y-56132563D02*
X157110009Y-56065897D01*
X157110009Y-56065897D02*
X157043343Y-55932563D01*
X157043343Y-55932563D02*
X157043343Y-55732563D01*
X157043343Y-55732563D02*
X156976676Y-55599230D01*
X156976676Y-55599230D02*
X156843343Y-55532563D01*
X156843343Y-55532563D02*
X156776676Y-55532563D01*
X156776676Y-55532563D02*
X156643343Y-55599230D01*
X156643343Y-55599230D02*
X156576676Y-55732563D01*
X156576676Y-55732563D02*
X156576676Y-55932563D01*
X156576676Y-55932563D02*
X156643343Y-56065897D01*
X157376676Y-56732563D02*
X157443343Y-56799230D01*
X157443343Y-56799230D02*
X157510009Y-56732563D01*
X157510009Y-56732563D02*
X157443343Y-56665896D01*
X157443343Y-56665896D02*
X157376676Y-56732563D01*
X157376676Y-56732563D02*
X157510009Y-56732563D01*
X156643343Y-56732563D02*
X156710009Y-56799230D01*
X156710009Y-56799230D02*
X156776676Y-56732563D01*
X156776676Y-56732563D02*
X156710009Y-56665896D01*
X156710009Y-56665896D02*
X156643343Y-56732563D01*
X156643343Y-56732563D02*
X156776676Y-56732563D01*
X156043343Y-58399230D02*
X157843343Y-57199230D01*
X156043343Y-59865897D02*
X157843343Y-58665897D01*
X156576676Y-60932564D02*
X157710009Y-60932564D01*
X157710009Y-60932564D02*
X157843343Y-60865897D01*
X157843343Y-60865897D02*
X157910009Y-60799231D01*
X157910009Y-60799231D02*
X157976676Y-60665897D01*
X157976676Y-60665897D02*
X157976676Y-60465897D01*
X157976676Y-60465897D02*
X157910009Y-60332564D01*
X157443343Y-60932564D02*
X157510009Y-60799231D01*
X157510009Y-60799231D02*
X157510009Y-60532564D01*
X157510009Y-60532564D02*
X157443343Y-60399231D01*
X157443343Y-60399231D02*
X157376676Y-60332564D01*
X157376676Y-60332564D02*
X157243343Y-60265897D01*
X157243343Y-60265897D02*
X156843343Y-60265897D01*
X156843343Y-60265897D02*
X156710009Y-60332564D01*
X156710009Y-60332564D02*
X156643343Y-60399231D01*
X156643343Y-60399231D02*
X156576676Y-60532564D01*
X156576676Y-60532564D02*
X156576676Y-60799231D01*
X156576676Y-60799231D02*
X156643343Y-60932564D01*
X157510009Y-61599231D02*
X156576676Y-61599231D01*
X156110009Y-61599231D02*
X156176676Y-61532564D01*
X156176676Y-61532564D02*
X156243343Y-61599231D01*
X156243343Y-61599231D02*
X156176676Y-61665898D01*
X156176676Y-61665898D02*
X156110009Y-61599231D01*
X156110009Y-61599231D02*
X156243343Y-61599231D01*
X156576676Y-62065898D02*
X156576676Y-62599231D01*
X156110009Y-62265898D02*
X157310009Y-62265898D01*
X157310009Y-62265898D02*
X157443343Y-62332565D01*
X157443343Y-62332565D02*
X157510009Y-62465898D01*
X157510009Y-62465898D02*
X157510009Y-62599231D01*
X157510009Y-63065898D02*
X156110009Y-63065898D01*
X157510009Y-63665898D02*
X156776676Y-63665898D01*
X156776676Y-63665898D02*
X156643343Y-63599231D01*
X156643343Y-63599231D02*
X156576676Y-63465898D01*
X156576676Y-63465898D02*
X156576676Y-63265898D01*
X156576676Y-63265898D02*
X156643343Y-63132565D01*
X156643343Y-63132565D02*
X156710009Y-63065898D01*
X156576676Y-64932565D02*
X157510009Y-64932565D01*
X156576676Y-64332565D02*
X157310009Y-64332565D01*
X157310009Y-64332565D02*
X157443343Y-64399232D01*
X157443343Y-64399232D02*
X157510009Y-64532565D01*
X157510009Y-64532565D02*
X157510009Y-64732565D01*
X157510009Y-64732565D02*
X157443343Y-64865898D01*
X157443343Y-64865898D02*
X157376676Y-64932565D01*
X157510009Y-65599232D02*
X156110009Y-65599232D01*
X156643343Y-65599232D02*
X156576676Y-65732565D01*
X156576676Y-65732565D02*
X156576676Y-65999232D01*
X156576676Y-65999232D02*
X156643343Y-66132565D01*
X156643343Y-66132565D02*
X156710009Y-66199232D01*
X156710009Y-66199232D02*
X156843343Y-66265899D01*
X156843343Y-66265899D02*
X157243343Y-66265899D01*
X157243343Y-66265899D02*
X157376676Y-66199232D01*
X157376676Y-66199232D02*
X157443343Y-66132565D01*
X157443343Y-66132565D02*
X157510009Y-65999232D01*
X157510009Y-65999232D02*
X157510009Y-65732565D01*
X157510009Y-65732565D02*
X157443343Y-65599232D01*
X157376676Y-66865899D02*
X157443343Y-66932566D01*
X157443343Y-66932566D02*
X157510009Y-66865899D01*
X157510009Y-66865899D02*
X157443343Y-66799232D01*
X157443343Y-66799232D02*
X157376676Y-66865899D01*
X157376676Y-66865899D02*
X157510009Y-66865899D01*
X157443343Y-68132566D02*
X157510009Y-67999233D01*
X157510009Y-67999233D02*
X157510009Y-67732566D01*
X157510009Y-67732566D02*
X157443343Y-67599233D01*
X157443343Y-67599233D02*
X157376676Y-67532566D01*
X157376676Y-67532566D02*
X157243343Y-67465899D01*
X157243343Y-67465899D02*
X156843343Y-67465899D01*
X156843343Y-67465899D02*
X156710009Y-67532566D01*
X156710009Y-67532566D02*
X156643343Y-67599233D01*
X156643343Y-67599233D02*
X156576676Y-67732566D01*
X156576676Y-67732566D02*
X156576676Y-67999233D01*
X156576676Y-67999233D02*
X156643343Y-68132566D01*
X157510009Y-68932566D02*
X157443343Y-68799233D01*
X157443343Y-68799233D02*
X157376676Y-68732566D01*
X157376676Y-68732566D02*
X157243343Y-68665899D01*
X157243343Y-68665899D02*
X156843343Y-68665899D01*
X156843343Y-68665899D02*
X156710009Y-68732566D01*
X156710009Y-68732566D02*
X156643343Y-68799233D01*
X156643343Y-68799233D02*
X156576676Y-68932566D01*
X156576676Y-68932566D02*
X156576676Y-69132566D01*
X156576676Y-69132566D02*
X156643343Y-69265899D01*
X156643343Y-69265899D02*
X156710009Y-69332566D01*
X156710009Y-69332566D02*
X156843343Y-69399233D01*
X156843343Y-69399233D02*
X157243343Y-69399233D01*
X157243343Y-69399233D02*
X157376676Y-69332566D01*
X157376676Y-69332566D02*
X157443343Y-69265899D01*
X157443343Y-69265899D02*
X157510009Y-69132566D01*
X157510009Y-69132566D02*
X157510009Y-68932566D01*
X157510009Y-69999233D02*
X156576676Y-69999233D01*
X156710009Y-69999233D02*
X156643343Y-70065900D01*
X156643343Y-70065900D02*
X156576676Y-70199233D01*
X156576676Y-70199233D02*
X156576676Y-70399233D01*
X156576676Y-70399233D02*
X156643343Y-70532566D01*
X156643343Y-70532566D02*
X156776676Y-70599233D01*
X156776676Y-70599233D02*
X157510009Y-70599233D01*
X156776676Y-70599233D02*
X156643343Y-70665900D01*
X156643343Y-70665900D02*
X156576676Y-70799233D01*
X156576676Y-70799233D02*
X156576676Y-70999233D01*
X156576676Y-70999233D02*
X156643343Y-71132566D01*
X156643343Y-71132566D02*
X156776676Y-71199233D01*
X156776676Y-71199233D02*
X157510009Y-71199233D01*
X156043343Y-72865900D02*
X157843343Y-71665900D01*
X156576676Y-73332567D02*
X157776676Y-73332567D01*
X157776676Y-73332567D02*
X157910009Y-73265900D01*
X157910009Y-73265900D02*
X157976676Y-73132567D01*
X157976676Y-73132567D02*
X157976676Y-73065900D01*
X156110009Y-73332567D02*
X156176676Y-73265900D01*
X156176676Y-73265900D02*
X156243343Y-73332567D01*
X156243343Y-73332567D02*
X156176676Y-73399234D01*
X156176676Y-73399234D02*
X156110009Y-73332567D01*
X156110009Y-73332567D02*
X156243343Y-73332567D01*
X157443343Y-74532567D02*
X157510009Y-74399234D01*
X157510009Y-74399234D02*
X157510009Y-74132567D01*
X157510009Y-74132567D02*
X157443343Y-73999234D01*
X157443343Y-73999234D02*
X157310009Y-73932567D01*
X157310009Y-73932567D02*
X156776676Y-73932567D01*
X156776676Y-73932567D02*
X156643343Y-73999234D01*
X156643343Y-73999234D02*
X156576676Y-74132567D01*
X156576676Y-74132567D02*
X156576676Y-74399234D01*
X156576676Y-74399234D02*
X156643343Y-74532567D01*
X156643343Y-74532567D02*
X156776676Y-74599234D01*
X156776676Y-74599234D02*
X156910009Y-74599234D01*
X156910009Y-74599234D02*
X157043343Y-73932567D01*
X156576676Y-74999234D02*
X156576676Y-75532567D01*
X157510009Y-75199234D02*
X156310009Y-75199234D01*
X156310009Y-75199234D02*
X156176676Y-75265901D01*
X156176676Y-75265901D02*
X156110009Y-75399234D01*
X156110009Y-75399234D02*
X156110009Y-75532567D01*
X156576676Y-75799234D02*
X156576676Y-76332567D01*
X157510009Y-75999234D02*
X156310009Y-75999234D01*
X156310009Y-75999234D02*
X156176676Y-76065901D01*
X156176676Y-76065901D02*
X156110009Y-76199234D01*
X156110009Y-76199234D02*
X156110009Y-76332567D01*
X157443343Y-77332567D02*
X157510009Y-77199234D01*
X157510009Y-77199234D02*
X157510009Y-76932567D01*
X157510009Y-76932567D02*
X157443343Y-76799234D01*
X157443343Y-76799234D02*
X157310009Y-76732567D01*
X157310009Y-76732567D02*
X156776676Y-76732567D01*
X156776676Y-76732567D02*
X156643343Y-76799234D01*
X156643343Y-76799234D02*
X156576676Y-76932567D01*
X156576676Y-76932567D02*
X156576676Y-77199234D01*
X156576676Y-77199234D02*
X156643343Y-77332567D01*
X156643343Y-77332567D02*
X156776676Y-77399234D01*
X156776676Y-77399234D02*
X156910009Y-77399234D01*
X156910009Y-77399234D02*
X157043343Y-76732567D01*
X156576676Y-78599234D02*
X157710009Y-78599234D01*
X157710009Y-78599234D02*
X157843343Y-78532567D01*
X157843343Y-78532567D02*
X157910009Y-78465901D01*
X157910009Y-78465901D02*
X157976676Y-78332567D01*
X157976676Y-78332567D02*
X157976676Y-78132567D01*
X157976676Y-78132567D02*
X157910009Y-77999234D01*
X157443343Y-78599234D02*
X157510009Y-78465901D01*
X157510009Y-78465901D02*
X157510009Y-78199234D01*
X157510009Y-78199234D02*
X157443343Y-78065901D01*
X157443343Y-78065901D02*
X157376676Y-77999234D01*
X157376676Y-77999234D02*
X157243343Y-77932567D01*
X157243343Y-77932567D02*
X156843343Y-77932567D01*
X156843343Y-77932567D02*
X156710009Y-77999234D01*
X156710009Y-77999234D02*
X156643343Y-78065901D01*
X156643343Y-78065901D02*
X156576676Y-78199234D01*
X156576676Y-78199234D02*
X156576676Y-78465901D01*
X156576676Y-78465901D02*
X156643343Y-78599234D01*
X156576676Y-79865901D02*
X157710009Y-79865901D01*
X157710009Y-79865901D02*
X157843343Y-79799234D01*
X157843343Y-79799234D02*
X157910009Y-79732568D01*
X157910009Y-79732568D02*
X157976676Y-79599234D01*
X157976676Y-79599234D02*
X157976676Y-79399234D01*
X157976676Y-79399234D02*
X157910009Y-79265901D01*
X157443343Y-79865901D02*
X157510009Y-79732568D01*
X157510009Y-79732568D02*
X157510009Y-79465901D01*
X157510009Y-79465901D02*
X157443343Y-79332568D01*
X157443343Y-79332568D02*
X157376676Y-79265901D01*
X157376676Y-79265901D02*
X157243343Y-79199234D01*
X157243343Y-79199234D02*
X156843343Y-79199234D01*
X156843343Y-79199234D02*
X156710009Y-79265901D01*
X156710009Y-79265901D02*
X156643343Y-79332568D01*
X156643343Y-79332568D02*
X156576676Y-79465901D01*
X156576676Y-79465901D02*
X156576676Y-79732568D01*
X156576676Y-79732568D02*
X156643343Y-79865901D01*
X156043343Y-81532568D02*
X157843343Y-80332568D01*
X157510009Y-81999235D02*
X156576676Y-81999235D01*
X156843343Y-81999235D02*
X156710009Y-82065902D01*
X156710009Y-82065902D02*
X156643343Y-82132568D01*
X156643343Y-82132568D02*
X156576676Y-82265902D01*
X156576676Y-82265902D02*
X156576676Y-82399235D01*
X157443343Y-83399235D02*
X157510009Y-83265902D01*
X157510009Y-83265902D02*
X157510009Y-82999235D01*
X157510009Y-82999235D02*
X157443343Y-82865902D01*
X157443343Y-82865902D02*
X157310009Y-82799235D01*
X157310009Y-82799235D02*
X156776676Y-82799235D01*
X156776676Y-82799235D02*
X156643343Y-82865902D01*
X156643343Y-82865902D02*
X156576676Y-82999235D01*
X156576676Y-82999235D02*
X156576676Y-83265902D01*
X156576676Y-83265902D02*
X156643343Y-83399235D01*
X156643343Y-83399235D02*
X156776676Y-83465902D01*
X156776676Y-83465902D02*
X156910009Y-83465902D01*
X156910009Y-83465902D02*
X157043343Y-82799235D01*
X157510009Y-84065902D02*
X156576676Y-84065902D01*
X156710009Y-84065902D02*
X156643343Y-84132569D01*
X156643343Y-84132569D02*
X156576676Y-84265902D01*
X156576676Y-84265902D02*
X156576676Y-84465902D01*
X156576676Y-84465902D02*
X156643343Y-84599235D01*
X156643343Y-84599235D02*
X156776676Y-84665902D01*
X156776676Y-84665902D02*
X157510009Y-84665902D01*
X156776676Y-84665902D02*
X156643343Y-84732569D01*
X156643343Y-84732569D02*
X156576676Y-84865902D01*
X156576676Y-84865902D02*
X156576676Y-85065902D01*
X156576676Y-85065902D02*
X156643343Y-85199235D01*
X156643343Y-85199235D02*
X156776676Y-85265902D01*
X156776676Y-85265902D02*
X157510009Y-85265902D01*
X157510009Y-86132569D02*
X157443343Y-85999236D01*
X157443343Y-85999236D02*
X157376676Y-85932569D01*
X157376676Y-85932569D02*
X157243343Y-85865902D01*
X157243343Y-85865902D02*
X156843343Y-85865902D01*
X156843343Y-85865902D02*
X156710009Y-85932569D01*
X156710009Y-85932569D02*
X156643343Y-85999236D01*
X156643343Y-85999236D02*
X156576676Y-86132569D01*
X156576676Y-86132569D02*
X156576676Y-86332569D01*
X156576676Y-86332569D02*
X156643343Y-86465902D01*
X156643343Y-86465902D02*
X156710009Y-86532569D01*
X156710009Y-86532569D02*
X156843343Y-86599236D01*
X156843343Y-86599236D02*
X157243343Y-86599236D01*
X157243343Y-86599236D02*
X157376676Y-86532569D01*
X157376676Y-86532569D02*
X157443343Y-86465902D01*
X157443343Y-86465902D02*
X157510009Y-86332569D01*
X157510009Y-86332569D02*
X157510009Y-86132569D01*
X156576676Y-86999236D02*
X156576676Y-87532569D01*
X156110009Y-87199236D02*
X157310009Y-87199236D01*
X157310009Y-87199236D02*
X157443343Y-87265903D01*
X157443343Y-87265903D02*
X157510009Y-87399236D01*
X157510009Y-87399236D02*
X157510009Y-87532569D01*
X157443343Y-88532569D02*
X157510009Y-88399236D01*
X157510009Y-88399236D02*
X157510009Y-88132569D01*
X157510009Y-88132569D02*
X157443343Y-87999236D01*
X157443343Y-87999236D02*
X157310009Y-87932569D01*
X157310009Y-87932569D02*
X156776676Y-87932569D01*
X156776676Y-87932569D02*
X156643343Y-87999236D01*
X156643343Y-87999236D02*
X156576676Y-88132569D01*
X156576676Y-88132569D02*
X156576676Y-88399236D01*
X156576676Y-88399236D02*
X156643343Y-88532569D01*
X156643343Y-88532569D02*
X156776676Y-88599236D01*
X156776676Y-88599236D02*
X156910009Y-88599236D01*
X156910009Y-88599236D02*
X157043343Y-87932569D01*
X157643343Y-88865903D02*
X157643343Y-89932569D01*
X156576676Y-90265903D02*
X157976676Y-90265903D01*
X156643343Y-90265903D02*
X156576676Y-90399236D01*
X156576676Y-90399236D02*
X156576676Y-90665903D01*
X156576676Y-90665903D02*
X156643343Y-90799236D01*
X156643343Y-90799236D02*
X156710009Y-90865903D01*
X156710009Y-90865903D02*
X156843343Y-90932570D01*
X156843343Y-90932570D02*
X157243343Y-90932570D01*
X157243343Y-90932570D02*
X157376676Y-90865903D01*
X157376676Y-90865903D02*
X157443343Y-90799236D01*
X157443343Y-90799236D02*
X157510009Y-90665903D01*
X157510009Y-90665903D02*
X157510009Y-90399236D01*
X157510009Y-90399236D02*
X157443343Y-90265903D01*
X157510009Y-91732570D02*
X157443343Y-91599237D01*
X157443343Y-91599237D02*
X157376676Y-91532570D01*
X157376676Y-91532570D02*
X157243343Y-91465903D01*
X157243343Y-91465903D02*
X156843343Y-91465903D01*
X156843343Y-91465903D02*
X156710009Y-91532570D01*
X156710009Y-91532570D02*
X156643343Y-91599237D01*
X156643343Y-91599237D02*
X156576676Y-91732570D01*
X156576676Y-91732570D02*
X156576676Y-91932570D01*
X156576676Y-91932570D02*
X156643343Y-92065903D01*
X156643343Y-92065903D02*
X156710009Y-92132570D01*
X156710009Y-92132570D02*
X156843343Y-92199237D01*
X156843343Y-92199237D02*
X157243343Y-92199237D01*
X157243343Y-92199237D02*
X157376676Y-92132570D01*
X157376676Y-92132570D02*
X157443343Y-92065903D01*
X157443343Y-92065903D02*
X157510009Y-91932570D01*
X157510009Y-91932570D02*
X157510009Y-91732570D01*
X157510009Y-92999237D02*
X157443343Y-92865904D01*
X157443343Y-92865904D02*
X157376676Y-92799237D01*
X157376676Y-92799237D02*
X157243343Y-92732570D01*
X157243343Y-92732570D02*
X156843343Y-92732570D01*
X156843343Y-92732570D02*
X156710009Y-92799237D01*
X156710009Y-92799237D02*
X156643343Y-92865904D01*
X156643343Y-92865904D02*
X156576676Y-92999237D01*
X156576676Y-92999237D02*
X156576676Y-93199237D01*
X156576676Y-93199237D02*
X156643343Y-93332570D01*
X156643343Y-93332570D02*
X156710009Y-93399237D01*
X156710009Y-93399237D02*
X156843343Y-93465904D01*
X156843343Y-93465904D02*
X157243343Y-93465904D01*
X157243343Y-93465904D02*
X157376676Y-93399237D01*
X157376676Y-93399237D02*
X157443343Y-93332570D01*
X157443343Y-93332570D02*
X157510009Y-93199237D01*
X157510009Y-93199237D02*
X157510009Y-92999237D01*
X157510009Y-94265904D02*
X157443343Y-94132571D01*
X157443343Y-94132571D02*
X157310009Y-94065904D01*
X157310009Y-94065904D02*
X156110009Y-94065904D01*
X157643343Y-94465904D02*
X157643343Y-95532570D01*
X156576676Y-95865904D02*
X157976676Y-95865904D01*
X156643343Y-95865904D02*
X156576676Y-95999237D01*
X156576676Y-95999237D02*
X156576676Y-96265904D01*
X156576676Y-96265904D02*
X156643343Y-96399237D01*
X156643343Y-96399237D02*
X156710009Y-96465904D01*
X156710009Y-96465904D02*
X156843343Y-96532571D01*
X156843343Y-96532571D02*
X157243343Y-96532571D01*
X157243343Y-96532571D02*
X157376676Y-96465904D01*
X157376676Y-96465904D02*
X157443343Y-96399237D01*
X157443343Y-96399237D02*
X157510009Y-96265904D01*
X157510009Y-96265904D02*
X157510009Y-95999237D01*
X157510009Y-95999237D02*
X157443343Y-95865904D01*
X157510009Y-97132571D02*
X156576676Y-97132571D01*
X156110009Y-97132571D02*
X156176676Y-97065904D01*
X156176676Y-97065904D02*
X156243343Y-97132571D01*
X156243343Y-97132571D02*
X156176676Y-97199238D01*
X156176676Y-97199238D02*
X156110009Y-97132571D01*
X156110009Y-97132571D02*
X156243343Y-97132571D01*
D11*
X108703333Y-50724819D02*
X108703333Y-51439104D01*
X108703333Y-51439104D02*
X108750952Y-51581961D01*
X108750952Y-51581961D02*
X108846190Y-51677200D01*
X108846190Y-51677200D02*
X108989047Y-51724819D01*
X108989047Y-51724819D02*
X109084285Y-51724819D01*
X108274761Y-50820057D02*
X108227142Y-50772438D01*
X108227142Y-50772438D02*
X108131904Y-50724819D01*
X108131904Y-50724819D02*
X107893809Y-50724819D01*
X107893809Y-50724819D02*
X107798571Y-50772438D01*
X107798571Y-50772438D02*
X107750952Y-50820057D01*
X107750952Y-50820057D02*
X107703333Y-50915295D01*
X107703333Y-50915295D02*
X107703333Y-51010533D01*
X107703333Y-51010533D02*
X107750952Y-51153390D01*
X107750952Y-51153390D02*
X108322380Y-51724819D01*
X108322380Y-51724819D02*
X107703333Y-51724819D01*
X116464621Y-52929947D02*
X116464621Y-51929671D01*
X116464621Y-51929671D02*
X116083563Y-51929671D01*
X116083563Y-51929671D02*
X115988299Y-51977303D01*
X115988299Y-51977303D02*
X115940666Y-52024935D01*
X115940666Y-52024935D02*
X115893034Y-52120199D01*
X115893034Y-52120199D02*
X115893034Y-52263096D01*
X115893034Y-52263096D02*
X115940666Y-52358360D01*
X115940666Y-52358360D02*
X115988299Y-52405993D01*
X115988299Y-52405993D02*
X116083563Y-52453625D01*
X116083563Y-52453625D02*
X116464621Y-52453625D01*
X115511977Y-52882315D02*
X115369080Y-52929947D01*
X115369080Y-52929947D02*
X115130919Y-52929947D01*
X115130919Y-52929947D02*
X115035655Y-52882315D01*
X115035655Y-52882315D02*
X114988023Y-52834682D01*
X114988023Y-52834682D02*
X114940390Y-52739418D01*
X114940390Y-52739418D02*
X114940390Y-52644154D01*
X114940390Y-52644154D02*
X114988023Y-52548889D01*
X114988023Y-52548889D02*
X115035655Y-52501257D01*
X115035655Y-52501257D02*
X115130919Y-52453625D01*
X115130919Y-52453625D02*
X115321448Y-52405993D01*
X115321448Y-52405993D02*
X115416712Y-52358360D01*
X115416712Y-52358360D02*
X115464345Y-52310728D01*
X115464345Y-52310728D02*
X115511977Y-52215464D01*
X115511977Y-52215464D02*
X115511977Y-52120199D01*
X115511977Y-52120199D02*
X115464345Y-52024935D01*
X115464345Y-52024935D02*
X115416712Y-51977303D01*
X115416712Y-51977303D02*
X115321448Y-51929671D01*
X115321448Y-51929671D02*
X115083287Y-51929671D01*
X115083287Y-51929671D02*
X114940390Y-51977303D01*
X113987746Y-52929947D02*
X114559333Y-52929947D01*
X114273540Y-52929947D02*
X114273540Y-51929671D01*
X114273540Y-51929671D02*
X114368804Y-52072567D01*
X114368804Y-52072567D02*
X114464068Y-52167832D01*
X114464068Y-52167832D02*
X114559333Y-52215464D01*
D12*
X107040000Y-44900000D02*
X107040000Y-47500000D01*
X107040000Y-44900000D02*
X157960000Y-44900000D01*
X107040000Y-47500000D02*
X109640000Y-47500000D01*
X107040000Y-48770000D02*
X107040000Y-50100000D01*
X107040000Y-50100000D02*
X108370000Y-50100000D01*
X109640000Y-47500000D02*
X109640000Y-50100000D01*
X109640000Y-50100000D02*
X157960000Y-50100000D01*
X157960000Y-44900000D02*
X157960000Y-50100000D01*
D13*
X103425000Y-53700000D02*
X127825000Y-53700000D01*
X103425000Y-81600000D02*
X103425000Y-53700000D01*
X127825000Y-53700000D02*
X127825000Y-81600000D01*
X127825000Y-81600000D02*
X103425000Y-81600000D01*
D14*
X118305000Y-53050000D02*
G75*
G02*
X118025000Y-53050000I-140000J0D01*
G01*
X118025000Y-53050000D02*
G75*
G02*
X118305000Y-53050000I140000J0D01*
G01*
%LPC*%
D15*
X161500000Y-47500000D03*
D16*
X147075000Y-94325000D03*
D17*
X153075000Y-94325000D03*
D18*
X145755000Y-93600000D03*
D19*
X145755000Y-97425000D03*
D18*
X154395000Y-93600000D03*
D19*
X154395000Y-97425000D03*
D15*
X103500000Y-96500000D03*
X103500000Y-47500000D03*
D20*
X116510000Y-97600000D03*
D21*
X119050000Y-97600000D03*
D15*
X161500000Y-96500000D03*
D22*
X129055000Y-90721000D03*
X130325000Y-88181000D03*
X131595000Y-90721000D03*
X132865000Y-88181000D03*
X134135000Y-90721000D03*
X135405000Y-88181000D03*
X136675000Y-90721000D03*
X137945000Y-88181000D03*
D23*
X127785000Y-97071000D03*
X139215000Y-97071000D03*
D20*
X108370000Y-48770000D03*
D21*
X108370000Y-46230000D03*
X110910000Y-48770000D03*
X110910000Y-46230000D03*
X113450000Y-48770000D03*
X113450000Y-46230000D03*
X115990000Y-48770000D03*
X115990000Y-46230000D03*
X118530000Y-48770000D03*
X118530000Y-46230000D03*
X121070000Y-48770000D03*
X121070000Y-46230000D03*
X123610000Y-48770000D03*
X123610000Y-46230000D03*
X126150000Y-48770000D03*
X126150000Y-46230000D03*
X128690000Y-48770000D03*
X128690000Y-46230000D03*
X131230000Y-48770000D03*
X131230000Y-46230000D03*
X133770000Y-48770000D03*
X133770000Y-46230000D03*
X136310000Y-48770000D03*
X136310000Y-46230000D03*
X138850000Y-48770000D03*
X138850000Y-46230000D03*
X141390000Y-48770000D03*
X141390000Y-46230000D03*
X143930000Y-48770000D03*
X143930000Y-46230000D03*
X146470000Y-48770000D03*
X146470000Y-46230000D03*
X149010000Y-48770000D03*
X149010000Y-46230000D03*
X151550000Y-48770000D03*
X151550000Y-46230000D03*
X154090000Y-48770000D03*
X154090000Y-46230000D03*
X156630000Y-48770000D03*
X156630000Y-46230000D03*
D24*
X118165000Y-57490000D03*
D25*
X113085000Y-57490000D03*
X105465000Y-57490000D03*
X105465000Y-77810000D03*
X115625000Y-77810000D03*
X125785000Y-77810000D03*
%LPD*%
M02*
