G04 #@! TF.GenerationSoftware,KiCad,Pcbnew,8.0.0*
G04 #@! TF.CreationDate,2024-07-06T17:56:43-07:00*
G04 #@! TF.ProjectId,rpi_hat_v1,7270695f-6861-4745-9f76-312e6b696361,rev?*
G04 #@! TF.SameCoordinates,Original*
G04 #@! TF.FileFunction,Copper,L4,Bot*
G04 #@! TF.FilePolarity,Positive*
%FSLAX46Y46*%
G04 Gerber Fmt 4.6, Leading zero omitted, Abs format (unit mm)*
G04 Created by KiCad (PCBNEW 8.0.0) date 2024-07-06 17:56:43*
%MOMM*%
%LPD*%
G01*
G04 APERTURE LIST*
G04 #@! TA.AperFunction,ComponentPad*
%ADD10O,1.300000X2.300000*%
G04 #@! TD*
G04 #@! TA.AperFunction,ComponentPad*
%ADD11O,1.300000X2.600000*%
G04 #@! TD*
G04 #@! TA.AperFunction,ComponentPad*
%ADD12R,1.700000X1.700000*%
G04 #@! TD*
G04 #@! TA.AperFunction,ComponentPad*
%ADD13O,1.700000X1.700000*%
G04 #@! TD*
G04 #@! TA.AperFunction,ComponentPad*
%ADD14C,1.270000*%
G04 #@! TD*
G04 #@! TA.AperFunction,ComponentPad*
%ADD15C,3.810000*%
G04 #@! TD*
G04 #@! TA.AperFunction,ComponentPad*
%ADD16R,1.710000X1.710000*%
G04 #@! TD*
G04 #@! TA.AperFunction,ComponentPad*
%ADD17C,1.710000*%
G04 #@! TD*
G04 #@! TA.AperFunction,ViaPad*
%ADD18C,1.000000*%
G04 #@! TD*
G04 #@! TA.AperFunction,ViaPad*
%ADD19C,0.900000*%
G04 #@! TD*
G04 #@! TA.AperFunction,ViaPad*
%ADD20C,2.000000*%
G04 #@! TD*
G04 #@! TA.AperFunction,Conductor*
%ADD21C,0.200000*%
G04 #@! TD*
G04 #@! TA.AperFunction,Conductor*
%ADD22C,0.762000*%
G04 #@! TD*
G04 APERTURE END LIST*
D10*
X145755000Y-93600000D03*
D11*
X145755000Y-97425000D03*
D10*
X154395000Y-93600000D03*
D11*
X154395000Y-97425000D03*
D12*
X116510000Y-97600000D03*
D13*
X119050000Y-97600000D03*
D14*
X129055000Y-90721000D03*
X130325000Y-88181000D03*
X131595000Y-90721000D03*
X132865000Y-88181000D03*
X134135000Y-90721000D03*
X135405000Y-88181000D03*
X136675000Y-90721000D03*
X137945000Y-88181000D03*
D15*
X127785000Y-97071000D03*
X139215000Y-97071000D03*
D12*
X108370000Y-48770000D03*
D13*
X108370000Y-46230000D03*
X110910000Y-48770000D03*
X110910000Y-46230000D03*
X113450000Y-48770000D03*
X113450000Y-46230000D03*
X115990000Y-48770000D03*
X115990000Y-46230000D03*
X118530000Y-48770000D03*
X118530000Y-46230000D03*
X121070000Y-48770000D03*
X121070000Y-46230000D03*
X123610000Y-48770000D03*
X123610000Y-46230000D03*
X126150000Y-48770000D03*
X126150000Y-46230000D03*
X128690000Y-48770000D03*
X128690000Y-46230000D03*
X131230000Y-48770000D03*
X131230000Y-46230000D03*
X133770000Y-48770000D03*
X133770000Y-46230000D03*
X136310000Y-48770000D03*
X136310000Y-46230000D03*
X138850000Y-48770000D03*
X138850000Y-46230000D03*
X141390000Y-48770000D03*
X141390000Y-46230000D03*
X143930000Y-48770000D03*
X143930000Y-46230000D03*
X146470000Y-48770000D03*
X146470000Y-46230000D03*
X149010000Y-48770000D03*
X149010000Y-46230000D03*
X151550000Y-48770000D03*
X151550000Y-46230000D03*
X154090000Y-48770000D03*
X154090000Y-46230000D03*
X156630000Y-48770000D03*
X156630000Y-46230000D03*
D16*
X118165000Y-57490000D03*
D17*
X113085000Y-57490000D03*
X105465000Y-57490000D03*
X105465000Y-77810000D03*
X115625000Y-77810000D03*
X125785000Y-77810000D03*
D18*
X146975000Y-72050000D03*
X157025000Y-83725000D03*
X158275000Y-78350000D03*
X156200000Y-56475000D03*
X121275000Y-52475000D03*
X108975000Y-63700000D03*
X160100000Y-74425000D03*
X151975000Y-78600000D03*
X134350000Y-55675000D03*
X155775000Y-72325000D03*
X148575000Y-79250000D03*
X150650000Y-64700000D03*
D19*
X134550000Y-60875000D03*
X140100000Y-83400000D03*
X101275000Y-71725000D03*
X123200000Y-65425000D03*
X128300000Y-73550000D03*
X101650000Y-69300000D03*
X133900000Y-74675000D03*
X133725000Y-65825000D03*
X120225000Y-79350000D03*
X127150000Y-82900000D03*
X136250000Y-80050000D03*
X121075000Y-66050000D03*
X106875000Y-73175000D03*
X134300000Y-64475000D03*
X134225000Y-71150000D03*
X126425000Y-70775000D03*
D20*
X110175000Y-84975000D03*
D19*
X105875000Y-65975000D03*
X135164431Y-83264431D03*
X131975000Y-79625000D03*
X117300000Y-72850000D03*
X127675000Y-79150000D03*
X131400000Y-83050000D03*
X132699817Y-81608118D03*
X136325000Y-83175000D03*
X137475000Y-83175000D03*
X132699817Y-80458118D03*
X120325000Y-58750000D03*
X155161750Y-86290107D03*
X155161750Y-76525000D03*
X156311750Y-86290107D03*
X156311750Y-76525000D03*
X161800000Y-69825000D03*
X159800000Y-73075000D03*
X163300000Y-71725000D03*
X161657169Y-68392831D03*
X163325000Y-69450000D03*
X127950000Y-56825000D03*
X109575000Y-70275000D03*
X111625000Y-69100000D03*
X126825000Y-56600000D03*
D21*
X134225000Y-71150000D02*
X133850000Y-70775000D01*
X133850000Y-70775000D02*
X126425000Y-70775000D01*
X114875000Y-71100000D02*
X108950000Y-71100000D01*
X121075000Y-66050000D02*
X119925000Y-66050000D01*
X132725000Y-64475000D02*
X126425000Y-70775000D01*
X119925000Y-66050000D02*
X114875000Y-71100000D01*
X108950000Y-71100000D02*
X106875000Y-73175000D01*
X134300000Y-64475000D02*
X132725000Y-64475000D01*
D22*
X134189000Y-89397000D02*
X114597000Y-89397000D01*
X135405000Y-88181000D02*
X134189000Y-89397000D01*
X114597000Y-89397000D02*
X110175000Y-84975000D01*
D21*
X108735661Y-72375000D02*
X107975000Y-73135661D01*
X134950000Y-83050000D02*
X135164431Y-83264431D01*
X131400000Y-83050000D02*
X131400000Y-80200000D01*
X105350000Y-73500000D02*
X105350000Y-72750000D01*
X107975000Y-73135661D02*
X107975000Y-74625000D01*
X131400000Y-80200000D02*
X131975000Y-79625000D01*
X107975000Y-74625000D02*
X107500000Y-75100000D01*
X116825000Y-72375000D02*
X115750000Y-72375000D01*
X127675000Y-79325000D02*
X127675000Y-79150000D01*
X117300000Y-72850000D02*
X116825000Y-72375000D01*
X106950000Y-75100000D02*
X105350000Y-73500000D01*
X131400000Y-83050000D02*
X127675000Y-79325000D01*
X105350000Y-72750000D02*
X105350000Y-66500000D01*
X105350000Y-66500000D02*
X105875000Y-65975000D01*
X131400000Y-83050000D02*
X134950000Y-83050000D01*
X107500000Y-75100000D02*
X106950000Y-75100000D01*
X115750000Y-72375000D02*
X108735661Y-72375000D01*
X136325000Y-83175000D02*
X136325000Y-82661397D01*
X134921722Y-81258119D02*
X133049816Y-81258119D01*
X133049816Y-81258119D02*
X132699817Y-81608118D01*
X136325000Y-82661397D02*
X134921722Y-81258119D01*
X133049816Y-80808117D02*
X132699817Y-80458118D01*
X137475000Y-83175000D02*
X135108117Y-80808117D01*
X135108117Y-80808117D02*
X133049816Y-80808117D01*
X119275000Y-59900000D02*
X106375000Y-59900000D01*
X105465000Y-58990000D02*
X105465000Y-57490000D01*
X106375000Y-59900000D02*
X105465000Y-58990000D01*
X120325000Y-58850000D02*
X119275000Y-59900000D01*
X120325000Y-58750000D02*
X120325000Y-58850000D01*
X155511749Y-76874999D02*
X155161750Y-76525000D01*
X155511749Y-85940108D02*
X155511749Y-76874999D01*
X155161750Y-86290107D02*
X155511749Y-85940108D01*
X156311750Y-86290107D02*
X155961751Y-85940108D01*
X155961751Y-85940108D02*
X155961751Y-76874999D01*
X155961751Y-76874999D02*
X156311750Y-76525000D01*
X159800000Y-73075000D02*
X161800000Y-71075000D01*
X161800000Y-71075000D02*
X161800000Y-69825000D01*
X163300000Y-71725000D02*
X161800000Y-70225000D01*
X161800000Y-70225000D02*
X161800000Y-69825000D01*
X163325000Y-69450000D02*
X162714338Y-69450000D01*
X162714338Y-69450000D02*
X161657169Y-68392831D01*
X127950000Y-56825000D02*
X114500000Y-70275000D01*
X114500000Y-70275000D02*
X109575000Y-70275000D01*
X111950000Y-69825000D02*
X111625000Y-69500000D01*
X126825000Y-56600000D02*
X126825000Y-57384314D01*
X126825000Y-57384314D02*
X114384314Y-69825000D01*
X114384314Y-69825000D02*
X111950000Y-69825000D01*
X111625000Y-69500000D02*
X111625000Y-69100000D01*
G04 #@! TA.AperFunction,Conductor*
G36*
X162003471Y-44400695D02*
G01*
X162041470Y-44402828D01*
X162284106Y-44416454D01*
X162297909Y-44418010D01*
X162571584Y-44464509D01*
X162585123Y-44467599D01*
X162851874Y-44544449D01*
X162864993Y-44549040D01*
X163121445Y-44655265D01*
X163133967Y-44661294D01*
X163320623Y-44764456D01*
X163376921Y-44795571D01*
X163388695Y-44802969D01*
X163615081Y-44963598D01*
X163625953Y-44972268D01*
X163785750Y-45115072D01*
X163832931Y-45157235D01*
X163842762Y-45167066D01*
X163867457Y-45194700D01*
X164027731Y-45374046D01*
X164036401Y-45384918D01*
X164197030Y-45611304D01*
X164204428Y-45623078D01*
X164338701Y-45866025D01*
X164344734Y-45878554D01*
X164450959Y-46135006D01*
X164455552Y-46148130D01*
X164532397Y-46414865D01*
X164535491Y-46428422D01*
X164581988Y-46702082D01*
X164583545Y-46715900D01*
X164599305Y-46996527D01*
X164599500Y-47003480D01*
X164599500Y-96996519D01*
X164599305Y-97003472D01*
X164583545Y-97284099D01*
X164581988Y-97297917D01*
X164535491Y-97571577D01*
X164532397Y-97585134D01*
X164455552Y-97851869D01*
X164450959Y-97864993D01*
X164344734Y-98121445D01*
X164338701Y-98133974D01*
X164204428Y-98376921D01*
X164197030Y-98388695D01*
X164036401Y-98615081D01*
X164027731Y-98625953D01*
X163842764Y-98832931D01*
X163832931Y-98842764D01*
X163625953Y-99027731D01*
X163615081Y-99036401D01*
X163388695Y-99197030D01*
X163376921Y-99204428D01*
X163133974Y-99338701D01*
X163121445Y-99344734D01*
X162864993Y-99450959D01*
X162851869Y-99455552D01*
X162585134Y-99532397D01*
X162571577Y-99535491D01*
X162297917Y-99581988D01*
X162284099Y-99583545D01*
X162003472Y-99599305D01*
X161996519Y-99599500D01*
X103003481Y-99599500D01*
X102996528Y-99599305D01*
X102715900Y-99583545D01*
X102702082Y-99581988D01*
X102428422Y-99535491D01*
X102414865Y-99532397D01*
X102148130Y-99455552D01*
X102135006Y-99450959D01*
X101878554Y-99344734D01*
X101866025Y-99338701D01*
X101623078Y-99204428D01*
X101611304Y-99197030D01*
X101384918Y-99036401D01*
X101374046Y-99027731D01*
X101270557Y-98935247D01*
X101167066Y-98842762D01*
X101157235Y-98832931D01*
X100972268Y-98625953D01*
X100963598Y-98615081D01*
X100860482Y-98469752D01*
X115459500Y-98469752D01*
X115471131Y-98528229D01*
X115471132Y-98528230D01*
X115515447Y-98594552D01*
X115581769Y-98638867D01*
X115581770Y-98638868D01*
X115640247Y-98650499D01*
X115640250Y-98650500D01*
X115640252Y-98650500D01*
X117379750Y-98650500D01*
X117379751Y-98650499D01*
X117394568Y-98647552D01*
X117438229Y-98638868D01*
X117438229Y-98638867D01*
X117438231Y-98638867D01*
X117504552Y-98594552D01*
X117548867Y-98528231D01*
X117548867Y-98528229D01*
X117548868Y-98528229D01*
X117557552Y-98484568D01*
X117560500Y-98469748D01*
X117560500Y-98159456D01*
X117580185Y-98092417D01*
X117632989Y-98046662D01*
X117702147Y-98036718D01*
X117765703Y-98065743D01*
X117796882Y-98107051D01*
X117876400Y-98277578D01*
X118011894Y-98471082D01*
X118178917Y-98638105D01*
X118372421Y-98773600D01*
X118586507Y-98873429D01*
X118586516Y-98873433D01*
X118800000Y-98930634D01*
X118800000Y-98033012D01*
X118857007Y-98065925D01*
X118984174Y-98100000D01*
X119115826Y-98100000D01*
X119242993Y-98065925D01*
X119300000Y-98033012D01*
X119300000Y-98930633D01*
X119513483Y-98873433D01*
X119513492Y-98873429D01*
X119727578Y-98773600D01*
X119921082Y-98638105D01*
X120088105Y-98471082D01*
X120223600Y-98277578D01*
X120323429Y-98063492D01*
X120323432Y-98063486D01*
X120380636Y-97850000D01*
X119483012Y-97850000D01*
X119515925Y-97792993D01*
X119550000Y-97665826D01*
X119550000Y-97534174D01*
X119515925Y-97407007D01*
X119483012Y-97350000D01*
X120380636Y-97350000D01*
X120380635Y-97349999D01*
X120323432Y-97136513D01*
X120323429Y-97136507D01*
X120292883Y-97071000D01*
X125674580Y-97071000D01*
X125694236Y-97358363D01*
X125752840Y-97640387D01*
X125752841Y-97640390D01*
X125849297Y-97911790D01*
X125849296Y-97911790D01*
X125981816Y-98167541D01*
X125981820Y-98167547D01*
X126147920Y-98402858D01*
X126344529Y-98613374D01*
X126469500Y-98715045D01*
X126567962Y-98795150D01*
X126567964Y-98795151D01*
X126567965Y-98795152D01*
X126814071Y-98944812D01*
X127004971Y-99027731D01*
X127078263Y-99059566D01*
X127355622Y-99137279D01*
X127606497Y-99171760D01*
X127640979Y-99176500D01*
X127640980Y-99176500D01*
X127929021Y-99176500D01*
X127959785Y-99172271D01*
X128214378Y-99137279D01*
X128491737Y-99059566D01*
X128755930Y-98944811D01*
X129002038Y-98795150D01*
X129225474Y-98613371D01*
X129422077Y-98402861D01*
X129588184Y-98167540D01*
X129720701Y-97911794D01*
X129817160Y-97640385D01*
X129875763Y-97358369D01*
X129895420Y-97071000D01*
X137104580Y-97071000D01*
X137124236Y-97358363D01*
X137182840Y-97640387D01*
X137182841Y-97640390D01*
X137279297Y-97911790D01*
X137279296Y-97911790D01*
X137411816Y-98167541D01*
X137411820Y-98167547D01*
X137577920Y-98402858D01*
X137774529Y-98613374D01*
X137899500Y-98715045D01*
X137997962Y-98795150D01*
X137997964Y-98795151D01*
X137997965Y-98795152D01*
X138244071Y-98944812D01*
X138434971Y-99027731D01*
X138508263Y-99059566D01*
X138785622Y-99137279D01*
X139036497Y-99171760D01*
X139070979Y-99176500D01*
X139070980Y-99176500D01*
X139359021Y-99176500D01*
X139389785Y-99172271D01*
X139644378Y-99137279D01*
X139921737Y-99059566D01*
X140185930Y-98944811D01*
X140432038Y-98795150D01*
X140655474Y-98613371D01*
X140852077Y-98402861D01*
X141018184Y-98167540D01*
X141019238Y-98165506D01*
X144605000Y-98165506D01*
X144633317Y-98344293D01*
X144689251Y-98516444D01*
X144689252Y-98516447D01*
X144771434Y-98677734D01*
X144877823Y-98824169D01*
X145005830Y-98952176D01*
X145152265Y-99058565D01*
X145313552Y-99140747D01*
X145313555Y-99140748D01*
X145485699Y-99196680D01*
X145485712Y-99196683D01*
X145505000Y-99199738D01*
X145505000Y-98241988D01*
X145514940Y-98259205D01*
X145570795Y-98315060D01*
X145639204Y-98354556D01*
X145715504Y-98375000D01*
X145794496Y-98375000D01*
X145870796Y-98354556D01*
X145939205Y-98315060D01*
X145995060Y-98259205D01*
X146005000Y-98241988D01*
X146005000Y-99199737D01*
X146024287Y-99196683D01*
X146024300Y-99196680D01*
X146196444Y-99140748D01*
X146196447Y-99140747D01*
X146357734Y-99058565D01*
X146504169Y-98952176D01*
X146632176Y-98824169D01*
X146738565Y-98677734D01*
X146820747Y-98516447D01*
X146820748Y-98516444D01*
X146876682Y-98344293D01*
X146905000Y-98165506D01*
X153245000Y-98165506D01*
X153273317Y-98344293D01*
X153329251Y-98516444D01*
X153329252Y-98516447D01*
X153411434Y-98677734D01*
X153517823Y-98824169D01*
X153645830Y-98952176D01*
X153792265Y-99058565D01*
X153953552Y-99140747D01*
X153953555Y-99140748D01*
X154125699Y-99196680D01*
X154125712Y-99196683D01*
X154145000Y-99199738D01*
X154145000Y-98241988D01*
X154154940Y-98259205D01*
X154210795Y-98315060D01*
X154279204Y-98354556D01*
X154355504Y-98375000D01*
X154434496Y-98375000D01*
X154510796Y-98354556D01*
X154579205Y-98315060D01*
X154635060Y-98259205D01*
X154645000Y-98241988D01*
X154645000Y-99199737D01*
X154664287Y-99196683D01*
X154664300Y-99196680D01*
X154836444Y-99140748D01*
X154836447Y-99140747D01*
X154997734Y-99058565D01*
X155144169Y-98952176D01*
X155272176Y-98824169D01*
X155378565Y-98677734D01*
X155460747Y-98516447D01*
X155460748Y-98516444D01*
X155516682Y-98344293D01*
X155545000Y-98165506D01*
X155545000Y-97675000D01*
X154695000Y-97675000D01*
X154695000Y-97175000D01*
X155545000Y-97175000D01*
X155545000Y-96684493D01*
X155516682Y-96505706D01*
X155460748Y-96333555D01*
X155460747Y-96333552D01*
X155378565Y-96172265D01*
X155272176Y-96025830D01*
X155144169Y-95897823D01*
X154997734Y-95791434D01*
X154836447Y-95709252D01*
X154836441Y-95709250D01*
X154664295Y-95653318D01*
X154664285Y-95653315D01*
X154645000Y-95650260D01*
X154645000Y-96608011D01*
X154635060Y-96590795D01*
X154579205Y-96534940D01*
X154510796Y-96495444D01*
X154434496Y-96475000D01*
X154355504Y-96475000D01*
X154279204Y-96495444D01*
X154210795Y-96534940D01*
X154154940Y-96590795D01*
X154145000Y-96608011D01*
X154145000Y-95650260D01*
X154125714Y-95653315D01*
X154125704Y-95653318D01*
X153953558Y-95709250D01*
X153953552Y-95709252D01*
X153792265Y-95791434D01*
X153645830Y-95897823D01*
X153517823Y-96025830D01*
X153411434Y-96172265D01*
X153329252Y-96333552D01*
X153329251Y-96333555D01*
X153273317Y-96505706D01*
X153245000Y-96684493D01*
X153245000Y-97175000D01*
X154095000Y-97175000D01*
X154095000Y-97675000D01*
X153245000Y-97675000D01*
X153245000Y-98165506D01*
X146905000Y-98165506D01*
X146905000Y-97675000D01*
X146055000Y-97675000D01*
X146055000Y-97175000D01*
X146905000Y-97175000D01*
X146905000Y-96684493D01*
X146876682Y-96505706D01*
X146820748Y-96333555D01*
X146820747Y-96333552D01*
X146738565Y-96172265D01*
X146632176Y-96025830D01*
X146504169Y-95897823D01*
X146357734Y-95791434D01*
X146196447Y-95709252D01*
X146196441Y-95709250D01*
X146024295Y-95653318D01*
X146024285Y-95653315D01*
X146005000Y-95650260D01*
X146005000Y-96608011D01*
X145995060Y-96590795D01*
X145939205Y-96534940D01*
X145870796Y-96495444D01*
X145794496Y-96475000D01*
X145715504Y-96475000D01*
X145639204Y-96495444D01*
X145570795Y-96534940D01*
X145514940Y-96590795D01*
X145505000Y-96608011D01*
X145505000Y-95650260D01*
X145485714Y-95653315D01*
X145485704Y-95653318D01*
X145313558Y-95709250D01*
X145313552Y-95709252D01*
X145152265Y-95791434D01*
X145005830Y-95897823D01*
X144877823Y-96025830D01*
X144771434Y-96172265D01*
X144689252Y-96333552D01*
X144689251Y-96333555D01*
X144633317Y-96505706D01*
X144605000Y-96684493D01*
X144605000Y-97175000D01*
X145455000Y-97175000D01*
X145455000Y-97675000D01*
X144605000Y-97675000D01*
X144605000Y-98165506D01*
X141019238Y-98165506D01*
X141150701Y-97911794D01*
X141247160Y-97640385D01*
X141305763Y-97358369D01*
X141325420Y-97071000D01*
X141305763Y-96783631D01*
X141247160Y-96501615D01*
X141150702Y-96230209D01*
X141150703Y-96230209D01*
X141018183Y-95974458D01*
X141018179Y-95974452D01*
X140852079Y-95739141D01*
X140655470Y-95528625D01*
X140432034Y-95346847D01*
X140185928Y-95197187D01*
X139921738Y-95082434D01*
X139644383Y-95004722D01*
X139644379Y-95004721D01*
X139644378Y-95004721D01*
X139501699Y-94985110D01*
X139359021Y-94965500D01*
X139359020Y-94965500D01*
X139070980Y-94965500D01*
X139070979Y-94965500D01*
X138785622Y-95004721D01*
X138785616Y-95004722D01*
X138508261Y-95082434D01*
X138244071Y-95197187D01*
X137997965Y-95346847D01*
X137774529Y-95528625D01*
X137577920Y-95739141D01*
X137411820Y-95974452D01*
X137411816Y-95974458D01*
X137279297Y-96230209D01*
X137182841Y-96501609D01*
X137182840Y-96501612D01*
X137124236Y-96783636D01*
X137104580Y-97071000D01*
X129895420Y-97071000D01*
X129875763Y-96783631D01*
X129817160Y-96501615D01*
X129720702Y-96230209D01*
X129720703Y-96230209D01*
X129588183Y-95974458D01*
X129588179Y-95974452D01*
X129422079Y-95739141D01*
X129225470Y-95528625D01*
X129002034Y-95346847D01*
X128755928Y-95197187D01*
X128491738Y-95082434D01*
X128214383Y-95004722D01*
X128214379Y-95004721D01*
X128214378Y-95004721D01*
X128071699Y-94985110D01*
X127929021Y-94965500D01*
X127929020Y-94965500D01*
X127640980Y-94965500D01*
X127640979Y-94965500D01*
X127355622Y-95004721D01*
X127355616Y-95004722D01*
X127078261Y-95082434D01*
X126814071Y-95197187D01*
X126567965Y-95346847D01*
X126344529Y-95528625D01*
X126147920Y-95739141D01*
X125981820Y-95974452D01*
X125981816Y-95974458D01*
X125849297Y-96230209D01*
X125752841Y-96501609D01*
X125752840Y-96501612D01*
X125694236Y-96783636D01*
X125674580Y-97071000D01*
X120292883Y-97071000D01*
X120223600Y-96922422D01*
X120223599Y-96922420D01*
X120088113Y-96728926D01*
X120088108Y-96728920D01*
X119921082Y-96561894D01*
X119727578Y-96426399D01*
X119513492Y-96326570D01*
X119513486Y-96326567D01*
X119300000Y-96269364D01*
X119300000Y-97166988D01*
X119242993Y-97134075D01*
X119115826Y-97100000D01*
X118984174Y-97100000D01*
X118857007Y-97134075D01*
X118800000Y-97166988D01*
X118800000Y-96269364D01*
X118799999Y-96269364D01*
X118586513Y-96326567D01*
X118586507Y-96326570D01*
X118372422Y-96426399D01*
X118372420Y-96426400D01*
X118178926Y-96561886D01*
X118178920Y-96561891D01*
X118011891Y-96728920D01*
X118011886Y-96728926D01*
X117876400Y-96922420D01*
X117876399Y-96922422D01*
X117796882Y-97092948D01*
X117750710Y-97145387D01*
X117683516Y-97164539D01*
X117616635Y-97144323D01*
X117571300Y-97091158D01*
X117560500Y-97040543D01*
X117560500Y-96730249D01*
X117560499Y-96730247D01*
X117548868Y-96671770D01*
X117548867Y-96671769D01*
X117504552Y-96605447D01*
X117438230Y-96561132D01*
X117438229Y-96561131D01*
X117379752Y-96549500D01*
X117379748Y-96549500D01*
X115640252Y-96549500D01*
X115640247Y-96549500D01*
X115581770Y-96561131D01*
X115581769Y-96561132D01*
X115515447Y-96605447D01*
X115471132Y-96671769D01*
X115471131Y-96671770D01*
X115459500Y-96730247D01*
X115459500Y-98469752D01*
X100860482Y-98469752D01*
X100802969Y-98388695D01*
X100795571Y-98376921D01*
X100692703Y-98190796D01*
X100661294Y-98133967D01*
X100655265Y-98121445D01*
X100549040Y-97864993D01*
X100544447Y-97851869D01*
X100543909Y-97850000D01*
X100467599Y-97585123D01*
X100464508Y-97571577D01*
X100457900Y-97532685D01*
X100418010Y-97297909D01*
X100416454Y-97284106D01*
X100400695Y-97003471D01*
X100400500Y-96996519D01*
X100400500Y-94190506D01*
X144605000Y-94190506D01*
X144633317Y-94369293D01*
X144689251Y-94541444D01*
X144689252Y-94541447D01*
X144771434Y-94702734D01*
X144877823Y-94849169D01*
X145005830Y-94977176D01*
X145152265Y-95083565D01*
X145313552Y-95165747D01*
X145313555Y-95165748D01*
X145485699Y-95221680D01*
X145485712Y-95221683D01*
X145505000Y-95224738D01*
X145505000Y-94266988D01*
X145514940Y-94284205D01*
X145570795Y-94340060D01*
X145639204Y-94379556D01*
X145715504Y-94400000D01*
X145794496Y-94400000D01*
X145870796Y-94379556D01*
X145939205Y-94340060D01*
X145995060Y-94284205D01*
X146005000Y-94266988D01*
X146005000Y-95224737D01*
X146024287Y-95221683D01*
X146024300Y-95221680D01*
X146196444Y-95165748D01*
X146196447Y-95165747D01*
X146357734Y-95083565D01*
X146504169Y-94977176D01*
X146632176Y-94849169D01*
X146738565Y-94702734D01*
X146820747Y-94541447D01*
X146820748Y-94541444D01*
X146876682Y-94369293D01*
X146905000Y-94190506D01*
X153245000Y-94190506D01*
X153273317Y-94369293D01*
X153329251Y-94541444D01*
X153329252Y-94541447D01*
X153411434Y-94702734D01*
X153517823Y-94849169D01*
X153645830Y-94977176D01*
X153792265Y-95083565D01*
X153953552Y-95165747D01*
X153953555Y-95165748D01*
X154125699Y-95221680D01*
X154125712Y-95221683D01*
X154145000Y-95224738D01*
X154145000Y-94266988D01*
X154154940Y-94284205D01*
X154210795Y-94340060D01*
X154279204Y-94379556D01*
X154355504Y-94400000D01*
X154434496Y-94400000D01*
X154510796Y-94379556D01*
X154579205Y-94340060D01*
X154635060Y-94284205D01*
X154645000Y-94266988D01*
X154645000Y-95224737D01*
X154664287Y-95221683D01*
X154664300Y-95221680D01*
X154836444Y-95165748D01*
X154836447Y-95165747D01*
X154997734Y-95083565D01*
X155144169Y-94977176D01*
X155272176Y-94849169D01*
X155378565Y-94702734D01*
X155460747Y-94541447D01*
X155460748Y-94541444D01*
X155516682Y-94369293D01*
X155545000Y-94190506D01*
X155545000Y-93850000D01*
X154695000Y-93850000D01*
X154695000Y-93350000D01*
X155545000Y-93350000D01*
X155545000Y-93009493D01*
X155516682Y-92830706D01*
X155460748Y-92658555D01*
X155460747Y-92658552D01*
X155378565Y-92497265D01*
X155272176Y-92350830D01*
X155144169Y-92222823D01*
X154997734Y-92116434D01*
X154836447Y-92034252D01*
X154836441Y-92034250D01*
X154664295Y-91978318D01*
X154664285Y-91978315D01*
X154645000Y-91975260D01*
X154645000Y-92933011D01*
X154635060Y-92915795D01*
X154579205Y-92859940D01*
X154510796Y-92820444D01*
X154434496Y-92800000D01*
X154355504Y-92800000D01*
X154279204Y-92820444D01*
X154210795Y-92859940D01*
X154154940Y-92915795D01*
X154145000Y-92933011D01*
X154145000Y-91975260D01*
X154125714Y-91978315D01*
X154125704Y-91978318D01*
X153953558Y-92034250D01*
X153953552Y-92034252D01*
X153792265Y-92116434D01*
X153645830Y-92222823D01*
X153517823Y-92350830D01*
X153411434Y-92497265D01*
X153329252Y-92658552D01*
X153329251Y-92658555D01*
X153273317Y-92830706D01*
X153245000Y-93009493D01*
X153245000Y-93350000D01*
X154095000Y-93350000D01*
X154095000Y-93850000D01*
X153245000Y-93850000D01*
X153245000Y-94190506D01*
X146905000Y-94190506D01*
X146905000Y-93850000D01*
X146055000Y-93850000D01*
X146055000Y-93350000D01*
X146905000Y-93350000D01*
X146905000Y-93009493D01*
X146876682Y-92830706D01*
X146820748Y-92658555D01*
X146820747Y-92658552D01*
X146738565Y-92497265D01*
X146632176Y-92350830D01*
X146504169Y-92222823D01*
X146357734Y-92116434D01*
X146196447Y-92034252D01*
X146196441Y-92034250D01*
X146024295Y-91978318D01*
X146024285Y-91978315D01*
X146005000Y-91975260D01*
X146005000Y-92933011D01*
X145995060Y-92915795D01*
X145939205Y-92859940D01*
X145870796Y-92820444D01*
X145794496Y-92800000D01*
X145715504Y-92800000D01*
X145639204Y-92820444D01*
X145570795Y-92859940D01*
X145514940Y-92915795D01*
X145505000Y-92933011D01*
X145505000Y-91975260D01*
X145485714Y-91978315D01*
X145485704Y-91978318D01*
X145313558Y-92034250D01*
X145313552Y-92034252D01*
X145152265Y-92116434D01*
X145005830Y-92222823D01*
X144877823Y-92350830D01*
X144771434Y-92497265D01*
X144689252Y-92658552D01*
X144689251Y-92658555D01*
X144633317Y-92830706D01*
X144605000Y-93009493D01*
X144605000Y-93350000D01*
X145455000Y-93350000D01*
X145455000Y-93850000D01*
X144605000Y-93850000D01*
X144605000Y-94190506D01*
X100400500Y-94190506D01*
X100400500Y-84975000D01*
X108969357Y-84975000D01*
X108989884Y-85196535D01*
X108989885Y-85196537D01*
X109050769Y-85410523D01*
X109050775Y-85410538D01*
X109149938Y-85609683D01*
X109149943Y-85609691D01*
X109284020Y-85787238D01*
X109448437Y-85937123D01*
X109448439Y-85937125D01*
X109637595Y-86054245D01*
X109637596Y-86054245D01*
X109637599Y-86054247D01*
X109845060Y-86134618D01*
X110063757Y-86175500D01*
X110063759Y-86175500D01*
X110286241Y-86175500D01*
X110286243Y-86175500D01*
X110446854Y-86145476D01*
X110516367Y-86152507D01*
X110557318Y-86179684D01*
X114239950Y-89862316D01*
X114372549Y-89938872D01*
X114520444Y-89978500D01*
X114673555Y-89978500D01*
X128320765Y-89978500D01*
X128387804Y-89998185D01*
X128433559Y-90050989D01*
X128443503Y-90120147D01*
X128414478Y-90183703D01*
X128412915Y-90185472D01*
X128375342Y-90227201D01*
X128287529Y-90379298D01*
X128233257Y-90546329D01*
X128233256Y-90546333D01*
X128214898Y-90721000D01*
X128233256Y-90895667D01*
X128233257Y-90895670D01*
X128287529Y-91062701D01*
X128375340Y-91214796D01*
X128375341Y-91214798D01*
X128375343Y-91214800D01*
X128492862Y-91345317D01*
X128596096Y-91420321D01*
X128634950Y-91448551D01*
X128696540Y-91475971D01*
X128795394Y-91519984D01*
X128967185Y-91556500D01*
X129142815Y-91556500D01*
X129314606Y-91519984D01*
X129475051Y-91448550D01*
X129617138Y-91345317D01*
X129734657Y-91214800D01*
X129822471Y-91062700D01*
X129876744Y-90895667D01*
X129895102Y-90721000D01*
X129876744Y-90546333D01*
X129822471Y-90379300D01*
X129734657Y-90227200D01*
X129697085Y-90185472D01*
X129666855Y-90122480D01*
X129675480Y-90053145D01*
X129720222Y-89999480D01*
X129786874Y-89978522D01*
X129789235Y-89978500D01*
X130860765Y-89978500D01*
X130927804Y-89998185D01*
X130973559Y-90050989D01*
X130983503Y-90120147D01*
X130954478Y-90183703D01*
X130952915Y-90185472D01*
X130915342Y-90227201D01*
X130827529Y-90379298D01*
X130773257Y-90546329D01*
X130773256Y-90546333D01*
X130754898Y-90721000D01*
X130773256Y-90895667D01*
X130773257Y-90895670D01*
X130827529Y-91062701D01*
X130915340Y-91214796D01*
X130915341Y-91214798D01*
X130915343Y-91214800D01*
X131032862Y-91345317D01*
X131136096Y-91420321D01*
X131174950Y-91448551D01*
X131236540Y-91475971D01*
X131335394Y-91519984D01*
X131507185Y-91556500D01*
X131682815Y-91556500D01*
X131854606Y-91519984D01*
X132015051Y-91448550D01*
X132157138Y-91345317D01*
X132274657Y-91214800D01*
X132362471Y-91062700D01*
X132416744Y-90895667D01*
X132435102Y-90721000D01*
X132416744Y-90546333D01*
X132362471Y-90379300D01*
X132274657Y-90227200D01*
X132237085Y-90185472D01*
X132206855Y-90122480D01*
X132215480Y-90053145D01*
X132260222Y-89999480D01*
X132326874Y-89978522D01*
X132329235Y-89978500D01*
X133400765Y-89978500D01*
X133467804Y-89998185D01*
X133513559Y-90050989D01*
X133523503Y-90120147D01*
X133494478Y-90183703D01*
X133492915Y-90185472D01*
X133455342Y-90227201D01*
X133367529Y-90379298D01*
X133313257Y-90546329D01*
X133313256Y-90546333D01*
X133294898Y-90721000D01*
X133313256Y-90895667D01*
X133313257Y-90895670D01*
X133367529Y-91062701D01*
X133455340Y-91214796D01*
X133455341Y-91214798D01*
X133455343Y-91214800D01*
X133572862Y-91345317D01*
X133676096Y-91420321D01*
X133714950Y-91448551D01*
X133776540Y-91475971D01*
X133875394Y-91519984D01*
X134047185Y-91556500D01*
X134222815Y-91556500D01*
X134394606Y-91519984D01*
X134555051Y-91448550D01*
X134697138Y-91345317D01*
X134814657Y-91214800D01*
X134902471Y-91062700D01*
X134956744Y-90895667D01*
X134975102Y-90721000D01*
X135834898Y-90721000D01*
X135853256Y-90895667D01*
X135853257Y-90895670D01*
X135907529Y-91062701D01*
X135995340Y-91214796D01*
X135995341Y-91214798D01*
X135995343Y-91214800D01*
X136112862Y-91345317D01*
X136216096Y-91420321D01*
X136254950Y-91448551D01*
X136316540Y-91475971D01*
X136415394Y-91519984D01*
X136587185Y-91556500D01*
X136762815Y-91556500D01*
X136934606Y-91519984D01*
X137095051Y-91448550D01*
X137237138Y-91345317D01*
X137354657Y-91214800D01*
X137442471Y-91062700D01*
X137496744Y-90895667D01*
X137515102Y-90721000D01*
X137496744Y-90546333D01*
X137442471Y-90379300D01*
X137354657Y-90227200D01*
X137237138Y-90096683D01*
X137103351Y-89999480D01*
X137095049Y-89993448D01*
X136961729Y-89934092D01*
X136934606Y-89922016D01*
X136934604Y-89922015D01*
X136934603Y-89922015D01*
X136762815Y-89885500D01*
X136587185Y-89885500D01*
X136415396Y-89922015D01*
X136254950Y-89993448D01*
X136112863Y-90096682D01*
X135995340Y-90227203D01*
X135907529Y-90379298D01*
X135853257Y-90546329D01*
X135853256Y-90546333D01*
X135834898Y-90721000D01*
X134975102Y-90721000D01*
X134956744Y-90546333D01*
X134902471Y-90379300D01*
X134814657Y-90227200D01*
X134697138Y-90096683D01*
X134591342Y-90019817D01*
X134548677Y-89964486D01*
X134542698Y-89894873D01*
X134575304Y-89833078D01*
X134576408Y-89831957D01*
X134654316Y-89754050D01*
X134654317Y-89754047D01*
X135355546Y-89052819D01*
X135416869Y-89019334D01*
X135443227Y-89016500D01*
X135492815Y-89016500D01*
X135664606Y-88979984D01*
X135825051Y-88908550D01*
X135967138Y-88805317D01*
X136084657Y-88674800D01*
X136172471Y-88522700D01*
X136226744Y-88355667D01*
X136245102Y-88181000D01*
X137104898Y-88181000D01*
X137123256Y-88355667D01*
X137123257Y-88355670D01*
X137177529Y-88522701D01*
X137265340Y-88674796D01*
X137265341Y-88674798D01*
X137265343Y-88674800D01*
X137382862Y-88805317D01*
X137396878Y-88815500D01*
X137524950Y-88908551D01*
X137586540Y-88935971D01*
X137685394Y-88979984D01*
X137857185Y-89016500D01*
X138032815Y-89016500D01*
X138204606Y-88979984D01*
X138365051Y-88908550D01*
X138507138Y-88805317D01*
X138624657Y-88674800D01*
X138712471Y-88522700D01*
X138766744Y-88355667D01*
X138785102Y-88181000D01*
X138766744Y-88006333D01*
X138712471Y-87839300D01*
X138624657Y-87687200D01*
X138507138Y-87556683D01*
X138442757Y-87509907D01*
X138365049Y-87453448D01*
X138241868Y-87398606D01*
X138204606Y-87382016D01*
X138204604Y-87382015D01*
X138204603Y-87382015D01*
X138032815Y-87345500D01*
X137857185Y-87345500D01*
X137685396Y-87382015D01*
X137524950Y-87453448D01*
X137382863Y-87556682D01*
X137265340Y-87687203D01*
X137177529Y-87839298D01*
X137123257Y-88006329D01*
X137123256Y-88006333D01*
X137104898Y-88181000D01*
X136245102Y-88181000D01*
X136226744Y-88006333D01*
X136172471Y-87839300D01*
X136084657Y-87687200D01*
X135967138Y-87556683D01*
X135902757Y-87509907D01*
X135825049Y-87453448D01*
X135701868Y-87398606D01*
X135664606Y-87382016D01*
X135664604Y-87382015D01*
X135664603Y-87382015D01*
X135492815Y-87345500D01*
X135317185Y-87345500D01*
X135145396Y-87382015D01*
X134984950Y-87453448D01*
X134842863Y-87556682D01*
X134725340Y-87687203D01*
X134637529Y-87839298D01*
X134583257Y-88006329D01*
X134583256Y-88006333D01*
X134575454Y-88080564D01*
X134567404Y-88157151D01*
X134540819Y-88221765D01*
X134531764Y-88231869D01*
X133984454Y-88779181D01*
X133923131Y-88812666D01*
X133896773Y-88815500D01*
X133678198Y-88815500D01*
X133611159Y-88795815D01*
X133565404Y-88743011D01*
X133555460Y-88673853D01*
X133570811Y-88629500D01*
X133632470Y-88522701D01*
X133632471Y-88522700D01*
X133686744Y-88355667D01*
X133705102Y-88181000D01*
X133686744Y-88006333D01*
X133632471Y-87839300D01*
X133544657Y-87687200D01*
X133427138Y-87556683D01*
X133362757Y-87509907D01*
X133285049Y-87453448D01*
X133161868Y-87398606D01*
X133124606Y-87382016D01*
X133124604Y-87382015D01*
X133124603Y-87382015D01*
X132952815Y-87345500D01*
X132777185Y-87345500D01*
X132605396Y-87382015D01*
X132444950Y-87453448D01*
X132302863Y-87556682D01*
X132185340Y-87687203D01*
X132097529Y-87839298D01*
X132043257Y-88006329D01*
X132043256Y-88006333D01*
X132024898Y-88181000D01*
X132043256Y-88355667D01*
X132043257Y-88355670D01*
X132097529Y-88522701D01*
X132159189Y-88629500D01*
X132175662Y-88697400D01*
X132152809Y-88763427D01*
X132097888Y-88806618D01*
X132051802Y-88815500D01*
X131138198Y-88815500D01*
X131071159Y-88795815D01*
X131025404Y-88743011D01*
X131015460Y-88673853D01*
X131030811Y-88629500D01*
X131092470Y-88522701D01*
X131092471Y-88522700D01*
X131146744Y-88355667D01*
X131165102Y-88181000D01*
X131146744Y-88006333D01*
X131092471Y-87839300D01*
X131004657Y-87687200D01*
X130887138Y-87556683D01*
X130822757Y-87509907D01*
X130745049Y-87453448D01*
X130621868Y-87398606D01*
X130584606Y-87382016D01*
X130584604Y-87382015D01*
X130584603Y-87382015D01*
X130412815Y-87345500D01*
X130237185Y-87345500D01*
X130065396Y-87382015D01*
X129904950Y-87453448D01*
X129762863Y-87556682D01*
X129645340Y-87687203D01*
X129557529Y-87839298D01*
X129503257Y-88006329D01*
X129503256Y-88006333D01*
X129484898Y-88181000D01*
X129503256Y-88355667D01*
X129503257Y-88355670D01*
X129557529Y-88522701D01*
X129619189Y-88629500D01*
X129635662Y-88697400D01*
X129612809Y-88763427D01*
X129557888Y-88806618D01*
X129511802Y-88815500D01*
X114889228Y-88815500D01*
X114822189Y-88795815D01*
X114801547Y-88779181D01*
X112312472Y-86290107D01*
X154506472Y-86290107D01*
X154525512Y-86446925D01*
X154581530Y-86594630D01*
X154671267Y-86724637D01*
X154789510Y-86829390D01*
X154789512Y-86829391D01*
X154929384Y-86902803D01*
X155082764Y-86940607D01*
X155082765Y-86940607D01*
X155240735Y-86940607D01*
X155394115Y-86902803D01*
X155533987Y-86829392D01*
X155533988Y-86829390D01*
X155533990Y-86829390D01*
X155652233Y-86724637D01*
X155652235Y-86724633D01*
X155654523Y-86722607D01*
X155717756Y-86692886D01*
X155787020Y-86702070D01*
X155818977Y-86722607D01*
X155821264Y-86724633D01*
X155821267Y-86724637D01*
X155921024Y-86813013D01*
X155939512Y-86829392D01*
X156079384Y-86902803D01*
X156232764Y-86940607D01*
X156232765Y-86940607D01*
X156390735Y-86940607D01*
X156544115Y-86902803D01*
X156683990Y-86829390D01*
X156802233Y-86724637D01*
X156891970Y-86594630D01*
X156947987Y-86446925D01*
X156967028Y-86290107D01*
X156950321Y-86152507D01*
X156947987Y-86133288D01*
X156918010Y-86054247D01*
X156891970Y-85985584D01*
X156802233Y-85855577D01*
X156683990Y-85750824D01*
X156683988Y-85750823D01*
X156683987Y-85750822D01*
X156544115Y-85677410D01*
X156390736Y-85639607D01*
X156390735Y-85639607D01*
X156386251Y-85639607D01*
X156319212Y-85619922D01*
X156273457Y-85567118D01*
X156262251Y-85515607D01*
X156262251Y-84251031D01*
X156281936Y-84183992D01*
X156334740Y-84138237D01*
X156403898Y-84128293D01*
X156467454Y-84157318D01*
X156488299Y-84180588D01*
X156496817Y-84192929D01*
X156562401Y-84251031D01*
X156624150Y-84305736D01*
X156774773Y-84384789D01*
X156774775Y-84384790D01*
X156939944Y-84425500D01*
X157110056Y-84425500D01*
X157275225Y-84384790D01*
X157359972Y-84340311D01*
X157425849Y-84305736D01*
X157425850Y-84305734D01*
X157425852Y-84305734D01*
X157553183Y-84192929D01*
X157649818Y-84052930D01*
X157710140Y-83893872D01*
X157730645Y-83725000D01*
X157710140Y-83556128D01*
X157649818Y-83397070D01*
X157631260Y-83370185D01*
X157604777Y-83331818D01*
X157553183Y-83257071D01*
X157425852Y-83144266D01*
X157425849Y-83144263D01*
X157275226Y-83065210D01*
X157110056Y-83024500D01*
X156939944Y-83024500D01*
X156774773Y-83065210D01*
X156624150Y-83144263D01*
X156496816Y-83257071D01*
X156488300Y-83269410D01*
X156434016Y-83313399D01*
X156364568Y-83321057D01*
X156302003Y-83289953D01*
X156266187Y-83229962D01*
X156262251Y-83198968D01*
X156262251Y-78350000D01*
X157569355Y-78350000D01*
X157589859Y-78518869D01*
X157589860Y-78518874D01*
X157650182Y-78677931D01*
X157691165Y-78737304D01*
X157746817Y-78817929D01*
X157852505Y-78911560D01*
X157874150Y-78930736D01*
X157993131Y-78993182D01*
X158024775Y-79009790D01*
X158189944Y-79050500D01*
X158360056Y-79050500D01*
X158525225Y-79009790D01*
X158604692Y-78968081D01*
X158675849Y-78930736D01*
X158675850Y-78930734D01*
X158675852Y-78930734D01*
X158803183Y-78817929D01*
X158899818Y-78677930D01*
X158960140Y-78518872D01*
X158980645Y-78350000D01*
X158960140Y-78181128D01*
X158899818Y-78022070D01*
X158897880Y-78019263D01*
X158865476Y-77972318D01*
X158803183Y-77882071D01*
X158675852Y-77769266D01*
X158675849Y-77769263D01*
X158525226Y-77690210D01*
X158360056Y-77649500D01*
X158189944Y-77649500D01*
X158024773Y-77690210D01*
X157874150Y-77769263D01*
X157746816Y-77882072D01*
X157650182Y-78022068D01*
X157589860Y-78181125D01*
X157589859Y-78181130D01*
X157569355Y-78350000D01*
X156262251Y-78350000D01*
X156262251Y-77299500D01*
X156281936Y-77232461D01*
X156334740Y-77186706D01*
X156386251Y-77175500D01*
X156390735Y-77175500D01*
X156544115Y-77137696D01*
X156683990Y-77064283D01*
X156802233Y-76959530D01*
X156891970Y-76829523D01*
X156947987Y-76681818D01*
X156967028Y-76525000D01*
X156947987Y-76368182D01*
X156891970Y-76220477D01*
X156802233Y-76090470D01*
X156683990Y-75985717D01*
X156683988Y-75985716D01*
X156683987Y-75985715D01*
X156544115Y-75912303D01*
X156390736Y-75874500D01*
X156390735Y-75874500D01*
X156232765Y-75874500D01*
X156232764Y-75874500D01*
X156079384Y-75912303D01*
X155939512Y-75985715D01*
X155818977Y-76092499D01*
X155755743Y-76122220D01*
X155686480Y-76113036D01*
X155654523Y-76092499D01*
X155652233Y-76090470D01*
X155533990Y-75985717D01*
X155533988Y-75985716D01*
X155533987Y-75985715D01*
X155394115Y-75912303D01*
X155240736Y-75874500D01*
X155240735Y-75874500D01*
X155082765Y-75874500D01*
X155082764Y-75874500D01*
X154929384Y-75912303D01*
X154789512Y-75985715D01*
X154671266Y-76090471D01*
X154581531Y-76220475D01*
X154581530Y-76220476D01*
X154525512Y-76368181D01*
X154506472Y-76524999D01*
X154506472Y-76525000D01*
X154525512Y-76681818D01*
X154558869Y-76769771D01*
X154581530Y-76829523D01*
X154671267Y-76959530D01*
X154789510Y-77064283D01*
X154789512Y-77064284D01*
X154929384Y-77137696D01*
X155082764Y-77175500D01*
X155082765Y-77175500D01*
X155087249Y-77175500D01*
X155154288Y-77195185D01*
X155200043Y-77247989D01*
X155211249Y-77299500D01*
X155211249Y-85515607D01*
X155191564Y-85582646D01*
X155138760Y-85628401D01*
X155087249Y-85639607D01*
X155082764Y-85639607D01*
X154929384Y-85677410D01*
X154789512Y-85750822D01*
X154671266Y-85855578D01*
X154581531Y-85985582D01*
X154581530Y-85985583D01*
X154525512Y-86133288D01*
X154506472Y-86290106D01*
X154506472Y-86290107D01*
X112312472Y-86290107D01*
X111380362Y-85357997D01*
X111346877Y-85296674D01*
X111348776Y-85236384D01*
X111360115Y-85196536D01*
X111380643Y-84975000D01*
X111360115Y-84753464D01*
X111299229Y-84539472D01*
X111299224Y-84539461D01*
X111200061Y-84340316D01*
X111200056Y-84340308D01*
X111065979Y-84162761D01*
X110901562Y-84012876D01*
X110901560Y-84012874D01*
X110712404Y-83895754D01*
X110712398Y-83895752D01*
X110504940Y-83815382D01*
X110286243Y-83774500D01*
X110063757Y-83774500D01*
X109845060Y-83815382D01*
X109713864Y-83866207D01*
X109637601Y-83895752D01*
X109637595Y-83895754D01*
X109448439Y-84012874D01*
X109448437Y-84012876D01*
X109284020Y-84162761D01*
X109149943Y-84340308D01*
X109149938Y-84340316D01*
X109050775Y-84539461D01*
X109050769Y-84539476D01*
X108989885Y-84753462D01*
X108989884Y-84753464D01*
X108969357Y-84974999D01*
X108969357Y-84975000D01*
X100400500Y-84975000D01*
X100400500Y-82900000D01*
X126494722Y-82900000D01*
X126513762Y-83056818D01*
X126558583Y-83174999D01*
X126569780Y-83204523D01*
X126659517Y-83334530D01*
X126777760Y-83439283D01*
X126777762Y-83439284D01*
X126917634Y-83512696D01*
X127071014Y-83550500D01*
X127071015Y-83550500D01*
X127228985Y-83550500D01*
X127382365Y-83512696D01*
X127445570Y-83479523D01*
X127522240Y-83439283D01*
X127640483Y-83334530D01*
X127730220Y-83204523D01*
X127786237Y-83056818D01*
X127805278Y-82900000D01*
X127796920Y-82831161D01*
X127786237Y-82743181D01*
X127745480Y-82635715D01*
X127730220Y-82595477D01*
X127640483Y-82465470D01*
X127522240Y-82360717D01*
X127522238Y-82360716D01*
X127522237Y-82360715D01*
X127382365Y-82287303D01*
X127228986Y-82249500D01*
X127228985Y-82249500D01*
X127071015Y-82249500D01*
X127071014Y-82249500D01*
X126917634Y-82287303D01*
X126777762Y-82360715D01*
X126659516Y-82465471D01*
X126569781Y-82595475D01*
X126569780Y-82595476D01*
X126513762Y-82743181D01*
X126494722Y-82899999D01*
X126494722Y-82900000D01*
X100400500Y-82900000D01*
X100400500Y-79350000D01*
X119569722Y-79350000D01*
X119588762Y-79506818D01*
X119633583Y-79624999D01*
X119644780Y-79654523D01*
X119734517Y-79784530D01*
X119852760Y-79889283D01*
X119852762Y-79889284D01*
X119992634Y-79962696D01*
X120146014Y-80000500D01*
X120146015Y-80000500D01*
X120303985Y-80000500D01*
X120457365Y-79962696D01*
X120480602Y-79950500D01*
X120597240Y-79889283D01*
X120715483Y-79784530D01*
X120805220Y-79654523D01*
X120861237Y-79506818D01*
X120880278Y-79350000D01*
X120869325Y-79259789D01*
X120861237Y-79193181D01*
X120844860Y-79150000D01*
X127019722Y-79150000D01*
X127038762Y-79306818D01*
X127081258Y-79418869D01*
X127094780Y-79454523D01*
X127184517Y-79584530D01*
X127302760Y-79689283D01*
X127302762Y-79689284D01*
X127442634Y-79762696D01*
X127596014Y-79800500D01*
X127596015Y-79800500D01*
X127674167Y-79800500D01*
X127741206Y-79820185D01*
X127761848Y-79836819D01*
X130726965Y-82801936D01*
X130760450Y-82863259D01*
X130762380Y-82904563D01*
X130744722Y-83049999D01*
X130744722Y-83050000D01*
X130763762Y-83206818D01*
X130807088Y-83321057D01*
X130819780Y-83354523D01*
X130909517Y-83484530D01*
X131027760Y-83589283D01*
X131027762Y-83589284D01*
X131167634Y-83662696D01*
X131321014Y-83700500D01*
X131321015Y-83700500D01*
X131478985Y-83700500D01*
X131632365Y-83662696D01*
X131637654Y-83659920D01*
X131772240Y-83589283D01*
X131890483Y-83484530D01*
X131946027Y-83404059D01*
X132000310Y-83360070D01*
X132048077Y-83350500D01*
X134415771Y-83350500D01*
X134482810Y-83370185D01*
X134528565Y-83422989D01*
X134531713Y-83430529D01*
X134579608Y-83556818D01*
X134584211Y-83568954D01*
X134673948Y-83698961D01*
X134792191Y-83803714D01*
X134792193Y-83803715D01*
X134932065Y-83877127D01*
X135085445Y-83914931D01*
X135085446Y-83914931D01*
X135243416Y-83914931D01*
X135396796Y-83877127D01*
X135536671Y-83803714D01*
X135654914Y-83698961D01*
X135681863Y-83659918D01*
X135736144Y-83615929D01*
X135805592Y-83608269D01*
X135866139Y-83637544D01*
X135952759Y-83714282D01*
X135952761Y-83714284D01*
X136092634Y-83787696D01*
X136246014Y-83825500D01*
X136246015Y-83825500D01*
X136403985Y-83825500D01*
X136557365Y-83787696D01*
X136697237Y-83714285D01*
X136697238Y-83714283D01*
X136697240Y-83714283D01*
X136815483Y-83609530D01*
X136815485Y-83609526D01*
X136817773Y-83607500D01*
X136881006Y-83577779D01*
X136950270Y-83586963D01*
X136982227Y-83607500D01*
X136984514Y-83609526D01*
X136984517Y-83609530D01*
X137044530Y-83662696D01*
X137102762Y-83714285D01*
X137242634Y-83787696D01*
X137396014Y-83825500D01*
X137396015Y-83825500D01*
X137553985Y-83825500D01*
X137707365Y-83787696D01*
X137847240Y-83714283D01*
X137965483Y-83609530D01*
X138055220Y-83479523D01*
X138085379Y-83400000D01*
X139444722Y-83400000D01*
X139463762Y-83556818D01*
X139494378Y-83637544D01*
X139519780Y-83704523D01*
X139609517Y-83834530D01*
X139727760Y-83939283D01*
X139727762Y-83939284D01*
X139867634Y-84012696D01*
X140021014Y-84050500D01*
X140021015Y-84050500D01*
X140178985Y-84050500D01*
X140332365Y-84012696D01*
X140472240Y-83939283D01*
X140590483Y-83834530D01*
X140680220Y-83704523D01*
X140736237Y-83556818D01*
X140755278Y-83400000D01*
X140737924Y-83257071D01*
X140736237Y-83243181D01*
X140698722Y-83144263D01*
X140680220Y-83095477D01*
X140590483Y-82965470D01*
X140472240Y-82860717D01*
X140472238Y-82860716D01*
X140472237Y-82860715D01*
X140332365Y-82787303D01*
X140178986Y-82749500D01*
X140178985Y-82749500D01*
X140021015Y-82749500D01*
X140021014Y-82749500D01*
X139867634Y-82787303D01*
X139727762Y-82860715D01*
X139609516Y-82965471D01*
X139519781Y-83095475D01*
X139519780Y-83095476D01*
X139463762Y-83243181D01*
X139444722Y-83399999D01*
X139444722Y-83400000D01*
X138085379Y-83400000D01*
X138111237Y-83331818D01*
X138130278Y-83175000D01*
X138111237Y-83018182D01*
X138055220Y-82870477D01*
X137965483Y-82740470D01*
X137847240Y-82635717D01*
X137847238Y-82635716D01*
X137847237Y-82635715D01*
X137707365Y-82562303D01*
X137553986Y-82524500D01*
X137553985Y-82524500D01*
X137396015Y-82524500D01*
X137396011Y-82524500D01*
X137346349Y-82536740D01*
X137276547Y-82533670D01*
X137228995Y-82504024D01*
X135292627Y-80567656D01*
X135277769Y-80559078D01*
X135262911Y-80550500D01*
X135224108Y-80528097D01*
X135224107Y-80528096D01*
X135198630Y-80521269D01*
X135147679Y-80507617D01*
X135147677Y-80507617D01*
X133470960Y-80507617D01*
X133403921Y-80487932D01*
X133358166Y-80435128D01*
X133347864Y-80398564D01*
X133346288Y-80385584D01*
X133336054Y-80301300D01*
X133280037Y-80153595D01*
X133208531Y-80050000D01*
X135594722Y-80050000D01*
X135613762Y-80206818D01*
X135647276Y-80295185D01*
X135669780Y-80354523D01*
X135759517Y-80484530D01*
X135877760Y-80589283D01*
X135877762Y-80589284D01*
X136017634Y-80662696D01*
X136171014Y-80700500D01*
X136171015Y-80700500D01*
X136328985Y-80700500D01*
X136482365Y-80662696D01*
X136622240Y-80589283D01*
X136740483Y-80484530D01*
X136830220Y-80354523D01*
X136886237Y-80206818D01*
X136905278Y-80050000D01*
X136894678Y-79962696D01*
X136886237Y-79893181D01*
X136862554Y-79830734D01*
X136830220Y-79745477D01*
X136740483Y-79615470D01*
X136622240Y-79510717D01*
X136622238Y-79510716D01*
X136622237Y-79510715D01*
X136482365Y-79437303D01*
X136328986Y-79399500D01*
X136328985Y-79399500D01*
X136171015Y-79399500D01*
X136171014Y-79399500D01*
X136017634Y-79437303D01*
X135877762Y-79510715D01*
X135759516Y-79615471D01*
X135669781Y-79745475D01*
X135669780Y-79745476D01*
X135613762Y-79893181D01*
X135594722Y-80049999D01*
X135594722Y-80050000D01*
X133208531Y-80050000D01*
X133190300Y-80023588D01*
X133072057Y-79918835D01*
X133072055Y-79918834D01*
X133072054Y-79918833D01*
X132932182Y-79845421D01*
X132778803Y-79807618D01*
X132778802Y-79807618D01*
X132748071Y-79807618D01*
X132681032Y-79787933D01*
X132635277Y-79735129D01*
X132624975Y-79668671D01*
X132626693Y-79654523D01*
X132630278Y-79625000D01*
X132611237Y-79468182D01*
X132606057Y-79454524D01*
X132584701Y-79398212D01*
X132555220Y-79320477D01*
X132506573Y-79250000D01*
X147869355Y-79250000D01*
X147889859Y-79418869D01*
X147889860Y-79418874D01*
X147950182Y-79577931D01*
X147982672Y-79625000D01*
X148046817Y-79717929D01*
X148140021Y-79800500D01*
X148174150Y-79830736D01*
X148293131Y-79893182D01*
X148324775Y-79909790D01*
X148489944Y-79950500D01*
X148660056Y-79950500D01*
X148825225Y-79909790D01*
X148947869Y-79845421D01*
X148975849Y-79830736D01*
X148975850Y-79830734D01*
X148975852Y-79830734D01*
X149103183Y-79717929D01*
X149199818Y-79577930D01*
X149260140Y-79418872D01*
X149280645Y-79250000D01*
X149260140Y-79081128D01*
X149248524Y-79050500D01*
X149226787Y-78993182D01*
X149199818Y-78922070D01*
X149195262Y-78915470D01*
X149146949Y-78845477D01*
X149103183Y-78782071D01*
X148975852Y-78669266D01*
X148975849Y-78669263D01*
X148843879Y-78600000D01*
X151269355Y-78600000D01*
X151289859Y-78768869D01*
X151289860Y-78768874D01*
X151350182Y-78927931D01*
X151406686Y-79009789D01*
X151446817Y-79067929D01*
X151552505Y-79161560D01*
X151574150Y-79180736D01*
X151706122Y-79250000D01*
X151724775Y-79259790D01*
X151889944Y-79300500D01*
X152060056Y-79300500D01*
X152225225Y-79259790D01*
X152352135Y-79193182D01*
X152375849Y-79180736D01*
X152375850Y-79180734D01*
X152375852Y-79180734D01*
X152503183Y-79067929D01*
X152599818Y-78927930D01*
X152660140Y-78768872D01*
X152680645Y-78600000D01*
X152660140Y-78431128D01*
X152599818Y-78272070D01*
X152503183Y-78132071D01*
X152375852Y-78019266D01*
X152375849Y-78019263D01*
X152225226Y-77940210D01*
X152060056Y-77899500D01*
X151889944Y-77899500D01*
X151724773Y-77940210D01*
X151574150Y-78019263D01*
X151446816Y-78132072D01*
X151350182Y-78272068D01*
X151289860Y-78431125D01*
X151289859Y-78431130D01*
X151269355Y-78600000D01*
X148843879Y-78600000D01*
X148825226Y-78590210D01*
X148660056Y-78549500D01*
X148489944Y-78549500D01*
X148324773Y-78590210D01*
X148174150Y-78669263D01*
X148046816Y-78782072D01*
X147950182Y-78922068D01*
X147889860Y-79081125D01*
X147889859Y-79081130D01*
X147869355Y-79250000D01*
X132506573Y-79250000D01*
X132465483Y-79190470D01*
X132347240Y-79085717D01*
X132347238Y-79085716D01*
X132347237Y-79085715D01*
X132207365Y-79012303D01*
X132053986Y-78974500D01*
X132053985Y-78974500D01*
X131896015Y-78974500D01*
X131896014Y-78974500D01*
X131742634Y-79012303D01*
X131602762Y-79085715D01*
X131484516Y-79190471D01*
X131394781Y-79320475D01*
X131394780Y-79320476D01*
X131338762Y-79468181D01*
X131319722Y-79624999D01*
X131319722Y-79625000D01*
X131337380Y-79770434D01*
X131325919Y-79839357D01*
X131301966Y-79873060D01*
X131215489Y-79959539D01*
X131215489Y-79959540D01*
X131159538Y-80015491D01*
X131159535Y-80015495D01*
X131119982Y-80084004D01*
X131119979Y-80084009D01*
X131099500Y-80160439D01*
X131099500Y-82025167D01*
X131079815Y-82092206D01*
X131027011Y-82137961D01*
X130957853Y-82147905D01*
X130894297Y-82118880D01*
X130887819Y-82112848D01*
X128304836Y-79529865D01*
X128271351Y-79468542D01*
X128276335Y-79398850D01*
X128276464Y-79398504D01*
X128311237Y-79306818D01*
X128330278Y-79150000D01*
X128322473Y-79085715D01*
X128311237Y-78993181D01*
X128281765Y-78915470D01*
X128255220Y-78845477D01*
X128165483Y-78715470D01*
X128047240Y-78610717D01*
X128047238Y-78610716D01*
X128047237Y-78610715D01*
X127907365Y-78537303D01*
X127753986Y-78499500D01*
X127753985Y-78499500D01*
X127596015Y-78499500D01*
X127596014Y-78499500D01*
X127442634Y-78537303D01*
X127302762Y-78610715D01*
X127184516Y-78715471D01*
X127094781Y-78845475D01*
X127094780Y-78845476D01*
X127038762Y-78993181D01*
X127019722Y-79149999D01*
X127019722Y-79150000D01*
X120844860Y-79150000D01*
X120818741Y-79081130D01*
X120805220Y-79045477D01*
X120715483Y-78915470D01*
X120597240Y-78810717D01*
X120597238Y-78810716D01*
X120597237Y-78810715D01*
X120457365Y-78737303D01*
X120303986Y-78699500D01*
X120303985Y-78699500D01*
X120146015Y-78699500D01*
X120146014Y-78699500D01*
X119992634Y-78737303D01*
X119852762Y-78810715D01*
X119734516Y-78915471D01*
X119644781Y-79045475D01*
X119644780Y-79045476D01*
X119588762Y-79193181D01*
X119569722Y-79349999D01*
X119569722Y-79350000D01*
X100400500Y-79350000D01*
X100400500Y-77810000D01*
X104404393Y-77810000D01*
X104424771Y-78016911D01*
X104485129Y-78215882D01*
X104583134Y-78399236D01*
X104583138Y-78399243D01*
X104715037Y-78559962D01*
X104875756Y-78691861D01*
X104875763Y-78691865D01*
X105044528Y-78782072D01*
X105059123Y-78789873D01*
X105258086Y-78850228D01*
X105465000Y-78870607D01*
X105671914Y-78850228D01*
X105870877Y-78789873D01*
X106054242Y-78691862D01*
X106214962Y-78559962D01*
X106346862Y-78399242D01*
X106444873Y-78215877D01*
X106505228Y-78016914D01*
X106525607Y-77810000D01*
X114564393Y-77810000D01*
X114584771Y-78016911D01*
X114645129Y-78215882D01*
X114743134Y-78399236D01*
X114743138Y-78399243D01*
X114875037Y-78559962D01*
X115035756Y-78691861D01*
X115035763Y-78691865D01*
X115204528Y-78782072D01*
X115219123Y-78789873D01*
X115418086Y-78850228D01*
X115625000Y-78870607D01*
X115831914Y-78850228D01*
X116030877Y-78789873D01*
X116214242Y-78691862D01*
X116374962Y-78559962D01*
X116506862Y-78399242D01*
X116604873Y-78215877D01*
X116665228Y-78016914D01*
X116685607Y-77810000D01*
X124724393Y-77810000D01*
X124744771Y-78016911D01*
X124805129Y-78215882D01*
X124903134Y-78399236D01*
X124903138Y-78399243D01*
X125035037Y-78559962D01*
X125195756Y-78691861D01*
X125195763Y-78691865D01*
X125364528Y-78782072D01*
X125379123Y-78789873D01*
X125578086Y-78850228D01*
X125785000Y-78870607D01*
X125991914Y-78850228D01*
X126190877Y-78789873D01*
X126374242Y-78691862D01*
X126534962Y-78559962D01*
X126666862Y-78399242D01*
X126764873Y-78215877D01*
X126825228Y-78016914D01*
X126845607Y-77810000D01*
X126825228Y-77603086D01*
X126764873Y-77404123D01*
X126708951Y-77299500D01*
X126666865Y-77220763D01*
X126666861Y-77220756D01*
X126534962Y-77060037D01*
X126374243Y-76928138D01*
X126374236Y-76928134D01*
X126190882Y-76830129D01*
X126190879Y-76830128D01*
X126190877Y-76830127D01*
X125991914Y-76769772D01*
X125991911Y-76769771D01*
X125785000Y-76749393D01*
X125578088Y-76769771D01*
X125441567Y-76811184D01*
X125379123Y-76830127D01*
X125379122Y-76830127D01*
X125379117Y-76830129D01*
X125195763Y-76928134D01*
X125195756Y-76928138D01*
X125035037Y-77060037D01*
X124903138Y-77220756D01*
X124903134Y-77220763D01*
X124805129Y-77404117D01*
X124744771Y-77603088D01*
X124724393Y-77810000D01*
X116685607Y-77810000D01*
X116665228Y-77603086D01*
X116604873Y-77404123D01*
X116548951Y-77299500D01*
X116506865Y-77220763D01*
X116506861Y-77220756D01*
X116374962Y-77060037D01*
X116214243Y-76928138D01*
X116214236Y-76928134D01*
X116030882Y-76830129D01*
X116030879Y-76830128D01*
X116030877Y-76830127D01*
X115831914Y-76769772D01*
X115831911Y-76769771D01*
X115625000Y-76749393D01*
X115418088Y-76769771D01*
X115281567Y-76811184D01*
X115219123Y-76830127D01*
X115219122Y-76830127D01*
X115219117Y-76830129D01*
X115035763Y-76928134D01*
X115035756Y-76928138D01*
X114875037Y-77060037D01*
X114743138Y-77220756D01*
X114743134Y-77220763D01*
X114645129Y-77404117D01*
X114584771Y-77603088D01*
X114564393Y-77810000D01*
X106525607Y-77810000D01*
X106505228Y-77603086D01*
X106444873Y-77404123D01*
X106388951Y-77299500D01*
X106346865Y-77220763D01*
X106346861Y-77220756D01*
X106214962Y-77060037D01*
X106054243Y-76928138D01*
X106054236Y-76928134D01*
X105870882Y-76830129D01*
X105870879Y-76830128D01*
X105870877Y-76830127D01*
X105671914Y-76769772D01*
X105671911Y-76769771D01*
X105465000Y-76749393D01*
X105258088Y-76769771D01*
X105121567Y-76811184D01*
X105059123Y-76830127D01*
X105059122Y-76830127D01*
X105059117Y-76830129D01*
X104875763Y-76928134D01*
X104875756Y-76928138D01*
X104715037Y-77060037D01*
X104583138Y-77220756D01*
X104583134Y-77220763D01*
X104485129Y-77404117D01*
X104424771Y-77603088D01*
X104404393Y-77810000D01*
X100400500Y-77810000D01*
X100400500Y-73539562D01*
X105049500Y-73539562D01*
X105049984Y-73541367D01*
X105069979Y-73615991D01*
X105069980Y-73615992D01*
X105080925Y-73634949D01*
X105080927Y-73634952D01*
X105080928Y-73634953D01*
X105109540Y-73684511D01*
X106765489Y-75340460D01*
X106824829Y-75374720D01*
X106834008Y-75380020D01*
X106834012Y-75380022D01*
X106910438Y-75400500D01*
X106910440Y-75400500D01*
X107539560Y-75400500D01*
X107539562Y-75400500D01*
X107615989Y-75380021D01*
X107684511Y-75340460D01*
X107740460Y-75284511D01*
X108215460Y-74809511D01*
X108221240Y-74799500D01*
X108255021Y-74740989D01*
X108272703Y-74675000D01*
X133244722Y-74675000D01*
X133263762Y-74831818D01*
X133286939Y-74892929D01*
X133319780Y-74979523D01*
X133409517Y-75109530D01*
X133527760Y-75214283D01*
X133527762Y-75214284D01*
X133667634Y-75287696D01*
X133821014Y-75325500D01*
X133821015Y-75325500D01*
X133978985Y-75325500D01*
X134132365Y-75287696D01*
X134138433Y-75284511D01*
X134272240Y-75214283D01*
X134390483Y-75109530D01*
X134480220Y-74979523D01*
X134536237Y-74831818D01*
X134555278Y-74675000D01*
X134538504Y-74536848D01*
X134536237Y-74518181D01*
X134500898Y-74425000D01*
X134480220Y-74370477D01*
X134390483Y-74240470D01*
X134272240Y-74135717D01*
X134272238Y-74135716D01*
X134272237Y-74135715D01*
X134132365Y-74062303D01*
X133978986Y-74024500D01*
X133978985Y-74024500D01*
X133821015Y-74024500D01*
X133821014Y-74024500D01*
X133667634Y-74062303D01*
X133527762Y-74135715D01*
X133409516Y-74240471D01*
X133319781Y-74370475D01*
X133319780Y-74370476D01*
X133263762Y-74518181D01*
X133244722Y-74674999D01*
X133244722Y-74675000D01*
X108272703Y-74675000D01*
X108275500Y-74664562D01*
X108275500Y-73550000D01*
X127644722Y-73550000D01*
X127663762Y-73706818D01*
X127694539Y-73787968D01*
X127719780Y-73854523D01*
X127809517Y-73984530D01*
X127927760Y-74089283D01*
X127927762Y-74089284D01*
X128067634Y-74162696D01*
X128221014Y-74200500D01*
X128221015Y-74200500D01*
X128378985Y-74200500D01*
X128532365Y-74162696D01*
X128672240Y-74089283D01*
X128790483Y-73984530D01*
X128880220Y-73854523D01*
X128936237Y-73706818D01*
X128955278Y-73550000D01*
X128944678Y-73462696D01*
X128936237Y-73393181D01*
X128905257Y-73311494D01*
X128880220Y-73245477D01*
X128790483Y-73115470D01*
X128744801Y-73075000D01*
X159144722Y-73075000D01*
X159163762Y-73231818D01*
X159218265Y-73375529D01*
X159219780Y-73379523D01*
X159309517Y-73509530D01*
X159427760Y-73614283D01*
X159431014Y-73615991D01*
X159567634Y-73687696D01*
X159579388Y-73690593D01*
X159639769Y-73725748D01*
X159671558Y-73787968D01*
X159664663Y-73857496D01*
X159631941Y-73903805D01*
X159571818Y-73957069D01*
X159475182Y-74097068D01*
X159414860Y-74256125D01*
X159414859Y-74256130D01*
X159394355Y-74425000D01*
X159414859Y-74593869D01*
X159414860Y-74593874D01*
X159475182Y-74752931D01*
X159505371Y-74796666D01*
X159571817Y-74892929D01*
X159669562Y-74979523D01*
X159699150Y-75005736D01*
X159849773Y-75084789D01*
X159849775Y-75084790D01*
X160014944Y-75125500D01*
X160185056Y-75125500D01*
X160350225Y-75084790D01*
X160429692Y-75043081D01*
X160500849Y-75005736D01*
X160500850Y-75005734D01*
X160500852Y-75005734D01*
X160628183Y-74892929D01*
X160724818Y-74752930D01*
X160785140Y-74593872D01*
X160805645Y-74425000D01*
X160785140Y-74256128D01*
X160724818Y-74097070D01*
X160628183Y-73957071D01*
X160500852Y-73844266D01*
X160500849Y-73844263D01*
X160350226Y-73765210D01*
X160307097Y-73754580D01*
X160246717Y-73719424D01*
X160214928Y-73657205D01*
X160221824Y-73587676D01*
X160254546Y-73541367D01*
X160256584Y-73539562D01*
X160290483Y-73509530D01*
X160380220Y-73379523D01*
X160436237Y-73231818D01*
X160455278Y-73075000D01*
X160447473Y-73010717D01*
X160437619Y-72929562D01*
X160449080Y-72860639D01*
X160473031Y-72826938D01*
X162040460Y-71259511D01*
X162054638Y-71234953D01*
X162080021Y-71190989D01*
X162080021Y-71190986D01*
X162083130Y-71183483D01*
X162084742Y-71184150D01*
X162115947Y-71132948D01*
X162178792Y-71102414D01*
X162248168Y-71110704D01*
X162287044Y-71137015D01*
X162626965Y-71476936D01*
X162660450Y-71538259D01*
X162662380Y-71579563D01*
X162644722Y-71724999D01*
X162644722Y-71725000D01*
X162663762Y-71881818D01*
X162707471Y-71997068D01*
X162719780Y-72029523D01*
X162809517Y-72159530D01*
X162927760Y-72264283D01*
X162927762Y-72264284D01*
X163067634Y-72337696D01*
X163221014Y-72375500D01*
X163221015Y-72375500D01*
X163378985Y-72375500D01*
X163532365Y-72337696D01*
X163556555Y-72325000D01*
X163672240Y-72264283D01*
X163790483Y-72159530D01*
X163880220Y-72029523D01*
X163936237Y-71881818D01*
X163955278Y-71725000D01*
X163936237Y-71568182D01*
X163880220Y-71420477D01*
X163790483Y-71290470D01*
X163672240Y-71185717D01*
X163672238Y-71185716D01*
X163672237Y-71185715D01*
X163532365Y-71112303D01*
X163378986Y-71074500D01*
X163378985Y-71074500D01*
X163221015Y-71074500D01*
X163221011Y-71074500D01*
X163171349Y-71086740D01*
X163101547Y-71083670D01*
X163053995Y-71054024D01*
X162350903Y-70350932D01*
X162317418Y-70289609D01*
X162322402Y-70219917D01*
X162336528Y-70192820D01*
X162380220Y-70129523D01*
X162436237Y-69981818D01*
X162453738Y-69837681D01*
X162481358Y-69773506D01*
X162539292Y-69734449D01*
X162608923Y-69732855D01*
X162674776Y-69750500D01*
X162676923Y-69750500D01*
X162678666Y-69751012D01*
X162682836Y-69751561D01*
X162682750Y-69752211D01*
X162743962Y-69770185D01*
X162778972Y-69804059D01*
X162834517Y-69884530D01*
X162952760Y-69989283D01*
X162952762Y-69989284D01*
X163092634Y-70062696D01*
X163246014Y-70100500D01*
X163246015Y-70100500D01*
X163403985Y-70100500D01*
X163557365Y-70062696D01*
X163697240Y-69989283D01*
X163815483Y-69884530D01*
X163905220Y-69754523D01*
X163961237Y-69606818D01*
X163980278Y-69450000D01*
X163961237Y-69293182D01*
X163905220Y-69145477D01*
X163815483Y-69015470D01*
X163697240Y-68910717D01*
X163697238Y-68910716D01*
X163697237Y-68910715D01*
X163557365Y-68837303D01*
X163403986Y-68799500D01*
X163403985Y-68799500D01*
X163246015Y-68799500D01*
X163246014Y-68799500D01*
X163092634Y-68837303D01*
X162952761Y-68910715D01*
X162952759Y-68910717D01*
X162853093Y-68999012D01*
X162789860Y-69028733D01*
X162720596Y-69019549D01*
X162683186Y-68993877D01*
X162330203Y-68640894D01*
X162296718Y-68579571D01*
X162294788Y-68538267D01*
X162312447Y-68392831D01*
X162312447Y-68392830D01*
X162293406Y-68236012D01*
X162272161Y-68179995D01*
X162237389Y-68088308D01*
X162147652Y-67958301D01*
X162029409Y-67853548D01*
X162029407Y-67853547D01*
X162029406Y-67853546D01*
X161889534Y-67780134D01*
X161736155Y-67742331D01*
X161736154Y-67742331D01*
X161578184Y-67742331D01*
X161578183Y-67742331D01*
X161424803Y-67780134D01*
X161284931Y-67853546D01*
X161166685Y-67958302D01*
X161076950Y-68088306D01*
X161076949Y-68088307D01*
X161020931Y-68236012D01*
X161001891Y-68392830D01*
X161001891Y-68392831D01*
X161020931Y-68549649D01*
X161076949Y-68697354D01*
X161166686Y-68827361D01*
X161284929Y-68932114D01*
X161284931Y-68932115D01*
X161424803Y-69005527D01*
X161424802Y-69005527D01*
X161472614Y-69017311D01*
X161532995Y-69052467D01*
X161564784Y-69114686D01*
X161557888Y-69184214D01*
X161514498Y-69238978D01*
X161500567Y-69247504D01*
X161427761Y-69285716D01*
X161309516Y-69390471D01*
X161219781Y-69520475D01*
X161219780Y-69520476D01*
X161163762Y-69668181D01*
X161144722Y-69824999D01*
X161144722Y-69825000D01*
X161163762Y-69981818D01*
X161215479Y-70118182D01*
X161219780Y-70129523D01*
X161236314Y-70153477D01*
X161309517Y-70259531D01*
X161405790Y-70344820D01*
X161427760Y-70364283D01*
X161427763Y-70364284D01*
X161427765Y-70364286D01*
X161433120Y-70367096D01*
X161483335Y-70415678D01*
X161499500Y-70476895D01*
X161499500Y-70899166D01*
X161479815Y-70966205D01*
X161463181Y-70986847D01*
X160046003Y-72404024D01*
X159984680Y-72437509D01*
X159928648Y-72436740D01*
X159878986Y-72424500D01*
X159878985Y-72424500D01*
X159721015Y-72424500D01*
X159721014Y-72424500D01*
X159567634Y-72462303D01*
X159427762Y-72535715D01*
X159309516Y-72640471D01*
X159219781Y-72770475D01*
X159219780Y-72770476D01*
X159163762Y-72918181D01*
X159144722Y-73074999D01*
X159144722Y-73075000D01*
X128744801Y-73075000D01*
X128672240Y-73010717D01*
X128672238Y-73010716D01*
X128672237Y-73010715D01*
X128532365Y-72937303D01*
X128378986Y-72899500D01*
X128378985Y-72899500D01*
X128221015Y-72899500D01*
X128221014Y-72899500D01*
X128067634Y-72937303D01*
X127927762Y-73010715D01*
X127809516Y-73115471D01*
X127719781Y-73245475D01*
X127719780Y-73245476D01*
X127663762Y-73393181D01*
X127644722Y-73549999D01*
X127644722Y-73550000D01*
X108275500Y-73550000D01*
X108275500Y-73311494D01*
X108295185Y-73244455D01*
X108311819Y-73223813D01*
X108823813Y-72711819D01*
X108885136Y-72678334D01*
X108911494Y-72675500D01*
X115710438Y-72675500D01*
X116525943Y-72675500D01*
X116592982Y-72695185D01*
X116638737Y-72747989D01*
X116649039Y-72814446D01*
X116644722Y-72849999D01*
X116644722Y-72850000D01*
X116663762Y-73006818D01*
X116719780Y-73154523D01*
X116809517Y-73284530D01*
X116927760Y-73389283D01*
X116927762Y-73389284D01*
X117067634Y-73462696D01*
X117221014Y-73500500D01*
X117221015Y-73500500D01*
X117378985Y-73500500D01*
X117532365Y-73462696D01*
X117580026Y-73437681D01*
X117672240Y-73389283D01*
X117790483Y-73284530D01*
X117880220Y-73154523D01*
X117936237Y-73006818D01*
X117955278Y-72850000D01*
X117952478Y-72826935D01*
X117936237Y-72693181D01*
X117914443Y-72635715D01*
X117880220Y-72545477D01*
X117790483Y-72415470D01*
X117688362Y-72325000D01*
X155069355Y-72325000D01*
X155089859Y-72493869D01*
X155089860Y-72493874D01*
X155150182Y-72652931D01*
X155189877Y-72710438D01*
X155246817Y-72792929D01*
X155352505Y-72886560D01*
X155374150Y-72905736D01*
X155513181Y-72978705D01*
X155524775Y-72984790D01*
X155689944Y-73025500D01*
X155860056Y-73025500D01*
X156025225Y-72984790D01*
X156152135Y-72918182D01*
X156175849Y-72905736D01*
X156175850Y-72905734D01*
X156175852Y-72905734D01*
X156303183Y-72792929D01*
X156399818Y-72652930D01*
X156460140Y-72493872D01*
X156480645Y-72325000D01*
X156460140Y-72156128D01*
X156399818Y-71997070D01*
X156303183Y-71857071D01*
X156175852Y-71744266D01*
X156175849Y-71744263D01*
X156025226Y-71665210D01*
X155860056Y-71624500D01*
X155689944Y-71624500D01*
X155524773Y-71665210D01*
X155374150Y-71744263D01*
X155246816Y-71857072D01*
X155150182Y-71997068D01*
X155089860Y-72156125D01*
X155089859Y-72156130D01*
X155069355Y-72325000D01*
X117688362Y-72325000D01*
X117672240Y-72310717D01*
X117672238Y-72310716D01*
X117672237Y-72310715D01*
X117532365Y-72237303D01*
X117378986Y-72199500D01*
X117378985Y-72199500D01*
X117221015Y-72199500D01*
X117221011Y-72199500D01*
X117171349Y-72211740D01*
X117101547Y-72208670D01*
X117053995Y-72179024D01*
X117009512Y-72134541D01*
X117009504Y-72134535D01*
X116940995Y-72094982D01*
X116940990Y-72094979D01*
X116915513Y-72088152D01*
X116864562Y-72074500D01*
X115789562Y-72074500D01*
X108699833Y-72074500D01*
X108632794Y-72054815D01*
X108587039Y-72002011D01*
X108577095Y-71932853D01*
X108606120Y-71869297D01*
X108612152Y-71862819D01*
X109038152Y-71436819D01*
X109099475Y-71403334D01*
X109125833Y-71400500D01*
X114914560Y-71400500D01*
X114914562Y-71400500D01*
X114990989Y-71380021D01*
X115059511Y-71340460D01*
X115115460Y-71284511D01*
X115624971Y-70775000D01*
X125769722Y-70775000D01*
X125788762Y-70931818D01*
X125842875Y-71074500D01*
X125844780Y-71079523D01*
X125934517Y-71209530D01*
X126052760Y-71314283D01*
X126052762Y-71314284D01*
X126192634Y-71387696D01*
X126346014Y-71425500D01*
X126346015Y-71425500D01*
X126503985Y-71425500D01*
X126657365Y-71387696D01*
X126671996Y-71380017D01*
X126797240Y-71314283D01*
X126915483Y-71209530D01*
X126971027Y-71129059D01*
X127025310Y-71085070D01*
X127073077Y-71075500D01*
X133450822Y-71075500D01*
X133517861Y-71095185D01*
X133563616Y-71147989D01*
X133573917Y-71184551D01*
X133588763Y-71306818D01*
X133644780Y-71454523D01*
X133734517Y-71584530D01*
X133852760Y-71689283D01*
X133852762Y-71689284D01*
X133992634Y-71762696D01*
X134146014Y-71800500D01*
X134146015Y-71800500D01*
X134303985Y-71800500D01*
X134457365Y-71762696D01*
X134492480Y-71744266D01*
X134597240Y-71689283D01*
X134715483Y-71584530D01*
X134805220Y-71454523D01*
X134861237Y-71306818D01*
X134880278Y-71150000D01*
X134877736Y-71129060D01*
X134861237Y-70993181D01*
X134837965Y-70931818D01*
X134805220Y-70845477D01*
X134715483Y-70715470D01*
X134597240Y-70610717D01*
X134597238Y-70610716D01*
X134597237Y-70610715D01*
X134457365Y-70537303D01*
X134303986Y-70499500D01*
X134303985Y-70499500D01*
X134146015Y-70499500D01*
X134146012Y-70499500D01*
X134073790Y-70517300D01*
X134003988Y-70514230D01*
X133982117Y-70504290D01*
X133965992Y-70494980D01*
X133965991Y-70494979D01*
X133927775Y-70484739D01*
X133889562Y-70474500D01*
X133889560Y-70474500D01*
X127449833Y-70474500D01*
X127382794Y-70454815D01*
X127337039Y-70402011D01*
X127327095Y-70332853D01*
X127356120Y-70269297D01*
X127362152Y-70262819D01*
X132813152Y-64811819D01*
X132874475Y-64778334D01*
X132900833Y-64775500D01*
X133651923Y-64775500D01*
X133718962Y-64795185D01*
X133753972Y-64829059D01*
X133809517Y-64909530D01*
X133863873Y-64957685D01*
X133900999Y-65016873D01*
X133900232Y-65086739D01*
X133861815Y-65145099D01*
X133797945Y-65173424D01*
X133781646Y-65174500D01*
X133646014Y-65174500D01*
X133492634Y-65212303D01*
X133352762Y-65285715D01*
X133234516Y-65390471D01*
X133144781Y-65520475D01*
X133144780Y-65520476D01*
X133088762Y-65668181D01*
X133069722Y-65824999D01*
X133069722Y-65825000D01*
X133088762Y-65981818D01*
X133141333Y-66120434D01*
X133144780Y-66129523D01*
X133234517Y-66259530D01*
X133352760Y-66364283D01*
X133352762Y-66364284D01*
X133492634Y-66437696D01*
X133646014Y-66475500D01*
X133646015Y-66475500D01*
X133803985Y-66475500D01*
X133957365Y-66437696D01*
X134021452Y-66404060D01*
X134097240Y-66364283D01*
X134215483Y-66259530D01*
X134305220Y-66129523D01*
X134361237Y-65981818D01*
X134380278Y-65825000D01*
X134373598Y-65769980D01*
X134361237Y-65668181D01*
X134339992Y-65612164D01*
X134305220Y-65520477D01*
X134215483Y-65390470D01*
X134161126Y-65342314D01*
X134124001Y-65283127D01*
X134124768Y-65213261D01*
X134163185Y-65154901D01*
X134227055Y-65126576D01*
X134243354Y-65125500D01*
X134378985Y-65125500D01*
X134532365Y-65087696D01*
X134534188Y-65086739D01*
X134672240Y-65014283D01*
X134790483Y-64909530D01*
X134880220Y-64779523D01*
X134910379Y-64700000D01*
X149944355Y-64700000D01*
X149964859Y-64868869D01*
X149964860Y-64868874D01*
X150025182Y-65027931D01*
X150065775Y-65086739D01*
X150121817Y-65167929D01*
X150227505Y-65261560D01*
X150249150Y-65280736D01*
X150366481Y-65342316D01*
X150399775Y-65359790D01*
X150564944Y-65400500D01*
X150735056Y-65400500D01*
X150900225Y-65359790D01*
X151046293Y-65283127D01*
X151050849Y-65280736D01*
X151050850Y-65280734D01*
X151050852Y-65280734D01*
X151178183Y-65167929D01*
X151274818Y-65027930D01*
X151335140Y-64868872D01*
X151355645Y-64700000D01*
X151335140Y-64531128D01*
X151274818Y-64372070D01*
X151178183Y-64232071D01*
X151050852Y-64119266D01*
X151050849Y-64119263D01*
X150900226Y-64040210D01*
X150735056Y-63999500D01*
X150564944Y-63999500D01*
X150399773Y-64040210D01*
X150249150Y-64119263D01*
X150121816Y-64232072D01*
X150025182Y-64372068D01*
X149964860Y-64531125D01*
X149964859Y-64531130D01*
X149944355Y-64700000D01*
X134910379Y-64700000D01*
X134936237Y-64631818D01*
X134955278Y-64475000D01*
X134936237Y-64318182D01*
X134880220Y-64170477D01*
X134790483Y-64040470D01*
X134672240Y-63935717D01*
X134672238Y-63935716D01*
X134672237Y-63935715D01*
X134532365Y-63862303D01*
X134378986Y-63824500D01*
X134378985Y-63824500D01*
X134221015Y-63824500D01*
X134221014Y-63824500D01*
X134067634Y-63862303D01*
X133927762Y-63935715D01*
X133927760Y-63935717D01*
X133809517Y-64040470D01*
X133755131Y-64119263D01*
X133753973Y-64120940D01*
X133699690Y-64164930D01*
X133651923Y-64174500D01*
X132685438Y-64174500D01*
X132647224Y-64184739D01*
X132609009Y-64194979D01*
X132609004Y-64194982D01*
X132540495Y-64234535D01*
X132540487Y-64234541D01*
X126671003Y-70104024D01*
X126609680Y-70137509D01*
X126553648Y-70136740D01*
X126503986Y-70124500D01*
X126503985Y-70124500D01*
X126346015Y-70124500D01*
X126346014Y-70124500D01*
X126192634Y-70162303D01*
X126052762Y-70235715D01*
X125934516Y-70340471D01*
X125844781Y-70470475D01*
X125844780Y-70470476D01*
X125788762Y-70618181D01*
X125769722Y-70774999D01*
X125769722Y-70775000D01*
X115624971Y-70775000D01*
X120013152Y-66386819D01*
X120074475Y-66353334D01*
X120100833Y-66350500D01*
X120426923Y-66350500D01*
X120493962Y-66370185D01*
X120528972Y-66404059D01*
X120584517Y-66484530D01*
X120702760Y-66589283D01*
X120702762Y-66589284D01*
X120842634Y-66662696D01*
X120996014Y-66700500D01*
X120996015Y-66700500D01*
X121153985Y-66700500D01*
X121307365Y-66662696D01*
X121378235Y-66625500D01*
X121447240Y-66589283D01*
X121565483Y-66484530D01*
X121655220Y-66354523D01*
X121711237Y-66206818D01*
X121730278Y-66050000D01*
X121721172Y-65975000D01*
X121711237Y-65893181D01*
X121666273Y-65774622D01*
X121655220Y-65745477D01*
X121565483Y-65615470D01*
X121447240Y-65510717D01*
X121447238Y-65510716D01*
X121447237Y-65510715D01*
X121307365Y-65437303D01*
X121257448Y-65425000D01*
X122544722Y-65425000D01*
X122563762Y-65581818D01*
X122619780Y-65729523D01*
X122709517Y-65859530D01*
X122827760Y-65964283D01*
X122827762Y-65964284D01*
X122967634Y-66037696D01*
X123121014Y-66075500D01*
X123121015Y-66075500D01*
X123278985Y-66075500D01*
X123432365Y-66037696D01*
X123572240Y-65964283D01*
X123690483Y-65859530D01*
X123780220Y-65729523D01*
X123836237Y-65581818D01*
X123855278Y-65425000D01*
X123851086Y-65390471D01*
X123836237Y-65268181D01*
X123793275Y-65154901D01*
X123780220Y-65120477D01*
X123690483Y-64990470D01*
X123572240Y-64885717D01*
X123572238Y-64885716D01*
X123572237Y-64885715D01*
X123432365Y-64812303D01*
X123278986Y-64774500D01*
X123278985Y-64774500D01*
X123121015Y-64774500D01*
X123121014Y-64774500D01*
X122967634Y-64812303D01*
X122827762Y-64885715D01*
X122709516Y-64990471D01*
X122619781Y-65120475D01*
X122619780Y-65120476D01*
X122563762Y-65268181D01*
X122544722Y-65424999D01*
X122544722Y-65425000D01*
X121257448Y-65425000D01*
X121153986Y-65399500D01*
X121153985Y-65399500D01*
X120996015Y-65399500D01*
X120996014Y-65399500D01*
X120842634Y-65437303D01*
X120702762Y-65510715D01*
X120584516Y-65615471D01*
X120528973Y-65695940D01*
X120474690Y-65739930D01*
X120426923Y-65749500D01*
X119885438Y-65749500D01*
X119818039Y-65767559D01*
X119809007Y-65769980D01*
X119744644Y-65807141D01*
X119744643Y-65807142D01*
X119740483Y-65809543D01*
X119736897Y-65812295D01*
X119671726Y-65837484D01*
X119603282Y-65823440D01*
X119553296Y-65774622D01*
X119537639Y-65706529D01*
X119561281Y-65640781D01*
X119573734Y-65626236D01*
X124324969Y-60875000D01*
X133894722Y-60875000D01*
X133913762Y-61031818D01*
X133969780Y-61179523D01*
X134059517Y-61309530D01*
X134177760Y-61414283D01*
X134177762Y-61414284D01*
X134317634Y-61487696D01*
X134471014Y-61525500D01*
X134471015Y-61525500D01*
X134628985Y-61525500D01*
X134782365Y-61487696D01*
X134922240Y-61414283D01*
X135040483Y-61309530D01*
X135130220Y-61179523D01*
X135186237Y-61031818D01*
X135205278Y-60875000D01*
X135186237Y-60718182D01*
X135130220Y-60570477D01*
X135040483Y-60440470D01*
X134922240Y-60335717D01*
X134922238Y-60335716D01*
X134922237Y-60335715D01*
X134782365Y-60262303D01*
X134628986Y-60224500D01*
X134628985Y-60224500D01*
X134471015Y-60224500D01*
X134471014Y-60224500D01*
X134317634Y-60262303D01*
X134177762Y-60335715D01*
X134059516Y-60440471D01*
X133969781Y-60570475D01*
X133969780Y-60570476D01*
X133913762Y-60718181D01*
X133894722Y-60874999D01*
X133894722Y-60875000D01*
X124324969Y-60875000D01*
X127703997Y-57495972D01*
X127765318Y-57462489D01*
X127821351Y-57463258D01*
X127871012Y-57475499D01*
X127871013Y-57475500D01*
X127871015Y-57475500D01*
X128028985Y-57475500D01*
X128182365Y-57437696D01*
X128225688Y-57414958D01*
X128322240Y-57364283D01*
X128440483Y-57259530D01*
X128530220Y-57129523D01*
X128586237Y-56981818D01*
X128605278Y-56825000D01*
X128586237Y-56668182D01*
X128577017Y-56643872D01*
X128543984Y-56556770D01*
X128530220Y-56520477D01*
X128498830Y-56475000D01*
X155494355Y-56475000D01*
X155514859Y-56643869D01*
X155514860Y-56643874D01*
X155575182Y-56802931D01*
X155602758Y-56842881D01*
X155671817Y-56942929D01*
X155755930Y-57017446D01*
X155799150Y-57055736D01*
X155949773Y-57134789D01*
X155949775Y-57134790D01*
X156114944Y-57175500D01*
X156285056Y-57175500D01*
X156450225Y-57134790D01*
X156546773Y-57084117D01*
X156600849Y-57055736D01*
X156600850Y-57055734D01*
X156600852Y-57055734D01*
X156728183Y-56942929D01*
X156824818Y-56802930D01*
X156885140Y-56643872D01*
X156905645Y-56475000D01*
X156885140Y-56306128D01*
X156877398Y-56285715D01*
X156824817Y-56147068D01*
X156765211Y-56060715D01*
X156728183Y-56007071D01*
X156600852Y-55894266D01*
X156600849Y-55894263D01*
X156450226Y-55815210D01*
X156285056Y-55774500D01*
X156114944Y-55774500D01*
X155949773Y-55815210D01*
X155799150Y-55894263D01*
X155671816Y-56007072D01*
X155575182Y-56147068D01*
X155514860Y-56306125D01*
X155514859Y-56306130D01*
X155494355Y-56475000D01*
X128498830Y-56475000D01*
X128440483Y-56390470D01*
X128322240Y-56285717D01*
X128322238Y-56285716D01*
X128322237Y-56285715D01*
X128182365Y-56212303D01*
X128028986Y-56174500D01*
X128028985Y-56174500D01*
X127871015Y-56174500D01*
X127871014Y-56174500D01*
X127717634Y-56212303D01*
X127577761Y-56285715D01*
X127577759Y-56285716D01*
X127571273Y-56291463D01*
X127508039Y-56321181D01*
X127438776Y-56311994D01*
X127387002Y-56269084D01*
X127315483Y-56165470D01*
X127197240Y-56060717D01*
X127197238Y-56060716D01*
X127197237Y-56060715D01*
X127057365Y-55987303D01*
X126903986Y-55949500D01*
X126903985Y-55949500D01*
X126746015Y-55949500D01*
X126746014Y-55949500D01*
X126592634Y-55987303D01*
X126452762Y-56060715D01*
X126334516Y-56165471D01*
X126244781Y-56295475D01*
X126244780Y-56295476D01*
X126188762Y-56443181D01*
X126169722Y-56599999D01*
X126169722Y-56600000D01*
X126188762Y-56756818D01*
X126244780Y-56904523D01*
X126244781Y-56904524D01*
X126334517Y-57034531D01*
X126395847Y-57088863D01*
X126452760Y-57139283D01*
X126452762Y-57139284D01*
X126456126Y-57142264D01*
X126493253Y-57201453D01*
X126492487Y-57271318D01*
X126461581Y-57322761D01*
X114296162Y-69488181D01*
X114234839Y-69521666D01*
X114208481Y-69524500D01*
X112339364Y-69524500D01*
X112272325Y-69504815D01*
X112226570Y-69452011D01*
X112216626Y-69382853D01*
X112223422Y-69356529D01*
X112244860Y-69300000D01*
X112261237Y-69256818D01*
X112280278Y-69100000D01*
X112274507Y-69052467D01*
X112261237Y-68943181D01*
X112217311Y-68827359D01*
X112205220Y-68795477D01*
X112115483Y-68665470D01*
X111997240Y-68560717D01*
X111997238Y-68560716D01*
X111997237Y-68560715D01*
X111857365Y-68487303D01*
X111703986Y-68449500D01*
X111703985Y-68449500D01*
X111546015Y-68449500D01*
X111546014Y-68449500D01*
X111392634Y-68487303D01*
X111252762Y-68560715D01*
X111134516Y-68665471D01*
X111044781Y-68795475D01*
X111044780Y-68795476D01*
X110988762Y-68943181D01*
X110969722Y-69099999D01*
X110969722Y-69100000D01*
X110988762Y-69256818D01*
X111026578Y-69356529D01*
X111044780Y-69404523D01*
X111134517Y-69534530D01*
X111252760Y-69639283D01*
X111252762Y-69639284D01*
X111392635Y-69712696D01*
X111399651Y-69715357D01*
X111398546Y-69718270D01*
X111443739Y-69743710D01*
X111462848Y-69762819D01*
X111496333Y-69824142D01*
X111491349Y-69893834D01*
X111449477Y-69949767D01*
X111384013Y-69974184D01*
X111375167Y-69974500D01*
X110223077Y-69974500D01*
X110156038Y-69954815D01*
X110121027Y-69920940D01*
X110095895Y-69884530D01*
X110065483Y-69840470D01*
X109947240Y-69735717D01*
X109947238Y-69735716D01*
X109947237Y-69735715D01*
X109807365Y-69662303D01*
X109653986Y-69624500D01*
X109653985Y-69624500D01*
X109496015Y-69624500D01*
X109496014Y-69624500D01*
X109342634Y-69662303D01*
X109202762Y-69735715D01*
X109084516Y-69840471D01*
X108994781Y-69970475D01*
X108994780Y-69970476D01*
X108938762Y-70118181D01*
X108919722Y-70274999D01*
X108919722Y-70275000D01*
X108938762Y-70431818D01*
X108994780Y-70579523D01*
X108994780Y-70579524D01*
X109012407Y-70605060D01*
X109034290Y-70671414D01*
X109016825Y-70739066D01*
X108965557Y-70786536D01*
X108918388Y-70797613D01*
X108918497Y-70798439D01*
X108910440Y-70799499D01*
X108834009Y-70819979D01*
X108834008Y-70819980D01*
X108789850Y-70845475D01*
X108789847Y-70845477D01*
X108782609Y-70849655D01*
X108765489Y-70859539D01*
X108765487Y-70859541D01*
X107121003Y-72504024D01*
X107059680Y-72537509D01*
X107003648Y-72536740D01*
X106953986Y-72524500D01*
X106953985Y-72524500D01*
X106796015Y-72524500D01*
X106796014Y-72524500D01*
X106642634Y-72562303D01*
X106502762Y-72635715D01*
X106502760Y-72635717D01*
X106418417Y-72710438D01*
X106384516Y-72740471D01*
X106294781Y-72870475D01*
X106294780Y-72870476D01*
X106238762Y-73018181D01*
X106219722Y-73174999D01*
X106219722Y-73175000D01*
X106238762Y-73331818D01*
X106288398Y-73462696D01*
X106294780Y-73479523D01*
X106384517Y-73609530D01*
X106502760Y-73714283D01*
X106502762Y-73714284D01*
X106642634Y-73787696D01*
X106796014Y-73825500D01*
X106796015Y-73825500D01*
X106953985Y-73825500D01*
X107107365Y-73787696D01*
X107170461Y-73754580D01*
X107247240Y-73714283D01*
X107365483Y-73609530D01*
X107448450Y-73489330D01*
X107502733Y-73445341D01*
X107572181Y-73437681D01*
X107634746Y-73468784D01*
X107670564Y-73528775D01*
X107674500Y-73559771D01*
X107674500Y-74449167D01*
X107654815Y-74516206D01*
X107638181Y-74536848D01*
X107411848Y-74763181D01*
X107350525Y-74796666D01*
X107324167Y-74799500D01*
X107125833Y-74799500D01*
X107058794Y-74779815D01*
X107038152Y-74763181D01*
X105686819Y-73411848D01*
X105653334Y-73350525D01*
X105650500Y-73324167D01*
X105650500Y-66747798D01*
X105670185Y-66680759D01*
X105722989Y-66635004D01*
X105789450Y-66624703D01*
X105796012Y-66625500D01*
X105796015Y-66625500D01*
X105953985Y-66625500D01*
X106107365Y-66587696D01*
X106247240Y-66514283D01*
X106365483Y-66409530D01*
X106455220Y-66279523D01*
X106511237Y-66131818D01*
X106530278Y-65975000D01*
X106520344Y-65893181D01*
X106511237Y-65818181D01*
X106481560Y-65739930D01*
X106455220Y-65670477D01*
X106365483Y-65540470D01*
X106247240Y-65435717D01*
X106247238Y-65435716D01*
X106247237Y-65435715D01*
X106107365Y-65362303D01*
X105953986Y-65324500D01*
X105953985Y-65324500D01*
X105796015Y-65324500D01*
X105796014Y-65324500D01*
X105642634Y-65362303D01*
X105502762Y-65435715D01*
X105384516Y-65540471D01*
X105294781Y-65670475D01*
X105294780Y-65670476D01*
X105238762Y-65818181D01*
X105219722Y-65974999D01*
X105219722Y-65975000D01*
X105237380Y-66120434D01*
X105225919Y-66189357D01*
X105201968Y-66223059D01*
X105165491Y-66259538D01*
X105109538Y-66315491D01*
X105109535Y-66315495D01*
X105069982Y-66384004D01*
X105069979Y-66384009D01*
X105063141Y-66409530D01*
X105049500Y-66460438D01*
X105049500Y-72710438D01*
X105049500Y-73539562D01*
X100400500Y-73539562D01*
X100400500Y-71930216D01*
X100420185Y-71863177D01*
X100472989Y-71817422D01*
X100542147Y-71807478D01*
X100605703Y-71836503D01*
X100640441Y-71886244D01*
X100694780Y-72029523D01*
X100784517Y-72159530D01*
X100902760Y-72264283D01*
X100902762Y-72264284D01*
X101042634Y-72337696D01*
X101196014Y-72375500D01*
X101196015Y-72375500D01*
X101353985Y-72375500D01*
X101507365Y-72337696D01*
X101531555Y-72325000D01*
X101647240Y-72264283D01*
X101765483Y-72159530D01*
X101855220Y-72029523D01*
X101911237Y-71881818D01*
X101930278Y-71725000D01*
X101911237Y-71568182D01*
X101855220Y-71420477D01*
X101765483Y-71290470D01*
X101647240Y-71185717D01*
X101647238Y-71185716D01*
X101647237Y-71185715D01*
X101507365Y-71112303D01*
X101353986Y-71074500D01*
X101353985Y-71074500D01*
X101196015Y-71074500D01*
X101196014Y-71074500D01*
X101042634Y-71112303D01*
X100902762Y-71185715D01*
X100875880Y-71209530D01*
X100791244Y-71284511D01*
X100784516Y-71290471D01*
X100694781Y-71420475D01*
X100694780Y-71420476D01*
X100640442Y-71563754D01*
X100598264Y-71619457D01*
X100532666Y-71643514D01*
X100464476Y-71628287D01*
X100415343Y-71578611D01*
X100400500Y-71519783D01*
X100400500Y-69300000D01*
X100994722Y-69300000D01*
X101013762Y-69456818D01*
X101039431Y-69524500D01*
X101069780Y-69604523D01*
X101159517Y-69734530D01*
X101277760Y-69839283D01*
X101277762Y-69839284D01*
X101417634Y-69912696D01*
X101571014Y-69950500D01*
X101571015Y-69950500D01*
X101728985Y-69950500D01*
X101882365Y-69912696D01*
X101936034Y-69884528D01*
X102022240Y-69839283D01*
X102140483Y-69734530D01*
X102230220Y-69604523D01*
X102286237Y-69456818D01*
X102305278Y-69300000D01*
X102286516Y-69145475D01*
X102286237Y-69143181D01*
X102251833Y-69052467D01*
X102230220Y-68995477D01*
X102140483Y-68865470D01*
X102022240Y-68760717D01*
X102022238Y-68760716D01*
X102022237Y-68760715D01*
X101882365Y-68687303D01*
X101728986Y-68649500D01*
X101728985Y-68649500D01*
X101571015Y-68649500D01*
X101571014Y-68649500D01*
X101417634Y-68687303D01*
X101277762Y-68760715D01*
X101159516Y-68865471D01*
X101069781Y-68995475D01*
X101069780Y-68995476D01*
X101013762Y-69143181D01*
X100994722Y-69299999D01*
X100994722Y-69300000D01*
X100400500Y-69300000D01*
X100400500Y-63700000D01*
X108269355Y-63700000D01*
X108289859Y-63868869D01*
X108289860Y-63868874D01*
X108350182Y-64027931D01*
X108358838Y-64040471D01*
X108446817Y-64167929D01*
X108519219Y-64232071D01*
X108574150Y-64280736D01*
X108724773Y-64359789D01*
X108724775Y-64359790D01*
X108889944Y-64400500D01*
X109060056Y-64400500D01*
X109225225Y-64359790D01*
X109304692Y-64318081D01*
X109375849Y-64280736D01*
X109375850Y-64280734D01*
X109375852Y-64280734D01*
X109503183Y-64167929D01*
X109599818Y-64027930D01*
X109660140Y-63868872D01*
X109680645Y-63700000D01*
X109660140Y-63531128D01*
X109599818Y-63372070D01*
X109503183Y-63232071D01*
X109375852Y-63119266D01*
X109375849Y-63119263D01*
X109225226Y-63040210D01*
X109060056Y-62999500D01*
X108889944Y-62999500D01*
X108724773Y-63040210D01*
X108574150Y-63119263D01*
X108446816Y-63232072D01*
X108350182Y-63372068D01*
X108289860Y-63531125D01*
X108289859Y-63531130D01*
X108269355Y-63700000D01*
X100400500Y-63700000D01*
X100400500Y-57490000D01*
X104404393Y-57490000D01*
X104424771Y-57696911D01*
X104424772Y-57696914D01*
X104468173Y-57839989D01*
X104485129Y-57895882D01*
X104583134Y-58079236D01*
X104583138Y-58079243D01*
X104715037Y-58239962D01*
X104875756Y-58371861D01*
X104875763Y-58371865D01*
X105059115Y-58469869D01*
X105059116Y-58469869D01*
X105059123Y-58469873D01*
X105076494Y-58475142D01*
X105134931Y-58513435D01*
X105163390Y-58577246D01*
X105164500Y-58593802D01*
X105164500Y-59029562D01*
X105171189Y-59054524D01*
X105184979Y-59105990D01*
X105184982Y-59105995D01*
X105224535Y-59174504D01*
X105224539Y-59174509D01*
X105224540Y-59174511D01*
X106134540Y-60084511D01*
X106190489Y-60140460D01*
X106190491Y-60140461D01*
X106190495Y-60140464D01*
X106259004Y-60180017D01*
X106259011Y-60180021D01*
X106335438Y-60200500D01*
X106335440Y-60200500D01*
X119314560Y-60200500D01*
X119314562Y-60200500D01*
X119390989Y-60180021D01*
X119459511Y-60140460D01*
X119515460Y-60084511D01*
X120163151Y-59436818D01*
X120224474Y-59403334D01*
X120250832Y-59400500D01*
X120403985Y-59400500D01*
X120557365Y-59362696D01*
X120697240Y-59289283D01*
X120815483Y-59184530D01*
X120905220Y-59054523D01*
X120961237Y-58906818D01*
X120980278Y-58750000D01*
X120961237Y-58593182D01*
X120955193Y-58577246D01*
X120918695Y-58481008D01*
X120905220Y-58445477D01*
X120815483Y-58315470D01*
X120697240Y-58210717D01*
X120697238Y-58210716D01*
X120697237Y-58210715D01*
X120557365Y-58137303D01*
X120403986Y-58099500D01*
X120403985Y-58099500D01*
X120246015Y-58099500D01*
X120246014Y-58099500D01*
X120092634Y-58137303D01*
X119952762Y-58210715D01*
X119834516Y-58315471D01*
X119744781Y-58445475D01*
X119744780Y-58445476D01*
X119688762Y-58593181D01*
X119669722Y-58749999D01*
X119669722Y-58750000D01*
X119688763Y-58906819D01*
X119688763Y-58906821D01*
X119702801Y-58943836D01*
X119708168Y-59013499D01*
X119675020Y-59075005D01*
X119674540Y-59075487D01*
X119186848Y-59563181D01*
X119125525Y-59596666D01*
X119099167Y-59599500D01*
X106550833Y-59599500D01*
X106483794Y-59579815D01*
X106463152Y-59563181D01*
X105801819Y-58901848D01*
X105768334Y-58840525D01*
X105765500Y-58814167D01*
X105765500Y-58593802D01*
X105785185Y-58526763D01*
X105837989Y-58481008D01*
X105853490Y-58475147D01*
X105870877Y-58469873D01*
X106054242Y-58371862D01*
X106214962Y-58239962D01*
X106346862Y-58079242D01*
X106444873Y-57895877D01*
X106505228Y-57696914D01*
X106525607Y-57490005D01*
X111725356Y-57490005D01*
X111743899Y-57713786D01*
X111799025Y-57931476D01*
X111889228Y-58137118D01*
X111966323Y-58255121D01*
X112544881Y-57676564D01*
X112553844Y-57710012D01*
X112628886Y-57839989D01*
X112735011Y-57946114D01*
X112864988Y-58021156D01*
X112898434Y-58030117D01*
X112318266Y-58610284D01*
X112341345Y-58628248D01*
X112538826Y-58735120D01*
X112538840Y-58735127D01*
X112751223Y-58808038D01*
X112972722Y-58845000D01*
X113197278Y-58845000D01*
X113418776Y-58808038D01*
X113631159Y-58735127D01*
X113631173Y-58735120D01*
X113828647Y-58628252D01*
X113828659Y-58628244D01*
X113851732Y-58610285D01*
X113606199Y-58364752D01*
X117109500Y-58364752D01*
X117121131Y-58423229D01*
X117121132Y-58423230D01*
X117165447Y-58489552D01*
X117231769Y-58533867D01*
X117231770Y-58533868D01*
X117290247Y-58545499D01*
X117290250Y-58545500D01*
X117290252Y-58545500D01*
X119039750Y-58545500D01*
X119039751Y-58545499D01*
X119054568Y-58542552D01*
X119098229Y-58533868D01*
X119098229Y-58533867D01*
X119098231Y-58533867D01*
X119164552Y-58489552D01*
X119208867Y-58423231D01*
X119208867Y-58423229D01*
X119208868Y-58423229D01*
X119220499Y-58364752D01*
X119220500Y-58364750D01*
X119220500Y-56615249D01*
X119220499Y-56615247D01*
X119208868Y-56556770D01*
X119208867Y-56556769D01*
X119164552Y-56490447D01*
X119098230Y-56446132D01*
X119098229Y-56446131D01*
X119039752Y-56434500D01*
X119039748Y-56434500D01*
X117290252Y-56434500D01*
X117290247Y-56434500D01*
X117231770Y-56446131D01*
X117231769Y-56446132D01*
X117165447Y-56490447D01*
X117121132Y-56556769D01*
X117121131Y-56556770D01*
X117109500Y-56615247D01*
X117109500Y-58364752D01*
X113606199Y-58364752D01*
X113271564Y-58030117D01*
X113305012Y-58021156D01*
X113434989Y-57946114D01*
X113541114Y-57839989D01*
X113616156Y-57710012D01*
X113625117Y-57676565D01*
X114203674Y-58255122D01*
X114280770Y-58137120D01*
X114370974Y-57931476D01*
X114426100Y-57713786D01*
X114444644Y-57490005D01*
X114444644Y-57489994D01*
X114426100Y-57266213D01*
X114370974Y-57048523D01*
X114280772Y-56842884D01*
X114203674Y-56724876D01*
X113625117Y-57303433D01*
X113616156Y-57269988D01*
X113541114Y-57140011D01*
X113434989Y-57033886D01*
X113305012Y-56958844D01*
X113271565Y-56949882D01*
X113851732Y-56369714D01*
X113851731Y-56369713D01*
X113828658Y-56351754D01*
X113828649Y-56351748D01*
X113631173Y-56244879D01*
X113631159Y-56244872D01*
X113418776Y-56171961D01*
X113197278Y-56135000D01*
X112972722Y-56135000D01*
X112751223Y-56171961D01*
X112538840Y-56244872D01*
X112538835Y-56244874D01*
X112341342Y-56351753D01*
X112341337Y-56351757D01*
X112318267Y-56369712D01*
X112318267Y-56369714D01*
X112898435Y-56949882D01*
X112864988Y-56958844D01*
X112735011Y-57033886D01*
X112628886Y-57140011D01*
X112553844Y-57269988D01*
X112544882Y-57303435D01*
X111966323Y-56724876D01*
X111889228Y-56842881D01*
X111799025Y-57048523D01*
X111743899Y-57266213D01*
X111725356Y-57489994D01*
X111725356Y-57490005D01*
X106525607Y-57490005D01*
X106525607Y-57490000D01*
X106505228Y-57283086D01*
X106444873Y-57084123D01*
X106429699Y-57055734D01*
X106346865Y-56900763D01*
X106346861Y-56900756D01*
X106214962Y-56740037D01*
X106054243Y-56608138D01*
X106054236Y-56608134D01*
X105870882Y-56510129D01*
X105870879Y-56510128D01*
X105870877Y-56510127D01*
X105671914Y-56449772D01*
X105671911Y-56449771D01*
X105465000Y-56429393D01*
X105258088Y-56449771D01*
X105123999Y-56490447D01*
X105059123Y-56510127D01*
X105059122Y-56510127D01*
X105059117Y-56510129D01*
X104875763Y-56608134D01*
X104875756Y-56608138D01*
X104715037Y-56740037D01*
X104583138Y-56900756D01*
X104583134Y-56900763D01*
X104485129Y-57084117D01*
X104485127Y-57084122D01*
X104485127Y-57084123D01*
X104467490Y-57142264D01*
X104424771Y-57283088D01*
X104404393Y-57490000D01*
X100400500Y-57490000D01*
X100400500Y-55675000D01*
X133644355Y-55675000D01*
X133664859Y-55843869D01*
X133664860Y-55843874D01*
X133725182Y-56002931D01*
X133765068Y-56060715D01*
X133821817Y-56142929D01*
X133927505Y-56236560D01*
X133949150Y-56255736D01*
X134056341Y-56311994D01*
X134099775Y-56334790D01*
X134264944Y-56375500D01*
X134435056Y-56375500D01*
X134600225Y-56334790D01*
X134725418Y-56269083D01*
X134750849Y-56255736D01*
X134750850Y-56255734D01*
X134750852Y-56255734D01*
X134878183Y-56142929D01*
X134974818Y-56002930D01*
X135035140Y-55843872D01*
X135055645Y-55675000D01*
X135035140Y-55506128D01*
X134974818Y-55347070D01*
X134878183Y-55207071D01*
X134750852Y-55094266D01*
X134750849Y-55094263D01*
X134600226Y-55015210D01*
X134435056Y-54974500D01*
X134264944Y-54974500D01*
X134099773Y-55015210D01*
X133949150Y-55094263D01*
X133821816Y-55207072D01*
X133725182Y-55347068D01*
X133664860Y-55506125D01*
X133664859Y-55506130D01*
X133644355Y-55675000D01*
X100400500Y-55675000D01*
X100400500Y-52475000D01*
X120569355Y-52475000D01*
X120589859Y-52643869D01*
X120589860Y-52643874D01*
X120650182Y-52802931D01*
X120712475Y-52893177D01*
X120746817Y-52942929D01*
X120852505Y-53036560D01*
X120874150Y-53055736D01*
X121024773Y-53134789D01*
X121024775Y-53134790D01*
X121189944Y-53175500D01*
X121360056Y-53175500D01*
X121525225Y-53134790D01*
X121604692Y-53093081D01*
X121675849Y-53055736D01*
X121675850Y-53055734D01*
X121675852Y-53055734D01*
X121803183Y-52942929D01*
X121899818Y-52802930D01*
X121960140Y-52643872D01*
X121980645Y-52475000D01*
X121960140Y-52306128D01*
X121899818Y-52147070D01*
X121803183Y-52007071D01*
X121675852Y-51894266D01*
X121675849Y-51894263D01*
X121525226Y-51815210D01*
X121360056Y-51774500D01*
X121189944Y-51774500D01*
X121024773Y-51815210D01*
X120874150Y-51894263D01*
X120746816Y-52007072D01*
X120650182Y-52147068D01*
X120589860Y-52306125D01*
X120589859Y-52306130D01*
X120569355Y-52475000D01*
X100400500Y-52475000D01*
X100400500Y-49639752D01*
X107319500Y-49639752D01*
X107331131Y-49698229D01*
X107331132Y-49698230D01*
X107375447Y-49764552D01*
X107441769Y-49808867D01*
X107441770Y-49808868D01*
X107500247Y-49820499D01*
X107500250Y-49820500D01*
X107500252Y-49820500D01*
X109239750Y-49820500D01*
X109239751Y-49820499D01*
X109254568Y-49817552D01*
X109298229Y-49808868D01*
X109298229Y-49808867D01*
X109298231Y-49808867D01*
X109364552Y-49764552D01*
X109408867Y-49698231D01*
X109408867Y-49698229D01*
X109408868Y-49698229D01*
X109418922Y-49647682D01*
X109420500Y-49639748D01*
X109420500Y-48770000D01*
X109854417Y-48770000D01*
X109874699Y-48975932D01*
X109874700Y-48975934D01*
X109934768Y-49173954D01*
X110032315Y-49356450D01*
X110032317Y-49356452D01*
X110163589Y-49516410D01*
X110260209Y-49595702D01*
X110323550Y-49647685D01*
X110506046Y-49745232D01*
X110704066Y-49805300D01*
X110704065Y-49805300D01*
X110722529Y-49807118D01*
X110910000Y-49825583D01*
X111115934Y-49805300D01*
X111313954Y-49745232D01*
X111496450Y-49647685D01*
X111656410Y-49516410D01*
X111787685Y-49356450D01*
X111885232Y-49173954D01*
X111945300Y-48975934D01*
X111965583Y-48770000D01*
X111945300Y-48564066D01*
X111885232Y-48366046D01*
X111787685Y-48183550D01*
X111735702Y-48120209D01*
X111656410Y-48023589D01*
X111506121Y-47900252D01*
X111496450Y-47892315D01*
X111313954Y-47794768D01*
X111115934Y-47734700D01*
X111115932Y-47734699D01*
X111115934Y-47734699D01*
X110910000Y-47714417D01*
X110704067Y-47734699D01*
X110569736Y-47775448D01*
X110506050Y-47794767D01*
X110506043Y-47794769D01*
X110418114Y-47841769D01*
X110323550Y-47892315D01*
X110323548Y-47892316D01*
X110323547Y-47892317D01*
X110163589Y-48023589D01*
X110032317Y-48183547D01*
X109934769Y-48366043D01*
X109874699Y-48564067D01*
X109854417Y-48770000D01*
X109420500Y-48770000D01*
X109420500Y-47900252D01*
X109420500Y-47900249D01*
X109420499Y-47900247D01*
X109408868Y-47841770D01*
X109408867Y-47841769D01*
X109364552Y-47775447D01*
X109298230Y-47731132D01*
X109298229Y-47731131D01*
X109239752Y-47719500D01*
X109239748Y-47719500D01*
X107500252Y-47719500D01*
X107500247Y-47719500D01*
X107441770Y-47731131D01*
X107441769Y-47731132D01*
X107375447Y-47775447D01*
X107331132Y-47841769D01*
X107331131Y-47841770D01*
X107319500Y-47900247D01*
X107319500Y-49639752D01*
X100400500Y-49639752D01*
X100400500Y-47003480D01*
X100400695Y-46996528D01*
X100410508Y-46821787D01*
X100416455Y-46715891D01*
X100418009Y-46702092D01*
X100464510Y-46428412D01*
X100467598Y-46414880D01*
X100520861Y-46230000D01*
X107314417Y-46230000D01*
X107334699Y-46435932D01*
X107334700Y-46435934D01*
X107394768Y-46633954D01*
X107492315Y-46816450D01*
X107492317Y-46816452D01*
X107623589Y-46976410D01*
X107720209Y-47055702D01*
X107783550Y-47107685D01*
X107966046Y-47205232D01*
X108164066Y-47265300D01*
X108164065Y-47265300D01*
X108182529Y-47267118D01*
X108370000Y-47285583D01*
X108575934Y-47265300D01*
X108773954Y-47205232D01*
X108956450Y-47107685D01*
X109116410Y-46976410D01*
X109247685Y-46816450D01*
X109345232Y-46633954D01*
X109405300Y-46435934D01*
X109425583Y-46230000D01*
X109854417Y-46230000D01*
X109874699Y-46435932D01*
X109874700Y-46435934D01*
X109934768Y-46633954D01*
X110032315Y-46816450D01*
X110032317Y-46816452D01*
X110163589Y-46976410D01*
X110260209Y-47055702D01*
X110323550Y-47107685D01*
X110506046Y-47205232D01*
X110704066Y-47265300D01*
X110704065Y-47265300D01*
X110722529Y-47267118D01*
X110910000Y-47285583D01*
X111115934Y-47265300D01*
X111313954Y-47205232D01*
X111496450Y-47107685D01*
X111656410Y-46976410D01*
X111787685Y-46816450D01*
X111885232Y-46633954D01*
X111905406Y-46567446D01*
X111943702Y-46509010D01*
X112007514Y-46480553D01*
X112076581Y-46491112D01*
X112128975Y-46537336D01*
X112143841Y-46571349D01*
X112176567Y-46693486D01*
X112176570Y-46693492D01*
X112276400Y-46907579D01*
X112276402Y-46907583D01*
X112335072Y-46991373D01*
X112335073Y-46991373D01*
X112967037Y-46359409D01*
X112984075Y-46422993D01*
X113049901Y-46537007D01*
X113142993Y-46630099D01*
X113257007Y-46695925D01*
X113320590Y-46712962D01*
X112688625Y-47344925D01*
X112772421Y-47403599D01*
X112986507Y-47503429D01*
X112986516Y-47503433D01*
X113108649Y-47536158D01*
X113168310Y-47572523D01*
X113198839Y-47635369D01*
X113190545Y-47704745D01*
X113146059Y-47758623D01*
X113112552Y-47774593D01*
X113046046Y-47794767D01*
X112958112Y-47841770D01*
X112863550Y-47892315D01*
X112863548Y-47892316D01*
X112863547Y-47892317D01*
X112703589Y-48023589D01*
X112572317Y-48183547D01*
X112474769Y-48366043D01*
X112414699Y-48564067D01*
X112394417Y-48770000D01*
X112414699Y-48975932D01*
X112414700Y-48975934D01*
X112474768Y-49173954D01*
X112572315Y-49356450D01*
X112572317Y-49356452D01*
X112703589Y-49516410D01*
X112800209Y-49595702D01*
X112863550Y-49647685D01*
X113046046Y-49745232D01*
X113244066Y-49805300D01*
X113244065Y-49805300D01*
X113262529Y-49807118D01*
X113450000Y-49825583D01*
X113655934Y-49805300D01*
X113853954Y-49745232D01*
X114036450Y-49647685D01*
X114196410Y-49516410D01*
X114327685Y-49356450D01*
X114425232Y-49173954D01*
X114485300Y-48975934D01*
X114505583Y-48770000D01*
X114934417Y-48770000D01*
X114954699Y-48975932D01*
X114954700Y-48975934D01*
X115014768Y-49173954D01*
X115112315Y-49356450D01*
X115112317Y-49356452D01*
X115243589Y-49516410D01*
X115340209Y-49595702D01*
X115403550Y-49647685D01*
X115586046Y-49745232D01*
X115784066Y-49805300D01*
X115784065Y-49805300D01*
X115802529Y-49807118D01*
X115990000Y-49825583D01*
X116195934Y-49805300D01*
X116393954Y-49745232D01*
X116576450Y-49647685D01*
X116736410Y-49516410D01*
X116867685Y-49356450D01*
X116965232Y-49173954D01*
X116985406Y-49107446D01*
X117023702Y-49049010D01*
X117087514Y-49020553D01*
X117156581Y-49031112D01*
X117208975Y-49077336D01*
X117223841Y-49111349D01*
X117256567Y-49233486D01*
X117256570Y-49233492D01*
X117356400Y-49447579D01*
X117356402Y-49447583D01*
X117415072Y-49531373D01*
X117415073Y-49531373D01*
X118047037Y-48899409D01*
X118064075Y-48962993D01*
X118129901Y-49077007D01*
X118222993Y-49170099D01*
X118337007Y-49235925D01*
X118400590Y-49252962D01*
X117768625Y-49884925D01*
X117852421Y-49943599D01*
X118066507Y-50043429D01*
X118066516Y-50043433D01*
X118294673Y-50104567D01*
X118294684Y-50104569D01*
X118529998Y-50125157D01*
X118530002Y-50125157D01*
X118765315Y-50104569D01*
X118765326Y-50104567D01*
X118993483Y-50043433D01*
X118993492Y-50043429D01*
X119207578Y-49943600D01*
X119207582Y-49943598D01*
X119291373Y-49884926D01*
X119291373Y-49884925D01*
X118659409Y-49252962D01*
X118722993Y-49235925D01*
X118837007Y-49170099D01*
X118930099Y-49077007D01*
X118995925Y-48962993D01*
X119012962Y-48899410D01*
X119644925Y-49531373D01*
X119644926Y-49531373D01*
X119703598Y-49447582D01*
X119703600Y-49447578D01*
X119803429Y-49233492D01*
X119803433Y-49233483D01*
X119836158Y-49111350D01*
X119872522Y-49051690D01*
X119935369Y-49021160D01*
X120004745Y-49029454D01*
X120058623Y-49073939D01*
X120074593Y-49107447D01*
X120094768Y-49173954D01*
X120192315Y-49356450D01*
X120192317Y-49356452D01*
X120323589Y-49516410D01*
X120420209Y-49595702D01*
X120483550Y-49647685D01*
X120666046Y-49745232D01*
X120864066Y-49805300D01*
X120864065Y-49805300D01*
X120882529Y-49807118D01*
X121070000Y-49825583D01*
X121275934Y-49805300D01*
X121473954Y-49745232D01*
X121656450Y-49647685D01*
X121816410Y-49516410D01*
X121947685Y-49356450D01*
X122045232Y-49173954D01*
X122105300Y-48975934D01*
X122125583Y-48770000D01*
X122105300Y-48564066D01*
X122045232Y-48366046D01*
X121947685Y-48183550D01*
X121895702Y-48120209D01*
X121816410Y-48023589D01*
X121666121Y-47900252D01*
X121656450Y-47892315D01*
X121473954Y-47794768D01*
X121275934Y-47734700D01*
X121275932Y-47734699D01*
X121275934Y-47734699D01*
X121070000Y-47714417D01*
X120864067Y-47734699D01*
X120729736Y-47775448D01*
X120666050Y-47794767D01*
X120666043Y-47794769D01*
X120578114Y-47841769D01*
X120483550Y-47892315D01*
X120483548Y-47892316D01*
X120483547Y-47892317D01*
X120323589Y-48023589D01*
X120192317Y-48183547D01*
X120094767Y-48366046D01*
X120074593Y-48432552D01*
X120036296Y-48490990D01*
X119972483Y-48519447D01*
X119903416Y-48508886D01*
X119851023Y-48462661D01*
X119836158Y-48428649D01*
X119803433Y-48306516D01*
X119803429Y-48306507D01*
X119703600Y-48092423D01*
X119703599Y-48092421D01*
X119644925Y-48008626D01*
X119644925Y-48008625D01*
X119012962Y-48640589D01*
X118995925Y-48577007D01*
X118930099Y-48462993D01*
X118837007Y-48369901D01*
X118722993Y-48304075D01*
X118659410Y-48287037D01*
X119291373Y-47655073D01*
X119291373Y-47655072D01*
X119207583Y-47596402D01*
X119207579Y-47596400D01*
X118993492Y-47496570D01*
X118993486Y-47496567D01*
X118871349Y-47463841D01*
X118811689Y-47427476D01*
X118781160Y-47364629D01*
X118789455Y-47295253D01*
X118833940Y-47241375D01*
X118867444Y-47225407D01*
X118933954Y-47205232D01*
X119116450Y-47107685D01*
X119276410Y-46976410D01*
X119407685Y-46816450D01*
X119505232Y-46633954D01*
X119565300Y-46435934D01*
X119585583Y-46230000D01*
X120014417Y-46230000D01*
X120034699Y-46435932D01*
X120034700Y-46435934D01*
X120094768Y-46633954D01*
X120192315Y-46816450D01*
X120192317Y-46816452D01*
X120323589Y-46976410D01*
X120420209Y-47055702D01*
X120483550Y-47107685D01*
X120666046Y-47205232D01*
X120864066Y-47265300D01*
X120864065Y-47265300D01*
X120882529Y-47267118D01*
X121070000Y-47285583D01*
X121275934Y-47265300D01*
X121473954Y-47205232D01*
X121656450Y-47107685D01*
X121816410Y-46976410D01*
X121947685Y-46816450D01*
X122045232Y-46633954D01*
X122065406Y-46567446D01*
X122103702Y-46509010D01*
X122167514Y-46480553D01*
X122236581Y-46491112D01*
X122288975Y-46537336D01*
X122303841Y-46571349D01*
X122336567Y-46693486D01*
X122336570Y-46693492D01*
X122436400Y-46907579D01*
X122436402Y-46907583D01*
X122495072Y-46991373D01*
X122495073Y-46991373D01*
X123127037Y-46359409D01*
X123144075Y-46422993D01*
X123209901Y-46537007D01*
X123302993Y-46630099D01*
X123417007Y-46695925D01*
X123480590Y-46712962D01*
X122848625Y-47344925D01*
X122932421Y-47403599D01*
X123146507Y-47503429D01*
X123146516Y-47503433D01*
X123268649Y-47536158D01*
X123328310Y-47572523D01*
X123358839Y-47635369D01*
X123350545Y-47704745D01*
X123306059Y-47758623D01*
X123272552Y-47774593D01*
X123206046Y-47794767D01*
X123118112Y-47841770D01*
X123023550Y-47892315D01*
X123023548Y-47892316D01*
X123023547Y-47892317D01*
X122863589Y-48023589D01*
X122732317Y-48183547D01*
X122634769Y-48366043D01*
X122574699Y-48564067D01*
X122554417Y-48770000D01*
X122574699Y-48975932D01*
X122574700Y-48975934D01*
X122634768Y-49173954D01*
X122732315Y-49356450D01*
X122732317Y-49356452D01*
X122863589Y-49516410D01*
X122960209Y-49595702D01*
X123023550Y-49647685D01*
X123206046Y-49745232D01*
X123404066Y-49805300D01*
X123404065Y-49805300D01*
X123422529Y-49807118D01*
X123610000Y-49825583D01*
X123815934Y-49805300D01*
X124013954Y-49745232D01*
X124196450Y-49647685D01*
X124356410Y-49516410D01*
X124487685Y-49356450D01*
X124585232Y-49173954D01*
X124645300Y-48975934D01*
X124665583Y-48770000D01*
X125094417Y-48770000D01*
X125114699Y-48975932D01*
X125114700Y-48975934D01*
X125174768Y-49173954D01*
X125272315Y-49356450D01*
X125272317Y-49356452D01*
X125403589Y-49516410D01*
X125500209Y-49595702D01*
X125563550Y-49647685D01*
X125746046Y-49745232D01*
X125944066Y-49805300D01*
X125944065Y-49805300D01*
X125962529Y-49807118D01*
X126150000Y-49825583D01*
X126355934Y-49805300D01*
X126553954Y-49745232D01*
X126736450Y-49647685D01*
X126896410Y-49516410D01*
X127027685Y-49356450D01*
X127125232Y-49173954D01*
X127185300Y-48975934D01*
X127205583Y-48770000D01*
X127634417Y-48770000D01*
X127654699Y-48975932D01*
X127654700Y-48975934D01*
X127714768Y-49173954D01*
X127812315Y-49356450D01*
X127812317Y-49356452D01*
X127943589Y-49516410D01*
X128040209Y-49595702D01*
X128103550Y-49647685D01*
X128286046Y-49745232D01*
X128484066Y-49805300D01*
X128484065Y-49805300D01*
X128502529Y-49807118D01*
X128690000Y-49825583D01*
X128895934Y-49805300D01*
X129093954Y-49745232D01*
X129276450Y-49647685D01*
X129436410Y-49516410D01*
X129567685Y-49356450D01*
X129665232Y-49173954D01*
X129725300Y-48975934D01*
X129745583Y-48770000D01*
X129725300Y-48564066D01*
X129665232Y-48366046D01*
X129567685Y-48183550D01*
X129515702Y-48120209D01*
X129436410Y-48023589D01*
X129286121Y-47900252D01*
X129276450Y-47892315D01*
X129093954Y-47794768D01*
X128895934Y-47734700D01*
X128895932Y-47734699D01*
X128895934Y-47734699D01*
X128690000Y-47714417D01*
X128484067Y-47734699D01*
X128349736Y-47775448D01*
X128286050Y-47794767D01*
X128286043Y-47794769D01*
X128198114Y-47841769D01*
X128103550Y-47892315D01*
X128103548Y-47892316D01*
X128103547Y-47892317D01*
X127943589Y-48023589D01*
X127812317Y-48183547D01*
X127714769Y-48366043D01*
X127654699Y-48564067D01*
X127634417Y-48770000D01*
X127205583Y-48770000D01*
X127185300Y-48564066D01*
X127125232Y-48366046D01*
X127027685Y-48183550D01*
X126975702Y-48120209D01*
X126896410Y-48023589D01*
X126746121Y-47900252D01*
X126736450Y-47892315D01*
X126553954Y-47794768D01*
X126355934Y-47734700D01*
X126355932Y-47734699D01*
X126355934Y-47734699D01*
X126150000Y-47714417D01*
X125944067Y-47734699D01*
X125809736Y-47775448D01*
X125746050Y-47794767D01*
X125746043Y-47794769D01*
X125658114Y-47841769D01*
X125563550Y-47892315D01*
X125563548Y-47892316D01*
X125563547Y-47892317D01*
X125403589Y-48023589D01*
X125272317Y-48183547D01*
X125174769Y-48366043D01*
X125114699Y-48564067D01*
X125094417Y-48770000D01*
X124665583Y-48770000D01*
X124645300Y-48564066D01*
X124585232Y-48366046D01*
X124487685Y-48183550D01*
X124435702Y-48120209D01*
X124356410Y-48023589D01*
X124206121Y-47900252D01*
X124196450Y-47892315D01*
X124013954Y-47794768D01*
X123947447Y-47774593D01*
X123889009Y-47736296D01*
X123860553Y-47672484D01*
X123871113Y-47603417D01*
X123917337Y-47551023D01*
X123951350Y-47536158D01*
X124073483Y-47503433D01*
X124073492Y-47503429D01*
X124287578Y-47403600D01*
X124287582Y-47403598D01*
X124371373Y-47344926D01*
X124371373Y-47344925D01*
X123739409Y-46712962D01*
X123802993Y-46695925D01*
X123917007Y-46630099D01*
X124010099Y-46537007D01*
X124075925Y-46422993D01*
X124092962Y-46359409D01*
X124724925Y-46991373D01*
X124724926Y-46991373D01*
X124783598Y-46907582D01*
X124783600Y-46907578D01*
X124883429Y-46693492D01*
X124883433Y-46693483D01*
X124916158Y-46571350D01*
X124952522Y-46511690D01*
X125015369Y-46481160D01*
X125084745Y-46489454D01*
X125138623Y-46533939D01*
X125154593Y-46567447D01*
X125174768Y-46633954D01*
X125272315Y-46816450D01*
X125272317Y-46816452D01*
X125403589Y-46976410D01*
X125500209Y-47055702D01*
X125563550Y-47107685D01*
X125746046Y-47205232D01*
X125944066Y-47265300D01*
X125944065Y-47265300D01*
X125962529Y-47267118D01*
X126150000Y-47285583D01*
X126355934Y-47265300D01*
X126553954Y-47205232D01*
X126736450Y-47107685D01*
X126896410Y-46976410D01*
X127027685Y-46816450D01*
X127125232Y-46633954D01*
X127185300Y-46435934D01*
X127205583Y-46230000D01*
X127634417Y-46230000D01*
X127654699Y-46435932D01*
X127654700Y-46435934D01*
X127714768Y-46633954D01*
X127812315Y-46816450D01*
X127812317Y-46816452D01*
X127943589Y-46976410D01*
X128040209Y-47055702D01*
X128103550Y-47107685D01*
X128286046Y-47205232D01*
X128484066Y-47265300D01*
X128484065Y-47265300D01*
X128502529Y-47267118D01*
X128690000Y-47285583D01*
X128895934Y-47265300D01*
X129093954Y-47205232D01*
X129276450Y-47107685D01*
X129436410Y-46976410D01*
X129567685Y-46816450D01*
X129665232Y-46633954D01*
X129685406Y-46567446D01*
X129723702Y-46509010D01*
X129787514Y-46480553D01*
X129856581Y-46491112D01*
X129908975Y-46537336D01*
X129923841Y-46571349D01*
X129956567Y-46693486D01*
X129956570Y-46693492D01*
X130056400Y-46907579D01*
X130056402Y-46907583D01*
X130115072Y-46991373D01*
X130115073Y-46991373D01*
X130747037Y-46359409D01*
X130764075Y-46422993D01*
X130829901Y-46537007D01*
X130922993Y-46630099D01*
X131037007Y-46695925D01*
X131100590Y-46712962D01*
X130468625Y-47344925D01*
X130552421Y-47403599D01*
X130766507Y-47503429D01*
X130766516Y-47503433D01*
X130888649Y-47536158D01*
X130948310Y-47572523D01*
X130978839Y-47635369D01*
X130970545Y-47704745D01*
X130926059Y-47758623D01*
X130892552Y-47774593D01*
X130826046Y-47794767D01*
X130738112Y-47841770D01*
X130643550Y-47892315D01*
X130643548Y-47892316D01*
X130643547Y-47892317D01*
X130483589Y-48023589D01*
X130352317Y-48183547D01*
X130254769Y-48366043D01*
X130194699Y-48564067D01*
X130174417Y-48770000D01*
X130194699Y-48975932D01*
X130194700Y-48975934D01*
X130254768Y-49173954D01*
X130352315Y-49356450D01*
X130352317Y-49356452D01*
X130483589Y-49516410D01*
X130580209Y-49595702D01*
X130643550Y-49647685D01*
X130826046Y-49745232D01*
X131024066Y-49805300D01*
X131024065Y-49805300D01*
X131042529Y-49807118D01*
X131230000Y-49825583D01*
X131435934Y-49805300D01*
X131633954Y-49745232D01*
X131816450Y-49647685D01*
X131976410Y-49516410D01*
X132107685Y-49356450D01*
X132205232Y-49173954D01*
X132265300Y-48975934D01*
X132285583Y-48770000D01*
X132714417Y-48770000D01*
X132734699Y-48975932D01*
X132734700Y-48975934D01*
X132794768Y-49173954D01*
X132892315Y-49356450D01*
X132892317Y-49356452D01*
X133023589Y-49516410D01*
X133120209Y-49595702D01*
X133183550Y-49647685D01*
X133366046Y-49745232D01*
X133564066Y-49805300D01*
X133564065Y-49805300D01*
X133582529Y-49807118D01*
X133770000Y-49825583D01*
X133975934Y-49805300D01*
X134173954Y-49745232D01*
X134356450Y-49647685D01*
X134516410Y-49516410D01*
X134647685Y-49356450D01*
X134745232Y-49173954D01*
X134805300Y-48975934D01*
X134825583Y-48770000D01*
X135254417Y-48770000D01*
X135274699Y-48975932D01*
X135274700Y-48975934D01*
X135334768Y-49173954D01*
X135432315Y-49356450D01*
X135432317Y-49356452D01*
X135563589Y-49516410D01*
X135660209Y-49595702D01*
X135723550Y-49647685D01*
X135906046Y-49745232D01*
X136104066Y-49805300D01*
X136104065Y-49805300D01*
X136122529Y-49807118D01*
X136310000Y-49825583D01*
X136515934Y-49805300D01*
X136713954Y-49745232D01*
X136896450Y-49647685D01*
X137056410Y-49516410D01*
X137187685Y-49356450D01*
X137285232Y-49173954D01*
X137305406Y-49107446D01*
X137343702Y-49049010D01*
X137407514Y-49020553D01*
X137476581Y-49031112D01*
X137528975Y-49077336D01*
X137543841Y-49111349D01*
X137576567Y-49233486D01*
X137576570Y-49233492D01*
X137676400Y-49447579D01*
X137676402Y-49447583D01*
X137735072Y-49531373D01*
X137735073Y-49531373D01*
X138367037Y-48899409D01*
X138384075Y-48962993D01*
X138449901Y-49077007D01*
X138542993Y-49170099D01*
X138657007Y-49235925D01*
X138720590Y-49252962D01*
X138088625Y-49884925D01*
X138172421Y-49943599D01*
X138386507Y-50043429D01*
X138386516Y-50043433D01*
X138614673Y-50104567D01*
X138614684Y-50104569D01*
X138849998Y-50125157D01*
X138850002Y-50125157D01*
X139085315Y-50104569D01*
X139085326Y-50104567D01*
X139313483Y-50043433D01*
X139313492Y-50043429D01*
X139527578Y-49943600D01*
X139527582Y-49943598D01*
X139611373Y-49884926D01*
X139611373Y-49884925D01*
X138979409Y-49252962D01*
X139042993Y-49235925D01*
X139157007Y-49170099D01*
X139250099Y-49077007D01*
X139315925Y-48962993D01*
X139332962Y-48899409D01*
X139964925Y-49531373D01*
X139964926Y-49531373D01*
X140023598Y-49447582D01*
X140023600Y-49447578D01*
X140123429Y-49233492D01*
X140123433Y-49233483D01*
X140156158Y-49111350D01*
X140192522Y-49051690D01*
X140255369Y-49021160D01*
X140324745Y-49029454D01*
X140378623Y-49073939D01*
X140394593Y-49107447D01*
X140414768Y-49173954D01*
X140512315Y-49356450D01*
X140512317Y-49356452D01*
X140643589Y-49516410D01*
X140740209Y-49595702D01*
X140803550Y-49647685D01*
X140986046Y-49745232D01*
X141184066Y-49805300D01*
X141184065Y-49805300D01*
X141202529Y-49807118D01*
X141390000Y-49825583D01*
X141595934Y-49805300D01*
X141793954Y-49745232D01*
X141976450Y-49647685D01*
X142136410Y-49516410D01*
X142267685Y-49356450D01*
X142365232Y-49173954D01*
X142425300Y-48975934D01*
X142445583Y-48770000D01*
X142425300Y-48564066D01*
X142365232Y-48366046D01*
X142267685Y-48183550D01*
X142215702Y-48120209D01*
X142136410Y-48023589D01*
X141986121Y-47900252D01*
X141976450Y-47892315D01*
X141793954Y-47794768D01*
X141595934Y-47734700D01*
X141595932Y-47734699D01*
X141595934Y-47734699D01*
X141390000Y-47714417D01*
X141184067Y-47734699D01*
X141049736Y-47775448D01*
X140986050Y-47794767D01*
X140986043Y-47794769D01*
X140898114Y-47841769D01*
X140803550Y-47892315D01*
X140803548Y-47892316D01*
X140803547Y-47892317D01*
X140643589Y-48023589D01*
X140512317Y-48183547D01*
X140414767Y-48366046D01*
X140394593Y-48432552D01*
X140356296Y-48490990D01*
X140292483Y-48519447D01*
X140223416Y-48508886D01*
X140171023Y-48462661D01*
X140156158Y-48428649D01*
X140123433Y-48306516D01*
X140123429Y-48306507D01*
X140023600Y-48092423D01*
X140023599Y-48092421D01*
X139964925Y-48008626D01*
X139964925Y-48008625D01*
X139332962Y-48640589D01*
X139315925Y-48577007D01*
X139250099Y-48462993D01*
X139157007Y-48369901D01*
X139042993Y-48304075D01*
X138979410Y-48287037D01*
X139611373Y-47655073D01*
X139611373Y-47655072D01*
X139527583Y-47596402D01*
X139527579Y-47596400D01*
X139313492Y-47496570D01*
X139313486Y-47496567D01*
X139191349Y-47463841D01*
X139131689Y-47427476D01*
X139101160Y-47364629D01*
X139109455Y-47295253D01*
X139153940Y-47241375D01*
X139187444Y-47225407D01*
X139253954Y-47205232D01*
X139436450Y-47107685D01*
X139596410Y-46976410D01*
X139727685Y-46816450D01*
X139825232Y-46633954D01*
X139885300Y-46435934D01*
X139905583Y-46230000D01*
X140334417Y-46230000D01*
X140354699Y-46435932D01*
X140354700Y-46435934D01*
X140414768Y-46633954D01*
X140512315Y-46816450D01*
X140512317Y-46816452D01*
X140643589Y-46976410D01*
X140740209Y-47055702D01*
X140803550Y-47107685D01*
X140986046Y-47205232D01*
X141184066Y-47265300D01*
X141184065Y-47265300D01*
X141202529Y-47267118D01*
X141390000Y-47285583D01*
X141595934Y-47265300D01*
X141793954Y-47205232D01*
X141976450Y-47107685D01*
X142136410Y-46976410D01*
X142267685Y-46816450D01*
X142365232Y-46633954D01*
X142385406Y-46567446D01*
X142423702Y-46509010D01*
X142487514Y-46480553D01*
X142556581Y-46491112D01*
X142608975Y-46537336D01*
X142623841Y-46571349D01*
X142656567Y-46693486D01*
X142656570Y-46693492D01*
X142756400Y-46907579D01*
X142756402Y-46907583D01*
X142815072Y-46991373D01*
X142815073Y-46991373D01*
X143447037Y-46359409D01*
X143464075Y-46422993D01*
X143529901Y-46537007D01*
X143622993Y-46630099D01*
X143737007Y-46695925D01*
X143800590Y-46712962D01*
X143168625Y-47344925D01*
X143252421Y-47403599D01*
X143466507Y-47503429D01*
X143466516Y-47503433D01*
X143588649Y-47536158D01*
X143648310Y-47572523D01*
X143678839Y-47635369D01*
X143670545Y-47704745D01*
X143626059Y-47758623D01*
X143592552Y-47774593D01*
X143526046Y-47794767D01*
X143438112Y-47841770D01*
X143343550Y-47892315D01*
X143343548Y-47892316D01*
X143343547Y-47892317D01*
X143183589Y-48023589D01*
X143052317Y-48183547D01*
X142954769Y-48366043D01*
X142894699Y-48564067D01*
X142874417Y-48770000D01*
X142894699Y-48975932D01*
X142894700Y-48975934D01*
X142954768Y-49173954D01*
X143052315Y-49356450D01*
X143052317Y-49356452D01*
X143183589Y-49516410D01*
X143280209Y-49595702D01*
X143343550Y-49647685D01*
X143526046Y-49745232D01*
X143724066Y-49805300D01*
X143724065Y-49805300D01*
X143742529Y-49807118D01*
X143930000Y-49825583D01*
X144135934Y-49805300D01*
X144333954Y-49745232D01*
X144516450Y-49647685D01*
X144676410Y-49516410D01*
X144807685Y-49356450D01*
X144905232Y-49173954D01*
X144965300Y-48975934D01*
X144985583Y-48770000D01*
X145414417Y-48770000D01*
X145434699Y-48975932D01*
X145434700Y-48975934D01*
X145494768Y-49173954D01*
X145592315Y-49356450D01*
X145592317Y-49356452D01*
X145723589Y-49516410D01*
X145820209Y-49595702D01*
X145883550Y-49647685D01*
X146066046Y-49745232D01*
X146264066Y-49805300D01*
X146264065Y-49805300D01*
X146282529Y-49807118D01*
X146470000Y-49825583D01*
X146675934Y-49805300D01*
X146873954Y-49745232D01*
X147056450Y-49647685D01*
X147216410Y-49516410D01*
X147347685Y-49356450D01*
X147445232Y-49173954D01*
X147505300Y-48975934D01*
X147525583Y-48770000D01*
X147505300Y-48564066D01*
X147445232Y-48366046D01*
X147347685Y-48183550D01*
X147295702Y-48120209D01*
X147216410Y-48023589D01*
X147066121Y-47900252D01*
X147056450Y-47892315D01*
X146873954Y-47794768D01*
X146675934Y-47734700D01*
X146675932Y-47734699D01*
X146675934Y-47734699D01*
X146470000Y-47714417D01*
X146264067Y-47734699D01*
X146129736Y-47775448D01*
X146066050Y-47794767D01*
X146066043Y-47794769D01*
X145978114Y-47841769D01*
X145883550Y-47892315D01*
X145883548Y-47892316D01*
X145883547Y-47892317D01*
X145723589Y-48023589D01*
X145592317Y-48183547D01*
X145494769Y-48366043D01*
X145434699Y-48564067D01*
X145414417Y-48770000D01*
X144985583Y-48770000D01*
X144965300Y-48564066D01*
X144905232Y-48366046D01*
X144807685Y-48183550D01*
X144755702Y-48120209D01*
X144676410Y-48023589D01*
X144526121Y-47900252D01*
X144516450Y-47892315D01*
X144333954Y-47794768D01*
X144267447Y-47774593D01*
X144209009Y-47736296D01*
X144180553Y-47672484D01*
X144191113Y-47603417D01*
X144237337Y-47551023D01*
X144271350Y-47536158D01*
X144393483Y-47503433D01*
X144393492Y-47503429D01*
X144607578Y-47403600D01*
X144607582Y-47403598D01*
X144691373Y-47344926D01*
X144691373Y-47344925D01*
X144059409Y-46712962D01*
X144122993Y-46695925D01*
X144237007Y-46630099D01*
X144330099Y-46537007D01*
X144395925Y-46422993D01*
X144412962Y-46359409D01*
X145044925Y-46991373D01*
X145044926Y-46991373D01*
X145103598Y-46907582D01*
X145103600Y-46907578D01*
X145203429Y-46693492D01*
X145203433Y-46693483D01*
X145236158Y-46571350D01*
X145272522Y-46511690D01*
X145335369Y-46481160D01*
X145404745Y-46489454D01*
X145458623Y-46533939D01*
X145474593Y-46567447D01*
X145494768Y-46633954D01*
X145592315Y-46816450D01*
X145592317Y-46816452D01*
X145723589Y-46976410D01*
X145820209Y-47055702D01*
X145883550Y-47107685D01*
X146066046Y-47205232D01*
X146264066Y-47265300D01*
X146264065Y-47265300D01*
X146282529Y-47267118D01*
X146470000Y-47285583D01*
X146675934Y-47265300D01*
X146873954Y-47205232D01*
X147056450Y-47107685D01*
X147216410Y-46976410D01*
X147347685Y-46816450D01*
X147445232Y-46633954D01*
X147465406Y-46567446D01*
X147503702Y-46509010D01*
X147567514Y-46480553D01*
X147636581Y-46491112D01*
X147688975Y-46537336D01*
X147703841Y-46571349D01*
X147736567Y-46693486D01*
X147736570Y-46693492D01*
X147836400Y-46907579D01*
X147836402Y-46907583D01*
X147895072Y-46991373D01*
X147895073Y-46991373D01*
X148527037Y-46359409D01*
X148544075Y-46422993D01*
X148609901Y-46537007D01*
X148702993Y-46630099D01*
X148817007Y-46695925D01*
X148880590Y-46712962D01*
X148248625Y-47344925D01*
X148332421Y-47403599D01*
X148546507Y-47503429D01*
X148546516Y-47503433D01*
X148668649Y-47536158D01*
X148728310Y-47572523D01*
X148758839Y-47635369D01*
X148750545Y-47704745D01*
X148706059Y-47758623D01*
X148672552Y-47774593D01*
X148606046Y-47794767D01*
X148518112Y-47841770D01*
X148423550Y-47892315D01*
X148423548Y-47892316D01*
X148423547Y-47892317D01*
X148263589Y-48023589D01*
X148132317Y-48183547D01*
X148034769Y-48366043D01*
X147974699Y-48564067D01*
X147954417Y-48770000D01*
X147974699Y-48975932D01*
X147974700Y-48975934D01*
X148034768Y-49173954D01*
X148132315Y-49356450D01*
X148132317Y-49356452D01*
X148263589Y-49516410D01*
X148360209Y-49595702D01*
X148423550Y-49647685D01*
X148606046Y-49745232D01*
X148804066Y-49805300D01*
X148804065Y-49805300D01*
X148822529Y-49807118D01*
X149010000Y-49825583D01*
X149215934Y-49805300D01*
X149413954Y-49745232D01*
X149596450Y-49647685D01*
X149756410Y-49516410D01*
X149887685Y-49356450D01*
X149985232Y-49173954D01*
X150045300Y-48975934D01*
X150065583Y-48770000D01*
X150494417Y-48770000D01*
X150514699Y-48975932D01*
X150514700Y-48975934D01*
X150574768Y-49173954D01*
X150672315Y-49356450D01*
X150672317Y-49356452D01*
X150803589Y-49516410D01*
X150900209Y-49595702D01*
X150963550Y-49647685D01*
X151146046Y-49745232D01*
X151344066Y-49805300D01*
X151344065Y-49805300D01*
X151362529Y-49807118D01*
X151550000Y-49825583D01*
X151755934Y-49805300D01*
X151953954Y-49745232D01*
X152136450Y-49647685D01*
X152296410Y-49516410D01*
X152427685Y-49356450D01*
X152525232Y-49173954D01*
X152585300Y-48975934D01*
X152605583Y-48770000D01*
X153034417Y-48770000D01*
X153054699Y-48975932D01*
X153054700Y-48975934D01*
X153114768Y-49173954D01*
X153212315Y-49356450D01*
X153212317Y-49356452D01*
X153343589Y-49516410D01*
X153440209Y-49595702D01*
X153503550Y-49647685D01*
X153686046Y-49745232D01*
X153884066Y-49805300D01*
X153884065Y-49805300D01*
X153902529Y-49807118D01*
X154090000Y-49825583D01*
X154295934Y-49805300D01*
X154493954Y-49745232D01*
X154676450Y-49647685D01*
X154836410Y-49516410D01*
X154967685Y-49356450D01*
X155065232Y-49173954D01*
X155085406Y-49107446D01*
X155123702Y-49049010D01*
X155187514Y-49020553D01*
X155256581Y-49031112D01*
X155308975Y-49077336D01*
X155323841Y-49111349D01*
X155356567Y-49233486D01*
X155356570Y-49233492D01*
X155456399Y-49447578D01*
X155591894Y-49641082D01*
X155758917Y-49808105D01*
X155952421Y-49943600D01*
X156166507Y-50043429D01*
X156166516Y-50043433D01*
X156380000Y-50100634D01*
X156380000Y-49203012D01*
X156437007Y-49235925D01*
X156564174Y-49270000D01*
X156695826Y-49270000D01*
X156822993Y-49235925D01*
X156880000Y-49203012D01*
X156880000Y-50100633D01*
X157093483Y-50043433D01*
X157093492Y-50043429D01*
X157307578Y-49943600D01*
X157501082Y-49808105D01*
X157668105Y-49641082D01*
X157803600Y-49447578D01*
X157903429Y-49233492D01*
X157903432Y-49233486D01*
X157960636Y-49020000D01*
X157063012Y-49020000D01*
X157095925Y-48962993D01*
X157130000Y-48835826D01*
X157130000Y-48704174D01*
X157095925Y-48577007D01*
X157063012Y-48520000D01*
X157960636Y-48520000D01*
X157960635Y-48519999D01*
X157903432Y-48306513D01*
X157903429Y-48306507D01*
X157803600Y-48092422D01*
X157803599Y-48092420D01*
X157668113Y-47898926D01*
X157668108Y-47898920D01*
X157501082Y-47731894D01*
X157307578Y-47596399D01*
X157093492Y-47496570D01*
X157093486Y-47496567D01*
X156971349Y-47463841D01*
X156911689Y-47427476D01*
X156881160Y-47364629D01*
X156889455Y-47295253D01*
X156933940Y-47241375D01*
X156967444Y-47225407D01*
X157033954Y-47205232D01*
X157216450Y-47107685D01*
X157376410Y-46976410D01*
X157507685Y-46816450D01*
X157605232Y-46633954D01*
X157665300Y-46435934D01*
X157685583Y-46230000D01*
X157665300Y-46024066D01*
X157605232Y-45826046D01*
X157507685Y-45643550D01*
X157455702Y-45580209D01*
X157376410Y-45483589D01*
X157216452Y-45352317D01*
X157216453Y-45352317D01*
X157216450Y-45352315D01*
X157033954Y-45254768D01*
X156835934Y-45194700D01*
X156835932Y-45194699D01*
X156835934Y-45194699D01*
X156630000Y-45174417D01*
X156424067Y-45194699D01*
X156226043Y-45254769D01*
X156115898Y-45313643D01*
X156043550Y-45352315D01*
X156043548Y-45352316D01*
X156043547Y-45352317D01*
X155883589Y-45483589D01*
X155752317Y-45643547D01*
X155654769Y-45826043D01*
X155594699Y-46024067D01*
X155574417Y-46230000D01*
X155594699Y-46435932D01*
X155594700Y-46435934D01*
X155654768Y-46633954D01*
X155752315Y-46816450D01*
X155752317Y-46816452D01*
X155883589Y-46976410D01*
X155980209Y-47055702D01*
X156043550Y-47107685D01*
X156226046Y-47205232D01*
X156292551Y-47225405D01*
X156350989Y-47263702D01*
X156379446Y-47327514D01*
X156368887Y-47396581D01*
X156322663Y-47448975D01*
X156288650Y-47463841D01*
X156166514Y-47496567D01*
X156166507Y-47496570D01*
X155952422Y-47596399D01*
X155952420Y-47596400D01*
X155758926Y-47731886D01*
X155758920Y-47731891D01*
X155591891Y-47898920D01*
X155591886Y-47898926D01*
X155456400Y-48092420D01*
X155456399Y-48092422D01*
X155356570Y-48306507D01*
X155356567Y-48306514D01*
X155323841Y-48428650D01*
X155287476Y-48488310D01*
X155224629Y-48518839D01*
X155155253Y-48510544D01*
X155101375Y-48466059D01*
X155085406Y-48432552D01*
X155065232Y-48366046D01*
X154967685Y-48183550D01*
X154915702Y-48120209D01*
X154836410Y-48023589D01*
X154686121Y-47900252D01*
X154676450Y-47892315D01*
X154493954Y-47794768D01*
X154295934Y-47734700D01*
X154295932Y-47734699D01*
X154295934Y-47734699D01*
X154090000Y-47714417D01*
X153884067Y-47734699D01*
X153749736Y-47775448D01*
X153686050Y-47794767D01*
X153686043Y-47794769D01*
X153598114Y-47841769D01*
X153503550Y-47892315D01*
X153503548Y-47892316D01*
X153503547Y-47892317D01*
X153343589Y-48023589D01*
X153212317Y-48183547D01*
X153114769Y-48366043D01*
X153054699Y-48564067D01*
X153034417Y-48770000D01*
X152605583Y-48770000D01*
X152585300Y-48564066D01*
X152525232Y-48366046D01*
X152427685Y-48183550D01*
X152375702Y-48120209D01*
X152296410Y-48023589D01*
X152146121Y-47900252D01*
X152136450Y-47892315D01*
X151953954Y-47794768D01*
X151755934Y-47734700D01*
X151755932Y-47734699D01*
X151755934Y-47734699D01*
X151550000Y-47714417D01*
X151344067Y-47734699D01*
X151209736Y-47775448D01*
X151146050Y-47794767D01*
X151146043Y-47794769D01*
X151058114Y-47841769D01*
X150963550Y-47892315D01*
X150963548Y-47892316D01*
X150963547Y-47892317D01*
X150803589Y-48023589D01*
X150672317Y-48183547D01*
X150574769Y-48366043D01*
X150514699Y-48564067D01*
X150494417Y-48770000D01*
X150065583Y-48770000D01*
X150045300Y-48564066D01*
X149985232Y-48366046D01*
X149887685Y-48183550D01*
X149835702Y-48120209D01*
X149756410Y-48023589D01*
X149606121Y-47900252D01*
X149596450Y-47892315D01*
X149413954Y-47794768D01*
X149347447Y-47774593D01*
X149289009Y-47736296D01*
X149260553Y-47672484D01*
X149271113Y-47603417D01*
X149317337Y-47551023D01*
X149351350Y-47536158D01*
X149473483Y-47503433D01*
X149473492Y-47503429D01*
X149687578Y-47403600D01*
X149687582Y-47403598D01*
X149771373Y-47344926D01*
X149771373Y-47344925D01*
X149139409Y-46712962D01*
X149202993Y-46695925D01*
X149317007Y-46630099D01*
X149410099Y-46537007D01*
X149475925Y-46422993D01*
X149492962Y-46359410D01*
X150124925Y-46991373D01*
X150124926Y-46991373D01*
X150183598Y-46907582D01*
X150183600Y-46907578D01*
X150283429Y-46693492D01*
X150283433Y-46693483D01*
X150316158Y-46571350D01*
X150352522Y-46511690D01*
X150415369Y-46481160D01*
X150484745Y-46489454D01*
X150538623Y-46533939D01*
X150554593Y-46567447D01*
X150574768Y-46633954D01*
X150672315Y-46816450D01*
X150672317Y-46816452D01*
X150803589Y-46976410D01*
X150900209Y-47055702D01*
X150963550Y-47107685D01*
X151146046Y-47205232D01*
X151344066Y-47265300D01*
X151344065Y-47265300D01*
X151362529Y-47267118D01*
X151550000Y-47285583D01*
X151755934Y-47265300D01*
X151953954Y-47205232D01*
X152136450Y-47107685D01*
X152296410Y-46976410D01*
X152427685Y-46816450D01*
X152525232Y-46633954D01*
X152585300Y-46435934D01*
X152605583Y-46230000D01*
X153034417Y-46230000D01*
X153054699Y-46435932D01*
X153054700Y-46435934D01*
X153114768Y-46633954D01*
X153212315Y-46816450D01*
X153212317Y-46816452D01*
X153343589Y-46976410D01*
X153440209Y-47055702D01*
X153503550Y-47107685D01*
X153686046Y-47205232D01*
X153884066Y-47265300D01*
X153884065Y-47265300D01*
X153902529Y-47267118D01*
X154090000Y-47285583D01*
X154295934Y-47265300D01*
X154493954Y-47205232D01*
X154676450Y-47107685D01*
X154836410Y-46976410D01*
X154967685Y-46816450D01*
X155065232Y-46633954D01*
X155125300Y-46435934D01*
X155145583Y-46230000D01*
X155125300Y-46024066D01*
X155065232Y-45826046D01*
X154967685Y-45643550D01*
X154915702Y-45580209D01*
X154836410Y-45483589D01*
X154676452Y-45352317D01*
X154676453Y-45352317D01*
X154676450Y-45352315D01*
X154493954Y-45254768D01*
X154295934Y-45194700D01*
X154295932Y-45194699D01*
X154295934Y-45194699D01*
X154090000Y-45174417D01*
X153884067Y-45194699D01*
X153686043Y-45254769D01*
X153575898Y-45313643D01*
X153503550Y-45352315D01*
X153503548Y-45352316D01*
X153503547Y-45352317D01*
X153343589Y-45483589D01*
X153212317Y-45643547D01*
X153114769Y-45826043D01*
X153054699Y-46024067D01*
X153034417Y-46230000D01*
X152605583Y-46230000D01*
X152585300Y-46024066D01*
X152525232Y-45826046D01*
X152427685Y-45643550D01*
X152375702Y-45580209D01*
X152296410Y-45483589D01*
X152136452Y-45352317D01*
X152136453Y-45352317D01*
X152136450Y-45352315D01*
X151953954Y-45254768D01*
X151755934Y-45194700D01*
X151755932Y-45194699D01*
X151755934Y-45194699D01*
X151550000Y-45174417D01*
X151344067Y-45194699D01*
X151146043Y-45254769D01*
X151035898Y-45313643D01*
X150963550Y-45352315D01*
X150963548Y-45352316D01*
X150963547Y-45352317D01*
X150803589Y-45483589D01*
X150672317Y-45643547D01*
X150574767Y-45826046D01*
X150554593Y-45892552D01*
X150516296Y-45950990D01*
X150452483Y-45979447D01*
X150383416Y-45968886D01*
X150331023Y-45922661D01*
X150316158Y-45888649D01*
X150283433Y-45766516D01*
X150283429Y-45766507D01*
X150183600Y-45552423D01*
X150183599Y-45552421D01*
X150124925Y-45468626D01*
X150124925Y-45468625D01*
X149492962Y-46100589D01*
X149475925Y-46037007D01*
X149410099Y-45922993D01*
X149317007Y-45829901D01*
X149202993Y-45764075D01*
X149139410Y-45747037D01*
X149771373Y-45115073D01*
X149771373Y-45115072D01*
X149687583Y-45056402D01*
X149687579Y-45056400D01*
X149473492Y-44956570D01*
X149473483Y-44956566D01*
X149245326Y-44895432D01*
X149245315Y-44895430D01*
X149010002Y-44874843D01*
X149009998Y-44874843D01*
X148774684Y-44895430D01*
X148774673Y-44895432D01*
X148546516Y-44956566D01*
X148546507Y-44956570D01*
X148332419Y-45056401D01*
X148248625Y-45115072D01*
X148880590Y-45747037D01*
X148817007Y-45764075D01*
X148702993Y-45829901D01*
X148609901Y-45922993D01*
X148544075Y-46037007D01*
X148527037Y-46100589D01*
X147895073Y-45468625D01*
X147895072Y-45468625D01*
X147836401Y-45552419D01*
X147736570Y-45766507D01*
X147736567Y-45766514D01*
X147703841Y-45888650D01*
X147667476Y-45948310D01*
X147604629Y-45978839D01*
X147535253Y-45970544D01*
X147481375Y-45926059D01*
X147465406Y-45892552D01*
X147445232Y-45826046D01*
X147347685Y-45643550D01*
X147295702Y-45580209D01*
X147216410Y-45483589D01*
X147056452Y-45352317D01*
X147056453Y-45352317D01*
X147056450Y-45352315D01*
X146873954Y-45254768D01*
X146675934Y-45194700D01*
X146675932Y-45194699D01*
X146675934Y-45194699D01*
X146470000Y-45174417D01*
X146264067Y-45194699D01*
X146066043Y-45254769D01*
X145955898Y-45313643D01*
X145883550Y-45352315D01*
X145883548Y-45352316D01*
X145883547Y-45352317D01*
X145723589Y-45483589D01*
X145592317Y-45643547D01*
X145494767Y-45826046D01*
X145474593Y-45892552D01*
X145436296Y-45950990D01*
X145372483Y-45979447D01*
X145303416Y-45968886D01*
X145251023Y-45922661D01*
X145236158Y-45888649D01*
X145203433Y-45766516D01*
X145203429Y-45766507D01*
X145103600Y-45552423D01*
X145103599Y-45552421D01*
X145044925Y-45468626D01*
X145044925Y-45468625D01*
X144412962Y-46100589D01*
X144395925Y-46037007D01*
X144330099Y-45922993D01*
X144237007Y-45829901D01*
X144122993Y-45764075D01*
X144059410Y-45747037D01*
X144691373Y-45115073D01*
X144691373Y-45115072D01*
X144607583Y-45056402D01*
X144607579Y-45056400D01*
X144393492Y-44956570D01*
X144393483Y-44956566D01*
X144165326Y-44895432D01*
X144165315Y-44895430D01*
X143930002Y-44874843D01*
X143929998Y-44874843D01*
X143694684Y-44895430D01*
X143694673Y-44895432D01*
X143466516Y-44956566D01*
X143466507Y-44956570D01*
X143252419Y-45056401D01*
X143168625Y-45115072D01*
X143800590Y-45747037D01*
X143737007Y-45764075D01*
X143622993Y-45829901D01*
X143529901Y-45922993D01*
X143464075Y-46037007D01*
X143447037Y-46100589D01*
X142815073Y-45468625D01*
X142815072Y-45468625D01*
X142756401Y-45552419D01*
X142656570Y-45766507D01*
X142656567Y-45766514D01*
X142623841Y-45888650D01*
X142587476Y-45948310D01*
X142524629Y-45978839D01*
X142455253Y-45970544D01*
X142401375Y-45926059D01*
X142385406Y-45892552D01*
X142365232Y-45826046D01*
X142267685Y-45643550D01*
X142215702Y-45580209D01*
X142136410Y-45483589D01*
X141976452Y-45352317D01*
X141976453Y-45352317D01*
X141976450Y-45352315D01*
X141793954Y-45254768D01*
X141595934Y-45194700D01*
X141595932Y-45194699D01*
X141595934Y-45194699D01*
X141390000Y-45174417D01*
X141184067Y-45194699D01*
X140986043Y-45254769D01*
X140875898Y-45313643D01*
X140803550Y-45352315D01*
X140803548Y-45352316D01*
X140803547Y-45352317D01*
X140643589Y-45483589D01*
X140512317Y-45643547D01*
X140414769Y-45826043D01*
X140354699Y-46024067D01*
X140334417Y-46230000D01*
X139905583Y-46230000D01*
X139885300Y-46024066D01*
X139825232Y-45826046D01*
X139727685Y-45643550D01*
X139675702Y-45580209D01*
X139596410Y-45483589D01*
X139436452Y-45352317D01*
X139436453Y-45352317D01*
X139436450Y-45352315D01*
X139253954Y-45254768D01*
X139055934Y-45194700D01*
X139055932Y-45194699D01*
X139055934Y-45194699D01*
X138850000Y-45174417D01*
X138644067Y-45194699D01*
X138446043Y-45254769D01*
X138335898Y-45313643D01*
X138263550Y-45352315D01*
X138263548Y-45352316D01*
X138263547Y-45352317D01*
X138103589Y-45483589D01*
X137972317Y-45643547D01*
X137874769Y-45826043D01*
X137814699Y-46024067D01*
X137794417Y-46230000D01*
X137814699Y-46435932D01*
X137814700Y-46435934D01*
X137874768Y-46633954D01*
X137972315Y-46816450D01*
X137972317Y-46816452D01*
X138103589Y-46976410D01*
X138200209Y-47055702D01*
X138263550Y-47107685D01*
X138446046Y-47205232D01*
X138512551Y-47225405D01*
X138570989Y-47263702D01*
X138599446Y-47327514D01*
X138588887Y-47396581D01*
X138542663Y-47448975D01*
X138508650Y-47463841D01*
X138386514Y-47496567D01*
X138386507Y-47496570D01*
X138172419Y-47596401D01*
X138088625Y-47655072D01*
X138720590Y-48287037D01*
X138657007Y-48304075D01*
X138542993Y-48369901D01*
X138449901Y-48462993D01*
X138384075Y-48577007D01*
X138367037Y-48640590D01*
X137735072Y-48008625D01*
X137676401Y-48092419D01*
X137576570Y-48306507D01*
X137576567Y-48306514D01*
X137543841Y-48428650D01*
X137507476Y-48488310D01*
X137444629Y-48518839D01*
X137375253Y-48510544D01*
X137321375Y-48466059D01*
X137305406Y-48432552D01*
X137285232Y-48366046D01*
X137187685Y-48183550D01*
X137135702Y-48120209D01*
X137056410Y-48023589D01*
X136906121Y-47900252D01*
X136896450Y-47892315D01*
X136713954Y-47794768D01*
X136515934Y-47734700D01*
X136515932Y-47734699D01*
X136515934Y-47734699D01*
X136310000Y-47714417D01*
X136104067Y-47734699D01*
X135969736Y-47775448D01*
X135906050Y-47794767D01*
X135906043Y-47794769D01*
X135818114Y-47841769D01*
X135723550Y-47892315D01*
X135723548Y-47892316D01*
X135723547Y-47892317D01*
X135563589Y-48023589D01*
X135432317Y-48183547D01*
X135334769Y-48366043D01*
X135274699Y-48564067D01*
X135254417Y-48770000D01*
X134825583Y-48770000D01*
X134805300Y-48564066D01*
X134745232Y-48366046D01*
X134647685Y-48183550D01*
X134595702Y-48120209D01*
X134516410Y-48023589D01*
X134366121Y-47900252D01*
X134356450Y-47892315D01*
X134173954Y-47794768D01*
X133975934Y-47734700D01*
X133975932Y-47734699D01*
X133975934Y-47734699D01*
X133770000Y-47714417D01*
X133564067Y-47734699D01*
X133429736Y-47775448D01*
X133366050Y-47794767D01*
X133366043Y-47794769D01*
X133278114Y-47841769D01*
X133183550Y-47892315D01*
X133183548Y-47892316D01*
X133183547Y-47892317D01*
X133023589Y-48023589D01*
X132892317Y-48183547D01*
X132794769Y-48366043D01*
X132734699Y-48564067D01*
X132714417Y-48770000D01*
X132285583Y-48770000D01*
X132265300Y-48564066D01*
X132205232Y-48366046D01*
X132107685Y-48183550D01*
X132055702Y-48120209D01*
X131976410Y-48023589D01*
X131826121Y-47900252D01*
X131816450Y-47892315D01*
X131633954Y-47794768D01*
X131567447Y-47774593D01*
X131509009Y-47736296D01*
X131480553Y-47672484D01*
X131491113Y-47603417D01*
X131537337Y-47551023D01*
X131571350Y-47536158D01*
X131693483Y-47503433D01*
X131693492Y-47503429D01*
X131907578Y-47403600D01*
X131907582Y-47403598D01*
X131991373Y-47344926D01*
X131991373Y-47344925D01*
X131359409Y-46712962D01*
X131422993Y-46695925D01*
X131537007Y-46630099D01*
X131630099Y-46537007D01*
X131695925Y-46422993D01*
X131712962Y-46359410D01*
X132344925Y-46991373D01*
X132344926Y-46991373D01*
X132403598Y-46907582D01*
X132403600Y-46907578D01*
X132503429Y-46693492D01*
X132503433Y-46693483D01*
X132536158Y-46571350D01*
X132572522Y-46511690D01*
X132635369Y-46481160D01*
X132704745Y-46489454D01*
X132758623Y-46533939D01*
X132774593Y-46567447D01*
X132794768Y-46633954D01*
X132892315Y-46816450D01*
X132892317Y-46816452D01*
X133023589Y-46976410D01*
X133120209Y-47055702D01*
X133183550Y-47107685D01*
X133366046Y-47205232D01*
X133564066Y-47265300D01*
X133564065Y-47265300D01*
X133582529Y-47267118D01*
X133770000Y-47285583D01*
X133975934Y-47265300D01*
X134173954Y-47205232D01*
X134356450Y-47107685D01*
X134516410Y-46976410D01*
X134647685Y-46816450D01*
X134745232Y-46633954D01*
X134805300Y-46435934D01*
X134825583Y-46230000D01*
X135254417Y-46230000D01*
X135274699Y-46435932D01*
X135274700Y-46435934D01*
X135334768Y-46633954D01*
X135432315Y-46816450D01*
X135432317Y-46816452D01*
X135563589Y-46976410D01*
X135660209Y-47055702D01*
X135723550Y-47107685D01*
X135906046Y-47205232D01*
X136104066Y-47265300D01*
X136104065Y-47265300D01*
X136122529Y-47267118D01*
X136310000Y-47285583D01*
X136515934Y-47265300D01*
X136713954Y-47205232D01*
X136896450Y-47107685D01*
X137056410Y-46976410D01*
X137187685Y-46816450D01*
X137285232Y-46633954D01*
X137345300Y-46435934D01*
X137365583Y-46230000D01*
X137345300Y-46024066D01*
X137285232Y-45826046D01*
X137187685Y-45643550D01*
X137135702Y-45580209D01*
X137056410Y-45483589D01*
X136896452Y-45352317D01*
X136896453Y-45352317D01*
X136896450Y-45352315D01*
X136713954Y-45254768D01*
X136515934Y-45194700D01*
X136515932Y-45194699D01*
X136515934Y-45194699D01*
X136310000Y-45174417D01*
X136104067Y-45194699D01*
X135906043Y-45254769D01*
X135795898Y-45313643D01*
X135723550Y-45352315D01*
X135723548Y-45352316D01*
X135723547Y-45352317D01*
X135563589Y-45483589D01*
X135432317Y-45643547D01*
X135334769Y-45826043D01*
X135274699Y-46024067D01*
X135254417Y-46230000D01*
X134825583Y-46230000D01*
X134805300Y-46024066D01*
X134745232Y-45826046D01*
X134647685Y-45643550D01*
X134595702Y-45580209D01*
X134516410Y-45483589D01*
X134356452Y-45352317D01*
X134356453Y-45352317D01*
X134356450Y-45352315D01*
X134173954Y-45254768D01*
X133975934Y-45194700D01*
X133975932Y-45194699D01*
X133975934Y-45194699D01*
X133770000Y-45174417D01*
X133564067Y-45194699D01*
X133366043Y-45254769D01*
X133255898Y-45313643D01*
X133183550Y-45352315D01*
X133183548Y-45352316D01*
X133183547Y-45352317D01*
X133023589Y-45483589D01*
X132892317Y-45643547D01*
X132794767Y-45826046D01*
X132774593Y-45892552D01*
X132736296Y-45950990D01*
X132672483Y-45979447D01*
X132603416Y-45968886D01*
X132551023Y-45922661D01*
X132536158Y-45888649D01*
X132503433Y-45766516D01*
X132503429Y-45766507D01*
X132403600Y-45552423D01*
X132403599Y-45552421D01*
X132344925Y-45468626D01*
X132344925Y-45468625D01*
X131712962Y-46100589D01*
X131695925Y-46037007D01*
X131630099Y-45922993D01*
X131537007Y-45829901D01*
X131422993Y-45764075D01*
X131359410Y-45747037D01*
X131991373Y-45115073D01*
X131991373Y-45115072D01*
X131907583Y-45056402D01*
X131907579Y-45056400D01*
X131693492Y-44956570D01*
X131693483Y-44956566D01*
X131465326Y-44895432D01*
X131465315Y-44895430D01*
X131230002Y-44874843D01*
X131229998Y-44874843D01*
X130994684Y-44895430D01*
X130994673Y-44895432D01*
X130766516Y-44956566D01*
X130766507Y-44956570D01*
X130552419Y-45056401D01*
X130468625Y-45115072D01*
X131100590Y-45747037D01*
X131037007Y-45764075D01*
X130922993Y-45829901D01*
X130829901Y-45922993D01*
X130764075Y-46037007D01*
X130747037Y-46100589D01*
X130115073Y-45468625D01*
X130115072Y-45468625D01*
X130056401Y-45552419D01*
X129956570Y-45766507D01*
X129956567Y-45766514D01*
X129923841Y-45888650D01*
X129887476Y-45948310D01*
X129824629Y-45978839D01*
X129755253Y-45970544D01*
X129701375Y-45926059D01*
X129685406Y-45892552D01*
X129665232Y-45826046D01*
X129567685Y-45643550D01*
X129515702Y-45580209D01*
X129436410Y-45483589D01*
X129276452Y-45352317D01*
X129276453Y-45352317D01*
X129276450Y-45352315D01*
X129093954Y-45254768D01*
X128895934Y-45194700D01*
X128895932Y-45194699D01*
X128895934Y-45194699D01*
X128690000Y-45174417D01*
X128484067Y-45194699D01*
X128286043Y-45254769D01*
X128175898Y-45313643D01*
X128103550Y-45352315D01*
X128103548Y-45352316D01*
X128103547Y-45352317D01*
X127943589Y-45483589D01*
X127812317Y-45643547D01*
X127714769Y-45826043D01*
X127654699Y-46024067D01*
X127634417Y-46230000D01*
X127205583Y-46230000D01*
X127185300Y-46024066D01*
X127125232Y-45826046D01*
X127027685Y-45643550D01*
X126975702Y-45580209D01*
X126896410Y-45483589D01*
X126736452Y-45352317D01*
X126736453Y-45352317D01*
X126736450Y-45352315D01*
X126553954Y-45254768D01*
X126355934Y-45194700D01*
X126355932Y-45194699D01*
X126355934Y-45194699D01*
X126150000Y-45174417D01*
X125944067Y-45194699D01*
X125746043Y-45254769D01*
X125635898Y-45313643D01*
X125563550Y-45352315D01*
X125563548Y-45352316D01*
X125563547Y-45352317D01*
X125403589Y-45483589D01*
X125272317Y-45643547D01*
X125174767Y-45826046D01*
X125154593Y-45892552D01*
X125116296Y-45950990D01*
X125052483Y-45979447D01*
X124983416Y-45968886D01*
X124931023Y-45922661D01*
X124916158Y-45888649D01*
X124883433Y-45766516D01*
X124883429Y-45766507D01*
X124783600Y-45552423D01*
X124783599Y-45552421D01*
X124724925Y-45468626D01*
X124724925Y-45468625D01*
X124092962Y-46100589D01*
X124075925Y-46037007D01*
X124010099Y-45922993D01*
X123917007Y-45829901D01*
X123802993Y-45764075D01*
X123739410Y-45747037D01*
X124371373Y-45115073D01*
X124371373Y-45115072D01*
X124287583Y-45056402D01*
X124287579Y-45056400D01*
X124073492Y-44956570D01*
X124073483Y-44956566D01*
X123845326Y-44895432D01*
X123845315Y-44895430D01*
X123610002Y-44874843D01*
X123609998Y-44874843D01*
X123374684Y-44895430D01*
X123374673Y-44895432D01*
X123146516Y-44956566D01*
X123146507Y-44956570D01*
X122932419Y-45056401D01*
X122848625Y-45115072D01*
X123480590Y-45747037D01*
X123417007Y-45764075D01*
X123302993Y-45829901D01*
X123209901Y-45922993D01*
X123144075Y-46037007D01*
X123127037Y-46100590D01*
X122495072Y-45468625D01*
X122436401Y-45552419D01*
X122336570Y-45766507D01*
X122336567Y-45766514D01*
X122303841Y-45888650D01*
X122267476Y-45948310D01*
X122204629Y-45978839D01*
X122135253Y-45970544D01*
X122081375Y-45926059D01*
X122065406Y-45892552D01*
X122045232Y-45826046D01*
X121947685Y-45643550D01*
X121895702Y-45580209D01*
X121816410Y-45483589D01*
X121656452Y-45352317D01*
X121656453Y-45352317D01*
X121656450Y-45352315D01*
X121473954Y-45254768D01*
X121275934Y-45194700D01*
X121275932Y-45194699D01*
X121275934Y-45194699D01*
X121070000Y-45174417D01*
X120864067Y-45194699D01*
X120666043Y-45254769D01*
X120555898Y-45313643D01*
X120483550Y-45352315D01*
X120483548Y-45352316D01*
X120483547Y-45352317D01*
X120323589Y-45483589D01*
X120192317Y-45643547D01*
X120094769Y-45826043D01*
X120034699Y-46024067D01*
X120014417Y-46230000D01*
X119585583Y-46230000D01*
X119565300Y-46024066D01*
X119505232Y-45826046D01*
X119407685Y-45643550D01*
X119355702Y-45580209D01*
X119276410Y-45483589D01*
X119116452Y-45352317D01*
X119116453Y-45352317D01*
X119116450Y-45352315D01*
X118933954Y-45254768D01*
X118735934Y-45194700D01*
X118735932Y-45194699D01*
X118735934Y-45194699D01*
X118530000Y-45174417D01*
X118324067Y-45194699D01*
X118126043Y-45254769D01*
X118015898Y-45313643D01*
X117943550Y-45352315D01*
X117943548Y-45352316D01*
X117943547Y-45352317D01*
X117783589Y-45483589D01*
X117652317Y-45643547D01*
X117554769Y-45826043D01*
X117494699Y-46024067D01*
X117474417Y-46230000D01*
X117494699Y-46435932D01*
X117494700Y-46435934D01*
X117554768Y-46633954D01*
X117652315Y-46816450D01*
X117652317Y-46816452D01*
X117783589Y-46976410D01*
X117880209Y-47055702D01*
X117943550Y-47107685D01*
X118126046Y-47205232D01*
X118192551Y-47225405D01*
X118250989Y-47263702D01*
X118279446Y-47327514D01*
X118268887Y-47396581D01*
X118222663Y-47448975D01*
X118188650Y-47463841D01*
X118066514Y-47496567D01*
X118066507Y-47496570D01*
X117852419Y-47596401D01*
X117768625Y-47655072D01*
X118400590Y-48287037D01*
X118337007Y-48304075D01*
X118222993Y-48369901D01*
X118129901Y-48462993D01*
X118064075Y-48577007D01*
X118047037Y-48640590D01*
X117415072Y-48008625D01*
X117356401Y-48092419D01*
X117256570Y-48306507D01*
X117256567Y-48306514D01*
X117223841Y-48428650D01*
X117187476Y-48488310D01*
X117124629Y-48518839D01*
X117055253Y-48510544D01*
X117001375Y-48466059D01*
X116985406Y-48432552D01*
X116965232Y-48366046D01*
X116867685Y-48183550D01*
X116815702Y-48120209D01*
X116736410Y-48023589D01*
X116586121Y-47900252D01*
X116576450Y-47892315D01*
X116393954Y-47794768D01*
X116195934Y-47734700D01*
X116195932Y-47734699D01*
X116195934Y-47734699D01*
X115990000Y-47714417D01*
X115784067Y-47734699D01*
X115649736Y-47775448D01*
X115586050Y-47794767D01*
X115586043Y-47794769D01*
X115498114Y-47841769D01*
X115403550Y-47892315D01*
X115403548Y-47892316D01*
X115403547Y-47892317D01*
X115243589Y-48023589D01*
X115112317Y-48183547D01*
X115014769Y-48366043D01*
X114954699Y-48564067D01*
X114934417Y-48770000D01*
X114505583Y-48770000D01*
X114485300Y-48564066D01*
X114425232Y-48366046D01*
X114327685Y-48183550D01*
X114275702Y-48120209D01*
X114196410Y-48023589D01*
X114046121Y-47900252D01*
X114036450Y-47892315D01*
X113853954Y-47794768D01*
X113787447Y-47774593D01*
X113729009Y-47736296D01*
X113700553Y-47672484D01*
X113711113Y-47603417D01*
X113757337Y-47551023D01*
X113791350Y-47536158D01*
X113913483Y-47503433D01*
X113913492Y-47503429D01*
X114127578Y-47403600D01*
X114127582Y-47403598D01*
X114211373Y-47344926D01*
X114211373Y-47344925D01*
X113579409Y-46712962D01*
X113642993Y-46695925D01*
X113757007Y-46630099D01*
X113850099Y-46537007D01*
X113915925Y-46422993D01*
X113932962Y-46359410D01*
X114564925Y-46991373D01*
X114564926Y-46991373D01*
X114623598Y-46907582D01*
X114623600Y-46907578D01*
X114723429Y-46693492D01*
X114723433Y-46693483D01*
X114756158Y-46571350D01*
X114792522Y-46511690D01*
X114855369Y-46481160D01*
X114924745Y-46489454D01*
X114978623Y-46533939D01*
X114994593Y-46567447D01*
X115014768Y-46633954D01*
X115112315Y-46816450D01*
X115112317Y-46816452D01*
X115243589Y-46976410D01*
X115340209Y-47055702D01*
X115403550Y-47107685D01*
X115586046Y-47205232D01*
X115784066Y-47265300D01*
X115784065Y-47265300D01*
X115802529Y-47267118D01*
X115990000Y-47285583D01*
X116195934Y-47265300D01*
X116393954Y-47205232D01*
X116576450Y-47107685D01*
X116736410Y-46976410D01*
X116867685Y-46816450D01*
X116965232Y-46633954D01*
X117025300Y-46435934D01*
X117045583Y-46230000D01*
X117025300Y-46024066D01*
X116965232Y-45826046D01*
X116867685Y-45643550D01*
X116815702Y-45580209D01*
X116736410Y-45483589D01*
X116576452Y-45352317D01*
X116576453Y-45352317D01*
X116576450Y-45352315D01*
X116393954Y-45254768D01*
X116195934Y-45194700D01*
X116195932Y-45194699D01*
X116195934Y-45194699D01*
X115990000Y-45174417D01*
X115784067Y-45194699D01*
X115586043Y-45254769D01*
X115475898Y-45313643D01*
X115403550Y-45352315D01*
X115403548Y-45352316D01*
X115403547Y-45352317D01*
X115243589Y-45483589D01*
X115112317Y-45643547D01*
X115014767Y-45826046D01*
X114994593Y-45892552D01*
X114956296Y-45950990D01*
X114892483Y-45979447D01*
X114823416Y-45968886D01*
X114771023Y-45922661D01*
X114756158Y-45888649D01*
X114723433Y-45766516D01*
X114723429Y-45766507D01*
X114623600Y-45552423D01*
X114623599Y-45552421D01*
X114564925Y-45468626D01*
X114564925Y-45468625D01*
X113932962Y-46100589D01*
X113915925Y-46037007D01*
X113850099Y-45922993D01*
X113757007Y-45829901D01*
X113642993Y-45764075D01*
X113579410Y-45747037D01*
X114211373Y-45115073D01*
X114211373Y-45115072D01*
X114127583Y-45056402D01*
X114127579Y-45056400D01*
X113913492Y-44956570D01*
X113913483Y-44956566D01*
X113685326Y-44895432D01*
X113685315Y-44895430D01*
X113450002Y-44874843D01*
X113449998Y-44874843D01*
X113214684Y-44895430D01*
X113214673Y-44895432D01*
X112986516Y-44956566D01*
X112986507Y-44956570D01*
X112772419Y-45056401D01*
X112688625Y-45115072D01*
X113320590Y-45747037D01*
X113257007Y-45764075D01*
X113142993Y-45829901D01*
X113049901Y-45922993D01*
X112984075Y-46037007D01*
X112967037Y-46100590D01*
X112335072Y-45468625D01*
X112276401Y-45552419D01*
X112176570Y-45766507D01*
X112176567Y-45766514D01*
X112143841Y-45888650D01*
X112107476Y-45948310D01*
X112044629Y-45978839D01*
X111975253Y-45970544D01*
X111921375Y-45926059D01*
X111905406Y-45892552D01*
X111885232Y-45826046D01*
X111787685Y-45643550D01*
X111735702Y-45580209D01*
X111656410Y-45483589D01*
X111496452Y-45352317D01*
X111496453Y-45352317D01*
X111496450Y-45352315D01*
X111313954Y-45254768D01*
X111115934Y-45194700D01*
X111115932Y-45194699D01*
X111115934Y-45194699D01*
X110910000Y-45174417D01*
X110704067Y-45194699D01*
X110506043Y-45254769D01*
X110395898Y-45313643D01*
X110323550Y-45352315D01*
X110323548Y-45352316D01*
X110323547Y-45352317D01*
X110163589Y-45483589D01*
X110032317Y-45643547D01*
X109934769Y-45826043D01*
X109874699Y-46024067D01*
X109854417Y-46230000D01*
X109425583Y-46230000D01*
X109405300Y-46024066D01*
X109345232Y-45826046D01*
X109247685Y-45643550D01*
X109195702Y-45580209D01*
X109116410Y-45483589D01*
X108956452Y-45352317D01*
X108956453Y-45352317D01*
X108956450Y-45352315D01*
X108773954Y-45254768D01*
X108575934Y-45194700D01*
X108575932Y-45194699D01*
X108575934Y-45194699D01*
X108370000Y-45174417D01*
X108164067Y-45194699D01*
X107966043Y-45254769D01*
X107855898Y-45313643D01*
X107783550Y-45352315D01*
X107783548Y-45352316D01*
X107783547Y-45352317D01*
X107623589Y-45483589D01*
X107492317Y-45643547D01*
X107394769Y-45826043D01*
X107334699Y-46024067D01*
X107314417Y-46230000D01*
X100520861Y-46230000D01*
X100544450Y-46148119D01*
X100549040Y-46135006D01*
X100594992Y-46024067D01*
X100655268Y-45878545D01*
X100661290Y-45866039D01*
X100795574Y-45623072D01*
X100802969Y-45611304D01*
X100963605Y-45384908D01*
X100972260Y-45374054D01*
X101157245Y-45167057D01*
X101167057Y-45157245D01*
X101374054Y-44972260D01*
X101384908Y-44963605D01*
X101611309Y-44802965D01*
X101623072Y-44795574D01*
X101866039Y-44661290D01*
X101878545Y-44655268D01*
X102135006Y-44549039D01*
X102148119Y-44544450D01*
X102414880Y-44467598D01*
X102428412Y-44464510D01*
X102702092Y-44418009D01*
X102715891Y-44416455D01*
X102962054Y-44402630D01*
X102996529Y-44400695D01*
X103003481Y-44400500D01*
X103057583Y-44400500D01*
X161942417Y-44400500D01*
X161996519Y-44400500D01*
X162003471Y-44400695D01*
G37*
G04 #@! TD.AperFunction*
M02*
