M48
; DRILL file {KiCad 8.0.0} date 2024-07-06T17:56:51-0700
; FORMAT={-:-/ absolute / metric / decimal}
; #@! TF.CreationDate,2024-07-06T17:56:51-07:00
; #@! TF.GenerationSoftware,Kicad,Pcbnew,8.0.0
; #@! TF.FileFunction,Plated,1,4,PTH
FMAT,2
METRIC
; #@! TA.AperFunction,Plated,PTH,ViaDrill
T1C0.600
; #@! TA.AperFunction,Plated,PTH,ComponentDrill
T2C0.600
; #@! TA.AperFunction,Plated,PTH,ViaDrill
T3C0.700
; #@! TA.AperFunction,Plated,PTH,ComponentDrill
T4C0.762
; #@! TA.AperFunction,Plated,PTH,ComponentDrill
T5C1.000
; #@! TA.AperFunction,Plated,PTH,ComponentDrill
T6C1.140
; #@! TA.AperFunction,Plated,PTH,ViaDrill
T7C1.200
; #@! TA.AperFunction,Plated,PTH,ComponentDrill
T8C3.302
%
G90
G05
T1
X101.275Y-71.725
X101.65Y-69.3
X105.875Y-65.975
X106.875Y-73.175
X109.575Y-70.275
X111.625Y-69.1
X117.3Y-72.85
X120.225Y-79.35
X120.325Y-58.75
X121.075Y-66.05
X123.2Y-65.425
X126.425Y-70.775
X126.825Y-56.6
X127.15Y-82.9
X127.675Y-79.15
X127.95Y-56.825
X128.3Y-73.55
X131.4Y-83.05
X131.975Y-79.625
X132.7Y-80.458
X132.7Y-81.608
X133.725Y-65.825
X133.9Y-74.675
X134.225Y-71.15
X134.3Y-64.475
X134.55Y-60.875
X135.164Y-83.264
X136.25Y-80.05
X136.325Y-83.175
X137.475Y-83.175
X140.1Y-83.4
X155.162Y-76.525
X155.162Y-86.29
X156.312Y-76.525
X156.312Y-86.29
X159.8Y-73.075
X161.657Y-68.393
X161.8Y-69.825
X163.3Y-71.725
X163.325Y-69.45
T3
X108.975Y-63.7
X121.275Y-52.475
X134.35Y-55.675
X146.975Y-72.05
X148.575Y-79.25
X150.65Y-64.7
X151.975Y-78.6
X155.775Y-72.325
X156.2Y-56.475
X157.025Y-83.725
X158.275Y-78.35
X160.1Y-74.425
T4
X129.055Y-90.721
X130.325Y-88.181
X131.595Y-90.721
X132.865Y-88.181
X134.135Y-90.721
X135.405Y-88.181
X136.675Y-90.721
X137.945Y-88.181
T5
X108.37Y-46.23
X108.37Y-48.77
X110.91Y-46.23
X110.91Y-48.77
X113.45Y-46.23
X113.45Y-48.77
X115.99Y-46.23
X115.99Y-48.77
X116.51Y-97.6
X118.53Y-46.23
X118.53Y-48.77
X119.05Y-97.6
X121.07Y-46.23
X121.07Y-48.77
X123.61Y-46.23
X123.61Y-48.77
X126.15Y-46.23
X126.15Y-48.77
X128.69Y-46.23
X128.69Y-48.77
X131.23Y-46.23
X131.23Y-48.77
X133.77Y-46.23
X133.77Y-48.77
X136.31Y-46.23
X136.31Y-48.77
X138.85Y-46.23
X138.85Y-48.77
X141.39Y-46.23
X141.39Y-48.77
X143.93Y-46.23
X143.93Y-48.77
X146.47Y-46.23
X146.47Y-48.77
X149.01Y-46.23
X149.01Y-48.77
X151.55Y-46.23
X151.55Y-48.77
X154.09Y-46.23
X154.09Y-48.77
X156.63Y-46.23
X156.63Y-48.77
T6
X105.465Y-57.49
X105.465Y-77.81
X113.085Y-57.49
X115.625Y-77.81
X118.165Y-57.49
X125.785Y-77.81
T7
X110.175Y-84.975
T8
X127.785Y-97.071
X139.215Y-97.071
T2
G00X145.755Y-93.1
M15
G01X145.755Y-94.1
M16
G05
G00X145.755Y-96.775
M15
G01X145.755Y-98.075
M16
G05
G00X154.395Y-93.1
M15
G01X154.395Y-94.1
M16
G05
G00X154.395Y-96.775
M15
G01X154.395Y-98.075
M16
G05
M30
