G04 #@! TF.GenerationSoftware,KiCad,Pcbnew,8.0.0*
G04 #@! TF.CreationDate,2024-07-06T17:56:43-07:00*
G04 #@! TF.ProjectId,rpi_hat_v1,7270695f-6861-4745-9f76-312e6b696361,rev?*
G04 #@! TF.SameCoordinates,Original*
G04 #@! TF.FileFunction,Legend,Top*
G04 #@! TF.FilePolarity,Positive*
%FSLAX46Y46*%
G04 Gerber Fmt 4.6, Leading zero omitted, Abs format (unit mm)*
G04 Created by KiCad (PCBNEW 8.0.0) date 2024-07-06 17:56:43*
%MOMM*%
%LPD*%
G01*
G04 APERTURE LIST*
G04 Aperture macros list*
%AMRoundRect*
0 Rectangle with rounded corners*
0 $1 Rounding radius*
0 $2 $3 $4 $5 $6 $7 $8 $9 X,Y pos of 4 corners*
0 Add a 4 corners polygon primitive as box body*
4,1,4,$2,$3,$4,$5,$6,$7,$8,$9,$2,$3,0*
0 Add four circle primitives for the rounded corners*
1,1,$1+$1,$2,$3*
1,1,$1+$1,$4,$5*
1,1,$1+$1,$6,$7*
1,1,$1+$1,$8,$9*
0 Add four rect primitives between the rounded corners*
20,1,$1+$1,$2,$3,$4,$5,0*
20,1,$1+$1,$4,$5,$6,$7,0*
20,1,$1+$1,$6,$7,$8,$9,0*
20,1,$1+$1,$8,$9,$2,$3,0*%
G04 Aperture macros list end*
%ADD10C,0.150000*%
%ADD11C,0.120000*%
%ADD12C,0.152400*%
%ADD13RoundRect,0.250000X-1.000000X1.500000X-1.000000X-1.500000X1.000000X-1.500000X1.000000X1.500000X0*%
%ADD14RoundRect,0.160000X0.197500X0.160000X-0.197500X0.160000X-0.197500X-0.160000X0.197500X-0.160000X0*%
%ADD15C,2.700000*%
%ADD16RoundRect,0.250000X-0.325000X-0.450000X0.325000X-0.450000X0.325000X0.450000X-0.325000X0.450000X0*%
%ADD17RoundRect,0.160000X-0.197500X-0.160000X0.197500X-0.160000X0.197500X0.160000X-0.197500X0.160000X0*%
%ADD18RoundRect,0.155000X-0.155000X0.212500X-0.155000X-0.212500X0.155000X-0.212500X0.155000X0.212500X0*%
%ADD19RoundRect,0.155000X0.155000X-0.212500X0.155000X0.212500X-0.155000X0.212500X-0.155000X-0.212500X0*%
%ADD20RoundRect,0.062500X0.350000X0.062500X-0.350000X0.062500X-0.350000X-0.062500X0.350000X-0.062500X0*%
%ADD21RoundRect,0.062500X0.062500X0.350000X-0.062500X0.350000X-0.062500X-0.350000X0.062500X-0.350000X0*%
%ADD22R,2.500000X2.500000*%
%ADD23RoundRect,0.250000X0.650000X-0.412500X0.650000X0.412500X-0.650000X0.412500X-0.650000X-0.412500X0*%
%ADD24RoundRect,0.150000X0.150000X-0.825000X0.150000X0.825000X-0.150000X0.825000X-0.150000X-0.825000X0*%
%ADD25R,1.600200X5.588000*%
%ADD26RoundRect,0.155000X-0.212500X-0.155000X0.212500X-0.155000X0.212500X0.155000X-0.212500X0.155000X0*%
%ADD27RoundRect,0.160000X-0.160000X0.197500X-0.160000X-0.197500X0.160000X-0.197500X0.160000X0.197500X0*%
%ADD28RoundRect,0.150000X-0.150000X0.875000X-0.150000X-0.875000X0.150000X-0.875000X0.150000X0.875000X0*%
%ADD29RoundRect,0.160000X0.160000X-0.197500X0.160000X0.197500X-0.160000X0.197500X-0.160000X-0.197500X0*%
%ADD30RoundRect,0.250000X0.450000X-0.325000X0.450000X0.325000X-0.450000X0.325000X-0.450000X-0.325000X0*%
%ADD31R,1.000000X1.500000*%
%ADD32RoundRect,0.155000X0.212500X0.155000X-0.212500X0.155000X-0.212500X-0.155000X0.212500X-0.155000X0*%
%ADD33RoundRect,0.250000X-0.450000X0.325000X-0.450000X-0.325000X0.450000X-0.325000X0.450000X0.325000X0*%
%ADD34R,0.250000X1.100000*%
%ADD35RoundRect,0.250000X0.475000X-0.250000X0.475000X0.250000X-0.475000X0.250000X-0.475000X-0.250000X0*%
%ADD36RoundRect,0.250000X0.400000X1.450000X-0.400000X1.450000X-0.400000X-1.450000X0.400000X-1.450000X0*%
%ADD37C,0.600000*%
%ADD38R,1.000000X2.000000*%
%ADD39O,0.850000X0.600000*%
%ADD40R,0.520000X1.000000*%
%ADD41R,0.270000X1.000000*%
%ADD42O,1.300000X2.300000*%
%ADD43O,1.300000X2.600000*%
%ADD44R,3.403600X1.854200*%
%ADD45R,3.403600X0.812800*%
%ADD46R,1.700000X1.700000*%
%ADD47O,1.700000X1.700000*%
%ADD48RoundRect,0.237500X0.250000X0.237500X-0.250000X0.237500X-0.250000X-0.237500X0.250000X-0.237500X0*%
%ADD49R,0.558800X1.295400*%
%ADD50C,1.270000*%
%ADD51C,3.810000*%
%ADD52R,1.981200X0.558800*%
%ADD53RoundRect,0.102000X0.855000X0.855000X-0.855000X0.855000X-0.855000X-0.855000X0.855000X-0.855000X0*%
%ADD54C,1.914000*%
G04 APERTURE END LIST*
D10*
X126684580Y-72985357D02*
X126732200Y-73032976D01*
X126732200Y-73032976D02*
X126779819Y-73175833D01*
X126779819Y-73175833D02*
X126779819Y-73271071D01*
X126779819Y-73271071D02*
X126732200Y-73413928D01*
X126732200Y-73413928D02*
X126636961Y-73509166D01*
X126636961Y-73509166D02*
X126541723Y-73556785D01*
X126541723Y-73556785D02*
X126351247Y-73604404D01*
X126351247Y-73604404D02*
X126208390Y-73604404D01*
X126208390Y-73604404D02*
X126017914Y-73556785D01*
X126017914Y-73556785D02*
X125922676Y-73509166D01*
X125922676Y-73509166D02*
X125827438Y-73413928D01*
X125827438Y-73413928D02*
X125779819Y-73271071D01*
X125779819Y-73271071D02*
X125779819Y-73175833D01*
X125779819Y-73175833D02*
X125827438Y-73032976D01*
X125827438Y-73032976D02*
X125875057Y-72985357D01*
X126779819Y-72032976D02*
X126779819Y-72604404D01*
X126779819Y-72318690D02*
X125779819Y-72318690D01*
X125779819Y-72318690D02*
X125922676Y-72413928D01*
X125922676Y-72413928D02*
X126017914Y-72509166D01*
X126017914Y-72509166D02*
X126065533Y-72604404D01*
X125779819Y-71175833D02*
X125779819Y-71366309D01*
X125779819Y-71366309D02*
X125827438Y-71461547D01*
X125827438Y-71461547D02*
X125875057Y-71509166D01*
X125875057Y-71509166D02*
X126017914Y-71604404D01*
X126017914Y-71604404D02*
X126208390Y-71652023D01*
X126208390Y-71652023D02*
X126589342Y-71652023D01*
X126589342Y-71652023D02*
X126684580Y-71604404D01*
X126684580Y-71604404D02*
X126732200Y-71556785D01*
X126732200Y-71556785D02*
X126779819Y-71461547D01*
X126779819Y-71461547D02*
X126779819Y-71271071D01*
X126779819Y-71271071D02*
X126732200Y-71175833D01*
X126732200Y-71175833D02*
X126684580Y-71128214D01*
X126684580Y-71128214D02*
X126589342Y-71080595D01*
X126589342Y-71080595D02*
X126351247Y-71080595D01*
X126351247Y-71080595D02*
X126256009Y-71128214D01*
X126256009Y-71128214D02*
X126208390Y-71175833D01*
X126208390Y-71175833D02*
X126160771Y-71271071D01*
X126160771Y-71271071D02*
X126160771Y-71461547D01*
X126160771Y-71461547D02*
X126208390Y-71556785D01*
X126208390Y-71556785D02*
X126256009Y-71604404D01*
X126256009Y-71604404D02*
X126351247Y-71652023D01*
X110708333Y-56979819D02*
X110375000Y-56503628D01*
X110136905Y-56979819D02*
X110136905Y-55979819D01*
X110136905Y-55979819D02*
X110517857Y-55979819D01*
X110517857Y-55979819D02*
X110613095Y-56027438D01*
X110613095Y-56027438D02*
X110660714Y-56075057D01*
X110660714Y-56075057D02*
X110708333Y-56170295D01*
X110708333Y-56170295D02*
X110708333Y-56313152D01*
X110708333Y-56313152D02*
X110660714Y-56408390D01*
X110660714Y-56408390D02*
X110613095Y-56456009D01*
X110613095Y-56456009D02*
X110517857Y-56503628D01*
X110517857Y-56503628D02*
X110136905Y-56503628D01*
X111279762Y-56408390D02*
X111184524Y-56360771D01*
X111184524Y-56360771D02*
X111136905Y-56313152D01*
X111136905Y-56313152D02*
X111089286Y-56217914D01*
X111089286Y-56217914D02*
X111089286Y-56170295D01*
X111089286Y-56170295D02*
X111136905Y-56075057D01*
X111136905Y-56075057D02*
X111184524Y-56027438D01*
X111184524Y-56027438D02*
X111279762Y-55979819D01*
X111279762Y-55979819D02*
X111470238Y-55979819D01*
X111470238Y-55979819D02*
X111565476Y-56027438D01*
X111565476Y-56027438D02*
X111613095Y-56075057D01*
X111613095Y-56075057D02*
X111660714Y-56170295D01*
X111660714Y-56170295D02*
X111660714Y-56217914D01*
X111660714Y-56217914D02*
X111613095Y-56313152D01*
X111613095Y-56313152D02*
X111565476Y-56360771D01*
X111565476Y-56360771D02*
X111470238Y-56408390D01*
X111470238Y-56408390D02*
X111279762Y-56408390D01*
X111279762Y-56408390D02*
X111184524Y-56456009D01*
X111184524Y-56456009D02*
X111136905Y-56503628D01*
X111136905Y-56503628D02*
X111089286Y-56598866D01*
X111089286Y-56598866D02*
X111089286Y-56789342D01*
X111089286Y-56789342D02*
X111136905Y-56884580D01*
X111136905Y-56884580D02*
X111184524Y-56932200D01*
X111184524Y-56932200D02*
X111279762Y-56979819D01*
X111279762Y-56979819D02*
X111470238Y-56979819D01*
X111470238Y-56979819D02*
X111565476Y-56932200D01*
X111565476Y-56932200D02*
X111613095Y-56884580D01*
X111613095Y-56884580D02*
X111660714Y-56789342D01*
X111660714Y-56789342D02*
X111660714Y-56598866D01*
X111660714Y-56598866D02*
X111613095Y-56503628D01*
X111613095Y-56503628D02*
X111565476Y-56456009D01*
X111565476Y-56456009D02*
X111470238Y-56408390D01*
X123141666Y-80881009D02*
X122808333Y-80881009D01*
X122808333Y-81404819D02*
X122808333Y-80404819D01*
X122808333Y-80404819D02*
X123284523Y-80404819D01*
X124189285Y-81404819D02*
X123617857Y-81404819D01*
X123903571Y-81404819D02*
X123903571Y-80404819D01*
X123903571Y-80404819D02*
X123808333Y-80547676D01*
X123808333Y-80547676D02*
X123713095Y-80642914D01*
X123713095Y-80642914D02*
X123617857Y-80690533D01*
X107657142Y-56954819D02*
X107323809Y-56478628D01*
X107085714Y-56954819D02*
X107085714Y-55954819D01*
X107085714Y-55954819D02*
X107466666Y-55954819D01*
X107466666Y-55954819D02*
X107561904Y-56002438D01*
X107561904Y-56002438D02*
X107609523Y-56050057D01*
X107609523Y-56050057D02*
X107657142Y-56145295D01*
X107657142Y-56145295D02*
X107657142Y-56288152D01*
X107657142Y-56288152D02*
X107609523Y-56383390D01*
X107609523Y-56383390D02*
X107561904Y-56431009D01*
X107561904Y-56431009D02*
X107466666Y-56478628D01*
X107466666Y-56478628D02*
X107085714Y-56478628D01*
X108609523Y-56954819D02*
X108038095Y-56954819D01*
X108323809Y-56954819D02*
X108323809Y-55954819D01*
X108323809Y-55954819D02*
X108228571Y-56097676D01*
X108228571Y-56097676D02*
X108133333Y-56192914D01*
X108133333Y-56192914D02*
X108038095Y-56240533D01*
X108990476Y-56050057D02*
X109038095Y-56002438D01*
X109038095Y-56002438D02*
X109133333Y-55954819D01*
X109133333Y-55954819D02*
X109371428Y-55954819D01*
X109371428Y-55954819D02*
X109466666Y-56002438D01*
X109466666Y-56002438D02*
X109514285Y-56050057D01*
X109514285Y-56050057D02*
X109561904Y-56145295D01*
X109561904Y-56145295D02*
X109561904Y-56240533D01*
X109561904Y-56240533D02*
X109514285Y-56383390D01*
X109514285Y-56383390D02*
X108942857Y-56954819D01*
X108942857Y-56954819D02*
X109561904Y-56954819D01*
X153534580Y-73617857D02*
X153582200Y-73665476D01*
X153582200Y-73665476D02*
X153629819Y-73808333D01*
X153629819Y-73808333D02*
X153629819Y-73903571D01*
X153629819Y-73903571D02*
X153582200Y-74046428D01*
X153582200Y-74046428D02*
X153486961Y-74141666D01*
X153486961Y-74141666D02*
X153391723Y-74189285D01*
X153391723Y-74189285D02*
X153201247Y-74236904D01*
X153201247Y-74236904D02*
X153058390Y-74236904D01*
X153058390Y-74236904D02*
X152867914Y-74189285D01*
X152867914Y-74189285D02*
X152772676Y-74141666D01*
X152772676Y-74141666D02*
X152677438Y-74046428D01*
X152677438Y-74046428D02*
X152629819Y-73903571D01*
X152629819Y-73903571D02*
X152629819Y-73808333D01*
X152629819Y-73808333D02*
X152677438Y-73665476D01*
X152677438Y-73665476D02*
X152725057Y-73617857D01*
X153629819Y-72665476D02*
X153629819Y-73236904D01*
X153629819Y-72951190D02*
X152629819Y-72951190D01*
X152629819Y-72951190D02*
X152772676Y-73046428D01*
X152772676Y-73046428D02*
X152867914Y-73141666D01*
X152867914Y-73141666D02*
X152915533Y-73236904D01*
X153629819Y-71713095D02*
X153629819Y-72284523D01*
X153629819Y-71998809D02*
X152629819Y-71998809D01*
X152629819Y-71998809D02*
X152772676Y-72094047D01*
X152772676Y-72094047D02*
X152867914Y-72189285D01*
X152867914Y-72189285D02*
X152915533Y-72284523D01*
X134159580Y-60941666D02*
X134207200Y-60989285D01*
X134207200Y-60989285D02*
X134254819Y-61132142D01*
X134254819Y-61132142D02*
X134254819Y-61227380D01*
X134254819Y-61227380D02*
X134207200Y-61370237D01*
X134207200Y-61370237D02*
X134111961Y-61465475D01*
X134111961Y-61465475D02*
X134016723Y-61513094D01*
X134016723Y-61513094D02*
X133826247Y-61560713D01*
X133826247Y-61560713D02*
X133683390Y-61560713D01*
X133683390Y-61560713D02*
X133492914Y-61513094D01*
X133492914Y-61513094D02*
X133397676Y-61465475D01*
X133397676Y-61465475D02*
X133302438Y-61370237D01*
X133302438Y-61370237D02*
X133254819Y-61227380D01*
X133254819Y-61227380D02*
X133254819Y-61132142D01*
X133254819Y-61132142D02*
X133302438Y-60989285D01*
X133302438Y-60989285D02*
X133350057Y-60941666D01*
X134254819Y-60465475D02*
X134254819Y-60274999D01*
X134254819Y-60274999D02*
X134207200Y-60179761D01*
X134207200Y-60179761D02*
X134159580Y-60132142D01*
X134159580Y-60132142D02*
X134016723Y-60036904D01*
X134016723Y-60036904D02*
X133826247Y-59989285D01*
X133826247Y-59989285D02*
X133445295Y-59989285D01*
X133445295Y-59989285D02*
X133350057Y-60036904D01*
X133350057Y-60036904D02*
X133302438Y-60084523D01*
X133302438Y-60084523D02*
X133254819Y-60179761D01*
X133254819Y-60179761D02*
X133254819Y-60370237D01*
X133254819Y-60370237D02*
X133302438Y-60465475D01*
X133302438Y-60465475D02*
X133350057Y-60513094D01*
X133350057Y-60513094D02*
X133445295Y-60560713D01*
X133445295Y-60560713D02*
X133683390Y-60560713D01*
X133683390Y-60560713D02*
X133778628Y-60513094D01*
X133778628Y-60513094D02*
X133826247Y-60465475D01*
X133826247Y-60465475D02*
X133873866Y-60370237D01*
X133873866Y-60370237D02*
X133873866Y-60179761D01*
X133873866Y-60179761D02*
X133826247Y-60084523D01*
X133826247Y-60084523D02*
X133778628Y-60036904D01*
X133778628Y-60036904D02*
X133683390Y-59989285D01*
X151588095Y-82779819D02*
X151588095Y-83589342D01*
X151588095Y-83589342D02*
X151635714Y-83684580D01*
X151635714Y-83684580D02*
X151683333Y-83732200D01*
X151683333Y-83732200D02*
X151778571Y-83779819D01*
X151778571Y-83779819D02*
X151969047Y-83779819D01*
X151969047Y-83779819D02*
X152064285Y-83732200D01*
X152064285Y-83732200D02*
X152111904Y-83684580D01*
X152111904Y-83684580D02*
X152159523Y-83589342D01*
X152159523Y-83589342D02*
X152159523Y-82779819D01*
X152588095Y-82875057D02*
X152635714Y-82827438D01*
X152635714Y-82827438D02*
X152730952Y-82779819D01*
X152730952Y-82779819D02*
X152969047Y-82779819D01*
X152969047Y-82779819D02*
X153064285Y-82827438D01*
X153064285Y-82827438D02*
X153111904Y-82875057D01*
X153111904Y-82875057D02*
X153159523Y-82970295D01*
X153159523Y-82970295D02*
X153159523Y-83065533D01*
X153159523Y-83065533D02*
X153111904Y-83208390D01*
X153111904Y-83208390D02*
X152540476Y-83779819D01*
X152540476Y-83779819D02*
X153159523Y-83779819D01*
X160183333Y-81909580D02*
X160135714Y-81957200D01*
X160135714Y-81957200D02*
X159992857Y-82004819D01*
X159992857Y-82004819D02*
X159897619Y-82004819D01*
X159897619Y-82004819D02*
X159754762Y-81957200D01*
X159754762Y-81957200D02*
X159659524Y-81861961D01*
X159659524Y-81861961D02*
X159611905Y-81766723D01*
X159611905Y-81766723D02*
X159564286Y-81576247D01*
X159564286Y-81576247D02*
X159564286Y-81433390D01*
X159564286Y-81433390D02*
X159611905Y-81242914D01*
X159611905Y-81242914D02*
X159659524Y-81147676D01*
X159659524Y-81147676D02*
X159754762Y-81052438D01*
X159754762Y-81052438D02*
X159897619Y-81004819D01*
X159897619Y-81004819D02*
X159992857Y-81004819D01*
X159992857Y-81004819D02*
X160135714Y-81052438D01*
X160135714Y-81052438D02*
X160183333Y-81100057D01*
X161040476Y-81004819D02*
X160850000Y-81004819D01*
X160850000Y-81004819D02*
X160754762Y-81052438D01*
X160754762Y-81052438D02*
X160707143Y-81100057D01*
X160707143Y-81100057D02*
X160611905Y-81242914D01*
X160611905Y-81242914D02*
X160564286Y-81433390D01*
X160564286Y-81433390D02*
X160564286Y-81814342D01*
X160564286Y-81814342D02*
X160611905Y-81909580D01*
X160611905Y-81909580D02*
X160659524Y-81957200D01*
X160659524Y-81957200D02*
X160754762Y-82004819D01*
X160754762Y-82004819D02*
X160945238Y-82004819D01*
X160945238Y-82004819D02*
X161040476Y-81957200D01*
X161040476Y-81957200D02*
X161088095Y-81909580D01*
X161088095Y-81909580D02*
X161135714Y-81814342D01*
X161135714Y-81814342D02*
X161135714Y-81576247D01*
X161135714Y-81576247D02*
X161088095Y-81481009D01*
X161088095Y-81481009D02*
X161040476Y-81433390D01*
X161040476Y-81433390D02*
X160945238Y-81385771D01*
X160945238Y-81385771D02*
X160754762Y-81385771D01*
X160754762Y-81385771D02*
X160659524Y-81433390D01*
X160659524Y-81433390D02*
X160611905Y-81481009D01*
X160611905Y-81481009D02*
X160564286Y-81576247D01*
X109344819Y-64796904D02*
X110154342Y-64796904D01*
X110154342Y-64796904D02*
X110249580Y-64749285D01*
X110249580Y-64749285D02*
X110297200Y-64701666D01*
X110297200Y-64701666D02*
X110344819Y-64606428D01*
X110344819Y-64606428D02*
X110344819Y-64415952D01*
X110344819Y-64415952D02*
X110297200Y-64320714D01*
X110297200Y-64320714D02*
X110249580Y-64273095D01*
X110249580Y-64273095D02*
X110154342Y-64225476D01*
X110154342Y-64225476D02*
X109344819Y-64225476D01*
X109344819Y-63844523D02*
X109344819Y-63225476D01*
X109344819Y-63225476D02*
X109725771Y-63558809D01*
X109725771Y-63558809D02*
X109725771Y-63415952D01*
X109725771Y-63415952D02*
X109773390Y-63320714D01*
X109773390Y-63320714D02*
X109821009Y-63273095D01*
X109821009Y-63273095D02*
X109916247Y-63225476D01*
X109916247Y-63225476D02*
X110154342Y-63225476D01*
X110154342Y-63225476D02*
X110249580Y-63273095D01*
X110249580Y-63273095D02*
X110297200Y-63320714D01*
X110297200Y-63320714D02*
X110344819Y-63415952D01*
X110344819Y-63415952D02*
X110344819Y-63701666D01*
X110344819Y-63701666D02*
X110297200Y-63796904D01*
X110297200Y-63796904D02*
X110249580Y-63844523D01*
X141288094Y-72570180D02*
X141288094Y-71760657D01*
X141288094Y-71760657D02*
X141240475Y-71665419D01*
X141240475Y-71665419D02*
X141192856Y-71617800D01*
X141192856Y-71617800D02*
X141097618Y-71570180D01*
X141097618Y-71570180D02*
X140907142Y-71570180D01*
X140907142Y-71570180D02*
X140811904Y-71617800D01*
X140811904Y-71617800D02*
X140764285Y-71665419D01*
X140764285Y-71665419D02*
X140716666Y-71760657D01*
X140716666Y-71760657D02*
X140716666Y-72570180D01*
X139716666Y-71570180D02*
X140288094Y-71570180D01*
X140002380Y-71570180D02*
X140002380Y-72570180D01*
X140002380Y-72570180D02*
X140097618Y-72427323D01*
X140097618Y-72427323D02*
X140192856Y-72332085D01*
X140192856Y-72332085D02*
X140288094Y-72284466D01*
X139097618Y-72570180D02*
X139002380Y-72570180D01*
X139002380Y-72570180D02*
X138907142Y-72522561D01*
X138907142Y-72522561D02*
X138859523Y-72474942D01*
X138859523Y-72474942D02*
X138811904Y-72379704D01*
X138811904Y-72379704D02*
X138764285Y-72189228D01*
X138764285Y-72189228D02*
X138764285Y-71951133D01*
X138764285Y-71951133D02*
X138811904Y-71760657D01*
X138811904Y-71760657D02*
X138859523Y-71665419D01*
X138859523Y-71665419D02*
X138907142Y-71617800D01*
X138907142Y-71617800D02*
X139002380Y-71570180D01*
X139002380Y-71570180D02*
X139097618Y-71570180D01*
X139097618Y-71570180D02*
X139192856Y-71617800D01*
X139192856Y-71617800D02*
X139240475Y-71665419D01*
X139240475Y-71665419D02*
X139288094Y-71760657D01*
X139288094Y-71760657D02*
X139335713Y-71951133D01*
X139335713Y-71951133D02*
X139335713Y-72189228D01*
X139335713Y-72189228D02*
X139288094Y-72379704D01*
X139288094Y-72379704D02*
X139240475Y-72474942D01*
X139240475Y-72474942D02*
X139192856Y-72522561D01*
X139192856Y-72522561D02*
X139097618Y-72570180D01*
X160833333Y-84009580D02*
X160785714Y-84057200D01*
X160785714Y-84057200D02*
X160642857Y-84104819D01*
X160642857Y-84104819D02*
X160547619Y-84104819D01*
X160547619Y-84104819D02*
X160404762Y-84057200D01*
X160404762Y-84057200D02*
X160309524Y-83961961D01*
X160309524Y-83961961D02*
X160261905Y-83866723D01*
X160261905Y-83866723D02*
X160214286Y-83676247D01*
X160214286Y-83676247D02*
X160214286Y-83533390D01*
X160214286Y-83533390D02*
X160261905Y-83342914D01*
X160261905Y-83342914D02*
X160309524Y-83247676D01*
X160309524Y-83247676D02*
X160404762Y-83152438D01*
X160404762Y-83152438D02*
X160547619Y-83104819D01*
X160547619Y-83104819D02*
X160642857Y-83104819D01*
X160642857Y-83104819D02*
X160785714Y-83152438D01*
X160785714Y-83152438D02*
X160833333Y-83200057D01*
X161785714Y-84104819D02*
X161214286Y-84104819D01*
X161500000Y-84104819D02*
X161500000Y-83104819D01*
X161500000Y-83104819D02*
X161404762Y-83247676D01*
X161404762Y-83247676D02*
X161309524Y-83342914D01*
X161309524Y-83342914D02*
X161214286Y-83390533D01*
X157007142Y-74729819D02*
X156673809Y-74253628D01*
X156435714Y-74729819D02*
X156435714Y-73729819D01*
X156435714Y-73729819D02*
X156816666Y-73729819D01*
X156816666Y-73729819D02*
X156911904Y-73777438D01*
X156911904Y-73777438D02*
X156959523Y-73825057D01*
X156959523Y-73825057D02*
X157007142Y-73920295D01*
X157007142Y-73920295D02*
X157007142Y-74063152D01*
X157007142Y-74063152D02*
X156959523Y-74158390D01*
X156959523Y-74158390D02*
X156911904Y-74206009D01*
X156911904Y-74206009D02*
X156816666Y-74253628D01*
X156816666Y-74253628D02*
X156435714Y-74253628D01*
X157959523Y-74729819D02*
X157388095Y-74729819D01*
X157673809Y-74729819D02*
X157673809Y-73729819D01*
X157673809Y-73729819D02*
X157578571Y-73872676D01*
X157578571Y-73872676D02*
X157483333Y-73967914D01*
X157483333Y-73967914D02*
X157388095Y-74015533D01*
X158864285Y-73729819D02*
X158388095Y-73729819D01*
X158388095Y-73729819D02*
X158340476Y-74206009D01*
X158340476Y-74206009D02*
X158388095Y-74158390D01*
X158388095Y-74158390D02*
X158483333Y-74110771D01*
X158483333Y-74110771D02*
X158721428Y-74110771D01*
X158721428Y-74110771D02*
X158816666Y-74158390D01*
X158816666Y-74158390D02*
X158864285Y-74206009D01*
X158864285Y-74206009D02*
X158911904Y-74301247D01*
X158911904Y-74301247D02*
X158911904Y-74539342D01*
X158911904Y-74539342D02*
X158864285Y-74634580D01*
X158864285Y-74634580D02*
X158816666Y-74682200D01*
X158816666Y-74682200D02*
X158721428Y-74729819D01*
X158721428Y-74729819D02*
X158483333Y-74729819D01*
X158483333Y-74729819D02*
X158388095Y-74682200D01*
X158388095Y-74682200D02*
X158340476Y-74634580D01*
X101882142Y-67279819D02*
X101548809Y-66803628D01*
X101310714Y-67279819D02*
X101310714Y-66279819D01*
X101310714Y-66279819D02*
X101691666Y-66279819D01*
X101691666Y-66279819D02*
X101786904Y-66327438D01*
X101786904Y-66327438D02*
X101834523Y-66375057D01*
X101834523Y-66375057D02*
X101882142Y-66470295D01*
X101882142Y-66470295D02*
X101882142Y-66613152D01*
X101882142Y-66613152D02*
X101834523Y-66708390D01*
X101834523Y-66708390D02*
X101786904Y-66756009D01*
X101786904Y-66756009D02*
X101691666Y-66803628D01*
X101691666Y-66803628D02*
X101310714Y-66803628D01*
X102834523Y-67279819D02*
X102263095Y-67279819D01*
X102548809Y-67279819D02*
X102548809Y-66279819D01*
X102548809Y-66279819D02*
X102453571Y-66422676D01*
X102453571Y-66422676D02*
X102358333Y-66517914D01*
X102358333Y-66517914D02*
X102263095Y-66565533D01*
X103786904Y-67279819D02*
X103215476Y-67279819D01*
X103501190Y-67279819D02*
X103501190Y-66279819D01*
X103501190Y-66279819D02*
X103405952Y-66422676D01*
X103405952Y-66422676D02*
X103310714Y-66517914D01*
X103310714Y-66517914D02*
X103215476Y-66565533D01*
X133279819Y-59011904D02*
X134089342Y-59011904D01*
X134089342Y-59011904D02*
X134184580Y-58964285D01*
X134184580Y-58964285D02*
X134232200Y-58916666D01*
X134232200Y-58916666D02*
X134279819Y-58821428D01*
X134279819Y-58821428D02*
X134279819Y-58630952D01*
X134279819Y-58630952D02*
X134232200Y-58535714D01*
X134232200Y-58535714D02*
X134184580Y-58488095D01*
X134184580Y-58488095D02*
X134089342Y-58440476D01*
X134089342Y-58440476D02*
X133279819Y-58440476D01*
X133613152Y-57535714D02*
X134279819Y-57535714D01*
X133232200Y-57773809D02*
X133946485Y-58011904D01*
X133946485Y-58011904D02*
X133946485Y-57392857D01*
X129779819Y-83642857D02*
X129303628Y-83976190D01*
X129779819Y-84214285D02*
X128779819Y-84214285D01*
X128779819Y-84214285D02*
X128779819Y-83833333D01*
X128779819Y-83833333D02*
X128827438Y-83738095D01*
X128827438Y-83738095D02*
X128875057Y-83690476D01*
X128875057Y-83690476D02*
X128970295Y-83642857D01*
X128970295Y-83642857D02*
X129113152Y-83642857D01*
X129113152Y-83642857D02*
X129208390Y-83690476D01*
X129208390Y-83690476D02*
X129256009Y-83738095D01*
X129256009Y-83738095D02*
X129303628Y-83833333D01*
X129303628Y-83833333D02*
X129303628Y-84214285D01*
X128779819Y-83309523D02*
X128779819Y-82690476D01*
X128779819Y-82690476D02*
X129160771Y-83023809D01*
X129160771Y-83023809D02*
X129160771Y-82880952D01*
X129160771Y-82880952D02*
X129208390Y-82785714D01*
X129208390Y-82785714D02*
X129256009Y-82738095D01*
X129256009Y-82738095D02*
X129351247Y-82690476D01*
X129351247Y-82690476D02*
X129589342Y-82690476D01*
X129589342Y-82690476D02*
X129684580Y-82738095D01*
X129684580Y-82738095D02*
X129732200Y-82785714D01*
X129732200Y-82785714D02*
X129779819Y-82880952D01*
X129779819Y-82880952D02*
X129779819Y-83166666D01*
X129779819Y-83166666D02*
X129732200Y-83261904D01*
X129732200Y-83261904D02*
X129684580Y-83309523D01*
X129779819Y-81738095D02*
X129779819Y-82309523D01*
X129779819Y-82023809D02*
X128779819Y-82023809D01*
X128779819Y-82023809D02*
X128922676Y-82119047D01*
X128922676Y-82119047D02*
X129017914Y-82214285D01*
X129017914Y-82214285D02*
X129065533Y-82309523D01*
X134107142Y-80834580D02*
X134059523Y-80882200D01*
X134059523Y-80882200D02*
X133916666Y-80929819D01*
X133916666Y-80929819D02*
X133821428Y-80929819D01*
X133821428Y-80929819D02*
X133678571Y-80882200D01*
X133678571Y-80882200D02*
X133583333Y-80786961D01*
X133583333Y-80786961D02*
X133535714Y-80691723D01*
X133535714Y-80691723D02*
X133488095Y-80501247D01*
X133488095Y-80501247D02*
X133488095Y-80358390D01*
X133488095Y-80358390D02*
X133535714Y-80167914D01*
X133535714Y-80167914D02*
X133583333Y-80072676D01*
X133583333Y-80072676D02*
X133678571Y-79977438D01*
X133678571Y-79977438D02*
X133821428Y-79929819D01*
X133821428Y-79929819D02*
X133916666Y-79929819D01*
X133916666Y-79929819D02*
X134059523Y-79977438D01*
X134059523Y-79977438D02*
X134107142Y-80025057D01*
X135059523Y-80929819D02*
X134488095Y-80929819D01*
X134773809Y-80929819D02*
X134773809Y-79929819D01*
X134773809Y-79929819D02*
X134678571Y-80072676D01*
X134678571Y-80072676D02*
X134583333Y-80167914D01*
X134583333Y-80167914D02*
X134488095Y-80215533D01*
X135964285Y-79929819D02*
X135488095Y-79929819D01*
X135488095Y-79929819D02*
X135440476Y-80406009D01*
X135440476Y-80406009D02*
X135488095Y-80358390D01*
X135488095Y-80358390D02*
X135583333Y-80310771D01*
X135583333Y-80310771D02*
X135821428Y-80310771D01*
X135821428Y-80310771D02*
X135916666Y-80358390D01*
X135916666Y-80358390D02*
X135964285Y-80406009D01*
X135964285Y-80406009D02*
X136011904Y-80501247D01*
X136011904Y-80501247D02*
X136011904Y-80739342D01*
X136011904Y-80739342D02*
X135964285Y-80834580D01*
X135964285Y-80834580D02*
X135916666Y-80882200D01*
X135916666Y-80882200D02*
X135821428Y-80929819D01*
X135821428Y-80929819D02*
X135583333Y-80929819D01*
X135583333Y-80929819D02*
X135488095Y-80882200D01*
X135488095Y-80882200D02*
X135440476Y-80834580D01*
X155620485Y-85116666D02*
X155144294Y-85449999D01*
X155620485Y-85688094D02*
X154620485Y-85688094D01*
X154620485Y-85688094D02*
X154620485Y-85307142D01*
X154620485Y-85307142D02*
X154668104Y-85211904D01*
X154668104Y-85211904D02*
X154715723Y-85164285D01*
X154715723Y-85164285D02*
X154810961Y-85116666D01*
X154810961Y-85116666D02*
X154953818Y-85116666D01*
X154953818Y-85116666D02*
X155049056Y-85164285D01*
X155049056Y-85164285D02*
X155096675Y-85211904D01*
X155096675Y-85211904D02*
X155144294Y-85307142D01*
X155144294Y-85307142D02*
X155144294Y-85688094D01*
X154620485Y-84783332D02*
X154620485Y-84164285D01*
X154620485Y-84164285D02*
X155001437Y-84497618D01*
X155001437Y-84497618D02*
X155001437Y-84354761D01*
X155001437Y-84354761D02*
X155049056Y-84259523D01*
X155049056Y-84259523D02*
X155096675Y-84211904D01*
X155096675Y-84211904D02*
X155191913Y-84164285D01*
X155191913Y-84164285D02*
X155430008Y-84164285D01*
X155430008Y-84164285D02*
X155525246Y-84211904D01*
X155525246Y-84211904D02*
X155572866Y-84259523D01*
X155572866Y-84259523D02*
X155620485Y-84354761D01*
X155620485Y-84354761D02*
X155620485Y-84640475D01*
X155620485Y-84640475D02*
X155572866Y-84735713D01*
X155572866Y-84735713D02*
X155525246Y-84783332D01*
X113054819Y-53438094D02*
X112054819Y-53438094D01*
X112054819Y-53438094D02*
X112054819Y-53199999D01*
X112054819Y-53199999D02*
X112102438Y-53057142D01*
X112102438Y-53057142D02*
X112197676Y-52961904D01*
X112197676Y-52961904D02*
X112292914Y-52914285D01*
X112292914Y-52914285D02*
X112483390Y-52866666D01*
X112483390Y-52866666D02*
X112626247Y-52866666D01*
X112626247Y-52866666D02*
X112816723Y-52914285D01*
X112816723Y-52914285D02*
X112911961Y-52961904D01*
X112911961Y-52961904D02*
X113007200Y-53057142D01*
X113007200Y-53057142D02*
X113054819Y-53199999D01*
X113054819Y-53199999D02*
X113054819Y-53438094D01*
X113054819Y-51914285D02*
X113054819Y-52485713D01*
X113054819Y-52199999D02*
X112054819Y-52199999D01*
X112054819Y-52199999D02*
X112197676Y-52295237D01*
X112197676Y-52295237D02*
X112292914Y-52390475D01*
X112292914Y-52390475D02*
X112340533Y-52485713D01*
X158968833Y-88069819D02*
X158635500Y-87593628D01*
X158397405Y-88069819D02*
X158397405Y-87069819D01*
X158397405Y-87069819D02*
X158778357Y-87069819D01*
X158778357Y-87069819D02*
X158873595Y-87117438D01*
X158873595Y-87117438D02*
X158921214Y-87165057D01*
X158921214Y-87165057D02*
X158968833Y-87260295D01*
X158968833Y-87260295D02*
X158968833Y-87403152D01*
X158968833Y-87403152D02*
X158921214Y-87498390D01*
X158921214Y-87498390D02*
X158873595Y-87546009D01*
X158873595Y-87546009D02*
X158778357Y-87593628D01*
X158778357Y-87593628D02*
X158397405Y-87593628D01*
X159349786Y-87165057D02*
X159397405Y-87117438D01*
X159397405Y-87117438D02*
X159492643Y-87069819D01*
X159492643Y-87069819D02*
X159730738Y-87069819D01*
X159730738Y-87069819D02*
X159825976Y-87117438D01*
X159825976Y-87117438D02*
X159873595Y-87165057D01*
X159873595Y-87165057D02*
X159921214Y-87260295D01*
X159921214Y-87260295D02*
X159921214Y-87355533D01*
X159921214Y-87355533D02*
X159873595Y-87498390D01*
X159873595Y-87498390D02*
X159302167Y-88069819D01*
X159302167Y-88069819D02*
X159921214Y-88069819D01*
X153086666Y-51854819D02*
X153086666Y-52569104D01*
X153086666Y-52569104D02*
X153039047Y-52711961D01*
X153039047Y-52711961D02*
X152943809Y-52807200D01*
X152943809Y-52807200D02*
X152800952Y-52854819D01*
X152800952Y-52854819D02*
X152705714Y-52854819D01*
X153562857Y-52854819D02*
X153562857Y-51854819D01*
X153562857Y-51854819D02*
X153943809Y-51854819D01*
X153943809Y-51854819D02*
X154039047Y-51902438D01*
X154039047Y-51902438D02*
X154086666Y-51950057D01*
X154086666Y-51950057D02*
X154134285Y-52045295D01*
X154134285Y-52045295D02*
X154134285Y-52188152D01*
X154134285Y-52188152D02*
X154086666Y-52283390D01*
X154086666Y-52283390D02*
X154039047Y-52331009D01*
X154039047Y-52331009D02*
X153943809Y-52378628D01*
X153943809Y-52378628D02*
X153562857Y-52378628D01*
X155086666Y-52854819D02*
X154515238Y-52854819D01*
X154800952Y-52854819D02*
X154800952Y-51854819D01*
X154800952Y-51854819D02*
X154705714Y-51997676D01*
X154705714Y-51997676D02*
X154610476Y-52092914D01*
X154610476Y-52092914D02*
X154515238Y-52140533D01*
X117034642Y-60929819D02*
X116701309Y-60453628D01*
X116463214Y-60929819D02*
X116463214Y-59929819D01*
X116463214Y-59929819D02*
X116844166Y-59929819D01*
X116844166Y-59929819D02*
X116939404Y-59977438D01*
X116939404Y-59977438D02*
X116987023Y-60025057D01*
X116987023Y-60025057D02*
X117034642Y-60120295D01*
X117034642Y-60120295D02*
X117034642Y-60263152D01*
X117034642Y-60263152D02*
X116987023Y-60358390D01*
X116987023Y-60358390D02*
X116939404Y-60406009D01*
X116939404Y-60406009D02*
X116844166Y-60453628D01*
X116844166Y-60453628D02*
X116463214Y-60453628D01*
X117987023Y-60929819D02*
X117415595Y-60929819D01*
X117701309Y-60929819D02*
X117701309Y-59929819D01*
X117701309Y-59929819D02*
X117606071Y-60072676D01*
X117606071Y-60072676D02*
X117510833Y-60167914D01*
X117510833Y-60167914D02*
X117415595Y-60215533D01*
X118463214Y-60929819D02*
X118653690Y-60929819D01*
X118653690Y-60929819D02*
X118748928Y-60882200D01*
X118748928Y-60882200D02*
X118796547Y-60834580D01*
X118796547Y-60834580D02*
X118891785Y-60691723D01*
X118891785Y-60691723D02*
X118939404Y-60501247D01*
X118939404Y-60501247D02*
X118939404Y-60120295D01*
X118939404Y-60120295D02*
X118891785Y-60025057D01*
X118891785Y-60025057D02*
X118844166Y-59977438D01*
X118844166Y-59977438D02*
X118748928Y-59929819D01*
X118748928Y-59929819D02*
X118558452Y-59929819D01*
X118558452Y-59929819D02*
X118463214Y-59977438D01*
X118463214Y-59977438D02*
X118415595Y-60025057D01*
X118415595Y-60025057D02*
X118367976Y-60120295D01*
X118367976Y-60120295D02*
X118367976Y-60358390D01*
X118367976Y-60358390D02*
X118415595Y-60453628D01*
X118415595Y-60453628D02*
X118463214Y-60501247D01*
X118463214Y-60501247D02*
X118558452Y-60548866D01*
X118558452Y-60548866D02*
X118748928Y-60548866D01*
X118748928Y-60548866D02*
X118844166Y-60501247D01*
X118844166Y-60501247D02*
X118891785Y-60453628D01*
X118891785Y-60453628D02*
X118939404Y-60358390D01*
X106983333Y-61934580D02*
X106935714Y-61982200D01*
X106935714Y-61982200D02*
X106792857Y-62029819D01*
X106792857Y-62029819D02*
X106697619Y-62029819D01*
X106697619Y-62029819D02*
X106554762Y-61982200D01*
X106554762Y-61982200D02*
X106459524Y-61886961D01*
X106459524Y-61886961D02*
X106411905Y-61791723D01*
X106411905Y-61791723D02*
X106364286Y-61601247D01*
X106364286Y-61601247D02*
X106364286Y-61458390D01*
X106364286Y-61458390D02*
X106411905Y-61267914D01*
X106411905Y-61267914D02*
X106459524Y-61172676D01*
X106459524Y-61172676D02*
X106554762Y-61077438D01*
X106554762Y-61077438D02*
X106697619Y-61029819D01*
X106697619Y-61029819D02*
X106792857Y-61029819D01*
X106792857Y-61029819D02*
X106935714Y-61077438D01*
X106935714Y-61077438D02*
X106983333Y-61125057D01*
X107554762Y-61458390D02*
X107459524Y-61410771D01*
X107459524Y-61410771D02*
X107411905Y-61363152D01*
X107411905Y-61363152D02*
X107364286Y-61267914D01*
X107364286Y-61267914D02*
X107364286Y-61220295D01*
X107364286Y-61220295D02*
X107411905Y-61125057D01*
X107411905Y-61125057D02*
X107459524Y-61077438D01*
X107459524Y-61077438D02*
X107554762Y-61029819D01*
X107554762Y-61029819D02*
X107745238Y-61029819D01*
X107745238Y-61029819D02*
X107840476Y-61077438D01*
X107840476Y-61077438D02*
X107888095Y-61125057D01*
X107888095Y-61125057D02*
X107935714Y-61220295D01*
X107935714Y-61220295D02*
X107935714Y-61267914D01*
X107935714Y-61267914D02*
X107888095Y-61363152D01*
X107888095Y-61363152D02*
X107840476Y-61410771D01*
X107840476Y-61410771D02*
X107745238Y-61458390D01*
X107745238Y-61458390D02*
X107554762Y-61458390D01*
X107554762Y-61458390D02*
X107459524Y-61506009D01*
X107459524Y-61506009D02*
X107411905Y-61553628D01*
X107411905Y-61553628D02*
X107364286Y-61648866D01*
X107364286Y-61648866D02*
X107364286Y-61839342D01*
X107364286Y-61839342D02*
X107411905Y-61934580D01*
X107411905Y-61934580D02*
X107459524Y-61982200D01*
X107459524Y-61982200D02*
X107554762Y-62029819D01*
X107554762Y-62029819D02*
X107745238Y-62029819D01*
X107745238Y-62029819D02*
X107840476Y-61982200D01*
X107840476Y-61982200D02*
X107888095Y-61934580D01*
X107888095Y-61934580D02*
X107935714Y-61839342D01*
X107935714Y-61839342D02*
X107935714Y-61648866D01*
X107935714Y-61648866D02*
X107888095Y-61553628D01*
X107888095Y-61553628D02*
X107840476Y-61506009D01*
X107840476Y-61506009D02*
X107745238Y-61458390D01*
X157959578Y-86066666D02*
X158007198Y-86114285D01*
X158007198Y-86114285D02*
X158054817Y-86257142D01*
X158054817Y-86257142D02*
X158054817Y-86352380D01*
X158054817Y-86352380D02*
X158007198Y-86495237D01*
X158007198Y-86495237D02*
X157911959Y-86590475D01*
X157911959Y-86590475D02*
X157816721Y-86638094D01*
X157816721Y-86638094D02*
X157626245Y-86685713D01*
X157626245Y-86685713D02*
X157483388Y-86685713D01*
X157483388Y-86685713D02*
X157292912Y-86638094D01*
X157292912Y-86638094D02*
X157197674Y-86590475D01*
X157197674Y-86590475D02*
X157102436Y-86495237D01*
X157102436Y-86495237D02*
X157054817Y-86352380D01*
X157054817Y-86352380D02*
X157054817Y-86257142D01*
X157054817Y-86257142D02*
X157102436Y-86114285D01*
X157102436Y-86114285D02*
X157150055Y-86066666D01*
X157054817Y-85733332D02*
X157054817Y-85114285D01*
X157054817Y-85114285D02*
X157435769Y-85447618D01*
X157435769Y-85447618D02*
X157435769Y-85304761D01*
X157435769Y-85304761D02*
X157483388Y-85209523D01*
X157483388Y-85209523D02*
X157531007Y-85161904D01*
X157531007Y-85161904D02*
X157626245Y-85114285D01*
X157626245Y-85114285D02*
X157864340Y-85114285D01*
X157864340Y-85114285D02*
X157959578Y-85161904D01*
X157959578Y-85161904D02*
X158007198Y-85209523D01*
X158007198Y-85209523D02*
X158054817Y-85304761D01*
X158054817Y-85304761D02*
X158054817Y-85590475D01*
X158054817Y-85590475D02*
X158007198Y-85685713D01*
X158007198Y-85685713D02*
X157959578Y-85733332D01*
X149411905Y-73604819D02*
X149411905Y-72604819D01*
X149411905Y-72604819D02*
X149650000Y-72604819D01*
X149650000Y-72604819D02*
X149792857Y-72652438D01*
X149792857Y-72652438D02*
X149888095Y-72747676D01*
X149888095Y-72747676D02*
X149935714Y-72842914D01*
X149935714Y-72842914D02*
X149983333Y-73033390D01*
X149983333Y-73033390D02*
X149983333Y-73176247D01*
X149983333Y-73176247D02*
X149935714Y-73366723D01*
X149935714Y-73366723D02*
X149888095Y-73461961D01*
X149888095Y-73461961D02*
X149792857Y-73557200D01*
X149792857Y-73557200D02*
X149650000Y-73604819D01*
X149650000Y-73604819D02*
X149411905Y-73604819D01*
X150888095Y-72604819D02*
X150411905Y-72604819D01*
X150411905Y-72604819D02*
X150364286Y-73081009D01*
X150364286Y-73081009D02*
X150411905Y-73033390D01*
X150411905Y-73033390D02*
X150507143Y-72985771D01*
X150507143Y-72985771D02*
X150745238Y-72985771D01*
X150745238Y-72985771D02*
X150840476Y-73033390D01*
X150840476Y-73033390D02*
X150888095Y-73081009D01*
X150888095Y-73081009D02*
X150935714Y-73176247D01*
X150935714Y-73176247D02*
X150935714Y-73414342D01*
X150935714Y-73414342D02*
X150888095Y-73509580D01*
X150888095Y-73509580D02*
X150840476Y-73557200D01*
X150840476Y-73557200D02*
X150745238Y-73604819D01*
X150745238Y-73604819D02*
X150507143Y-73604819D01*
X150507143Y-73604819D02*
X150411905Y-73557200D01*
X150411905Y-73557200D02*
X150364286Y-73509580D01*
X128988095Y-79704819D02*
X128988095Y-80514342D01*
X128988095Y-80514342D02*
X129035714Y-80609580D01*
X129035714Y-80609580D02*
X129083333Y-80657200D01*
X129083333Y-80657200D02*
X129178571Y-80704819D01*
X129178571Y-80704819D02*
X129369047Y-80704819D01*
X129369047Y-80704819D02*
X129464285Y-80657200D01*
X129464285Y-80657200D02*
X129511904Y-80609580D01*
X129511904Y-80609580D02*
X129559523Y-80514342D01*
X129559523Y-80514342D02*
X129559523Y-79704819D01*
X130464285Y-79704819D02*
X130273809Y-79704819D01*
X130273809Y-79704819D02*
X130178571Y-79752438D01*
X130178571Y-79752438D02*
X130130952Y-79800057D01*
X130130952Y-79800057D02*
X130035714Y-79942914D01*
X130035714Y-79942914D02*
X129988095Y-80133390D01*
X129988095Y-80133390D02*
X129988095Y-80514342D01*
X129988095Y-80514342D02*
X130035714Y-80609580D01*
X130035714Y-80609580D02*
X130083333Y-80657200D01*
X130083333Y-80657200D02*
X130178571Y-80704819D01*
X130178571Y-80704819D02*
X130369047Y-80704819D01*
X130369047Y-80704819D02*
X130464285Y-80657200D01*
X130464285Y-80657200D02*
X130511904Y-80609580D01*
X130511904Y-80609580D02*
X130559523Y-80514342D01*
X130559523Y-80514342D02*
X130559523Y-80276247D01*
X130559523Y-80276247D02*
X130511904Y-80181009D01*
X130511904Y-80181009D02*
X130464285Y-80133390D01*
X130464285Y-80133390D02*
X130369047Y-80085771D01*
X130369047Y-80085771D02*
X130178571Y-80085771D01*
X130178571Y-80085771D02*
X130083333Y-80133390D01*
X130083333Y-80133390D02*
X130035714Y-80181009D01*
X130035714Y-80181009D02*
X129988095Y-80276247D01*
X133332142Y-74984580D02*
X133284523Y-75032200D01*
X133284523Y-75032200D02*
X133141666Y-75079819D01*
X133141666Y-75079819D02*
X133046428Y-75079819D01*
X133046428Y-75079819D02*
X132903571Y-75032200D01*
X132903571Y-75032200D02*
X132808333Y-74936961D01*
X132808333Y-74936961D02*
X132760714Y-74841723D01*
X132760714Y-74841723D02*
X132713095Y-74651247D01*
X132713095Y-74651247D02*
X132713095Y-74508390D01*
X132713095Y-74508390D02*
X132760714Y-74317914D01*
X132760714Y-74317914D02*
X132808333Y-74222676D01*
X132808333Y-74222676D02*
X132903571Y-74127438D01*
X132903571Y-74127438D02*
X133046428Y-74079819D01*
X133046428Y-74079819D02*
X133141666Y-74079819D01*
X133141666Y-74079819D02*
X133284523Y-74127438D01*
X133284523Y-74127438D02*
X133332142Y-74175057D01*
X134284523Y-75079819D02*
X133713095Y-75079819D01*
X133998809Y-75079819D02*
X133998809Y-74079819D01*
X133998809Y-74079819D02*
X133903571Y-74222676D01*
X133903571Y-74222676D02*
X133808333Y-74317914D01*
X133808333Y-74317914D02*
X133713095Y-74365533D01*
X135141666Y-74413152D02*
X135141666Y-75079819D01*
X134903571Y-74032200D02*
X134665476Y-74746485D01*
X134665476Y-74746485D02*
X135284523Y-74746485D01*
X154308080Y-86024166D02*
X154355700Y-86071785D01*
X154355700Y-86071785D02*
X154403319Y-86214642D01*
X154403319Y-86214642D02*
X154403319Y-86309880D01*
X154403319Y-86309880D02*
X154355700Y-86452737D01*
X154355700Y-86452737D02*
X154260461Y-86547975D01*
X154260461Y-86547975D02*
X154165223Y-86595594D01*
X154165223Y-86595594D02*
X153974747Y-86643213D01*
X153974747Y-86643213D02*
X153831890Y-86643213D01*
X153831890Y-86643213D02*
X153641414Y-86595594D01*
X153641414Y-86595594D02*
X153546176Y-86547975D01*
X153546176Y-86547975D02*
X153450938Y-86452737D01*
X153450938Y-86452737D02*
X153403319Y-86309880D01*
X153403319Y-86309880D02*
X153403319Y-86214642D01*
X153403319Y-86214642D02*
X153450938Y-86071785D01*
X153450938Y-86071785D02*
X153498557Y-86024166D01*
X153403319Y-85119404D02*
X153403319Y-85595594D01*
X153403319Y-85595594D02*
X153879509Y-85643213D01*
X153879509Y-85643213D02*
X153831890Y-85595594D01*
X153831890Y-85595594D02*
X153784271Y-85500356D01*
X153784271Y-85500356D02*
X153784271Y-85262261D01*
X153784271Y-85262261D02*
X153831890Y-85167023D01*
X153831890Y-85167023D02*
X153879509Y-85119404D01*
X153879509Y-85119404D02*
X153974747Y-85071785D01*
X153974747Y-85071785D02*
X154212842Y-85071785D01*
X154212842Y-85071785D02*
X154308080Y-85119404D01*
X154308080Y-85119404D02*
X154355700Y-85167023D01*
X154355700Y-85167023D02*
X154403319Y-85262261D01*
X154403319Y-85262261D02*
X154403319Y-85500356D01*
X154403319Y-85500356D02*
X154355700Y-85595594D01*
X154355700Y-85595594D02*
X154308080Y-85643213D01*
X110766666Y-81781009D02*
X110433333Y-81781009D01*
X110433333Y-82304819D02*
X110433333Y-81304819D01*
X110433333Y-81304819D02*
X110909523Y-81304819D01*
X111242857Y-81400057D02*
X111290476Y-81352438D01*
X111290476Y-81352438D02*
X111385714Y-81304819D01*
X111385714Y-81304819D02*
X111623809Y-81304819D01*
X111623809Y-81304819D02*
X111719047Y-81352438D01*
X111719047Y-81352438D02*
X111766666Y-81400057D01*
X111766666Y-81400057D02*
X111814285Y-81495295D01*
X111814285Y-81495295D02*
X111814285Y-81590533D01*
X111814285Y-81590533D02*
X111766666Y-81733390D01*
X111766666Y-81733390D02*
X111195238Y-82304819D01*
X111195238Y-82304819D02*
X111814285Y-82304819D01*
X136232142Y-84404819D02*
X135898809Y-83928628D01*
X135660714Y-84404819D02*
X135660714Y-83404819D01*
X135660714Y-83404819D02*
X136041666Y-83404819D01*
X136041666Y-83404819D02*
X136136904Y-83452438D01*
X136136904Y-83452438D02*
X136184523Y-83500057D01*
X136184523Y-83500057D02*
X136232142Y-83595295D01*
X136232142Y-83595295D02*
X136232142Y-83738152D01*
X136232142Y-83738152D02*
X136184523Y-83833390D01*
X136184523Y-83833390D02*
X136136904Y-83881009D01*
X136136904Y-83881009D02*
X136041666Y-83928628D01*
X136041666Y-83928628D02*
X135660714Y-83928628D01*
X136565476Y-83404819D02*
X137184523Y-83404819D01*
X137184523Y-83404819D02*
X136851190Y-83785771D01*
X136851190Y-83785771D02*
X136994047Y-83785771D01*
X136994047Y-83785771D02*
X137089285Y-83833390D01*
X137089285Y-83833390D02*
X137136904Y-83881009D01*
X137136904Y-83881009D02*
X137184523Y-83976247D01*
X137184523Y-83976247D02*
X137184523Y-84214342D01*
X137184523Y-84214342D02*
X137136904Y-84309580D01*
X137136904Y-84309580D02*
X137089285Y-84357200D01*
X137089285Y-84357200D02*
X136994047Y-84404819D01*
X136994047Y-84404819D02*
X136708333Y-84404819D01*
X136708333Y-84404819D02*
X136613095Y-84357200D01*
X136613095Y-84357200D02*
X136565476Y-84309580D01*
X137565476Y-83500057D02*
X137613095Y-83452438D01*
X137613095Y-83452438D02*
X137708333Y-83404819D01*
X137708333Y-83404819D02*
X137946428Y-83404819D01*
X137946428Y-83404819D02*
X138041666Y-83452438D01*
X138041666Y-83452438D02*
X138089285Y-83500057D01*
X138089285Y-83500057D02*
X138136904Y-83595295D01*
X138136904Y-83595295D02*
X138136904Y-83690533D01*
X138136904Y-83690533D02*
X138089285Y-83833390D01*
X138089285Y-83833390D02*
X137517857Y-84404819D01*
X137517857Y-84404819D02*
X138136904Y-84404819D01*
X159453333Y-52504819D02*
X159120000Y-52028628D01*
X158881905Y-52504819D02*
X158881905Y-51504819D01*
X158881905Y-51504819D02*
X159262857Y-51504819D01*
X159262857Y-51504819D02*
X159358095Y-51552438D01*
X159358095Y-51552438D02*
X159405714Y-51600057D01*
X159405714Y-51600057D02*
X159453333Y-51695295D01*
X159453333Y-51695295D02*
X159453333Y-51838152D01*
X159453333Y-51838152D02*
X159405714Y-51933390D01*
X159405714Y-51933390D02*
X159358095Y-51981009D01*
X159358095Y-51981009D02*
X159262857Y-52028628D01*
X159262857Y-52028628D02*
X158881905Y-52028628D01*
X160310476Y-51504819D02*
X160120000Y-51504819D01*
X160120000Y-51504819D02*
X160024762Y-51552438D01*
X160024762Y-51552438D02*
X159977143Y-51600057D01*
X159977143Y-51600057D02*
X159881905Y-51742914D01*
X159881905Y-51742914D02*
X159834286Y-51933390D01*
X159834286Y-51933390D02*
X159834286Y-52314342D01*
X159834286Y-52314342D02*
X159881905Y-52409580D01*
X159881905Y-52409580D02*
X159929524Y-52457200D01*
X159929524Y-52457200D02*
X160024762Y-52504819D01*
X160024762Y-52504819D02*
X160215238Y-52504819D01*
X160215238Y-52504819D02*
X160310476Y-52457200D01*
X160310476Y-52457200D02*
X160358095Y-52409580D01*
X160358095Y-52409580D02*
X160405714Y-52314342D01*
X160405714Y-52314342D02*
X160405714Y-52076247D01*
X160405714Y-52076247D02*
X160358095Y-51981009D01*
X160358095Y-51981009D02*
X160310476Y-51933390D01*
X160310476Y-51933390D02*
X160215238Y-51885771D01*
X160215238Y-51885771D02*
X160024762Y-51885771D01*
X160024762Y-51885771D02*
X159929524Y-51933390D01*
X159929524Y-51933390D02*
X159881905Y-51981009D01*
X159881905Y-51981009D02*
X159834286Y-52076247D01*
X126909819Y-85590357D02*
X126433628Y-85923690D01*
X126909819Y-86161785D02*
X125909819Y-86161785D01*
X125909819Y-86161785D02*
X125909819Y-85780833D01*
X125909819Y-85780833D02*
X125957438Y-85685595D01*
X125957438Y-85685595D02*
X126005057Y-85637976D01*
X126005057Y-85637976D02*
X126100295Y-85590357D01*
X126100295Y-85590357D02*
X126243152Y-85590357D01*
X126243152Y-85590357D02*
X126338390Y-85637976D01*
X126338390Y-85637976D02*
X126386009Y-85685595D01*
X126386009Y-85685595D02*
X126433628Y-85780833D01*
X126433628Y-85780833D02*
X126433628Y-86161785D01*
X125909819Y-85257023D02*
X125909819Y-84637976D01*
X125909819Y-84637976D02*
X126290771Y-84971309D01*
X126290771Y-84971309D02*
X126290771Y-84828452D01*
X126290771Y-84828452D02*
X126338390Y-84733214D01*
X126338390Y-84733214D02*
X126386009Y-84685595D01*
X126386009Y-84685595D02*
X126481247Y-84637976D01*
X126481247Y-84637976D02*
X126719342Y-84637976D01*
X126719342Y-84637976D02*
X126814580Y-84685595D01*
X126814580Y-84685595D02*
X126862200Y-84733214D01*
X126862200Y-84733214D02*
X126909819Y-84828452D01*
X126909819Y-84828452D02*
X126909819Y-85114166D01*
X126909819Y-85114166D02*
X126862200Y-85209404D01*
X126862200Y-85209404D02*
X126814580Y-85257023D01*
X125909819Y-84304642D02*
X125909819Y-83685595D01*
X125909819Y-83685595D02*
X126290771Y-84018928D01*
X126290771Y-84018928D02*
X126290771Y-83876071D01*
X126290771Y-83876071D02*
X126338390Y-83780833D01*
X126338390Y-83780833D02*
X126386009Y-83733214D01*
X126386009Y-83733214D02*
X126481247Y-83685595D01*
X126481247Y-83685595D02*
X126719342Y-83685595D01*
X126719342Y-83685595D02*
X126814580Y-83733214D01*
X126814580Y-83733214D02*
X126862200Y-83780833D01*
X126862200Y-83780833D02*
X126909819Y-83876071D01*
X126909819Y-83876071D02*
X126909819Y-84161785D01*
X126909819Y-84161785D02*
X126862200Y-84257023D01*
X126862200Y-84257023D02*
X126814580Y-84304642D01*
X156029819Y-59011904D02*
X156839342Y-59011904D01*
X156839342Y-59011904D02*
X156934580Y-58964285D01*
X156934580Y-58964285D02*
X156982200Y-58916666D01*
X156982200Y-58916666D02*
X157029819Y-58821428D01*
X157029819Y-58821428D02*
X157029819Y-58630952D01*
X157029819Y-58630952D02*
X156982200Y-58535714D01*
X156982200Y-58535714D02*
X156934580Y-58488095D01*
X156934580Y-58488095D02*
X156839342Y-58440476D01*
X156839342Y-58440476D02*
X156029819Y-58440476D01*
X157029819Y-57440476D02*
X157029819Y-58011904D01*
X157029819Y-57726190D02*
X156029819Y-57726190D01*
X156029819Y-57726190D02*
X156172676Y-57821428D01*
X156172676Y-57821428D02*
X156267914Y-57916666D01*
X156267914Y-57916666D02*
X156315533Y-58011904D01*
X117129642Y-64004819D02*
X116796309Y-63528628D01*
X116558214Y-64004819D02*
X116558214Y-63004819D01*
X116558214Y-63004819D02*
X116939166Y-63004819D01*
X116939166Y-63004819D02*
X117034404Y-63052438D01*
X117034404Y-63052438D02*
X117082023Y-63100057D01*
X117082023Y-63100057D02*
X117129642Y-63195295D01*
X117129642Y-63195295D02*
X117129642Y-63338152D01*
X117129642Y-63338152D02*
X117082023Y-63433390D01*
X117082023Y-63433390D02*
X117034404Y-63481009D01*
X117034404Y-63481009D02*
X116939166Y-63528628D01*
X116939166Y-63528628D02*
X116558214Y-63528628D01*
X118082023Y-64004819D02*
X117510595Y-64004819D01*
X117796309Y-64004819D02*
X117796309Y-63004819D01*
X117796309Y-63004819D02*
X117701071Y-63147676D01*
X117701071Y-63147676D02*
X117605833Y-63242914D01*
X117605833Y-63242914D02*
X117510595Y-63290533D01*
X118415357Y-63004819D02*
X119034404Y-63004819D01*
X119034404Y-63004819D02*
X118701071Y-63385771D01*
X118701071Y-63385771D02*
X118843928Y-63385771D01*
X118843928Y-63385771D02*
X118939166Y-63433390D01*
X118939166Y-63433390D02*
X118986785Y-63481009D01*
X118986785Y-63481009D02*
X119034404Y-63576247D01*
X119034404Y-63576247D02*
X119034404Y-63814342D01*
X119034404Y-63814342D02*
X118986785Y-63909580D01*
X118986785Y-63909580D02*
X118939166Y-63957200D01*
X118939166Y-63957200D02*
X118843928Y-64004819D01*
X118843928Y-64004819D02*
X118558214Y-64004819D01*
X118558214Y-64004819D02*
X118462976Y-63957200D01*
X118462976Y-63957200D02*
X118415357Y-63909580D01*
X156116666Y-92179819D02*
X156116666Y-92894104D01*
X156116666Y-92894104D02*
X156069047Y-93036961D01*
X156069047Y-93036961D02*
X155973809Y-93132200D01*
X155973809Y-93132200D02*
X155830952Y-93179819D01*
X155830952Y-93179819D02*
X155735714Y-93179819D01*
X157116666Y-93179819D02*
X156545238Y-93179819D01*
X156830952Y-93179819D02*
X156830952Y-92179819D01*
X156830952Y-92179819D02*
X156735714Y-92322676D01*
X156735714Y-92322676D02*
X156640476Y-92417914D01*
X156640476Y-92417914D02*
X156545238Y-92465533D01*
X132057142Y-71434819D02*
X131723809Y-70958628D01*
X131485714Y-71434819D02*
X131485714Y-70434819D01*
X131485714Y-70434819D02*
X131866666Y-70434819D01*
X131866666Y-70434819D02*
X131961904Y-70482438D01*
X131961904Y-70482438D02*
X132009523Y-70530057D01*
X132009523Y-70530057D02*
X132057142Y-70625295D01*
X132057142Y-70625295D02*
X132057142Y-70768152D01*
X132057142Y-70768152D02*
X132009523Y-70863390D01*
X132009523Y-70863390D02*
X131961904Y-70911009D01*
X131961904Y-70911009D02*
X131866666Y-70958628D01*
X131866666Y-70958628D02*
X131485714Y-70958628D01*
X133009523Y-71434819D02*
X132438095Y-71434819D01*
X132723809Y-71434819D02*
X132723809Y-70434819D01*
X132723809Y-70434819D02*
X132628571Y-70577676D01*
X132628571Y-70577676D02*
X132533333Y-70672914D01*
X132533333Y-70672914D02*
X132438095Y-70720533D01*
X133580952Y-70863390D02*
X133485714Y-70815771D01*
X133485714Y-70815771D02*
X133438095Y-70768152D01*
X133438095Y-70768152D02*
X133390476Y-70672914D01*
X133390476Y-70672914D02*
X133390476Y-70625295D01*
X133390476Y-70625295D02*
X133438095Y-70530057D01*
X133438095Y-70530057D02*
X133485714Y-70482438D01*
X133485714Y-70482438D02*
X133580952Y-70434819D01*
X133580952Y-70434819D02*
X133771428Y-70434819D01*
X133771428Y-70434819D02*
X133866666Y-70482438D01*
X133866666Y-70482438D02*
X133914285Y-70530057D01*
X133914285Y-70530057D02*
X133961904Y-70625295D01*
X133961904Y-70625295D02*
X133961904Y-70672914D01*
X133961904Y-70672914D02*
X133914285Y-70768152D01*
X133914285Y-70768152D02*
X133866666Y-70815771D01*
X133866666Y-70815771D02*
X133771428Y-70863390D01*
X133771428Y-70863390D02*
X133580952Y-70863390D01*
X133580952Y-70863390D02*
X133485714Y-70911009D01*
X133485714Y-70911009D02*
X133438095Y-70958628D01*
X133438095Y-70958628D02*
X133390476Y-71053866D01*
X133390476Y-71053866D02*
X133390476Y-71244342D01*
X133390476Y-71244342D02*
X133438095Y-71339580D01*
X133438095Y-71339580D02*
X133485714Y-71387200D01*
X133485714Y-71387200D02*
X133580952Y-71434819D01*
X133580952Y-71434819D02*
X133771428Y-71434819D01*
X133771428Y-71434819D02*
X133866666Y-71387200D01*
X133866666Y-71387200D02*
X133914285Y-71339580D01*
X133914285Y-71339580D02*
X133961904Y-71244342D01*
X133961904Y-71244342D02*
X133961904Y-71053866D01*
X133961904Y-71053866D02*
X133914285Y-70958628D01*
X133914285Y-70958628D02*
X133866666Y-70911009D01*
X133866666Y-70911009D02*
X133771428Y-70863390D01*
X135488095Y-62029819D02*
X135488095Y-62839342D01*
X135488095Y-62839342D02*
X135535714Y-62934580D01*
X135535714Y-62934580D02*
X135583333Y-62982200D01*
X135583333Y-62982200D02*
X135678571Y-63029819D01*
X135678571Y-63029819D02*
X135869047Y-63029819D01*
X135869047Y-63029819D02*
X135964285Y-62982200D01*
X135964285Y-62982200D02*
X136011904Y-62934580D01*
X136011904Y-62934580D02*
X136059523Y-62839342D01*
X136059523Y-62839342D02*
X136059523Y-62029819D01*
X136583333Y-63029819D02*
X136773809Y-63029819D01*
X136773809Y-63029819D02*
X136869047Y-62982200D01*
X136869047Y-62982200D02*
X136916666Y-62934580D01*
X136916666Y-62934580D02*
X137011904Y-62791723D01*
X137011904Y-62791723D02*
X137059523Y-62601247D01*
X137059523Y-62601247D02*
X137059523Y-62220295D01*
X137059523Y-62220295D02*
X137011904Y-62125057D01*
X137011904Y-62125057D02*
X136964285Y-62077438D01*
X136964285Y-62077438D02*
X136869047Y-62029819D01*
X136869047Y-62029819D02*
X136678571Y-62029819D01*
X136678571Y-62029819D02*
X136583333Y-62077438D01*
X136583333Y-62077438D02*
X136535714Y-62125057D01*
X136535714Y-62125057D02*
X136488095Y-62220295D01*
X136488095Y-62220295D02*
X136488095Y-62458390D01*
X136488095Y-62458390D02*
X136535714Y-62553628D01*
X136535714Y-62553628D02*
X136583333Y-62601247D01*
X136583333Y-62601247D02*
X136678571Y-62648866D01*
X136678571Y-62648866D02*
X136869047Y-62648866D01*
X136869047Y-62648866D02*
X136964285Y-62601247D01*
X136964285Y-62601247D02*
X137011904Y-62553628D01*
X137011904Y-62553628D02*
X137059523Y-62458390D01*
X146657142Y-69279819D02*
X146323809Y-68803628D01*
X146085714Y-69279819D02*
X146085714Y-68279819D01*
X146085714Y-68279819D02*
X146466666Y-68279819D01*
X146466666Y-68279819D02*
X146561904Y-68327438D01*
X146561904Y-68327438D02*
X146609523Y-68375057D01*
X146609523Y-68375057D02*
X146657142Y-68470295D01*
X146657142Y-68470295D02*
X146657142Y-68613152D01*
X146657142Y-68613152D02*
X146609523Y-68708390D01*
X146609523Y-68708390D02*
X146561904Y-68756009D01*
X146561904Y-68756009D02*
X146466666Y-68803628D01*
X146466666Y-68803628D02*
X146085714Y-68803628D01*
X147038095Y-68375057D02*
X147085714Y-68327438D01*
X147085714Y-68327438D02*
X147180952Y-68279819D01*
X147180952Y-68279819D02*
X147419047Y-68279819D01*
X147419047Y-68279819D02*
X147514285Y-68327438D01*
X147514285Y-68327438D02*
X147561904Y-68375057D01*
X147561904Y-68375057D02*
X147609523Y-68470295D01*
X147609523Y-68470295D02*
X147609523Y-68565533D01*
X147609523Y-68565533D02*
X147561904Y-68708390D01*
X147561904Y-68708390D02*
X146990476Y-69279819D01*
X146990476Y-69279819D02*
X147609523Y-69279819D01*
X148514285Y-68279819D02*
X148038095Y-68279819D01*
X148038095Y-68279819D02*
X147990476Y-68756009D01*
X147990476Y-68756009D02*
X148038095Y-68708390D01*
X148038095Y-68708390D02*
X148133333Y-68660771D01*
X148133333Y-68660771D02*
X148371428Y-68660771D01*
X148371428Y-68660771D02*
X148466666Y-68708390D01*
X148466666Y-68708390D02*
X148514285Y-68756009D01*
X148514285Y-68756009D02*
X148561904Y-68851247D01*
X148561904Y-68851247D02*
X148561904Y-69089342D01*
X148561904Y-69089342D02*
X148514285Y-69184580D01*
X148514285Y-69184580D02*
X148466666Y-69232200D01*
X148466666Y-69232200D02*
X148371428Y-69279819D01*
X148371428Y-69279819D02*
X148133333Y-69279819D01*
X148133333Y-69279819D02*
X148038095Y-69232200D01*
X148038095Y-69232200D02*
X147990476Y-69184580D01*
X148479819Y-66567857D02*
X148003628Y-66901190D01*
X148479819Y-67139285D02*
X147479819Y-67139285D01*
X147479819Y-67139285D02*
X147479819Y-66758333D01*
X147479819Y-66758333D02*
X147527438Y-66663095D01*
X147527438Y-66663095D02*
X147575057Y-66615476D01*
X147575057Y-66615476D02*
X147670295Y-66567857D01*
X147670295Y-66567857D02*
X147813152Y-66567857D01*
X147813152Y-66567857D02*
X147908390Y-66615476D01*
X147908390Y-66615476D02*
X147956009Y-66663095D01*
X147956009Y-66663095D02*
X148003628Y-66758333D01*
X148003628Y-66758333D02*
X148003628Y-67139285D01*
X147575057Y-66186904D02*
X147527438Y-66139285D01*
X147527438Y-66139285D02*
X147479819Y-66044047D01*
X147479819Y-66044047D02*
X147479819Y-65805952D01*
X147479819Y-65805952D02*
X147527438Y-65710714D01*
X147527438Y-65710714D02*
X147575057Y-65663095D01*
X147575057Y-65663095D02*
X147670295Y-65615476D01*
X147670295Y-65615476D02*
X147765533Y-65615476D01*
X147765533Y-65615476D02*
X147908390Y-65663095D01*
X147908390Y-65663095D02*
X148479819Y-66234523D01*
X148479819Y-66234523D02*
X148479819Y-65615476D01*
X147479819Y-64758333D02*
X147479819Y-64948809D01*
X147479819Y-64948809D02*
X147527438Y-65044047D01*
X147527438Y-65044047D02*
X147575057Y-65091666D01*
X147575057Y-65091666D02*
X147717914Y-65186904D01*
X147717914Y-65186904D02*
X147908390Y-65234523D01*
X147908390Y-65234523D02*
X148289342Y-65234523D01*
X148289342Y-65234523D02*
X148384580Y-65186904D01*
X148384580Y-65186904D02*
X148432200Y-65139285D01*
X148432200Y-65139285D02*
X148479819Y-65044047D01*
X148479819Y-65044047D02*
X148479819Y-64853571D01*
X148479819Y-64853571D02*
X148432200Y-64758333D01*
X148432200Y-64758333D02*
X148384580Y-64710714D01*
X148384580Y-64710714D02*
X148289342Y-64663095D01*
X148289342Y-64663095D02*
X148051247Y-64663095D01*
X148051247Y-64663095D02*
X147956009Y-64710714D01*
X147956009Y-64710714D02*
X147908390Y-64758333D01*
X147908390Y-64758333D02*
X147860771Y-64853571D01*
X147860771Y-64853571D02*
X147860771Y-65044047D01*
X147860771Y-65044047D02*
X147908390Y-65139285D01*
X147908390Y-65139285D02*
X147956009Y-65186904D01*
X147956009Y-65186904D02*
X148051247Y-65234523D01*
X128359642Y-71339819D02*
X128026309Y-70863628D01*
X127788214Y-71339819D02*
X127788214Y-70339819D01*
X127788214Y-70339819D02*
X128169166Y-70339819D01*
X128169166Y-70339819D02*
X128264404Y-70387438D01*
X128264404Y-70387438D02*
X128312023Y-70435057D01*
X128312023Y-70435057D02*
X128359642Y-70530295D01*
X128359642Y-70530295D02*
X128359642Y-70673152D01*
X128359642Y-70673152D02*
X128312023Y-70768390D01*
X128312023Y-70768390D02*
X128264404Y-70816009D01*
X128264404Y-70816009D02*
X128169166Y-70863628D01*
X128169166Y-70863628D02*
X127788214Y-70863628D01*
X128740595Y-70435057D02*
X128788214Y-70387438D01*
X128788214Y-70387438D02*
X128883452Y-70339819D01*
X128883452Y-70339819D02*
X129121547Y-70339819D01*
X129121547Y-70339819D02*
X129216785Y-70387438D01*
X129216785Y-70387438D02*
X129264404Y-70435057D01*
X129264404Y-70435057D02*
X129312023Y-70530295D01*
X129312023Y-70530295D02*
X129312023Y-70625533D01*
X129312023Y-70625533D02*
X129264404Y-70768390D01*
X129264404Y-70768390D02*
X128692976Y-71339819D01*
X128692976Y-71339819D02*
X129312023Y-71339819D01*
X129645357Y-70339819D02*
X130264404Y-70339819D01*
X130264404Y-70339819D02*
X129931071Y-70720771D01*
X129931071Y-70720771D02*
X130073928Y-70720771D01*
X130073928Y-70720771D02*
X130169166Y-70768390D01*
X130169166Y-70768390D02*
X130216785Y-70816009D01*
X130216785Y-70816009D02*
X130264404Y-70911247D01*
X130264404Y-70911247D02*
X130264404Y-71149342D01*
X130264404Y-71149342D02*
X130216785Y-71244580D01*
X130216785Y-71244580D02*
X130169166Y-71292200D01*
X130169166Y-71292200D02*
X130073928Y-71339819D01*
X130073928Y-71339819D02*
X129788214Y-71339819D01*
X129788214Y-71339819D02*
X129692976Y-71292200D01*
X129692976Y-71292200D02*
X129645357Y-71244580D01*
X161082142Y-75129819D02*
X160748809Y-74653628D01*
X160510714Y-75129819D02*
X160510714Y-74129819D01*
X160510714Y-74129819D02*
X160891666Y-74129819D01*
X160891666Y-74129819D02*
X160986904Y-74177438D01*
X160986904Y-74177438D02*
X161034523Y-74225057D01*
X161034523Y-74225057D02*
X161082142Y-74320295D01*
X161082142Y-74320295D02*
X161082142Y-74463152D01*
X161082142Y-74463152D02*
X161034523Y-74558390D01*
X161034523Y-74558390D02*
X160986904Y-74606009D01*
X160986904Y-74606009D02*
X160891666Y-74653628D01*
X160891666Y-74653628D02*
X160510714Y-74653628D01*
X162034523Y-75129819D02*
X161463095Y-75129819D01*
X161748809Y-75129819D02*
X161748809Y-74129819D01*
X161748809Y-74129819D02*
X161653571Y-74272676D01*
X161653571Y-74272676D02*
X161558333Y-74367914D01*
X161558333Y-74367914D02*
X161463095Y-74415533D01*
X162891666Y-74463152D02*
X162891666Y-75129819D01*
X162653571Y-74082200D02*
X162415476Y-74796485D01*
X162415476Y-74796485D02*
X163034523Y-74796485D01*
X131354819Y-69642857D02*
X130878628Y-69976190D01*
X131354819Y-70214285D02*
X130354819Y-70214285D01*
X130354819Y-70214285D02*
X130354819Y-69833333D01*
X130354819Y-69833333D02*
X130402438Y-69738095D01*
X130402438Y-69738095D02*
X130450057Y-69690476D01*
X130450057Y-69690476D02*
X130545295Y-69642857D01*
X130545295Y-69642857D02*
X130688152Y-69642857D01*
X130688152Y-69642857D02*
X130783390Y-69690476D01*
X130783390Y-69690476D02*
X130831009Y-69738095D01*
X130831009Y-69738095D02*
X130878628Y-69833333D01*
X130878628Y-69833333D02*
X130878628Y-70214285D01*
X131354819Y-68690476D02*
X131354819Y-69261904D01*
X131354819Y-68976190D02*
X130354819Y-68976190D01*
X130354819Y-68976190D02*
X130497676Y-69071428D01*
X130497676Y-69071428D02*
X130592914Y-69166666D01*
X130592914Y-69166666D02*
X130640533Y-69261904D01*
X130354819Y-68357142D02*
X130354819Y-67690476D01*
X130354819Y-67690476D02*
X131354819Y-68119047D01*
X111859580Y-87542857D02*
X111907200Y-87590476D01*
X111907200Y-87590476D02*
X111954819Y-87733333D01*
X111954819Y-87733333D02*
X111954819Y-87828571D01*
X111954819Y-87828571D02*
X111907200Y-87971428D01*
X111907200Y-87971428D02*
X111811961Y-88066666D01*
X111811961Y-88066666D02*
X111716723Y-88114285D01*
X111716723Y-88114285D02*
X111526247Y-88161904D01*
X111526247Y-88161904D02*
X111383390Y-88161904D01*
X111383390Y-88161904D02*
X111192914Y-88114285D01*
X111192914Y-88114285D02*
X111097676Y-88066666D01*
X111097676Y-88066666D02*
X111002438Y-87971428D01*
X111002438Y-87971428D02*
X110954819Y-87828571D01*
X110954819Y-87828571D02*
X110954819Y-87733333D01*
X110954819Y-87733333D02*
X111002438Y-87590476D01*
X111002438Y-87590476D02*
X111050057Y-87542857D01*
X111954819Y-86590476D02*
X111954819Y-87161904D01*
X111954819Y-86876190D02*
X110954819Y-86876190D01*
X110954819Y-86876190D02*
X111097676Y-86971428D01*
X111097676Y-86971428D02*
X111192914Y-87066666D01*
X111192914Y-87066666D02*
X111240533Y-87161904D01*
X110954819Y-85971428D02*
X110954819Y-85876190D01*
X110954819Y-85876190D02*
X111002438Y-85780952D01*
X111002438Y-85780952D02*
X111050057Y-85733333D01*
X111050057Y-85733333D02*
X111145295Y-85685714D01*
X111145295Y-85685714D02*
X111335771Y-85638095D01*
X111335771Y-85638095D02*
X111573866Y-85638095D01*
X111573866Y-85638095D02*
X111764342Y-85685714D01*
X111764342Y-85685714D02*
X111859580Y-85733333D01*
X111859580Y-85733333D02*
X111907200Y-85780952D01*
X111907200Y-85780952D02*
X111954819Y-85876190D01*
X111954819Y-85876190D02*
X111954819Y-85971428D01*
X111954819Y-85971428D02*
X111907200Y-86066666D01*
X111907200Y-86066666D02*
X111859580Y-86114285D01*
X111859580Y-86114285D02*
X111764342Y-86161904D01*
X111764342Y-86161904D02*
X111573866Y-86209523D01*
X111573866Y-86209523D02*
X111335771Y-86209523D01*
X111335771Y-86209523D02*
X111145295Y-86161904D01*
X111145295Y-86161904D02*
X111050057Y-86114285D01*
X111050057Y-86114285D02*
X111002438Y-86066666D01*
X111002438Y-86066666D02*
X110954819Y-85971428D01*
X146859642Y-81554819D02*
X146526309Y-81078628D01*
X146288214Y-81554819D02*
X146288214Y-80554819D01*
X146288214Y-80554819D02*
X146669166Y-80554819D01*
X146669166Y-80554819D02*
X146764404Y-80602438D01*
X146764404Y-80602438D02*
X146812023Y-80650057D01*
X146812023Y-80650057D02*
X146859642Y-80745295D01*
X146859642Y-80745295D02*
X146859642Y-80888152D01*
X146859642Y-80888152D02*
X146812023Y-80983390D01*
X146812023Y-80983390D02*
X146764404Y-81031009D01*
X146764404Y-81031009D02*
X146669166Y-81078628D01*
X146669166Y-81078628D02*
X146288214Y-81078628D01*
X147812023Y-81554819D02*
X147240595Y-81554819D01*
X147526309Y-81554819D02*
X147526309Y-80554819D01*
X147526309Y-80554819D02*
X147431071Y-80697676D01*
X147431071Y-80697676D02*
X147335833Y-80792914D01*
X147335833Y-80792914D02*
X147240595Y-80840533D01*
X148669166Y-80554819D02*
X148478690Y-80554819D01*
X148478690Y-80554819D02*
X148383452Y-80602438D01*
X148383452Y-80602438D02*
X148335833Y-80650057D01*
X148335833Y-80650057D02*
X148240595Y-80792914D01*
X148240595Y-80792914D02*
X148192976Y-80983390D01*
X148192976Y-80983390D02*
X148192976Y-81364342D01*
X148192976Y-81364342D02*
X148240595Y-81459580D01*
X148240595Y-81459580D02*
X148288214Y-81507200D01*
X148288214Y-81507200D02*
X148383452Y-81554819D01*
X148383452Y-81554819D02*
X148573928Y-81554819D01*
X148573928Y-81554819D02*
X148669166Y-81507200D01*
X148669166Y-81507200D02*
X148716785Y-81459580D01*
X148716785Y-81459580D02*
X148764404Y-81364342D01*
X148764404Y-81364342D02*
X148764404Y-81126247D01*
X148764404Y-81126247D02*
X148716785Y-81031009D01*
X148716785Y-81031009D02*
X148669166Y-80983390D01*
X148669166Y-80983390D02*
X148573928Y-80935771D01*
X148573928Y-80935771D02*
X148383452Y-80935771D01*
X148383452Y-80935771D02*
X148288214Y-80983390D01*
X148288214Y-80983390D02*
X148240595Y-81031009D01*
X148240595Y-81031009D02*
X148192976Y-81126247D01*
X135157142Y-72859580D02*
X135109523Y-72907200D01*
X135109523Y-72907200D02*
X134966666Y-72954819D01*
X134966666Y-72954819D02*
X134871428Y-72954819D01*
X134871428Y-72954819D02*
X134728571Y-72907200D01*
X134728571Y-72907200D02*
X134633333Y-72811961D01*
X134633333Y-72811961D02*
X134585714Y-72716723D01*
X134585714Y-72716723D02*
X134538095Y-72526247D01*
X134538095Y-72526247D02*
X134538095Y-72383390D01*
X134538095Y-72383390D02*
X134585714Y-72192914D01*
X134585714Y-72192914D02*
X134633333Y-72097676D01*
X134633333Y-72097676D02*
X134728571Y-72002438D01*
X134728571Y-72002438D02*
X134871428Y-71954819D01*
X134871428Y-71954819D02*
X134966666Y-71954819D01*
X134966666Y-71954819D02*
X135109523Y-72002438D01*
X135109523Y-72002438D02*
X135157142Y-72050057D01*
X136109523Y-72954819D02*
X135538095Y-72954819D01*
X135823809Y-72954819D02*
X135823809Y-71954819D01*
X135823809Y-71954819D02*
X135728571Y-72097676D01*
X135728571Y-72097676D02*
X135633333Y-72192914D01*
X135633333Y-72192914D02*
X135538095Y-72240533D01*
X136490476Y-72050057D02*
X136538095Y-72002438D01*
X136538095Y-72002438D02*
X136633333Y-71954819D01*
X136633333Y-71954819D02*
X136871428Y-71954819D01*
X136871428Y-71954819D02*
X136966666Y-72002438D01*
X136966666Y-72002438D02*
X137014285Y-72050057D01*
X137014285Y-72050057D02*
X137061904Y-72145295D01*
X137061904Y-72145295D02*
X137061904Y-72240533D01*
X137061904Y-72240533D02*
X137014285Y-72383390D01*
X137014285Y-72383390D02*
X136442857Y-72954819D01*
X136442857Y-72954819D02*
X137061904Y-72954819D01*
X110007142Y-74329819D02*
X109673809Y-73853628D01*
X109435714Y-74329819D02*
X109435714Y-73329819D01*
X109435714Y-73329819D02*
X109816666Y-73329819D01*
X109816666Y-73329819D02*
X109911904Y-73377438D01*
X109911904Y-73377438D02*
X109959523Y-73425057D01*
X109959523Y-73425057D02*
X110007142Y-73520295D01*
X110007142Y-73520295D02*
X110007142Y-73663152D01*
X110007142Y-73663152D02*
X109959523Y-73758390D01*
X109959523Y-73758390D02*
X109911904Y-73806009D01*
X109911904Y-73806009D02*
X109816666Y-73853628D01*
X109816666Y-73853628D02*
X109435714Y-73853628D01*
X110388095Y-73425057D02*
X110435714Y-73377438D01*
X110435714Y-73377438D02*
X110530952Y-73329819D01*
X110530952Y-73329819D02*
X110769047Y-73329819D01*
X110769047Y-73329819D02*
X110864285Y-73377438D01*
X110864285Y-73377438D02*
X110911904Y-73425057D01*
X110911904Y-73425057D02*
X110959523Y-73520295D01*
X110959523Y-73520295D02*
X110959523Y-73615533D01*
X110959523Y-73615533D02*
X110911904Y-73758390D01*
X110911904Y-73758390D02*
X110340476Y-74329819D01*
X110340476Y-74329819D02*
X110959523Y-74329819D01*
X111530952Y-73758390D02*
X111435714Y-73710771D01*
X111435714Y-73710771D02*
X111388095Y-73663152D01*
X111388095Y-73663152D02*
X111340476Y-73567914D01*
X111340476Y-73567914D02*
X111340476Y-73520295D01*
X111340476Y-73520295D02*
X111388095Y-73425057D01*
X111388095Y-73425057D02*
X111435714Y-73377438D01*
X111435714Y-73377438D02*
X111530952Y-73329819D01*
X111530952Y-73329819D02*
X111721428Y-73329819D01*
X111721428Y-73329819D02*
X111816666Y-73377438D01*
X111816666Y-73377438D02*
X111864285Y-73425057D01*
X111864285Y-73425057D02*
X111911904Y-73520295D01*
X111911904Y-73520295D02*
X111911904Y-73567914D01*
X111911904Y-73567914D02*
X111864285Y-73663152D01*
X111864285Y-73663152D02*
X111816666Y-73710771D01*
X111816666Y-73710771D02*
X111721428Y-73758390D01*
X111721428Y-73758390D02*
X111530952Y-73758390D01*
X111530952Y-73758390D02*
X111435714Y-73806009D01*
X111435714Y-73806009D02*
X111388095Y-73853628D01*
X111388095Y-73853628D02*
X111340476Y-73948866D01*
X111340476Y-73948866D02*
X111340476Y-74139342D01*
X111340476Y-74139342D02*
X111388095Y-74234580D01*
X111388095Y-74234580D02*
X111435714Y-74282200D01*
X111435714Y-74282200D02*
X111530952Y-74329819D01*
X111530952Y-74329819D02*
X111721428Y-74329819D01*
X111721428Y-74329819D02*
X111816666Y-74282200D01*
X111816666Y-74282200D02*
X111864285Y-74234580D01*
X111864285Y-74234580D02*
X111911904Y-74139342D01*
X111911904Y-74139342D02*
X111911904Y-73948866D01*
X111911904Y-73948866D02*
X111864285Y-73853628D01*
X111864285Y-73853628D02*
X111816666Y-73806009D01*
X111816666Y-73806009D02*
X111721428Y-73758390D01*
X113104819Y-98558333D02*
X113819104Y-98558333D01*
X113819104Y-98558333D02*
X113961961Y-98605952D01*
X113961961Y-98605952D02*
X114057200Y-98701190D01*
X114057200Y-98701190D02*
X114104819Y-98844047D01*
X114104819Y-98844047D02*
X114104819Y-98939285D01*
X113438152Y-97653571D02*
X114104819Y-97653571D01*
X113057200Y-97891666D02*
X113771485Y-98129761D01*
X113771485Y-98129761D02*
X113771485Y-97510714D01*
X105236905Y-72929819D02*
X105236905Y-71929819D01*
X105236905Y-71929819D02*
X105475000Y-71929819D01*
X105475000Y-71929819D02*
X105617857Y-71977438D01*
X105617857Y-71977438D02*
X105713095Y-72072676D01*
X105713095Y-72072676D02*
X105760714Y-72167914D01*
X105760714Y-72167914D02*
X105808333Y-72358390D01*
X105808333Y-72358390D02*
X105808333Y-72501247D01*
X105808333Y-72501247D02*
X105760714Y-72691723D01*
X105760714Y-72691723D02*
X105713095Y-72786961D01*
X105713095Y-72786961D02*
X105617857Y-72882200D01*
X105617857Y-72882200D02*
X105475000Y-72929819D01*
X105475000Y-72929819D02*
X105236905Y-72929819D01*
X106189286Y-72025057D02*
X106236905Y-71977438D01*
X106236905Y-71977438D02*
X106332143Y-71929819D01*
X106332143Y-71929819D02*
X106570238Y-71929819D01*
X106570238Y-71929819D02*
X106665476Y-71977438D01*
X106665476Y-71977438D02*
X106713095Y-72025057D01*
X106713095Y-72025057D02*
X106760714Y-72120295D01*
X106760714Y-72120295D02*
X106760714Y-72215533D01*
X106760714Y-72215533D02*
X106713095Y-72358390D01*
X106713095Y-72358390D02*
X106141667Y-72929819D01*
X106141667Y-72929819D02*
X106760714Y-72929819D01*
X156837651Y-85116666D02*
X156361460Y-85449999D01*
X156837651Y-85688094D02*
X155837651Y-85688094D01*
X155837651Y-85688094D02*
X155837651Y-85307142D01*
X155837651Y-85307142D02*
X155885270Y-85211904D01*
X155885270Y-85211904D02*
X155932889Y-85164285D01*
X155932889Y-85164285D02*
X156028127Y-85116666D01*
X156028127Y-85116666D02*
X156170984Y-85116666D01*
X156170984Y-85116666D02*
X156266222Y-85164285D01*
X156266222Y-85164285D02*
X156313841Y-85211904D01*
X156313841Y-85211904D02*
X156361460Y-85307142D01*
X156361460Y-85307142D02*
X156361460Y-85688094D01*
X156170984Y-84259523D02*
X156837651Y-84259523D01*
X155790032Y-84497618D02*
X156504317Y-84735713D01*
X156504317Y-84735713D02*
X156504317Y-84116666D01*
X117109642Y-62292319D02*
X116776309Y-61816128D01*
X116538214Y-62292319D02*
X116538214Y-61292319D01*
X116538214Y-61292319D02*
X116919166Y-61292319D01*
X116919166Y-61292319D02*
X117014404Y-61339938D01*
X117014404Y-61339938D02*
X117062023Y-61387557D01*
X117062023Y-61387557D02*
X117109642Y-61482795D01*
X117109642Y-61482795D02*
X117109642Y-61625652D01*
X117109642Y-61625652D02*
X117062023Y-61720890D01*
X117062023Y-61720890D02*
X117014404Y-61768509D01*
X117014404Y-61768509D02*
X116919166Y-61816128D01*
X116919166Y-61816128D02*
X116538214Y-61816128D01*
X117490595Y-61387557D02*
X117538214Y-61339938D01*
X117538214Y-61339938D02*
X117633452Y-61292319D01*
X117633452Y-61292319D02*
X117871547Y-61292319D01*
X117871547Y-61292319D02*
X117966785Y-61339938D01*
X117966785Y-61339938D02*
X118014404Y-61387557D01*
X118014404Y-61387557D02*
X118062023Y-61482795D01*
X118062023Y-61482795D02*
X118062023Y-61578033D01*
X118062023Y-61578033D02*
X118014404Y-61720890D01*
X118014404Y-61720890D02*
X117442976Y-62292319D01*
X117442976Y-62292319D02*
X118062023Y-62292319D01*
X118681071Y-61292319D02*
X118776309Y-61292319D01*
X118776309Y-61292319D02*
X118871547Y-61339938D01*
X118871547Y-61339938D02*
X118919166Y-61387557D01*
X118919166Y-61387557D02*
X118966785Y-61482795D01*
X118966785Y-61482795D02*
X119014404Y-61673271D01*
X119014404Y-61673271D02*
X119014404Y-61911366D01*
X119014404Y-61911366D02*
X118966785Y-62101842D01*
X118966785Y-62101842D02*
X118919166Y-62197080D01*
X118919166Y-62197080D02*
X118871547Y-62244700D01*
X118871547Y-62244700D02*
X118776309Y-62292319D01*
X118776309Y-62292319D02*
X118681071Y-62292319D01*
X118681071Y-62292319D02*
X118585833Y-62244700D01*
X118585833Y-62244700D02*
X118538214Y-62197080D01*
X118538214Y-62197080D02*
X118490595Y-62101842D01*
X118490595Y-62101842D02*
X118442976Y-61911366D01*
X118442976Y-61911366D02*
X118442976Y-61673271D01*
X118442976Y-61673271D02*
X118490595Y-61482795D01*
X118490595Y-61482795D02*
X118538214Y-61387557D01*
X118538214Y-61387557D02*
X118585833Y-61339938D01*
X118585833Y-61339938D02*
X118681071Y-61292319D01*
X151069642Y-67054819D02*
X150736309Y-66578628D01*
X150498214Y-67054819D02*
X150498214Y-66054819D01*
X150498214Y-66054819D02*
X150879166Y-66054819D01*
X150879166Y-66054819D02*
X150974404Y-66102438D01*
X150974404Y-66102438D02*
X151022023Y-66150057D01*
X151022023Y-66150057D02*
X151069642Y-66245295D01*
X151069642Y-66245295D02*
X151069642Y-66388152D01*
X151069642Y-66388152D02*
X151022023Y-66483390D01*
X151022023Y-66483390D02*
X150974404Y-66531009D01*
X150974404Y-66531009D02*
X150879166Y-66578628D01*
X150879166Y-66578628D02*
X150498214Y-66578628D01*
X151450595Y-66150057D02*
X151498214Y-66102438D01*
X151498214Y-66102438D02*
X151593452Y-66054819D01*
X151593452Y-66054819D02*
X151831547Y-66054819D01*
X151831547Y-66054819D02*
X151926785Y-66102438D01*
X151926785Y-66102438D02*
X151974404Y-66150057D01*
X151974404Y-66150057D02*
X152022023Y-66245295D01*
X152022023Y-66245295D02*
X152022023Y-66340533D01*
X152022023Y-66340533D02*
X151974404Y-66483390D01*
X151974404Y-66483390D02*
X151402976Y-67054819D01*
X151402976Y-67054819D02*
X152022023Y-67054819D01*
X152402976Y-66150057D02*
X152450595Y-66102438D01*
X152450595Y-66102438D02*
X152545833Y-66054819D01*
X152545833Y-66054819D02*
X152783928Y-66054819D01*
X152783928Y-66054819D02*
X152879166Y-66102438D01*
X152879166Y-66102438D02*
X152926785Y-66150057D01*
X152926785Y-66150057D02*
X152974404Y-66245295D01*
X152974404Y-66245295D02*
X152974404Y-66340533D01*
X152974404Y-66340533D02*
X152926785Y-66483390D01*
X152926785Y-66483390D02*
X152355357Y-67054819D01*
X152355357Y-67054819D02*
X152974404Y-67054819D01*
X153533333Y-55084580D02*
X153485714Y-55132200D01*
X153485714Y-55132200D02*
X153342857Y-55179819D01*
X153342857Y-55179819D02*
X153247619Y-55179819D01*
X153247619Y-55179819D02*
X153104762Y-55132200D01*
X153104762Y-55132200D02*
X153009524Y-55036961D01*
X153009524Y-55036961D02*
X152961905Y-54941723D01*
X152961905Y-54941723D02*
X152914286Y-54751247D01*
X152914286Y-54751247D02*
X152914286Y-54608390D01*
X152914286Y-54608390D02*
X152961905Y-54417914D01*
X152961905Y-54417914D02*
X153009524Y-54322676D01*
X153009524Y-54322676D02*
X153104762Y-54227438D01*
X153104762Y-54227438D02*
X153247619Y-54179819D01*
X153247619Y-54179819D02*
X153342857Y-54179819D01*
X153342857Y-54179819D02*
X153485714Y-54227438D01*
X153485714Y-54227438D02*
X153533333Y-54275057D01*
X153866667Y-54179819D02*
X154533333Y-54179819D01*
X154533333Y-54179819D02*
X154104762Y-55179819D01*
X146682142Y-71704819D02*
X146348809Y-71228628D01*
X146110714Y-71704819D02*
X146110714Y-70704819D01*
X146110714Y-70704819D02*
X146491666Y-70704819D01*
X146491666Y-70704819D02*
X146586904Y-70752438D01*
X146586904Y-70752438D02*
X146634523Y-70800057D01*
X146634523Y-70800057D02*
X146682142Y-70895295D01*
X146682142Y-70895295D02*
X146682142Y-71038152D01*
X146682142Y-71038152D02*
X146634523Y-71133390D01*
X146634523Y-71133390D02*
X146586904Y-71181009D01*
X146586904Y-71181009D02*
X146491666Y-71228628D01*
X146491666Y-71228628D02*
X146110714Y-71228628D01*
X147063095Y-70800057D02*
X147110714Y-70752438D01*
X147110714Y-70752438D02*
X147205952Y-70704819D01*
X147205952Y-70704819D02*
X147444047Y-70704819D01*
X147444047Y-70704819D02*
X147539285Y-70752438D01*
X147539285Y-70752438D02*
X147586904Y-70800057D01*
X147586904Y-70800057D02*
X147634523Y-70895295D01*
X147634523Y-70895295D02*
X147634523Y-70990533D01*
X147634523Y-70990533D02*
X147586904Y-71133390D01*
X147586904Y-71133390D02*
X147015476Y-71704819D01*
X147015476Y-71704819D02*
X147634523Y-71704819D01*
X148491666Y-71038152D02*
X148491666Y-71704819D01*
X148253571Y-70657200D02*
X148015476Y-71371485D01*
X148015476Y-71371485D02*
X148634523Y-71371485D01*
X101782142Y-72124819D02*
X101448809Y-71648628D01*
X101210714Y-72124819D02*
X101210714Y-71124819D01*
X101210714Y-71124819D02*
X101591666Y-71124819D01*
X101591666Y-71124819D02*
X101686904Y-71172438D01*
X101686904Y-71172438D02*
X101734523Y-71220057D01*
X101734523Y-71220057D02*
X101782142Y-71315295D01*
X101782142Y-71315295D02*
X101782142Y-71458152D01*
X101782142Y-71458152D02*
X101734523Y-71553390D01*
X101734523Y-71553390D02*
X101686904Y-71601009D01*
X101686904Y-71601009D02*
X101591666Y-71648628D01*
X101591666Y-71648628D02*
X101210714Y-71648628D01*
X102734523Y-72124819D02*
X102163095Y-72124819D01*
X102448809Y-72124819D02*
X102448809Y-71124819D01*
X102448809Y-71124819D02*
X102353571Y-71267676D01*
X102353571Y-71267676D02*
X102258333Y-71362914D01*
X102258333Y-71362914D02*
X102163095Y-71410533D01*
X103353571Y-71124819D02*
X103448809Y-71124819D01*
X103448809Y-71124819D02*
X103544047Y-71172438D01*
X103544047Y-71172438D02*
X103591666Y-71220057D01*
X103591666Y-71220057D02*
X103639285Y-71315295D01*
X103639285Y-71315295D02*
X103686904Y-71505771D01*
X103686904Y-71505771D02*
X103686904Y-71743866D01*
X103686904Y-71743866D02*
X103639285Y-71934342D01*
X103639285Y-71934342D02*
X103591666Y-72029580D01*
X103591666Y-72029580D02*
X103544047Y-72077200D01*
X103544047Y-72077200D02*
X103448809Y-72124819D01*
X103448809Y-72124819D02*
X103353571Y-72124819D01*
X103353571Y-72124819D02*
X103258333Y-72077200D01*
X103258333Y-72077200D02*
X103210714Y-72029580D01*
X103210714Y-72029580D02*
X103163095Y-71934342D01*
X103163095Y-71934342D02*
X103115476Y-71743866D01*
X103115476Y-71743866D02*
X103115476Y-71505771D01*
X103115476Y-71505771D02*
X103163095Y-71315295D01*
X103163095Y-71315295D02*
X103210714Y-71220057D01*
X103210714Y-71220057D02*
X103258333Y-71172438D01*
X103258333Y-71172438D02*
X103353571Y-71124819D01*
X151119642Y-71434819D02*
X150786309Y-70958628D01*
X150548214Y-71434819D02*
X150548214Y-70434819D01*
X150548214Y-70434819D02*
X150929166Y-70434819D01*
X150929166Y-70434819D02*
X151024404Y-70482438D01*
X151024404Y-70482438D02*
X151072023Y-70530057D01*
X151072023Y-70530057D02*
X151119642Y-70625295D01*
X151119642Y-70625295D02*
X151119642Y-70768152D01*
X151119642Y-70768152D02*
X151072023Y-70863390D01*
X151072023Y-70863390D02*
X151024404Y-70911009D01*
X151024404Y-70911009D02*
X150929166Y-70958628D01*
X150929166Y-70958628D02*
X150548214Y-70958628D01*
X151500595Y-70530057D02*
X151548214Y-70482438D01*
X151548214Y-70482438D02*
X151643452Y-70434819D01*
X151643452Y-70434819D02*
X151881547Y-70434819D01*
X151881547Y-70434819D02*
X151976785Y-70482438D01*
X151976785Y-70482438D02*
X152024404Y-70530057D01*
X152024404Y-70530057D02*
X152072023Y-70625295D01*
X152072023Y-70625295D02*
X152072023Y-70720533D01*
X152072023Y-70720533D02*
X152024404Y-70863390D01*
X152024404Y-70863390D02*
X151452976Y-71434819D01*
X151452976Y-71434819D02*
X152072023Y-71434819D01*
X153024404Y-71434819D02*
X152452976Y-71434819D01*
X152738690Y-71434819D02*
X152738690Y-70434819D01*
X152738690Y-70434819D02*
X152643452Y-70577676D01*
X152643452Y-70577676D02*
X152548214Y-70672914D01*
X152548214Y-70672914D02*
X152452976Y-70720533D01*
X152983333Y-76459580D02*
X152935714Y-76507200D01*
X152935714Y-76507200D02*
X152792857Y-76554819D01*
X152792857Y-76554819D02*
X152697619Y-76554819D01*
X152697619Y-76554819D02*
X152554762Y-76507200D01*
X152554762Y-76507200D02*
X152459524Y-76411961D01*
X152459524Y-76411961D02*
X152411905Y-76316723D01*
X152411905Y-76316723D02*
X152364286Y-76126247D01*
X152364286Y-76126247D02*
X152364286Y-75983390D01*
X152364286Y-75983390D02*
X152411905Y-75792914D01*
X152411905Y-75792914D02*
X152459524Y-75697676D01*
X152459524Y-75697676D02*
X152554762Y-75602438D01*
X152554762Y-75602438D02*
X152697619Y-75554819D01*
X152697619Y-75554819D02*
X152792857Y-75554819D01*
X152792857Y-75554819D02*
X152935714Y-75602438D01*
X152935714Y-75602438D02*
X152983333Y-75650057D01*
X153840476Y-75888152D02*
X153840476Y-76554819D01*
X153602381Y-75507200D02*
X153364286Y-76221485D01*
X153364286Y-76221485D02*
X153983333Y-76221485D01*
X151671333Y-87854819D02*
X151338000Y-87378628D01*
X151099905Y-87854819D02*
X151099905Y-86854819D01*
X151099905Y-86854819D02*
X151480857Y-86854819D01*
X151480857Y-86854819D02*
X151576095Y-86902438D01*
X151576095Y-86902438D02*
X151623714Y-86950057D01*
X151623714Y-86950057D02*
X151671333Y-87045295D01*
X151671333Y-87045295D02*
X151671333Y-87188152D01*
X151671333Y-87188152D02*
X151623714Y-87283390D01*
X151623714Y-87283390D02*
X151576095Y-87331009D01*
X151576095Y-87331009D02*
X151480857Y-87378628D01*
X151480857Y-87378628D02*
X151099905Y-87378628D01*
X152623714Y-87854819D02*
X152052286Y-87854819D01*
X152338000Y-87854819D02*
X152338000Y-86854819D01*
X152338000Y-86854819D02*
X152242762Y-86997676D01*
X152242762Y-86997676D02*
X152147524Y-87092914D01*
X152147524Y-87092914D02*
X152052286Y-87140533D01*
X105386905Y-66954819D02*
X105386905Y-65954819D01*
X105386905Y-65954819D02*
X105625000Y-65954819D01*
X105625000Y-65954819D02*
X105767857Y-66002438D01*
X105767857Y-66002438D02*
X105863095Y-66097676D01*
X105863095Y-66097676D02*
X105910714Y-66192914D01*
X105910714Y-66192914D02*
X105958333Y-66383390D01*
X105958333Y-66383390D02*
X105958333Y-66526247D01*
X105958333Y-66526247D02*
X105910714Y-66716723D01*
X105910714Y-66716723D02*
X105863095Y-66811961D01*
X105863095Y-66811961D02*
X105767857Y-66907200D01*
X105767857Y-66907200D02*
X105625000Y-66954819D01*
X105625000Y-66954819D02*
X105386905Y-66954819D01*
X106291667Y-65954819D02*
X106910714Y-65954819D01*
X106910714Y-65954819D02*
X106577381Y-66335771D01*
X106577381Y-66335771D02*
X106720238Y-66335771D01*
X106720238Y-66335771D02*
X106815476Y-66383390D01*
X106815476Y-66383390D02*
X106863095Y-66431009D01*
X106863095Y-66431009D02*
X106910714Y-66526247D01*
X106910714Y-66526247D02*
X106910714Y-66764342D01*
X106910714Y-66764342D02*
X106863095Y-66859580D01*
X106863095Y-66859580D02*
X106815476Y-66907200D01*
X106815476Y-66907200D02*
X106720238Y-66954819D01*
X106720238Y-66954819D02*
X106434524Y-66954819D01*
X106434524Y-66954819D02*
X106339286Y-66907200D01*
X106339286Y-66907200D02*
X106291667Y-66859580D01*
X132632142Y-66559580D02*
X132584523Y-66607200D01*
X132584523Y-66607200D02*
X132441666Y-66654819D01*
X132441666Y-66654819D02*
X132346428Y-66654819D01*
X132346428Y-66654819D02*
X132203571Y-66607200D01*
X132203571Y-66607200D02*
X132108333Y-66511961D01*
X132108333Y-66511961D02*
X132060714Y-66416723D01*
X132060714Y-66416723D02*
X132013095Y-66226247D01*
X132013095Y-66226247D02*
X132013095Y-66083390D01*
X132013095Y-66083390D02*
X132060714Y-65892914D01*
X132060714Y-65892914D02*
X132108333Y-65797676D01*
X132108333Y-65797676D02*
X132203571Y-65702438D01*
X132203571Y-65702438D02*
X132346428Y-65654819D01*
X132346428Y-65654819D02*
X132441666Y-65654819D01*
X132441666Y-65654819D02*
X132584523Y-65702438D01*
X132584523Y-65702438D02*
X132632142Y-65750057D01*
X133584523Y-66654819D02*
X133013095Y-66654819D01*
X133298809Y-66654819D02*
X133298809Y-65654819D01*
X133298809Y-65654819D02*
X133203571Y-65797676D01*
X133203571Y-65797676D02*
X133108333Y-65892914D01*
X133108333Y-65892914D02*
X133013095Y-65940533D01*
X133917857Y-65654819D02*
X134536904Y-65654819D01*
X134536904Y-65654819D02*
X134203571Y-66035771D01*
X134203571Y-66035771D02*
X134346428Y-66035771D01*
X134346428Y-66035771D02*
X134441666Y-66083390D01*
X134441666Y-66083390D02*
X134489285Y-66131009D01*
X134489285Y-66131009D02*
X134536904Y-66226247D01*
X134536904Y-66226247D02*
X134536904Y-66464342D01*
X134536904Y-66464342D02*
X134489285Y-66559580D01*
X134489285Y-66559580D02*
X134441666Y-66607200D01*
X134441666Y-66607200D02*
X134346428Y-66654819D01*
X134346428Y-66654819D02*
X134060714Y-66654819D01*
X134060714Y-66654819D02*
X133965476Y-66607200D01*
X133965476Y-66607200D02*
X133917857Y-66559580D01*
X142638095Y-62129819D02*
X142638095Y-62939342D01*
X142638095Y-62939342D02*
X142685714Y-63034580D01*
X142685714Y-63034580D02*
X142733333Y-63082200D01*
X142733333Y-63082200D02*
X142828571Y-63129819D01*
X142828571Y-63129819D02*
X143019047Y-63129819D01*
X143019047Y-63129819D02*
X143114285Y-63082200D01*
X143114285Y-63082200D02*
X143161904Y-63034580D01*
X143161904Y-63034580D02*
X143209523Y-62939342D01*
X143209523Y-62939342D02*
X143209523Y-62129819D01*
X143828571Y-62558390D02*
X143733333Y-62510771D01*
X143733333Y-62510771D02*
X143685714Y-62463152D01*
X143685714Y-62463152D02*
X143638095Y-62367914D01*
X143638095Y-62367914D02*
X143638095Y-62320295D01*
X143638095Y-62320295D02*
X143685714Y-62225057D01*
X143685714Y-62225057D02*
X143733333Y-62177438D01*
X143733333Y-62177438D02*
X143828571Y-62129819D01*
X143828571Y-62129819D02*
X144019047Y-62129819D01*
X144019047Y-62129819D02*
X144114285Y-62177438D01*
X144114285Y-62177438D02*
X144161904Y-62225057D01*
X144161904Y-62225057D02*
X144209523Y-62320295D01*
X144209523Y-62320295D02*
X144209523Y-62367914D01*
X144209523Y-62367914D02*
X144161904Y-62463152D01*
X144161904Y-62463152D02*
X144114285Y-62510771D01*
X144114285Y-62510771D02*
X144019047Y-62558390D01*
X144019047Y-62558390D02*
X143828571Y-62558390D01*
X143828571Y-62558390D02*
X143733333Y-62606009D01*
X143733333Y-62606009D02*
X143685714Y-62653628D01*
X143685714Y-62653628D02*
X143638095Y-62748866D01*
X143638095Y-62748866D02*
X143638095Y-62939342D01*
X143638095Y-62939342D02*
X143685714Y-63034580D01*
X143685714Y-63034580D02*
X143733333Y-63082200D01*
X143733333Y-63082200D02*
X143828571Y-63129819D01*
X143828571Y-63129819D02*
X144019047Y-63129819D01*
X144019047Y-63129819D02*
X144114285Y-63082200D01*
X144114285Y-63082200D02*
X144161904Y-63034580D01*
X144161904Y-63034580D02*
X144209523Y-62939342D01*
X144209523Y-62939342D02*
X144209523Y-62748866D01*
X144209523Y-62748866D02*
X144161904Y-62653628D01*
X144161904Y-62653628D02*
X144114285Y-62606009D01*
X144114285Y-62606009D02*
X144019047Y-62558390D01*
X134004819Y-85540357D02*
X133528628Y-85873690D01*
X134004819Y-86111785D02*
X133004819Y-86111785D01*
X133004819Y-86111785D02*
X133004819Y-85730833D01*
X133004819Y-85730833D02*
X133052438Y-85635595D01*
X133052438Y-85635595D02*
X133100057Y-85587976D01*
X133100057Y-85587976D02*
X133195295Y-85540357D01*
X133195295Y-85540357D02*
X133338152Y-85540357D01*
X133338152Y-85540357D02*
X133433390Y-85587976D01*
X133433390Y-85587976D02*
X133481009Y-85635595D01*
X133481009Y-85635595D02*
X133528628Y-85730833D01*
X133528628Y-85730833D02*
X133528628Y-86111785D01*
X133004819Y-85207023D02*
X133004819Y-84587976D01*
X133004819Y-84587976D02*
X133385771Y-84921309D01*
X133385771Y-84921309D02*
X133385771Y-84778452D01*
X133385771Y-84778452D02*
X133433390Y-84683214D01*
X133433390Y-84683214D02*
X133481009Y-84635595D01*
X133481009Y-84635595D02*
X133576247Y-84587976D01*
X133576247Y-84587976D02*
X133814342Y-84587976D01*
X133814342Y-84587976D02*
X133909580Y-84635595D01*
X133909580Y-84635595D02*
X133957200Y-84683214D01*
X133957200Y-84683214D02*
X134004819Y-84778452D01*
X134004819Y-84778452D02*
X134004819Y-85064166D01*
X134004819Y-85064166D02*
X133957200Y-85159404D01*
X133957200Y-85159404D02*
X133909580Y-85207023D01*
X133004819Y-83968928D02*
X133004819Y-83873690D01*
X133004819Y-83873690D02*
X133052438Y-83778452D01*
X133052438Y-83778452D02*
X133100057Y-83730833D01*
X133100057Y-83730833D02*
X133195295Y-83683214D01*
X133195295Y-83683214D02*
X133385771Y-83635595D01*
X133385771Y-83635595D02*
X133623866Y-83635595D01*
X133623866Y-83635595D02*
X133814342Y-83683214D01*
X133814342Y-83683214D02*
X133909580Y-83730833D01*
X133909580Y-83730833D02*
X133957200Y-83778452D01*
X133957200Y-83778452D02*
X134004819Y-83873690D01*
X134004819Y-83873690D02*
X134004819Y-83968928D01*
X134004819Y-83968928D02*
X133957200Y-84064166D01*
X133957200Y-84064166D02*
X133909580Y-84111785D01*
X133909580Y-84111785D02*
X133814342Y-84159404D01*
X133814342Y-84159404D02*
X133623866Y-84207023D01*
X133623866Y-84207023D02*
X133385771Y-84207023D01*
X133385771Y-84207023D02*
X133195295Y-84159404D01*
X133195295Y-84159404D02*
X133100057Y-84111785D01*
X133100057Y-84111785D02*
X133052438Y-84064166D01*
X133052438Y-84064166D02*
X133004819Y-83968928D01*
X110007142Y-75704819D02*
X109673809Y-75228628D01*
X109435714Y-75704819D02*
X109435714Y-74704819D01*
X109435714Y-74704819D02*
X109816666Y-74704819D01*
X109816666Y-74704819D02*
X109911904Y-74752438D01*
X109911904Y-74752438D02*
X109959523Y-74800057D01*
X109959523Y-74800057D02*
X110007142Y-74895295D01*
X110007142Y-74895295D02*
X110007142Y-75038152D01*
X110007142Y-75038152D02*
X109959523Y-75133390D01*
X109959523Y-75133390D02*
X109911904Y-75181009D01*
X109911904Y-75181009D02*
X109816666Y-75228628D01*
X109816666Y-75228628D02*
X109435714Y-75228628D01*
X110388095Y-74800057D02*
X110435714Y-74752438D01*
X110435714Y-74752438D02*
X110530952Y-74704819D01*
X110530952Y-74704819D02*
X110769047Y-74704819D01*
X110769047Y-74704819D02*
X110864285Y-74752438D01*
X110864285Y-74752438D02*
X110911904Y-74800057D01*
X110911904Y-74800057D02*
X110959523Y-74895295D01*
X110959523Y-74895295D02*
X110959523Y-74990533D01*
X110959523Y-74990533D02*
X110911904Y-75133390D01*
X110911904Y-75133390D02*
X110340476Y-75704819D01*
X110340476Y-75704819D02*
X110959523Y-75704819D01*
X111292857Y-74704819D02*
X111959523Y-74704819D01*
X111959523Y-74704819D02*
X111530952Y-75704819D01*
X124934580Y-87542857D02*
X124982200Y-87590476D01*
X124982200Y-87590476D02*
X125029819Y-87733333D01*
X125029819Y-87733333D02*
X125029819Y-87828571D01*
X125029819Y-87828571D02*
X124982200Y-87971428D01*
X124982200Y-87971428D02*
X124886961Y-88066666D01*
X124886961Y-88066666D02*
X124791723Y-88114285D01*
X124791723Y-88114285D02*
X124601247Y-88161904D01*
X124601247Y-88161904D02*
X124458390Y-88161904D01*
X124458390Y-88161904D02*
X124267914Y-88114285D01*
X124267914Y-88114285D02*
X124172676Y-88066666D01*
X124172676Y-88066666D02*
X124077438Y-87971428D01*
X124077438Y-87971428D02*
X124029819Y-87828571D01*
X124029819Y-87828571D02*
X124029819Y-87733333D01*
X124029819Y-87733333D02*
X124077438Y-87590476D01*
X124077438Y-87590476D02*
X124125057Y-87542857D01*
X125029819Y-86590476D02*
X125029819Y-87161904D01*
X125029819Y-86876190D02*
X124029819Y-86876190D01*
X124029819Y-86876190D02*
X124172676Y-86971428D01*
X124172676Y-86971428D02*
X124267914Y-87066666D01*
X124267914Y-87066666D02*
X124315533Y-87161904D01*
X124029819Y-86257142D02*
X124029819Y-85590476D01*
X124029819Y-85590476D02*
X125029819Y-86019047D01*
X137038095Y-58604819D02*
X137038095Y-59414342D01*
X137038095Y-59414342D02*
X137085714Y-59509580D01*
X137085714Y-59509580D02*
X137133333Y-59557200D01*
X137133333Y-59557200D02*
X137228571Y-59604819D01*
X137228571Y-59604819D02*
X137419047Y-59604819D01*
X137419047Y-59604819D02*
X137514285Y-59557200D01*
X137514285Y-59557200D02*
X137561904Y-59509580D01*
X137561904Y-59509580D02*
X137609523Y-59414342D01*
X137609523Y-59414342D02*
X137609523Y-58604819D01*
X137990476Y-58604819D02*
X138657142Y-58604819D01*
X138657142Y-58604819D02*
X138228571Y-59604819D01*
X146811905Y-73604819D02*
X146811905Y-72604819D01*
X146811905Y-72604819D02*
X147050000Y-72604819D01*
X147050000Y-72604819D02*
X147192857Y-72652438D01*
X147192857Y-72652438D02*
X147288095Y-72747676D01*
X147288095Y-72747676D02*
X147335714Y-72842914D01*
X147335714Y-72842914D02*
X147383333Y-73033390D01*
X147383333Y-73033390D02*
X147383333Y-73176247D01*
X147383333Y-73176247D02*
X147335714Y-73366723D01*
X147335714Y-73366723D02*
X147288095Y-73461961D01*
X147288095Y-73461961D02*
X147192857Y-73557200D01*
X147192857Y-73557200D02*
X147050000Y-73604819D01*
X147050000Y-73604819D02*
X146811905Y-73604819D01*
X148240476Y-72604819D02*
X148050000Y-72604819D01*
X148050000Y-72604819D02*
X147954762Y-72652438D01*
X147954762Y-72652438D02*
X147907143Y-72700057D01*
X147907143Y-72700057D02*
X147811905Y-72842914D01*
X147811905Y-72842914D02*
X147764286Y-73033390D01*
X147764286Y-73033390D02*
X147764286Y-73414342D01*
X147764286Y-73414342D02*
X147811905Y-73509580D01*
X147811905Y-73509580D02*
X147859524Y-73557200D01*
X147859524Y-73557200D02*
X147954762Y-73604819D01*
X147954762Y-73604819D02*
X148145238Y-73604819D01*
X148145238Y-73604819D02*
X148240476Y-73557200D01*
X148240476Y-73557200D02*
X148288095Y-73509580D01*
X148288095Y-73509580D02*
X148335714Y-73414342D01*
X148335714Y-73414342D02*
X148335714Y-73176247D01*
X148335714Y-73176247D02*
X148288095Y-73081009D01*
X148288095Y-73081009D02*
X148240476Y-73033390D01*
X148240476Y-73033390D02*
X148145238Y-72985771D01*
X148145238Y-72985771D02*
X147954762Y-72985771D01*
X147954762Y-72985771D02*
X147859524Y-73033390D01*
X147859524Y-73033390D02*
X147811905Y-73081009D01*
X147811905Y-73081009D02*
X147764286Y-73176247D01*
X150933333Y-79309580D02*
X150885714Y-79357200D01*
X150885714Y-79357200D02*
X150742857Y-79404819D01*
X150742857Y-79404819D02*
X150647619Y-79404819D01*
X150647619Y-79404819D02*
X150504762Y-79357200D01*
X150504762Y-79357200D02*
X150409524Y-79261961D01*
X150409524Y-79261961D02*
X150361905Y-79166723D01*
X150361905Y-79166723D02*
X150314286Y-78976247D01*
X150314286Y-78976247D02*
X150314286Y-78833390D01*
X150314286Y-78833390D02*
X150361905Y-78642914D01*
X150361905Y-78642914D02*
X150409524Y-78547676D01*
X150409524Y-78547676D02*
X150504762Y-78452438D01*
X150504762Y-78452438D02*
X150647619Y-78404819D01*
X150647619Y-78404819D02*
X150742857Y-78404819D01*
X150742857Y-78404819D02*
X150885714Y-78452438D01*
X150885714Y-78452438D02*
X150933333Y-78500057D01*
X151314286Y-78500057D02*
X151361905Y-78452438D01*
X151361905Y-78452438D02*
X151457143Y-78404819D01*
X151457143Y-78404819D02*
X151695238Y-78404819D01*
X151695238Y-78404819D02*
X151790476Y-78452438D01*
X151790476Y-78452438D02*
X151838095Y-78500057D01*
X151838095Y-78500057D02*
X151885714Y-78595295D01*
X151885714Y-78595295D02*
X151885714Y-78690533D01*
X151885714Y-78690533D02*
X151838095Y-78833390D01*
X151838095Y-78833390D02*
X151266667Y-79404819D01*
X151266667Y-79404819D02*
X151885714Y-79404819D01*
X107282319Y-53463094D02*
X106282319Y-53463094D01*
X106282319Y-53463094D02*
X106282319Y-53224999D01*
X106282319Y-53224999D02*
X106329938Y-53082142D01*
X106329938Y-53082142D02*
X106425176Y-52986904D01*
X106425176Y-52986904D02*
X106520414Y-52939285D01*
X106520414Y-52939285D02*
X106710890Y-52891666D01*
X106710890Y-52891666D02*
X106853747Y-52891666D01*
X106853747Y-52891666D02*
X107044223Y-52939285D01*
X107044223Y-52939285D02*
X107139461Y-52986904D01*
X107139461Y-52986904D02*
X107234700Y-53082142D01*
X107234700Y-53082142D02*
X107282319Y-53224999D01*
X107282319Y-53224999D02*
X107282319Y-53463094D01*
X106615652Y-52034523D02*
X107282319Y-52034523D01*
X106234700Y-52272618D02*
X106948985Y-52510713D01*
X106948985Y-52510713D02*
X106948985Y-51891666D01*
X124935833Y-51334819D02*
X124602500Y-50858628D01*
X124364405Y-51334819D02*
X124364405Y-50334819D01*
X124364405Y-50334819D02*
X124745357Y-50334819D01*
X124745357Y-50334819D02*
X124840595Y-50382438D01*
X124840595Y-50382438D02*
X124888214Y-50430057D01*
X124888214Y-50430057D02*
X124935833Y-50525295D01*
X124935833Y-50525295D02*
X124935833Y-50668152D01*
X124935833Y-50668152D02*
X124888214Y-50763390D01*
X124888214Y-50763390D02*
X124840595Y-50811009D01*
X124840595Y-50811009D02*
X124745357Y-50858628D01*
X124745357Y-50858628D02*
X124364405Y-50858628D01*
X125269167Y-50334819D02*
X125935833Y-50334819D01*
X125935833Y-50334819D02*
X125507262Y-51334819D01*
X161953333Y-52529819D02*
X161620000Y-52053628D01*
X161381905Y-52529819D02*
X161381905Y-51529819D01*
X161381905Y-51529819D02*
X161762857Y-51529819D01*
X161762857Y-51529819D02*
X161858095Y-51577438D01*
X161858095Y-51577438D02*
X161905714Y-51625057D01*
X161905714Y-51625057D02*
X161953333Y-51720295D01*
X161953333Y-51720295D02*
X161953333Y-51863152D01*
X161953333Y-51863152D02*
X161905714Y-51958390D01*
X161905714Y-51958390D02*
X161858095Y-52006009D01*
X161858095Y-52006009D02*
X161762857Y-52053628D01*
X161762857Y-52053628D02*
X161381905Y-52053628D01*
X162858095Y-51529819D02*
X162381905Y-51529819D01*
X162381905Y-51529819D02*
X162334286Y-52006009D01*
X162334286Y-52006009D02*
X162381905Y-51958390D01*
X162381905Y-51958390D02*
X162477143Y-51910771D01*
X162477143Y-51910771D02*
X162715238Y-51910771D01*
X162715238Y-51910771D02*
X162810476Y-51958390D01*
X162810476Y-51958390D02*
X162858095Y-52006009D01*
X162858095Y-52006009D02*
X162905714Y-52101247D01*
X162905714Y-52101247D02*
X162905714Y-52339342D01*
X162905714Y-52339342D02*
X162858095Y-52434580D01*
X162858095Y-52434580D02*
X162810476Y-52482200D01*
X162810476Y-52482200D02*
X162715238Y-52529819D01*
X162715238Y-52529819D02*
X162477143Y-52529819D01*
X162477143Y-52529819D02*
X162381905Y-52482200D01*
X162381905Y-52482200D02*
X162334286Y-52434580D01*
X133964642Y-53324580D02*
X133917023Y-53372200D01*
X133917023Y-53372200D02*
X133774166Y-53419819D01*
X133774166Y-53419819D02*
X133678928Y-53419819D01*
X133678928Y-53419819D02*
X133536071Y-53372200D01*
X133536071Y-53372200D02*
X133440833Y-53276961D01*
X133440833Y-53276961D02*
X133393214Y-53181723D01*
X133393214Y-53181723D02*
X133345595Y-52991247D01*
X133345595Y-52991247D02*
X133345595Y-52848390D01*
X133345595Y-52848390D02*
X133393214Y-52657914D01*
X133393214Y-52657914D02*
X133440833Y-52562676D01*
X133440833Y-52562676D02*
X133536071Y-52467438D01*
X133536071Y-52467438D02*
X133678928Y-52419819D01*
X133678928Y-52419819D02*
X133774166Y-52419819D01*
X133774166Y-52419819D02*
X133917023Y-52467438D01*
X133917023Y-52467438D02*
X133964642Y-52515057D01*
X134917023Y-53419819D02*
X134345595Y-53419819D01*
X134631309Y-53419819D02*
X134631309Y-52419819D01*
X134631309Y-52419819D02*
X134536071Y-52562676D01*
X134536071Y-52562676D02*
X134440833Y-52657914D01*
X134440833Y-52657914D02*
X134345595Y-52705533D01*
X135488452Y-52848390D02*
X135393214Y-52800771D01*
X135393214Y-52800771D02*
X135345595Y-52753152D01*
X135345595Y-52753152D02*
X135297976Y-52657914D01*
X135297976Y-52657914D02*
X135297976Y-52610295D01*
X135297976Y-52610295D02*
X135345595Y-52515057D01*
X135345595Y-52515057D02*
X135393214Y-52467438D01*
X135393214Y-52467438D02*
X135488452Y-52419819D01*
X135488452Y-52419819D02*
X135678928Y-52419819D01*
X135678928Y-52419819D02*
X135774166Y-52467438D01*
X135774166Y-52467438D02*
X135821785Y-52515057D01*
X135821785Y-52515057D02*
X135869404Y-52610295D01*
X135869404Y-52610295D02*
X135869404Y-52657914D01*
X135869404Y-52657914D02*
X135821785Y-52753152D01*
X135821785Y-52753152D02*
X135774166Y-52800771D01*
X135774166Y-52800771D02*
X135678928Y-52848390D01*
X135678928Y-52848390D02*
X135488452Y-52848390D01*
X135488452Y-52848390D02*
X135393214Y-52896009D01*
X135393214Y-52896009D02*
X135345595Y-52943628D01*
X135345595Y-52943628D02*
X135297976Y-53038866D01*
X135297976Y-53038866D02*
X135297976Y-53229342D01*
X135297976Y-53229342D02*
X135345595Y-53324580D01*
X135345595Y-53324580D02*
X135393214Y-53372200D01*
X135393214Y-53372200D02*
X135488452Y-53419819D01*
X135488452Y-53419819D02*
X135678928Y-53419819D01*
X135678928Y-53419819D02*
X135774166Y-53372200D01*
X135774166Y-53372200D02*
X135821785Y-53324580D01*
X135821785Y-53324580D02*
X135869404Y-53229342D01*
X135869404Y-53229342D02*
X135869404Y-53038866D01*
X135869404Y-53038866D02*
X135821785Y-52943628D01*
X135821785Y-52943628D02*
X135774166Y-52896009D01*
X135774166Y-52896009D02*
X135678928Y-52848390D01*
X142266666Y-87029819D02*
X142266666Y-87744104D01*
X142266666Y-87744104D02*
X142219047Y-87886961D01*
X142219047Y-87886961D02*
X142123809Y-87982200D01*
X142123809Y-87982200D02*
X141980952Y-88029819D01*
X141980952Y-88029819D02*
X141885714Y-88029819D01*
X142647619Y-87029819D02*
X143266666Y-87029819D01*
X143266666Y-87029819D02*
X142933333Y-87410771D01*
X142933333Y-87410771D02*
X143076190Y-87410771D01*
X143076190Y-87410771D02*
X143171428Y-87458390D01*
X143171428Y-87458390D02*
X143219047Y-87506009D01*
X143219047Y-87506009D02*
X143266666Y-87601247D01*
X143266666Y-87601247D02*
X143266666Y-87839342D01*
X143266666Y-87839342D02*
X143219047Y-87934580D01*
X143219047Y-87934580D02*
X143171428Y-87982200D01*
X143171428Y-87982200D02*
X143076190Y-88029819D01*
X143076190Y-88029819D02*
X142790476Y-88029819D01*
X142790476Y-88029819D02*
X142695238Y-87982200D01*
X142695238Y-87982200D02*
X142647619Y-87934580D01*
X129853333Y-51329819D02*
X129520000Y-50853628D01*
X129281905Y-51329819D02*
X129281905Y-50329819D01*
X129281905Y-50329819D02*
X129662857Y-50329819D01*
X129662857Y-50329819D02*
X129758095Y-50377438D01*
X129758095Y-50377438D02*
X129805714Y-50425057D01*
X129805714Y-50425057D02*
X129853333Y-50520295D01*
X129853333Y-50520295D02*
X129853333Y-50663152D01*
X129853333Y-50663152D02*
X129805714Y-50758390D01*
X129805714Y-50758390D02*
X129758095Y-50806009D01*
X129758095Y-50806009D02*
X129662857Y-50853628D01*
X129662857Y-50853628D02*
X129281905Y-50853628D01*
X130329524Y-51329819D02*
X130520000Y-51329819D01*
X130520000Y-51329819D02*
X130615238Y-51282200D01*
X130615238Y-51282200D02*
X130662857Y-51234580D01*
X130662857Y-51234580D02*
X130758095Y-51091723D01*
X130758095Y-51091723D02*
X130805714Y-50901247D01*
X130805714Y-50901247D02*
X130805714Y-50520295D01*
X130805714Y-50520295D02*
X130758095Y-50425057D01*
X130758095Y-50425057D02*
X130710476Y-50377438D01*
X130710476Y-50377438D02*
X130615238Y-50329819D01*
X130615238Y-50329819D02*
X130424762Y-50329819D01*
X130424762Y-50329819D02*
X130329524Y-50377438D01*
X130329524Y-50377438D02*
X130281905Y-50425057D01*
X130281905Y-50425057D02*
X130234286Y-50520295D01*
X130234286Y-50520295D02*
X130234286Y-50758390D01*
X130234286Y-50758390D02*
X130281905Y-50853628D01*
X130281905Y-50853628D02*
X130329524Y-50901247D01*
X130329524Y-50901247D02*
X130424762Y-50948866D01*
X130424762Y-50948866D02*
X130615238Y-50948866D01*
X130615238Y-50948866D02*
X130710476Y-50901247D01*
X130710476Y-50901247D02*
X130758095Y-50853628D01*
X130758095Y-50853628D02*
X130805714Y-50758390D01*
X141279819Y-85467857D02*
X140803628Y-85801190D01*
X141279819Y-86039285D02*
X140279819Y-86039285D01*
X140279819Y-86039285D02*
X140279819Y-85658333D01*
X140279819Y-85658333D02*
X140327438Y-85563095D01*
X140327438Y-85563095D02*
X140375057Y-85515476D01*
X140375057Y-85515476D02*
X140470295Y-85467857D01*
X140470295Y-85467857D02*
X140613152Y-85467857D01*
X140613152Y-85467857D02*
X140708390Y-85515476D01*
X140708390Y-85515476D02*
X140756009Y-85563095D01*
X140756009Y-85563095D02*
X140803628Y-85658333D01*
X140803628Y-85658333D02*
X140803628Y-86039285D01*
X140279819Y-85134523D02*
X140279819Y-84515476D01*
X140279819Y-84515476D02*
X140660771Y-84848809D01*
X140660771Y-84848809D02*
X140660771Y-84705952D01*
X140660771Y-84705952D02*
X140708390Y-84610714D01*
X140708390Y-84610714D02*
X140756009Y-84563095D01*
X140756009Y-84563095D02*
X140851247Y-84515476D01*
X140851247Y-84515476D02*
X141089342Y-84515476D01*
X141089342Y-84515476D02*
X141184580Y-84563095D01*
X141184580Y-84563095D02*
X141232200Y-84610714D01*
X141232200Y-84610714D02*
X141279819Y-84705952D01*
X141279819Y-84705952D02*
X141279819Y-84991666D01*
X141279819Y-84991666D02*
X141232200Y-85086904D01*
X141232200Y-85086904D02*
X141184580Y-85134523D01*
X140613152Y-83658333D02*
X141279819Y-83658333D01*
X140232200Y-83896428D02*
X140946485Y-84134523D01*
X140946485Y-84134523D02*
X140946485Y-83515476D01*
X132699819Y-85590357D02*
X132223628Y-85923690D01*
X132699819Y-86161785D02*
X131699819Y-86161785D01*
X131699819Y-86161785D02*
X131699819Y-85780833D01*
X131699819Y-85780833D02*
X131747438Y-85685595D01*
X131747438Y-85685595D02*
X131795057Y-85637976D01*
X131795057Y-85637976D02*
X131890295Y-85590357D01*
X131890295Y-85590357D02*
X132033152Y-85590357D01*
X132033152Y-85590357D02*
X132128390Y-85637976D01*
X132128390Y-85637976D02*
X132176009Y-85685595D01*
X132176009Y-85685595D02*
X132223628Y-85780833D01*
X132223628Y-85780833D02*
X132223628Y-86161785D01*
X131795057Y-85209404D02*
X131747438Y-85161785D01*
X131747438Y-85161785D02*
X131699819Y-85066547D01*
X131699819Y-85066547D02*
X131699819Y-84828452D01*
X131699819Y-84828452D02*
X131747438Y-84733214D01*
X131747438Y-84733214D02*
X131795057Y-84685595D01*
X131795057Y-84685595D02*
X131890295Y-84637976D01*
X131890295Y-84637976D02*
X131985533Y-84637976D01*
X131985533Y-84637976D02*
X132128390Y-84685595D01*
X132128390Y-84685595D02*
X132699819Y-85257023D01*
X132699819Y-85257023D02*
X132699819Y-84637976D01*
X132699819Y-84161785D02*
X132699819Y-83971309D01*
X132699819Y-83971309D02*
X132652200Y-83876071D01*
X132652200Y-83876071D02*
X132604580Y-83828452D01*
X132604580Y-83828452D02*
X132461723Y-83733214D01*
X132461723Y-83733214D02*
X132271247Y-83685595D01*
X132271247Y-83685595D02*
X131890295Y-83685595D01*
X131890295Y-83685595D02*
X131795057Y-83733214D01*
X131795057Y-83733214D02*
X131747438Y-83780833D01*
X131747438Y-83780833D02*
X131699819Y-83876071D01*
X131699819Y-83876071D02*
X131699819Y-84066547D01*
X131699819Y-84066547D02*
X131747438Y-84161785D01*
X131747438Y-84161785D02*
X131795057Y-84209404D01*
X131795057Y-84209404D02*
X131890295Y-84257023D01*
X131890295Y-84257023D02*
X132128390Y-84257023D01*
X132128390Y-84257023D02*
X132223628Y-84209404D01*
X132223628Y-84209404D02*
X132271247Y-84161785D01*
X132271247Y-84161785D02*
X132318866Y-84066547D01*
X132318866Y-84066547D02*
X132318866Y-83876071D01*
X132318866Y-83876071D02*
X132271247Y-83780833D01*
X132271247Y-83780833D02*
X132223628Y-83733214D01*
X132223628Y-83733214D02*
X132128390Y-83685595D01*
X158211904Y-65570180D02*
X158211904Y-64760657D01*
X158211904Y-64760657D02*
X158164285Y-64665419D01*
X158164285Y-64665419D02*
X158116666Y-64617800D01*
X158116666Y-64617800D02*
X158021428Y-64570180D01*
X158021428Y-64570180D02*
X157830952Y-64570180D01*
X157830952Y-64570180D02*
X157735714Y-64617800D01*
X157735714Y-64617800D02*
X157688095Y-64665419D01*
X157688095Y-64665419D02*
X157640476Y-64760657D01*
X157640476Y-64760657D02*
X157640476Y-65570180D01*
X156688095Y-65570180D02*
X157164285Y-65570180D01*
X157164285Y-65570180D02*
X157211904Y-65093990D01*
X157211904Y-65093990D02*
X157164285Y-65141609D01*
X157164285Y-65141609D02*
X157069047Y-65189228D01*
X157069047Y-65189228D02*
X156830952Y-65189228D01*
X156830952Y-65189228D02*
X156735714Y-65141609D01*
X156735714Y-65141609D02*
X156688095Y-65093990D01*
X156688095Y-65093990D02*
X156640476Y-64998752D01*
X156640476Y-64998752D02*
X156640476Y-64760657D01*
X156640476Y-64760657D02*
X156688095Y-64665419D01*
X156688095Y-64665419D02*
X156735714Y-64617800D01*
X156735714Y-64617800D02*
X156830952Y-64570180D01*
X156830952Y-64570180D02*
X157069047Y-64570180D01*
X157069047Y-64570180D02*
X157164285Y-64617800D01*
X157164285Y-64617800D02*
X157211904Y-64665419D01*
X160042800Y-71836619D02*
X160042800Y-72074714D01*
X159804705Y-71979476D02*
X160042800Y-72074714D01*
X160042800Y-72074714D02*
X160280895Y-71979476D01*
X159899943Y-72265190D02*
X160042800Y-72074714D01*
X160042800Y-72074714D02*
X160185657Y-72265190D01*
X160042799Y-72926980D02*
X160042799Y-72688885D01*
X160280894Y-72784123D02*
X160042799Y-72688885D01*
X160042799Y-72688885D02*
X159804704Y-72784123D01*
X160185656Y-72498409D02*
X160042799Y-72688885D01*
X160042799Y-72688885D02*
X159899942Y-72498409D01*
D11*
X116865000Y-69146937D02*
X116865000Y-76602500D01*
X116865000Y-76602500D02*
X119615000Y-76602500D01*
X117929437Y-68082500D02*
X116865000Y-69146937D01*
X117929437Y-68082500D02*
X119615000Y-68082500D01*
X123635000Y-66842500D02*
X123635000Y-67842500D01*
X124135000Y-67342500D02*
X123135000Y-67342500D01*
X124320563Y-68082500D02*
X122635000Y-68082500D01*
X124320563Y-68082500D02*
X125385000Y-69146937D01*
X125385000Y-69146937D02*
X125385000Y-76602500D01*
X125385000Y-76602500D02*
X122635000Y-76602500D01*
X111142621Y-55655000D02*
X110807379Y-55655000D01*
X111142621Y-54895000D02*
X110807379Y-54895000D01*
X126163748Y-80340000D02*
X126686252Y-80340000D01*
X126163748Y-81760000D02*
X126686252Y-81760000D01*
X108332379Y-54895000D02*
X108667621Y-54895000D01*
X108332379Y-55655000D02*
X108667621Y-55655000D01*
X154015000Y-72734165D02*
X154015000Y-72965835D01*
X154735000Y-72734165D02*
X154735000Y-72965835D01*
X133447500Y-62840835D02*
X133447500Y-62609165D01*
X134167500Y-62840835D02*
X134167500Y-62609165D01*
X153890000Y-78465000D02*
X153890000Y-79190000D01*
X153890000Y-82685000D02*
X153890000Y-81960000D01*
X154615000Y-78465000D02*
X153890000Y-78465000D01*
X154615000Y-82685000D02*
X153890000Y-82685000D01*
X157385000Y-78465000D02*
X158110000Y-78465000D01*
X157385000Y-82685000D02*
X157810000Y-82685000D01*
X158110000Y-78465000D02*
X158110000Y-79190000D01*
X158110000Y-81960000D02*
X158110000Y-82445000D01*
X158350000Y-83015000D02*
X157870000Y-83015000D01*
X158110000Y-82685000D01*
X158350000Y-83015000D01*
G36*
X158350000Y-83015000D02*
G01*
X157870000Y-83015000D01*
X158110000Y-82685000D01*
X158350000Y-83015000D01*
G37*
X159340000Y-79086252D02*
X159340000Y-77663748D01*
X161160000Y-79086252D02*
X161160000Y-77663748D01*
X110730000Y-64035000D02*
X110730000Y-62085000D01*
X110730000Y-64035000D02*
X110730000Y-65985000D01*
X115850000Y-64035000D02*
X115850000Y-62085000D01*
X115850000Y-64035000D02*
X115850000Y-65985000D01*
X110825000Y-66735000D02*
X110495000Y-66975000D01*
X110495000Y-66495000D01*
X110825000Y-66735000D01*
G36*
X110825000Y-66735000D02*
G01*
X110495000Y-66975000D01*
X110495000Y-66495000D01*
X110825000Y-66735000D01*
G37*
D12*
X137632839Y-78756300D02*
X138667160Y-78756300D01*
X138667160Y-73193700D02*
X137632839Y-73193700D01*
X140932840Y-78756300D02*
X141967161Y-78756300D01*
X141967161Y-73193700D02*
X140932840Y-73193700D01*
D11*
X158584165Y-83465000D02*
X158815835Y-83465000D01*
X158584165Y-84185000D02*
X158815835Y-84185000D01*
X157170000Y-75732379D02*
X157170000Y-76067621D01*
X157930000Y-75732379D02*
X157930000Y-76067621D01*
X102592621Y-67770000D02*
X102257379Y-67770000D01*
X102592621Y-68530000D02*
X102257379Y-68530000D01*
X122370000Y-54940000D02*
X122625000Y-54940000D01*
X122370000Y-58800000D02*
X122370000Y-54940000D01*
X122370000Y-58800000D02*
X122370000Y-62660000D01*
X122370000Y-62660000D02*
X122625000Y-62660000D01*
X132890000Y-54940000D02*
X132635000Y-54940000D01*
X132890000Y-58800000D02*
X132890000Y-54940000D01*
X132890000Y-58800000D02*
X132890000Y-62660000D01*
X132890000Y-62660000D02*
X132635000Y-62660000D01*
X133105000Y-54427500D02*
X132635000Y-54087500D01*
X133105000Y-53747500D01*
X133105000Y-54427500D01*
G36*
X133105000Y-54427500D02*
G01*
X132635000Y-54087500D01*
X133105000Y-53747500D01*
X133105000Y-54427500D01*
G37*
X129492621Y-84870000D02*
X129157379Y-84870000D01*
X129492621Y-85630000D02*
X129157379Y-85630000D01*
X133709165Y-78940000D02*
X133940835Y-78940000D01*
X133709165Y-79660000D02*
X133940835Y-79660000D01*
X154799000Y-88322621D02*
X154799000Y-87987379D01*
X155559000Y-88322621D02*
X155559000Y-87987379D01*
X109890000Y-51725000D02*
X109890000Y-54585000D01*
X109890000Y-54585000D02*
X111810000Y-54585000D01*
X111810000Y-54585000D02*
X111810000Y-51725000D01*
X158967879Y-88405000D02*
X159303121Y-88405000D01*
X158967879Y-89165000D02*
X159303121Y-89165000D01*
X155695000Y-51650000D02*
X158495000Y-51650000D01*
X155695000Y-53650000D02*
X155695000Y-51650000D01*
X158495000Y-51650000D02*
X158495000Y-53650000D01*
X158495000Y-53650000D02*
X155695000Y-53650000D01*
X120084879Y-60120000D02*
X120420121Y-60120000D01*
X120084879Y-60880000D02*
X120420121Y-60880000D01*
X109340835Y-61140000D02*
X109109165Y-61140000D01*
X109340835Y-61860000D02*
X109109165Y-61860000D01*
X157040000Y-88290835D02*
X157040000Y-88059165D01*
X157760000Y-88290835D02*
X157760000Y-88059165D01*
X148990000Y-74190000D02*
X148990000Y-77050000D01*
X150910000Y-74190000D02*
X148990000Y-74190000D01*
X150910000Y-77050000D02*
X150910000Y-74190000D01*
D10*
X129100000Y-74675000D02*
X129100000Y-77925000D01*
X129100000Y-74675000D02*
X129325000Y-74675000D01*
X129100000Y-77925000D02*
X129325000Y-77925000D01*
X132350000Y-74675000D02*
X132125000Y-74675000D01*
X132350000Y-74675000D02*
X132350000Y-77925000D01*
X132350000Y-77925000D02*
X132125000Y-77925000D01*
D11*
X132455000Y-74440000D02*
X132125000Y-74200000D01*
X132455000Y-73960000D01*
X132455000Y-74440000D01*
G36*
X132455000Y-74440000D02*
G01*
X132125000Y-74200000D01*
X132455000Y-73960000D01*
X132455000Y-74440000D01*
G37*
X133140000Y-77236252D02*
X133140000Y-76713748D01*
X134610000Y-77236252D02*
X134610000Y-76713748D01*
X153713500Y-88290835D02*
X153713500Y-88059165D01*
X154433500Y-88290835D02*
X154433500Y-88059165D01*
X112486252Y-77490000D02*
X109713748Y-77490000D01*
X112486252Y-80910000D02*
X109713748Y-80910000D01*
X136732379Y-84870000D02*
X137067621Y-84870000D01*
X136732379Y-85630000D02*
X137067621Y-85630000D01*
X159827379Y-52745000D02*
X160162621Y-52745000D01*
X159827379Y-53505000D02*
X160162621Y-53505000D01*
X127245000Y-85115121D02*
X127245000Y-84779879D01*
X128005000Y-85115121D02*
X128005000Y-84779879D01*
X157385000Y-57625000D02*
X157385000Y-55675000D01*
X157385000Y-57625000D02*
X157385000Y-59575000D01*
X162505000Y-57625000D02*
X162505000Y-55675000D01*
X162505000Y-57625000D02*
X162505000Y-59575000D01*
X157480000Y-60325000D02*
X157150000Y-60565000D01*
X157150000Y-60085000D01*
X157480000Y-60325000D01*
G36*
X157480000Y-60325000D02*
G01*
X157150000Y-60565000D01*
X157150000Y-60085000D01*
X157480000Y-60325000D01*
G37*
X120417621Y-63070000D02*
X120082379Y-63070000D01*
X120417621Y-63830000D02*
X120082379Y-63830000D01*
X145495000Y-95060000D02*
X145495000Y-95915000D01*
X145495000Y-99035000D02*
X145495000Y-99985000D01*
X145495000Y-99985000D02*
X154655000Y-99985000D01*
X154655000Y-95060000D02*
X154655000Y-95915000D01*
X154655000Y-99035000D02*
X154655000Y-99985000D01*
X132815121Y-71675000D02*
X132479879Y-71675000D01*
X132815121Y-72435000D02*
X132479879Y-72435000D01*
D12*
X135203300Y-63551700D02*
X135203300Y-70409700D01*
X135203300Y-70409700D02*
X139546700Y-70409700D01*
X139546700Y-63551700D02*
X135203300Y-63551700D01*
X139546700Y-70409700D02*
X139546700Y-63551700D01*
D11*
X148970000Y-68940121D02*
X148970000Y-68604879D01*
X149730000Y-68940121D02*
X149730000Y-68604879D01*
X148970000Y-65967621D02*
X148970000Y-65632379D01*
X149730000Y-65967621D02*
X149730000Y-65632379D01*
X128834879Y-71675000D02*
X129170121Y-71675000D01*
X128834879Y-72435000D02*
X129170121Y-72435000D01*
X160822500Y-73067621D02*
X160822500Y-72732379D01*
X161582500Y-73067621D02*
X161582500Y-72732379D01*
X130445000Y-71592621D02*
X130445000Y-71257379D01*
X131205000Y-71592621D02*
X131205000Y-71257379D01*
X102040000Y-83704437D02*
X102040000Y-91160000D01*
X102040000Y-91160000D02*
X104790000Y-91160000D01*
X103104437Y-82640000D02*
X102040000Y-83704437D01*
X103104437Y-82640000D02*
X104790000Y-82640000D01*
X108810000Y-81400000D02*
X108810000Y-82400000D01*
X109310000Y-81900000D02*
X108310000Y-81900000D01*
X109495563Y-82640000D02*
X107810000Y-82640000D01*
X109495563Y-82640000D02*
X110560000Y-83704437D01*
X110560000Y-83704437D02*
X110560000Y-91160000D01*
X110560000Y-91160000D02*
X107810000Y-91160000D01*
X150084879Y-80720000D02*
X150420121Y-80720000D01*
X150084879Y-81480000D02*
X150420121Y-81480000D01*
X133659165Y-73065000D02*
X133890835Y-73065000D01*
X133659165Y-73785000D02*
X133890835Y-73785000D01*
X113545121Y-73520000D02*
X113209879Y-73520000D01*
X113545121Y-74280000D02*
X113209879Y-74280000D01*
X115180000Y-98930000D02*
X115180000Y-97600000D01*
X116510000Y-98930000D02*
X115180000Y-98930000D01*
X117780000Y-96270000D02*
X120380000Y-96270000D01*
X117780000Y-98930000D02*
X117780000Y-96270000D01*
X117780000Y-98930000D02*
X120380000Y-98930000D01*
X120380000Y-98930000D02*
X120380000Y-96270000D01*
X104265000Y-69540000D02*
X104265000Y-71460000D01*
X104265000Y-71460000D02*
X107125000Y-71460000D01*
X107125000Y-69540000D02*
X104265000Y-69540000D01*
X155914500Y-88322621D02*
X155914500Y-87987379D01*
X156674500Y-88322621D02*
X156674500Y-87987379D01*
X120084879Y-61457500D02*
X120420121Y-61457500D01*
X120084879Y-62217500D02*
X120420121Y-62217500D01*
X152017224Y-67477500D02*
X151507776Y-67477500D01*
X152017224Y-68522500D02*
X151507776Y-68522500D01*
X156060835Y-54790000D02*
X155829165Y-54790000D01*
X156060835Y-55510000D02*
X155829165Y-55510000D01*
X148945000Y-71417621D02*
X148945000Y-71082379D01*
X149705000Y-71417621D02*
X149705000Y-71082379D01*
X102592621Y-70120000D02*
X102257379Y-70120000D01*
X102592621Y-70880000D02*
X102257379Y-70880000D01*
X152017224Y-69027500D02*
X151507776Y-69027500D01*
X152017224Y-70072500D02*
X151507776Y-70072500D01*
X153565835Y-76940000D02*
X153334165Y-76940000D01*
X153565835Y-77660000D02*
X153334165Y-77660000D01*
X152505621Y-88405000D02*
X152170379Y-88405000D01*
X152505621Y-89165000D02*
X152170379Y-89165000D01*
X104265000Y-67190000D02*
X104265000Y-69110000D01*
X104265000Y-69110000D02*
X107125000Y-69110000D01*
X107125000Y-67190000D02*
X104265000Y-67190000D01*
X132590000Y-68761252D02*
X132590000Y-68238748D01*
X134060000Y-68761252D02*
X134060000Y-68238748D01*
D12*
X140078300Y-63551700D02*
X140078300Y-70409700D01*
X140078300Y-70409700D02*
X144421700Y-70409700D01*
X144421700Y-63551700D02*
X140078300Y-63551700D01*
X144421700Y-70409700D02*
X144421700Y-63551700D01*
D11*
X134420000Y-84779879D02*
X134420000Y-85115121D01*
X135180000Y-84779879D02*
X135180000Y-85115121D01*
X113209879Y-74770000D02*
X113545121Y-74770000D01*
X113209879Y-75530000D02*
X113545121Y-75530000D01*
X115115000Y-83704437D02*
X115115000Y-91160000D01*
X115115000Y-91160000D02*
X117865000Y-91160000D01*
X116179437Y-82640000D02*
X115115000Y-83704437D01*
X116179437Y-82640000D02*
X117865000Y-82640000D01*
X121885000Y-81400000D02*
X121885000Y-82400000D01*
X122385000Y-81900000D02*
X121385000Y-81900000D01*
X122570563Y-82640000D02*
X120885000Y-82640000D01*
X122570563Y-82640000D02*
X123635000Y-83704437D01*
X123635000Y-83704437D02*
X123635000Y-91160000D01*
X123635000Y-91160000D02*
X120885000Y-91160000D01*
D12*
X138224401Y-60327000D02*
X138224401Y-61978000D01*
X139237861Y-60327000D02*
X138224401Y-60327000D01*
X139512140Y-61978000D02*
X140187862Y-61978000D01*
X141475601Y-60327000D02*
X140462141Y-60327000D01*
X141475601Y-61978000D02*
X141475601Y-60327000D01*
D11*
X146617500Y-74190000D02*
X146617500Y-77050000D01*
X148537500Y-74190000D02*
X146617500Y-74190000D01*
X148537500Y-77050000D02*
X148537500Y-74190000D01*
X151965835Y-79677500D02*
X151734165Y-79677500D01*
X151965835Y-80397500D02*
X151734165Y-80397500D01*
X107517500Y-51725000D02*
X107517500Y-54585000D01*
X107517500Y-54585000D02*
X109437500Y-54585000D01*
X109437500Y-54585000D02*
X109437500Y-51725000D01*
X124934879Y-51670000D02*
X125270121Y-51670000D01*
X124934879Y-52430000D02*
X125270121Y-52430000D01*
X162612621Y-52745000D02*
X162277379Y-52745000D01*
X162612621Y-53505000D02*
X162277379Y-53505000D01*
X134491665Y-53765000D02*
X134723335Y-53765000D01*
X134491665Y-54485000D02*
X134723335Y-54485000D01*
D12*
X125600600Y-86631800D02*
X125600600Y-100319328D01*
X125600600Y-101290672D02*
X125600600Y-104818200D01*
X125600600Y-104818200D02*
X141399400Y-104818200D01*
X141399400Y-86631800D02*
X125600600Y-86631800D01*
X141399400Y-100319328D02*
X141399400Y-86631800D01*
X141399400Y-104818200D02*
X141399400Y-101290672D01*
D11*
X130315121Y-51670000D02*
X129979879Y-51670000D01*
X130315121Y-52430000D02*
X129979879Y-52430000D01*
X138570000Y-85115121D02*
X138570000Y-84779879D01*
X139330000Y-85115121D02*
X139330000Y-84779879D01*
X130695000Y-84779879D02*
X130695000Y-85115121D01*
X131455000Y-84779879D02*
X131455000Y-85115121D01*
D12*
X155204100Y-71403900D02*
X159445900Y-71403900D01*
X159445900Y-66146100D02*
X155204100Y-66146100D01*
%LPC*%
D13*
X121125000Y-69092500D03*
X121125000Y-75592500D03*
D14*
X111572500Y-55275000D03*
X110377500Y-55275000D03*
D15*
X161500000Y-47500000D03*
D16*
X125400000Y-81050000D03*
X127450000Y-81050000D03*
D17*
X107902500Y-55275000D03*
X109097500Y-55275000D03*
D18*
X154375000Y-72282500D03*
X154375000Y-73417500D03*
D19*
X133807500Y-63292500D03*
X133807500Y-62157500D03*
D20*
X157937500Y-81575000D03*
X157937500Y-81075000D03*
X157937500Y-80575000D03*
X157937500Y-80075000D03*
X157937500Y-79575000D03*
D21*
X157000000Y-78637500D03*
X156500000Y-78637500D03*
X156000000Y-78637500D03*
X155500000Y-78637500D03*
X155000000Y-78637500D03*
D20*
X154062500Y-79575000D03*
X154062500Y-80075000D03*
X154062500Y-80575000D03*
X154062500Y-81075000D03*
X154062500Y-81575000D03*
D21*
X155000000Y-82512500D03*
X155500000Y-82512500D03*
X156000000Y-82512500D03*
X156500000Y-82512500D03*
X157000000Y-82512500D03*
D22*
X156000000Y-80575000D03*
D23*
X160250000Y-79937500D03*
X160250000Y-76812500D03*
D24*
X111385000Y-66510000D03*
X112655000Y-66510000D03*
X113925000Y-66510000D03*
X115195000Y-66510000D03*
X115195000Y-61560000D03*
X113925000Y-61560000D03*
X112655000Y-61560000D03*
X111385000Y-61560000D03*
D25*
X143100001Y-75975000D03*
X139800000Y-75975000D03*
X136499999Y-75975000D03*
D26*
X158132500Y-83825000D03*
X159267500Y-83825000D03*
D27*
X157550000Y-75302500D03*
X157550000Y-76497500D03*
D14*
X103022500Y-68150000D03*
X101827500Y-68150000D03*
D28*
X132075000Y-54150000D03*
X130805000Y-54150000D03*
X129535000Y-54150000D03*
X128265000Y-54150000D03*
X126995000Y-54150000D03*
X125725000Y-54150000D03*
X124455000Y-54150000D03*
X123185000Y-54150000D03*
X123185000Y-63450000D03*
X124455000Y-63450000D03*
X125725000Y-63450000D03*
X126995000Y-63450000D03*
X128265000Y-63450000D03*
X129535000Y-63450000D03*
X130805000Y-63450000D03*
X132075000Y-63450000D03*
D14*
X129922500Y-85250000D03*
X128727500Y-85250000D03*
D26*
X133257500Y-79300000D03*
X134392500Y-79300000D03*
D29*
X155179000Y-88752500D03*
X155179000Y-87557500D03*
D30*
X110850000Y-53750000D03*
X110850000Y-51700000D03*
D17*
X158538000Y-88785000D03*
X159733000Y-88785000D03*
D31*
X157745000Y-52650000D03*
X156445000Y-52650000D03*
D17*
X119655000Y-60500000D03*
X120850000Y-60500000D03*
D32*
X109792500Y-61500000D03*
X108657500Y-61500000D03*
D19*
X157400000Y-88742500D03*
X157400000Y-87607500D03*
D33*
X149950000Y-75025000D03*
X149950000Y-77075000D03*
D34*
X131725000Y-74150000D03*
X131225000Y-74150000D03*
X130725000Y-74150000D03*
X130225000Y-74150000D03*
X129725000Y-74150000D03*
X129725000Y-78450000D03*
X130225000Y-78450000D03*
X130725000Y-78450000D03*
X131225000Y-78450000D03*
X131725000Y-78450000D03*
D35*
X133875000Y-77925000D03*
X133875000Y-76025000D03*
D19*
X154073500Y-88742500D03*
X154073500Y-87607500D03*
D36*
X113325000Y-79200000D03*
X108875000Y-79200000D03*
D17*
X136302500Y-85250000D03*
X137497500Y-85250000D03*
X159397500Y-53125000D03*
X160592500Y-53125000D03*
D29*
X127625000Y-85545000D03*
X127625000Y-84350000D03*
D24*
X158040000Y-60100000D03*
X159310000Y-60100000D03*
X160580000Y-60100000D03*
X161850000Y-60100000D03*
X161850000Y-55150000D03*
X160580000Y-55150000D03*
X159310000Y-55150000D03*
X158040000Y-55150000D03*
D14*
X120847500Y-63450000D03*
X119652500Y-63450000D03*
D37*
X147075000Y-94325000D03*
D38*
X148675000Y-97425000D03*
X151475000Y-97425000D03*
D39*
X153075000Y-94325000D03*
D40*
X146975000Y-93225000D03*
X147725000Y-93225000D03*
D41*
X148325000Y-93225000D03*
X149825000Y-93225000D03*
X150825000Y-93225000D03*
X151825000Y-93225000D03*
D40*
X152425000Y-93225000D03*
X153175000Y-93225000D03*
X153175000Y-93225000D03*
X152425000Y-93225000D03*
D41*
X151325000Y-93225000D03*
X150325000Y-93225000D03*
X149325000Y-93225000D03*
X148825000Y-93225000D03*
D40*
X147725000Y-93225000D03*
X146975000Y-93225000D03*
D42*
X145755000Y-93600000D03*
D43*
X145755000Y-97425000D03*
D42*
X154395000Y-93600000D03*
D43*
X154395000Y-97425000D03*
D14*
X133245000Y-72055000D03*
X132050000Y-72055000D03*
D44*
X137375000Y-64961400D03*
X137375000Y-69000000D03*
D45*
X137375000Y-66980700D03*
D29*
X149350000Y-69370000D03*
X149350000Y-68175000D03*
X149350000Y-66397500D03*
X149350000Y-65202500D03*
D17*
X128405000Y-72055000D03*
X129600000Y-72055000D03*
D29*
X161202500Y-73497500D03*
X161202500Y-72302500D03*
X130825000Y-72022500D03*
X130825000Y-70827500D03*
D15*
X103500000Y-96500000D03*
D13*
X106300000Y-83650000D03*
X106300000Y-90150000D03*
D15*
X103500000Y-47500000D03*
D17*
X149655000Y-81100000D03*
X150850000Y-81100000D03*
D26*
X133207500Y-73425000D03*
X134342500Y-73425000D03*
D14*
X113975000Y-73900000D03*
X112780000Y-73900000D03*
D46*
X116510000Y-97600000D03*
D47*
X119050000Y-97600000D03*
D16*
X105100000Y-70500000D03*
X107150000Y-70500000D03*
D29*
X156294500Y-88752500D03*
X156294500Y-87557500D03*
D17*
X119655000Y-61837500D03*
X120850000Y-61837500D03*
D48*
X152675000Y-68000000D03*
X150850000Y-68000000D03*
D32*
X156512500Y-55150000D03*
X155377500Y-55150000D03*
D29*
X149325000Y-71847500D03*
X149325000Y-70652500D03*
D14*
X103022500Y-70500000D03*
X101827500Y-70500000D03*
D48*
X152675000Y-69550000D03*
X150850000Y-69550000D03*
D32*
X154017500Y-77300000D03*
X152882500Y-77300000D03*
D14*
X152935500Y-88785000D03*
X151740500Y-88785000D03*
D16*
X105100000Y-68150000D03*
X107150000Y-68150000D03*
D15*
X161500000Y-96500000D03*
D35*
X133325000Y-69450000D03*
X133325000Y-67550000D03*
D44*
X142250000Y-64961400D03*
X142250000Y-69000000D03*
D45*
X142250000Y-66980700D03*
D27*
X134800000Y-84350000D03*
X134800000Y-85545000D03*
D17*
X112780000Y-75150000D03*
X113975000Y-75150000D03*
D13*
X119375000Y-83650000D03*
X119375000Y-90150000D03*
D49*
X138900000Y-62105000D03*
X140800002Y-62105000D03*
X139850001Y-60200000D03*
D33*
X147577500Y-75025000D03*
X147577500Y-77075000D03*
D32*
X152417500Y-80037500D03*
X151282500Y-80037500D03*
D30*
X108477500Y-53750000D03*
X108477500Y-51700000D03*
D17*
X124505000Y-52050000D03*
X125700000Y-52050000D03*
D14*
X163042500Y-53125000D03*
X161847500Y-53125000D03*
D26*
X134040000Y-54125000D03*
X135175000Y-54125000D03*
D50*
X129055000Y-90721000D03*
X130325000Y-88181000D03*
X131595000Y-90721000D03*
X132865000Y-88181000D03*
X134135000Y-90721000D03*
X135405000Y-88181000D03*
X136675000Y-90721000D03*
X137945000Y-88181000D03*
D51*
X127785000Y-97071000D03*
X139215000Y-97071000D03*
D14*
X130745000Y-52050000D03*
X129550000Y-52050000D03*
D29*
X138950000Y-85545000D03*
X138950000Y-84350000D03*
D27*
X131075000Y-84350000D03*
X131075000Y-85545000D03*
D52*
X159788800Y-70680000D03*
X159788800Y-69410000D03*
X159788800Y-68140000D03*
X159788800Y-66870000D03*
X154861200Y-66870000D03*
X154861200Y-68140000D03*
X154861200Y-69410000D03*
X154861200Y-70680000D03*
D46*
X108370000Y-48770000D03*
D47*
X108370000Y-46230000D03*
X110910000Y-48770000D03*
X110910000Y-46230000D03*
X113450000Y-48770000D03*
X113450000Y-46230000D03*
X115990000Y-48770000D03*
X115990000Y-46230000D03*
X118530000Y-48770000D03*
X118530000Y-46230000D03*
X121070000Y-48770000D03*
X121070000Y-46230000D03*
X123610000Y-48770000D03*
X123610000Y-46230000D03*
X126150000Y-48770000D03*
X126150000Y-46230000D03*
X128690000Y-48770000D03*
X128690000Y-46230000D03*
X131230000Y-48770000D03*
X131230000Y-46230000D03*
X133770000Y-48770000D03*
X133770000Y-46230000D03*
X136310000Y-48770000D03*
X136310000Y-46230000D03*
X138850000Y-48770000D03*
X138850000Y-46230000D03*
X141390000Y-48770000D03*
X141390000Y-46230000D03*
X143930000Y-48770000D03*
X143930000Y-46230000D03*
X146470000Y-48770000D03*
X146470000Y-46230000D03*
X149010000Y-48770000D03*
X149010000Y-46230000D03*
X151550000Y-48770000D03*
X151550000Y-46230000D03*
X154090000Y-48770000D03*
X154090000Y-46230000D03*
X156630000Y-48770000D03*
X156630000Y-46230000D03*
D53*
X118165000Y-57490000D03*
D54*
X113085000Y-57490000D03*
X105465000Y-57490000D03*
X105465000Y-77810000D03*
X115625000Y-77810000D03*
X125785000Y-77810000D03*
%LPD*%
M02*
