%TF.GenerationSoftware,KiCad,Pcbnew,8.0.0*%
%TF.CreationDate,2024-07-06T17:56:52-07:00*%
%TF.ProjectId,rpi_hat_v1,7270695f-6861-4745-9f76-312e6b696361,rev?*%
%TF.SameCoordinates,Original*%
%TF.FileFunction,Drillmap*%
%TF.FilePolarity,Positive*%
%FSLAX45Y45*%
G04 Gerber Fmt 4.5, Leading zero omitted, Abs format (unit mm)*
G04 Created by KiCad (PCBNEW 8.0.0) date 2024-07-06 17:56:52*
%MOMM*%
%LPD*%
G01*
G04 APERTURE LIST*
%ADD10C,0.100000*%
%ADD11C,0.200000*%
%ADD12C,0.114000*%
%ADD13C,0.120000*%
%ADD14C,0.330200*%
G04 APERTURE END LIST*
D10*
X16200000Y-4400000D02*
G75*
G02*
X16500000Y-4700000I0J-300000D01*
G01*
X16500000Y-9700000D02*
X16500000Y-4700000D01*
X10300000Y-10000000D02*
G75*
G02*
X10000000Y-9700000I0J300000D01*
G01*
X10300000Y-10000000D02*
X16200000Y-10000000D01*
X16500000Y-9700000D02*
G75*
G02*
X16200000Y-10000000I-300000J0D01*
G01*
X10000000Y-4700000D02*
G75*
G02*
X10300000Y-4400000I300000J0D01*
G01*
X10000000Y-4700000D02*
X10000000Y-9700000D01*
X16200000Y-4400000D02*
X10300000Y-4400000D01*
D11*
D10*
X10097500Y-7142500D02*
X10157500Y-7202500D01*
X10157500Y-7142500D02*
X10097500Y-7202500D01*
X10135000Y-6900000D02*
X10195000Y-6960000D01*
X10195000Y-6900000D02*
X10135000Y-6960000D01*
X10557500Y-6567500D02*
X10617500Y-6627500D01*
X10617500Y-6567500D02*
X10557500Y-6627500D01*
X10657500Y-7287500D02*
X10717500Y-7347500D01*
X10717500Y-7287500D02*
X10657500Y-7347500D01*
X10927500Y-6997500D02*
X10987500Y-7057500D01*
X10987500Y-6997500D02*
X10927500Y-7057500D01*
X11132500Y-6880000D02*
X11192500Y-6940000D01*
X11192500Y-6880000D02*
X11132500Y-6940000D01*
X11700000Y-7255000D02*
X11760000Y-7315000D01*
X11760000Y-7255000D02*
X11700000Y-7315000D01*
X11992500Y-7905000D02*
X12052500Y-7965000D01*
X12052500Y-7905000D02*
X11992500Y-7965000D01*
X12002500Y-5845000D02*
X12062500Y-5905000D01*
X12062500Y-5845000D02*
X12002500Y-5905000D01*
X12077500Y-6575000D02*
X12137500Y-6635000D01*
X12137500Y-6575000D02*
X12077500Y-6635000D01*
X12290000Y-6512500D02*
X12350000Y-6572500D01*
X12350000Y-6512500D02*
X12290000Y-6572500D01*
X12612500Y-7047500D02*
X12672500Y-7107500D01*
X12672500Y-7047500D02*
X12612500Y-7107500D01*
X12652500Y-5630000D02*
X12712500Y-5690000D01*
X12712500Y-5630000D02*
X12652500Y-5690000D01*
X12685000Y-8260000D02*
X12745000Y-8320000D01*
X12745000Y-8260000D02*
X12685000Y-8320000D01*
X12737500Y-7885000D02*
X12797500Y-7945000D01*
X12797500Y-7885000D02*
X12737500Y-7945000D01*
X12765000Y-5652500D02*
X12825000Y-5712500D01*
X12825000Y-5652500D02*
X12765000Y-5712500D01*
X12800000Y-7325000D02*
X12860000Y-7385000D01*
X12860000Y-7325000D02*
X12800000Y-7385000D01*
X13110000Y-8275000D02*
X13170000Y-8335000D01*
X13170000Y-8275000D02*
X13110000Y-8335000D01*
X13167500Y-7932500D02*
X13227500Y-7992500D01*
X13227500Y-7932500D02*
X13167500Y-7992500D01*
X13239982Y-8015812D02*
X13299982Y-8075812D01*
X13299982Y-8015812D02*
X13239982Y-8075812D01*
X13239982Y-8130812D02*
X13299982Y-8190812D01*
X13299982Y-8130812D02*
X13239982Y-8190812D01*
X13342500Y-6552500D02*
X13402500Y-6612500D01*
X13402500Y-6552500D02*
X13342500Y-6612500D01*
X13360000Y-7437500D02*
X13420000Y-7497500D01*
X13420000Y-7437500D02*
X13360000Y-7497500D01*
X13392500Y-7085000D02*
X13452500Y-7145000D01*
X13452500Y-7085000D02*
X13392500Y-7145000D01*
X13400000Y-6417500D02*
X13460000Y-6477500D01*
X13460000Y-6417500D02*
X13400000Y-6477500D01*
X13425000Y-6057500D02*
X13485000Y-6117500D01*
X13485000Y-6057500D02*
X13425000Y-6117500D01*
X13486443Y-8296443D02*
X13546443Y-8356443D01*
X13546443Y-8296443D02*
X13486443Y-8356443D01*
X13595000Y-7975000D02*
X13655000Y-8035000D01*
X13655000Y-7975000D02*
X13595000Y-8035000D01*
X13602500Y-8287500D02*
X13662500Y-8347500D01*
X13662500Y-8287500D02*
X13602500Y-8347500D01*
X13717500Y-8287500D02*
X13777500Y-8347500D01*
X13777500Y-8287500D02*
X13717500Y-8347500D01*
X13980000Y-8310000D02*
X14040000Y-8370000D01*
X14040000Y-8310000D02*
X13980000Y-8370000D01*
X15486175Y-7622500D02*
X15546175Y-7682500D01*
X15546175Y-7622500D02*
X15486175Y-7682500D01*
X15486175Y-8599011D02*
X15546175Y-8659011D01*
X15546175Y-8599011D02*
X15486175Y-8659011D01*
X15601175Y-7622500D02*
X15661175Y-7682500D01*
X15661175Y-7622500D02*
X15601175Y-7682500D01*
X15601175Y-8599011D02*
X15661175Y-8659011D01*
X15661175Y-8599011D02*
X15601175Y-8659011D01*
X15950000Y-7277500D02*
X16010000Y-7337500D01*
X16010000Y-7277500D02*
X15950000Y-7337500D01*
X16135717Y-6809283D02*
X16195717Y-6869283D01*
X16195717Y-6809283D02*
X16135717Y-6869283D01*
X16150000Y-6952500D02*
X16210000Y-7012500D01*
X16210000Y-6952500D02*
X16150000Y-7012500D01*
X16300000Y-7142500D02*
X16360000Y-7202500D01*
X16360000Y-7142500D02*
X16300000Y-7202500D01*
X16302500Y-6915000D02*
X16362500Y-6975000D01*
X16362500Y-6915000D02*
X16302500Y-6975000D01*
X14605500Y-9360000D02*
G75*
G02*
X14545500Y-9360000I-30000J0D01*
G01*
X14545500Y-9360000D02*
G75*
G02*
X14605500Y-9360000I30000J0D01*
G01*
X14545500Y-9310000D02*
X14545500Y-9410000D01*
X14605500Y-9410000D02*
G75*
G02*
X14545500Y-9410000I-30000J0D01*
G01*
X14605500Y-9410000D02*
X14605500Y-9310000D01*
X14605500Y-9310000D02*
G75*
G03*
X14545500Y-9310000I-30000J0D01*
G01*
X14605500Y-9742500D02*
G75*
G02*
X14545500Y-9742500I-30000J0D01*
G01*
X14545500Y-9742500D02*
G75*
G02*
X14605500Y-9742500I30000J0D01*
G01*
X14545500Y-9677500D02*
X14545500Y-9807500D01*
X14605500Y-9807500D02*
G75*
G02*
X14545500Y-9807500I-30000J0D01*
G01*
X14605500Y-9807500D02*
X14605500Y-9677500D01*
X14605500Y-9677500D02*
G75*
G03*
X14545500Y-9677500I-30000J0D01*
G01*
X15469500Y-9360000D02*
G75*
G02*
X15409500Y-9360000I-30000J0D01*
G01*
X15409500Y-9360000D02*
G75*
G02*
X15469500Y-9360000I30000J0D01*
G01*
X15409500Y-9310000D02*
X15409500Y-9410000D01*
X15469500Y-9410000D02*
G75*
G02*
X15409500Y-9410000I-30000J0D01*
G01*
X15469500Y-9410000D02*
X15469500Y-9310000D01*
X15469500Y-9310000D02*
G75*
G03*
X15409500Y-9310000I-30000J0D01*
G01*
X15469500Y-9742500D02*
G75*
G02*
X15409500Y-9742500I-30000J0D01*
G01*
X15409500Y-9742500D02*
G75*
G02*
X15469500Y-9742500I30000J0D01*
G01*
X15409500Y-9677500D02*
X15409500Y-9807500D01*
X15469500Y-9807500D02*
G75*
G02*
X15409500Y-9807500I-30000J0D01*
G01*
X15469500Y-9807500D02*
X15469500Y-9677500D01*
X15469500Y-9677500D02*
G75*
G03*
X15409500Y-9677500I-30000J0D01*
G01*
X10897500Y-6335000D02*
X10897500Y-6405000D01*
X10862500Y-6370000D02*
X10932500Y-6370000D01*
X12127500Y-5212500D02*
X12127500Y-5282500D01*
X12092500Y-5247500D02*
X12162500Y-5247500D01*
X13435000Y-5532500D02*
X13435000Y-5602500D01*
X13400000Y-5567500D02*
X13470000Y-5567500D01*
X14697500Y-7170000D02*
X14697500Y-7240000D01*
X14662500Y-7205000D02*
X14732500Y-7205000D01*
X14857500Y-7890000D02*
X14857500Y-7960000D01*
X14822500Y-7925000D02*
X14892500Y-7925000D01*
X15065000Y-6435000D02*
X15065000Y-6505000D01*
X15030000Y-6470000D02*
X15100000Y-6470000D01*
X15197500Y-7825000D02*
X15197500Y-7895000D01*
X15162500Y-7860000D02*
X15232500Y-7860000D01*
X15577500Y-7197500D02*
X15577500Y-7267500D01*
X15542500Y-7232500D02*
X15612500Y-7232500D01*
X15620000Y-5612500D02*
X15620000Y-5682500D01*
X15585000Y-5647500D02*
X15655000Y-5647500D01*
X15702500Y-8337500D02*
X15702500Y-8407500D01*
X15667500Y-8372500D02*
X15737500Y-8372500D01*
X15827500Y-7800000D02*
X15827500Y-7870000D01*
X15792500Y-7835000D02*
X15862500Y-7835000D01*
X16010000Y-7407500D02*
X16010000Y-7477500D01*
X15975000Y-7442500D02*
X16045000Y-7442500D01*
X12932441Y-9099041D02*
X12932441Y-9045159D01*
X12878559Y-9045159D01*
X12878559Y-9099041D01*
X12932441Y-9099041D01*
X13059441Y-8845041D02*
X13059441Y-8791159D01*
X13005559Y-8791159D01*
X13005559Y-8845041D01*
X13059441Y-8845041D01*
X13186441Y-9099041D02*
X13186441Y-9045159D01*
X13132559Y-9045159D01*
X13132559Y-9099041D01*
X13186441Y-9099041D01*
X13313441Y-8845041D02*
X13313441Y-8791159D01*
X13259559Y-8791159D01*
X13259559Y-8845041D01*
X13313441Y-8845041D01*
X13440441Y-9099041D02*
X13440441Y-9045159D01*
X13386559Y-9045159D01*
X13386559Y-9099041D01*
X13440441Y-9099041D01*
X13567441Y-8845041D02*
X13567441Y-8791159D01*
X13513559Y-8791159D01*
X13513559Y-8845041D01*
X13567441Y-8845041D01*
X13694441Y-9099041D02*
X13694441Y-9045159D01*
X13640559Y-9045159D01*
X13640559Y-9099041D01*
X13694441Y-9099041D01*
X13821441Y-8845041D02*
X13821441Y-8791159D01*
X13767559Y-8791159D01*
X13767559Y-8845041D01*
X13821441Y-8845041D01*
X10837000Y-4673000D02*
X10887000Y-4623000D01*
X10837000Y-4573000D01*
X10787000Y-4623000D01*
X10837000Y-4673000D01*
X10837000Y-4927000D02*
X10887000Y-4877000D01*
X10837000Y-4827000D01*
X10787000Y-4877000D01*
X10837000Y-4927000D01*
X11091000Y-4673000D02*
X11141000Y-4623000D01*
X11091000Y-4573000D01*
X11041000Y-4623000D01*
X11091000Y-4673000D01*
X11091000Y-4927000D02*
X11141000Y-4877000D01*
X11091000Y-4827000D01*
X11041000Y-4877000D01*
X11091000Y-4927000D01*
X11345000Y-4673000D02*
X11395000Y-4623000D01*
X11345000Y-4573000D01*
X11295000Y-4623000D01*
X11345000Y-4673000D01*
X11345000Y-4927000D02*
X11395000Y-4877000D01*
X11345000Y-4827000D01*
X11295000Y-4877000D01*
X11345000Y-4927000D01*
X11599000Y-4673000D02*
X11649000Y-4623000D01*
X11599000Y-4573000D01*
X11549000Y-4623000D01*
X11599000Y-4673000D01*
X11599000Y-4927000D02*
X11649000Y-4877000D01*
X11599000Y-4827000D01*
X11549000Y-4877000D01*
X11599000Y-4927000D01*
X11651000Y-9810000D02*
X11701000Y-9760000D01*
X11651000Y-9710000D01*
X11601000Y-9760000D01*
X11651000Y-9810000D01*
X11853000Y-4673000D02*
X11903000Y-4623000D01*
X11853000Y-4573000D01*
X11803000Y-4623000D01*
X11853000Y-4673000D01*
X11853000Y-4927000D02*
X11903000Y-4877000D01*
X11853000Y-4827000D01*
X11803000Y-4877000D01*
X11853000Y-4927000D01*
X11905000Y-9810000D02*
X11955000Y-9760000D01*
X11905000Y-9710000D01*
X11855000Y-9760000D01*
X11905000Y-9810000D01*
X12107000Y-4673000D02*
X12157000Y-4623000D01*
X12107000Y-4573000D01*
X12057000Y-4623000D01*
X12107000Y-4673000D01*
X12107000Y-4927000D02*
X12157000Y-4877000D01*
X12107000Y-4827000D01*
X12057000Y-4877000D01*
X12107000Y-4927000D01*
X12361000Y-4673000D02*
X12411000Y-4623000D01*
X12361000Y-4573000D01*
X12311000Y-4623000D01*
X12361000Y-4673000D01*
X12361000Y-4927000D02*
X12411000Y-4877000D01*
X12361000Y-4827000D01*
X12311000Y-4877000D01*
X12361000Y-4927000D01*
X12615000Y-4673000D02*
X12665000Y-4623000D01*
X12615000Y-4573000D01*
X12565000Y-4623000D01*
X12615000Y-4673000D01*
X12615000Y-4927000D02*
X12665000Y-4877000D01*
X12615000Y-4827000D01*
X12565000Y-4877000D01*
X12615000Y-4927000D01*
X12869000Y-4673000D02*
X12919000Y-4623000D01*
X12869000Y-4573000D01*
X12819000Y-4623000D01*
X12869000Y-4673000D01*
X12869000Y-4927000D02*
X12919000Y-4877000D01*
X12869000Y-4827000D01*
X12819000Y-4877000D01*
X12869000Y-4927000D01*
X13123000Y-4673000D02*
X13173000Y-4623000D01*
X13123000Y-4573000D01*
X13073000Y-4623000D01*
X13123000Y-4673000D01*
X13123000Y-4927000D02*
X13173000Y-4877000D01*
X13123000Y-4827000D01*
X13073000Y-4877000D01*
X13123000Y-4927000D01*
X13377000Y-4673000D02*
X13427000Y-4623000D01*
X13377000Y-4573000D01*
X13327000Y-4623000D01*
X13377000Y-4673000D01*
X13377000Y-4927000D02*
X13427000Y-4877000D01*
X13377000Y-4827000D01*
X13327000Y-4877000D01*
X13377000Y-4927000D01*
X13631000Y-4673000D02*
X13681000Y-4623000D01*
X13631000Y-4573000D01*
X13581000Y-4623000D01*
X13631000Y-4673000D01*
X13631000Y-4927000D02*
X13681000Y-4877000D01*
X13631000Y-4827000D01*
X13581000Y-4877000D01*
X13631000Y-4927000D01*
X13885000Y-4673000D02*
X13935000Y-4623000D01*
X13885000Y-4573000D01*
X13835000Y-4623000D01*
X13885000Y-4673000D01*
X13885000Y-4927000D02*
X13935000Y-4877000D01*
X13885000Y-4827000D01*
X13835000Y-4877000D01*
X13885000Y-4927000D01*
X14139000Y-4673000D02*
X14189000Y-4623000D01*
X14139000Y-4573000D01*
X14089000Y-4623000D01*
X14139000Y-4673000D01*
X14139000Y-4927000D02*
X14189000Y-4877000D01*
X14139000Y-4827000D01*
X14089000Y-4877000D01*
X14139000Y-4927000D01*
X14393000Y-4673000D02*
X14443000Y-4623000D01*
X14393000Y-4573000D01*
X14343000Y-4623000D01*
X14393000Y-4673000D01*
X14393000Y-4927000D02*
X14443000Y-4877000D01*
X14393000Y-4827000D01*
X14343000Y-4877000D01*
X14393000Y-4927000D01*
X14647000Y-4673000D02*
X14697000Y-4623000D01*
X14647000Y-4573000D01*
X14597000Y-4623000D01*
X14647000Y-4673000D01*
X14647000Y-4927000D02*
X14697000Y-4877000D01*
X14647000Y-4827000D01*
X14597000Y-4877000D01*
X14647000Y-4927000D01*
X14901000Y-4673000D02*
X14951000Y-4623000D01*
X14901000Y-4573000D01*
X14851000Y-4623000D01*
X14901000Y-4673000D01*
X14901000Y-4927000D02*
X14951000Y-4877000D01*
X14901000Y-4827000D01*
X14851000Y-4877000D01*
X14901000Y-4927000D01*
X15155000Y-4673000D02*
X15205000Y-4623000D01*
X15155000Y-4573000D01*
X15105000Y-4623000D01*
X15155000Y-4673000D01*
X15155000Y-4927000D02*
X15205000Y-4877000D01*
X15155000Y-4827000D01*
X15105000Y-4877000D01*
X15155000Y-4927000D01*
X15409000Y-4673000D02*
X15459000Y-4623000D01*
X15409000Y-4573000D01*
X15359000Y-4623000D01*
X15409000Y-4673000D01*
X15409000Y-4927000D02*
X15459000Y-4877000D01*
X15409000Y-4827000D01*
X15359000Y-4877000D01*
X15409000Y-4927000D01*
X15663000Y-4673000D02*
X15713000Y-4623000D01*
X15663000Y-4573000D01*
X15613000Y-4623000D01*
X15663000Y-4673000D01*
X15663000Y-4927000D02*
X15713000Y-4877000D01*
X15663000Y-4827000D01*
X15613000Y-4877000D01*
X15663000Y-4927000D01*
D12*
X10489500Y-5692000D02*
X10603500Y-5806000D01*
X10603500Y-5692000D02*
X10489500Y-5806000D01*
X10603500Y-5749000D02*
G75*
G02*
X10489500Y-5749000I-57000J0D01*
G01*
X10489500Y-5749000D02*
G75*
G02*
X10603500Y-5749000I57000J0D01*
G01*
X10489500Y-7724000D02*
X10603500Y-7838000D01*
X10603500Y-7724000D02*
X10489500Y-7838000D01*
X10603500Y-7781000D02*
G75*
G02*
X10489500Y-7781000I-57000J0D01*
G01*
X10489500Y-7781000D02*
G75*
G02*
X10603500Y-7781000I57000J0D01*
G01*
X11251500Y-5692000D02*
X11365500Y-5806000D01*
X11365500Y-5692000D02*
X11251500Y-5806000D01*
X11365500Y-5749000D02*
G75*
G02*
X11251500Y-5749000I-57000J0D01*
G01*
X11251500Y-5749000D02*
G75*
G02*
X11365500Y-5749000I57000J0D01*
G01*
X11505500Y-7724000D02*
X11619500Y-7838000D01*
X11619500Y-7724000D02*
X11505500Y-7838000D01*
X11619500Y-7781000D02*
G75*
G02*
X11505500Y-7781000I-57000J0D01*
G01*
X11505500Y-7781000D02*
G75*
G02*
X11619500Y-7781000I57000J0D01*
G01*
X11759500Y-5692000D02*
X11873500Y-5806000D01*
X11873500Y-5692000D02*
X11759500Y-5806000D01*
X11873500Y-5749000D02*
G75*
G02*
X11759500Y-5749000I-57000J0D01*
G01*
X11759500Y-5749000D02*
G75*
G02*
X11873500Y-5749000I57000J0D01*
G01*
X12521500Y-7724000D02*
X12635500Y-7838000D01*
X12635500Y-7724000D02*
X12521500Y-7838000D01*
X12635500Y-7781000D02*
G75*
G02*
X12521500Y-7781000I-57000J0D01*
G01*
X12521500Y-7781000D02*
G75*
G02*
X12635500Y-7781000I57000J0D01*
G01*
D13*
X10957500Y-8437500D02*
X11077500Y-8557500D01*
X11077500Y-8437500D02*
X10957500Y-8557500D01*
X11017500Y-8437500D02*
X11017500Y-8557500D01*
X10957500Y-8497500D02*
X11077500Y-8497500D01*
D14*
X12613400Y-9542000D02*
X12943600Y-9872200D01*
X12943600Y-9542000D02*
X12613400Y-9872200D01*
X12895244Y-9823844D02*
X12895244Y-9590356D01*
X12661756Y-9590356D01*
X12661756Y-9823844D01*
X12895244Y-9823844D01*
X13756400Y-9542000D02*
X14086600Y-9872200D01*
X14086600Y-9542000D02*
X13756400Y-9872200D01*
X14038244Y-9823844D02*
X14038244Y-9590356D01*
X13804756Y-9590356D01*
X13804756Y-9823844D01*
X14038244Y-9823844D01*
D11*
X10255777Y-10316484D02*
X10255777Y-10116484D01*
X10255777Y-10116484D02*
X10303396Y-10116484D01*
X10303396Y-10116484D02*
X10331967Y-10126008D01*
X10331967Y-10126008D02*
X10351015Y-10145055D01*
X10351015Y-10145055D02*
X10360539Y-10164103D01*
X10360539Y-10164103D02*
X10370063Y-10202198D01*
X10370063Y-10202198D02*
X10370063Y-10230770D01*
X10370063Y-10230770D02*
X10360539Y-10268865D01*
X10360539Y-10268865D02*
X10351015Y-10287912D01*
X10351015Y-10287912D02*
X10331967Y-10306960D01*
X10331967Y-10306960D02*
X10303396Y-10316484D01*
X10303396Y-10316484D02*
X10255777Y-10316484D01*
X10455777Y-10316484D02*
X10455777Y-10183150D01*
X10455777Y-10221246D02*
X10465301Y-10202198D01*
X10465301Y-10202198D02*
X10474824Y-10192674D01*
X10474824Y-10192674D02*
X10493872Y-10183150D01*
X10493872Y-10183150D02*
X10512920Y-10183150D01*
X10579586Y-10316484D02*
X10579586Y-10183150D01*
X10579586Y-10116484D02*
X10570063Y-10126008D01*
X10570063Y-10126008D02*
X10579586Y-10135531D01*
X10579586Y-10135531D02*
X10589110Y-10126008D01*
X10589110Y-10126008D02*
X10579586Y-10116484D01*
X10579586Y-10116484D02*
X10579586Y-10135531D01*
X10703396Y-10316484D02*
X10684348Y-10306960D01*
X10684348Y-10306960D02*
X10674824Y-10287912D01*
X10674824Y-10287912D02*
X10674824Y-10116484D01*
X10808158Y-10316484D02*
X10789110Y-10306960D01*
X10789110Y-10306960D02*
X10779586Y-10287912D01*
X10779586Y-10287912D02*
X10779586Y-10116484D01*
X11036729Y-10316484D02*
X11036729Y-10116484D01*
X11036729Y-10116484D02*
X11103396Y-10259341D01*
X11103396Y-10259341D02*
X11170063Y-10116484D01*
X11170063Y-10116484D02*
X11170063Y-10316484D01*
X11351015Y-10316484D02*
X11351015Y-10211722D01*
X11351015Y-10211722D02*
X11341491Y-10192674D01*
X11341491Y-10192674D02*
X11322443Y-10183150D01*
X11322443Y-10183150D02*
X11284348Y-10183150D01*
X11284348Y-10183150D02*
X11265301Y-10192674D01*
X11351015Y-10306960D02*
X11331967Y-10316484D01*
X11331967Y-10316484D02*
X11284348Y-10316484D01*
X11284348Y-10316484D02*
X11265301Y-10306960D01*
X11265301Y-10306960D02*
X11255777Y-10287912D01*
X11255777Y-10287912D02*
X11255777Y-10268865D01*
X11255777Y-10268865D02*
X11265301Y-10249817D01*
X11265301Y-10249817D02*
X11284348Y-10240293D01*
X11284348Y-10240293D02*
X11331967Y-10240293D01*
X11331967Y-10240293D02*
X11351015Y-10230770D01*
X11446253Y-10183150D02*
X11446253Y-10383150D01*
X11446253Y-10192674D02*
X11465301Y-10183150D01*
X11465301Y-10183150D02*
X11503396Y-10183150D01*
X11503396Y-10183150D02*
X11522443Y-10192674D01*
X11522443Y-10192674D02*
X11531967Y-10202198D01*
X11531967Y-10202198D02*
X11541491Y-10221246D01*
X11541491Y-10221246D02*
X11541491Y-10278389D01*
X11541491Y-10278389D02*
X11531967Y-10297436D01*
X11531967Y-10297436D02*
X11522443Y-10306960D01*
X11522443Y-10306960D02*
X11503396Y-10316484D01*
X11503396Y-10316484D02*
X11465301Y-10316484D01*
X11465301Y-10316484D02*
X11446253Y-10306960D01*
X11627205Y-10297436D02*
X11636729Y-10306960D01*
X11636729Y-10306960D02*
X11627205Y-10316484D01*
X11627205Y-10316484D02*
X11617682Y-10306960D01*
X11617682Y-10306960D02*
X11627205Y-10297436D01*
X11627205Y-10297436D02*
X11627205Y-10316484D01*
X11627205Y-10192674D02*
X11636729Y-10202198D01*
X11636729Y-10202198D02*
X11627205Y-10211722D01*
X11627205Y-10211722D02*
X11617682Y-10202198D01*
X11617682Y-10202198D02*
X11627205Y-10192674D01*
X11627205Y-10192674D02*
X11627205Y-10211722D01*
D10*
X9935000Y-10615000D02*
X9995000Y-10675000D01*
X9995000Y-10615000D02*
X9935000Y-10675000D01*
D11*
X10293872Y-10536484D02*
X10312920Y-10536484D01*
X10312920Y-10536484D02*
X10331967Y-10546008D01*
X10331967Y-10546008D02*
X10341491Y-10555531D01*
X10341491Y-10555531D02*
X10351015Y-10574579D01*
X10351015Y-10574579D02*
X10360539Y-10612674D01*
X10360539Y-10612674D02*
X10360539Y-10660293D01*
X10360539Y-10660293D02*
X10351015Y-10698389D01*
X10351015Y-10698389D02*
X10341491Y-10717436D01*
X10341491Y-10717436D02*
X10331967Y-10726960D01*
X10331967Y-10726960D02*
X10312920Y-10736484D01*
X10312920Y-10736484D02*
X10293872Y-10736484D01*
X10293872Y-10736484D02*
X10274824Y-10726960D01*
X10274824Y-10726960D02*
X10265301Y-10717436D01*
X10265301Y-10717436D02*
X10255777Y-10698389D01*
X10255777Y-10698389D02*
X10246253Y-10660293D01*
X10246253Y-10660293D02*
X10246253Y-10612674D01*
X10246253Y-10612674D02*
X10255777Y-10574579D01*
X10255777Y-10574579D02*
X10265301Y-10555531D01*
X10265301Y-10555531D02*
X10274824Y-10546008D01*
X10274824Y-10546008D02*
X10293872Y-10536484D01*
X10446253Y-10717436D02*
X10455777Y-10726960D01*
X10455777Y-10726960D02*
X10446253Y-10736484D01*
X10446253Y-10736484D02*
X10436729Y-10726960D01*
X10436729Y-10726960D02*
X10446253Y-10717436D01*
X10446253Y-10717436D02*
X10446253Y-10736484D01*
X10627205Y-10536484D02*
X10589110Y-10536484D01*
X10589110Y-10536484D02*
X10570063Y-10546008D01*
X10570063Y-10546008D02*
X10560539Y-10555531D01*
X10560539Y-10555531D02*
X10541491Y-10584103D01*
X10541491Y-10584103D02*
X10531967Y-10622198D01*
X10531967Y-10622198D02*
X10531967Y-10698389D01*
X10531967Y-10698389D02*
X10541491Y-10717436D01*
X10541491Y-10717436D02*
X10551015Y-10726960D01*
X10551015Y-10726960D02*
X10570063Y-10736484D01*
X10570063Y-10736484D02*
X10608158Y-10736484D01*
X10608158Y-10736484D02*
X10627205Y-10726960D01*
X10627205Y-10726960D02*
X10636729Y-10717436D01*
X10636729Y-10717436D02*
X10646253Y-10698389D01*
X10646253Y-10698389D02*
X10646253Y-10650770D01*
X10646253Y-10650770D02*
X10636729Y-10631722D01*
X10636729Y-10631722D02*
X10627205Y-10622198D01*
X10627205Y-10622198D02*
X10608158Y-10612674D01*
X10608158Y-10612674D02*
X10570063Y-10612674D01*
X10570063Y-10612674D02*
X10551015Y-10622198D01*
X10551015Y-10622198D02*
X10541491Y-10631722D01*
X10541491Y-10631722D02*
X10531967Y-10650770D01*
X10770063Y-10536484D02*
X10789110Y-10536484D01*
X10789110Y-10536484D02*
X10808158Y-10546008D01*
X10808158Y-10546008D02*
X10817682Y-10555531D01*
X10817682Y-10555531D02*
X10827205Y-10574579D01*
X10827205Y-10574579D02*
X10836729Y-10612674D01*
X10836729Y-10612674D02*
X10836729Y-10660293D01*
X10836729Y-10660293D02*
X10827205Y-10698389D01*
X10827205Y-10698389D02*
X10817682Y-10717436D01*
X10817682Y-10717436D02*
X10808158Y-10726960D01*
X10808158Y-10726960D02*
X10789110Y-10736484D01*
X10789110Y-10736484D02*
X10770063Y-10736484D01*
X10770063Y-10736484D02*
X10751015Y-10726960D01*
X10751015Y-10726960D02*
X10741491Y-10717436D01*
X10741491Y-10717436D02*
X10731967Y-10698389D01*
X10731967Y-10698389D02*
X10722444Y-10660293D01*
X10722444Y-10660293D02*
X10722444Y-10612674D01*
X10722444Y-10612674D02*
X10731967Y-10574579D01*
X10731967Y-10574579D02*
X10741491Y-10555531D01*
X10741491Y-10555531D02*
X10751015Y-10546008D01*
X10751015Y-10546008D02*
X10770063Y-10536484D01*
X10960539Y-10536484D02*
X10979586Y-10536484D01*
X10979586Y-10536484D02*
X10998634Y-10546008D01*
X10998634Y-10546008D02*
X11008158Y-10555531D01*
X11008158Y-10555531D02*
X11017682Y-10574579D01*
X11017682Y-10574579D02*
X11027205Y-10612674D01*
X11027205Y-10612674D02*
X11027205Y-10660293D01*
X11027205Y-10660293D02*
X11017682Y-10698389D01*
X11017682Y-10698389D02*
X11008158Y-10717436D01*
X11008158Y-10717436D02*
X10998634Y-10726960D01*
X10998634Y-10726960D02*
X10979586Y-10736484D01*
X10979586Y-10736484D02*
X10960539Y-10736484D01*
X10960539Y-10736484D02*
X10941491Y-10726960D01*
X10941491Y-10726960D02*
X10931967Y-10717436D01*
X10931967Y-10717436D02*
X10922444Y-10698389D01*
X10922444Y-10698389D02*
X10912920Y-10660293D01*
X10912920Y-10660293D02*
X10912920Y-10612674D01*
X10912920Y-10612674D02*
X10922444Y-10574579D01*
X10922444Y-10574579D02*
X10931967Y-10555531D01*
X10931967Y-10555531D02*
X10941491Y-10546008D01*
X10941491Y-10546008D02*
X10960539Y-10536484D01*
X11112920Y-10736484D02*
X11112920Y-10603150D01*
X11112920Y-10622198D02*
X11122444Y-10612674D01*
X11122444Y-10612674D02*
X11141491Y-10603150D01*
X11141491Y-10603150D02*
X11170063Y-10603150D01*
X11170063Y-10603150D02*
X11189110Y-10612674D01*
X11189110Y-10612674D02*
X11198634Y-10631722D01*
X11198634Y-10631722D02*
X11198634Y-10736484D01*
X11198634Y-10631722D02*
X11208158Y-10612674D01*
X11208158Y-10612674D02*
X11227205Y-10603150D01*
X11227205Y-10603150D02*
X11255777Y-10603150D01*
X11255777Y-10603150D02*
X11274824Y-10612674D01*
X11274824Y-10612674D02*
X11284348Y-10631722D01*
X11284348Y-10631722D02*
X11284348Y-10736484D01*
X11379586Y-10736484D02*
X11379586Y-10603150D01*
X11379586Y-10622198D02*
X11389110Y-10612674D01*
X11389110Y-10612674D02*
X11408158Y-10603150D01*
X11408158Y-10603150D02*
X11436729Y-10603150D01*
X11436729Y-10603150D02*
X11455777Y-10612674D01*
X11455777Y-10612674D02*
X11465301Y-10631722D01*
X11465301Y-10631722D02*
X11465301Y-10736484D01*
X11465301Y-10631722D02*
X11474824Y-10612674D01*
X11474824Y-10612674D02*
X11493872Y-10603150D01*
X11493872Y-10603150D02*
X11522443Y-10603150D01*
X11522443Y-10603150D02*
X11541491Y-10612674D01*
X11541491Y-10612674D02*
X11551015Y-10631722D01*
X11551015Y-10631722D02*
X11551015Y-10736484D01*
X11941491Y-10526960D02*
X11770063Y-10784103D01*
X12198634Y-10536484D02*
X12217682Y-10536484D01*
X12217682Y-10536484D02*
X12236729Y-10546008D01*
X12236729Y-10546008D02*
X12246253Y-10555531D01*
X12246253Y-10555531D02*
X12255777Y-10574579D01*
X12255777Y-10574579D02*
X12265301Y-10612674D01*
X12265301Y-10612674D02*
X12265301Y-10660293D01*
X12265301Y-10660293D02*
X12255777Y-10698389D01*
X12255777Y-10698389D02*
X12246253Y-10717436D01*
X12246253Y-10717436D02*
X12236729Y-10726960D01*
X12236729Y-10726960D02*
X12217682Y-10736484D01*
X12217682Y-10736484D02*
X12198634Y-10736484D01*
X12198634Y-10736484D02*
X12179586Y-10726960D01*
X12179586Y-10726960D02*
X12170063Y-10717436D01*
X12170063Y-10717436D02*
X12160539Y-10698389D01*
X12160539Y-10698389D02*
X12151015Y-10660293D01*
X12151015Y-10660293D02*
X12151015Y-10612674D01*
X12151015Y-10612674D02*
X12160539Y-10574579D01*
X12160539Y-10574579D02*
X12170063Y-10555531D01*
X12170063Y-10555531D02*
X12179586Y-10546008D01*
X12179586Y-10546008D02*
X12198634Y-10536484D01*
X12351015Y-10717436D02*
X12360539Y-10726960D01*
X12360539Y-10726960D02*
X12351015Y-10736484D01*
X12351015Y-10736484D02*
X12341491Y-10726960D01*
X12341491Y-10726960D02*
X12351015Y-10717436D01*
X12351015Y-10717436D02*
X12351015Y-10736484D01*
X12484348Y-10536484D02*
X12503396Y-10536484D01*
X12503396Y-10536484D02*
X12522444Y-10546008D01*
X12522444Y-10546008D02*
X12531967Y-10555531D01*
X12531967Y-10555531D02*
X12541491Y-10574579D01*
X12541491Y-10574579D02*
X12551015Y-10612674D01*
X12551015Y-10612674D02*
X12551015Y-10660293D01*
X12551015Y-10660293D02*
X12541491Y-10698389D01*
X12541491Y-10698389D02*
X12531967Y-10717436D01*
X12531967Y-10717436D02*
X12522444Y-10726960D01*
X12522444Y-10726960D02*
X12503396Y-10736484D01*
X12503396Y-10736484D02*
X12484348Y-10736484D01*
X12484348Y-10736484D02*
X12465301Y-10726960D01*
X12465301Y-10726960D02*
X12455777Y-10717436D01*
X12455777Y-10717436D02*
X12446253Y-10698389D01*
X12446253Y-10698389D02*
X12436729Y-10660293D01*
X12436729Y-10660293D02*
X12436729Y-10612674D01*
X12436729Y-10612674D02*
X12446253Y-10574579D01*
X12446253Y-10574579D02*
X12455777Y-10555531D01*
X12455777Y-10555531D02*
X12465301Y-10546008D01*
X12465301Y-10546008D02*
X12484348Y-10536484D01*
X12627206Y-10555531D02*
X12636729Y-10546008D01*
X12636729Y-10546008D02*
X12655777Y-10536484D01*
X12655777Y-10536484D02*
X12703396Y-10536484D01*
X12703396Y-10536484D02*
X12722444Y-10546008D01*
X12722444Y-10546008D02*
X12731967Y-10555531D01*
X12731967Y-10555531D02*
X12741491Y-10574579D01*
X12741491Y-10574579D02*
X12741491Y-10593627D01*
X12741491Y-10593627D02*
X12731967Y-10622198D01*
X12731967Y-10622198D02*
X12617682Y-10736484D01*
X12617682Y-10736484D02*
X12741491Y-10736484D01*
X12808158Y-10536484D02*
X12931967Y-10536484D01*
X12931967Y-10536484D02*
X12865301Y-10612674D01*
X12865301Y-10612674D02*
X12893872Y-10612674D01*
X12893872Y-10612674D02*
X12912920Y-10622198D01*
X12912920Y-10622198D02*
X12922444Y-10631722D01*
X12922444Y-10631722D02*
X12931967Y-10650770D01*
X12931967Y-10650770D02*
X12931967Y-10698389D01*
X12931967Y-10698389D02*
X12922444Y-10717436D01*
X12922444Y-10717436D02*
X12912920Y-10726960D01*
X12912920Y-10726960D02*
X12893872Y-10736484D01*
X12893872Y-10736484D02*
X12836729Y-10736484D01*
X12836729Y-10736484D02*
X12817682Y-10726960D01*
X12817682Y-10726960D02*
X12808158Y-10717436D01*
X13103396Y-10536484D02*
X13065301Y-10536484D01*
X13065301Y-10536484D02*
X13046253Y-10546008D01*
X13046253Y-10546008D02*
X13036729Y-10555531D01*
X13036729Y-10555531D02*
X13017682Y-10584103D01*
X13017682Y-10584103D02*
X13008158Y-10622198D01*
X13008158Y-10622198D02*
X13008158Y-10698389D01*
X13008158Y-10698389D02*
X13017682Y-10717436D01*
X13017682Y-10717436D02*
X13027206Y-10726960D01*
X13027206Y-10726960D02*
X13046253Y-10736484D01*
X13046253Y-10736484D02*
X13084348Y-10736484D01*
X13084348Y-10736484D02*
X13103396Y-10726960D01*
X13103396Y-10726960D02*
X13112920Y-10717436D01*
X13112920Y-10717436D02*
X13122444Y-10698389D01*
X13122444Y-10698389D02*
X13122444Y-10650770D01*
X13122444Y-10650770D02*
X13112920Y-10631722D01*
X13112920Y-10631722D02*
X13103396Y-10622198D01*
X13103396Y-10622198D02*
X13084348Y-10612674D01*
X13084348Y-10612674D02*
X13046253Y-10612674D01*
X13046253Y-10612674D02*
X13027206Y-10622198D01*
X13027206Y-10622198D02*
X13017682Y-10631722D01*
X13017682Y-10631722D02*
X13008158Y-10650770D01*
X13198634Y-10536484D02*
X13198634Y-10574579D01*
X13274825Y-10536484D02*
X13274825Y-10574579D01*
X13570063Y-10812674D02*
X13560539Y-10803150D01*
X13560539Y-10803150D02*
X13541491Y-10774579D01*
X13541491Y-10774579D02*
X13531968Y-10755531D01*
X13531968Y-10755531D02*
X13522444Y-10726960D01*
X13522444Y-10726960D02*
X13512920Y-10679341D01*
X13512920Y-10679341D02*
X13512920Y-10641246D01*
X13512920Y-10641246D02*
X13522444Y-10593627D01*
X13522444Y-10593627D02*
X13531968Y-10565055D01*
X13531968Y-10565055D02*
X13541491Y-10546008D01*
X13541491Y-10546008D02*
X13560539Y-10517436D01*
X13560539Y-10517436D02*
X13570063Y-10507912D01*
X13731968Y-10603150D02*
X13731968Y-10736484D01*
X13684348Y-10526960D02*
X13636729Y-10669817D01*
X13636729Y-10669817D02*
X13760539Y-10669817D01*
X13874825Y-10536484D02*
X13893872Y-10536484D01*
X13893872Y-10536484D02*
X13912920Y-10546008D01*
X13912920Y-10546008D02*
X13922444Y-10555531D01*
X13922444Y-10555531D02*
X13931968Y-10574579D01*
X13931968Y-10574579D02*
X13941491Y-10612674D01*
X13941491Y-10612674D02*
X13941491Y-10660293D01*
X13941491Y-10660293D02*
X13931968Y-10698389D01*
X13931968Y-10698389D02*
X13922444Y-10717436D01*
X13922444Y-10717436D02*
X13912920Y-10726960D01*
X13912920Y-10726960D02*
X13893872Y-10736484D01*
X13893872Y-10736484D02*
X13874825Y-10736484D01*
X13874825Y-10736484D02*
X13855777Y-10726960D01*
X13855777Y-10726960D02*
X13846253Y-10717436D01*
X13846253Y-10717436D02*
X13836729Y-10698389D01*
X13836729Y-10698389D02*
X13827206Y-10660293D01*
X13827206Y-10660293D02*
X13827206Y-10612674D01*
X13827206Y-10612674D02*
X13836729Y-10574579D01*
X13836729Y-10574579D02*
X13846253Y-10555531D01*
X13846253Y-10555531D02*
X13855777Y-10546008D01*
X13855777Y-10546008D02*
X13874825Y-10536484D01*
X14179587Y-10736484D02*
X14179587Y-10536484D01*
X14265301Y-10736484D02*
X14265301Y-10631722D01*
X14265301Y-10631722D02*
X14255777Y-10612674D01*
X14255777Y-10612674D02*
X14236730Y-10603150D01*
X14236730Y-10603150D02*
X14208158Y-10603150D01*
X14208158Y-10603150D02*
X14189110Y-10612674D01*
X14189110Y-10612674D02*
X14179587Y-10622198D01*
X14389110Y-10736484D02*
X14370063Y-10726960D01*
X14370063Y-10726960D02*
X14360539Y-10717436D01*
X14360539Y-10717436D02*
X14351015Y-10698389D01*
X14351015Y-10698389D02*
X14351015Y-10641246D01*
X14351015Y-10641246D02*
X14360539Y-10622198D01*
X14360539Y-10622198D02*
X14370063Y-10612674D01*
X14370063Y-10612674D02*
X14389110Y-10603150D01*
X14389110Y-10603150D02*
X14417682Y-10603150D01*
X14417682Y-10603150D02*
X14436730Y-10612674D01*
X14436730Y-10612674D02*
X14446253Y-10622198D01*
X14446253Y-10622198D02*
X14455777Y-10641246D01*
X14455777Y-10641246D02*
X14455777Y-10698389D01*
X14455777Y-10698389D02*
X14446253Y-10717436D01*
X14446253Y-10717436D02*
X14436730Y-10726960D01*
X14436730Y-10726960D02*
X14417682Y-10736484D01*
X14417682Y-10736484D02*
X14389110Y-10736484D01*
X14570063Y-10736484D02*
X14551015Y-10726960D01*
X14551015Y-10726960D02*
X14541491Y-10707912D01*
X14541491Y-10707912D02*
X14541491Y-10536484D01*
X14722444Y-10726960D02*
X14703396Y-10736484D01*
X14703396Y-10736484D02*
X14665301Y-10736484D01*
X14665301Y-10736484D02*
X14646253Y-10726960D01*
X14646253Y-10726960D02*
X14636730Y-10707912D01*
X14636730Y-10707912D02*
X14636730Y-10631722D01*
X14636730Y-10631722D02*
X14646253Y-10612674D01*
X14646253Y-10612674D02*
X14665301Y-10603150D01*
X14665301Y-10603150D02*
X14703396Y-10603150D01*
X14703396Y-10603150D02*
X14722444Y-10612674D01*
X14722444Y-10612674D02*
X14731968Y-10631722D01*
X14731968Y-10631722D02*
X14731968Y-10650770D01*
X14731968Y-10650770D02*
X14636730Y-10669817D01*
X14808158Y-10726960D02*
X14827206Y-10736484D01*
X14827206Y-10736484D02*
X14865301Y-10736484D01*
X14865301Y-10736484D02*
X14884349Y-10726960D01*
X14884349Y-10726960D02*
X14893872Y-10707912D01*
X14893872Y-10707912D02*
X14893872Y-10698389D01*
X14893872Y-10698389D02*
X14884349Y-10679341D01*
X14884349Y-10679341D02*
X14865301Y-10669817D01*
X14865301Y-10669817D02*
X14836730Y-10669817D01*
X14836730Y-10669817D02*
X14817682Y-10660293D01*
X14817682Y-10660293D02*
X14808158Y-10641246D01*
X14808158Y-10641246D02*
X14808158Y-10631722D01*
X14808158Y-10631722D02*
X14817682Y-10612674D01*
X14817682Y-10612674D02*
X14836730Y-10603150D01*
X14836730Y-10603150D02*
X14865301Y-10603150D01*
X14865301Y-10603150D02*
X14884349Y-10612674D01*
X14960539Y-10812674D02*
X14970063Y-10803150D01*
X14970063Y-10803150D02*
X14989111Y-10774579D01*
X14989111Y-10774579D02*
X14998634Y-10755531D01*
X14998634Y-10755531D02*
X15008158Y-10726960D01*
X15008158Y-10726960D02*
X15017682Y-10679341D01*
X15017682Y-10679341D02*
X15017682Y-10641246D01*
X15017682Y-10641246D02*
X15008158Y-10593627D01*
X15008158Y-10593627D02*
X14998634Y-10565055D01*
X14998634Y-10565055D02*
X14989111Y-10546008D01*
X14989111Y-10546008D02*
X14970063Y-10517436D01*
X14970063Y-10517436D02*
X14960539Y-10507912D01*
D10*
X9995000Y-10909000D02*
G75*
G02*
X9935000Y-10909000I-30000J0D01*
G01*
X9935000Y-10909000D02*
G75*
G02*
X9995000Y-10909000I30000J0D01*
G01*
D11*
X10293872Y-10800484D02*
X10312920Y-10800484D01*
X10312920Y-10800484D02*
X10331967Y-10810008D01*
X10331967Y-10810008D02*
X10341491Y-10819531D01*
X10341491Y-10819531D02*
X10351015Y-10838579D01*
X10351015Y-10838579D02*
X10360539Y-10876674D01*
X10360539Y-10876674D02*
X10360539Y-10924293D01*
X10360539Y-10924293D02*
X10351015Y-10962389D01*
X10351015Y-10962389D02*
X10341491Y-10981436D01*
X10341491Y-10981436D02*
X10331967Y-10990960D01*
X10331967Y-10990960D02*
X10312920Y-11000484D01*
X10312920Y-11000484D02*
X10293872Y-11000484D01*
X10293872Y-11000484D02*
X10274824Y-10990960D01*
X10274824Y-10990960D02*
X10265301Y-10981436D01*
X10265301Y-10981436D02*
X10255777Y-10962389D01*
X10255777Y-10962389D02*
X10246253Y-10924293D01*
X10246253Y-10924293D02*
X10246253Y-10876674D01*
X10246253Y-10876674D02*
X10255777Y-10838579D01*
X10255777Y-10838579D02*
X10265301Y-10819531D01*
X10265301Y-10819531D02*
X10274824Y-10810008D01*
X10274824Y-10810008D02*
X10293872Y-10800484D01*
X10446253Y-10981436D02*
X10455777Y-10990960D01*
X10455777Y-10990960D02*
X10446253Y-11000484D01*
X10446253Y-11000484D02*
X10436729Y-10990960D01*
X10436729Y-10990960D02*
X10446253Y-10981436D01*
X10446253Y-10981436D02*
X10446253Y-11000484D01*
X10627205Y-10800484D02*
X10589110Y-10800484D01*
X10589110Y-10800484D02*
X10570063Y-10810008D01*
X10570063Y-10810008D02*
X10560539Y-10819531D01*
X10560539Y-10819531D02*
X10541491Y-10848103D01*
X10541491Y-10848103D02*
X10531967Y-10886198D01*
X10531967Y-10886198D02*
X10531967Y-10962389D01*
X10531967Y-10962389D02*
X10541491Y-10981436D01*
X10541491Y-10981436D02*
X10551015Y-10990960D01*
X10551015Y-10990960D02*
X10570063Y-11000484D01*
X10570063Y-11000484D02*
X10608158Y-11000484D01*
X10608158Y-11000484D02*
X10627205Y-10990960D01*
X10627205Y-10990960D02*
X10636729Y-10981436D01*
X10636729Y-10981436D02*
X10646253Y-10962389D01*
X10646253Y-10962389D02*
X10646253Y-10914770D01*
X10646253Y-10914770D02*
X10636729Y-10895722D01*
X10636729Y-10895722D02*
X10627205Y-10886198D01*
X10627205Y-10886198D02*
X10608158Y-10876674D01*
X10608158Y-10876674D02*
X10570063Y-10876674D01*
X10570063Y-10876674D02*
X10551015Y-10886198D01*
X10551015Y-10886198D02*
X10541491Y-10895722D01*
X10541491Y-10895722D02*
X10531967Y-10914770D01*
X10770063Y-10800484D02*
X10789110Y-10800484D01*
X10789110Y-10800484D02*
X10808158Y-10810008D01*
X10808158Y-10810008D02*
X10817682Y-10819531D01*
X10817682Y-10819531D02*
X10827205Y-10838579D01*
X10827205Y-10838579D02*
X10836729Y-10876674D01*
X10836729Y-10876674D02*
X10836729Y-10924293D01*
X10836729Y-10924293D02*
X10827205Y-10962389D01*
X10827205Y-10962389D02*
X10817682Y-10981436D01*
X10817682Y-10981436D02*
X10808158Y-10990960D01*
X10808158Y-10990960D02*
X10789110Y-11000484D01*
X10789110Y-11000484D02*
X10770063Y-11000484D01*
X10770063Y-11000484D02*
X10751015Y-10990960D01*
X10751015Y-10990960D02*
X10741491Y-10981436D01*
X10741491Y-10981436D02*
X10731967Y-10962389D01*
X10731967Y-10962389D02*
X10722444Y-10924293D01*
X10722444Y-10924293D02*
X10722444Y-10876674D01*
X10722444Y-10876674D02*
X10731967Y-10838579D01*
X10731967Y-10838579D02*
X10741491Y-10819531D01*
X10741491Y-10819531D02*
X10751015Y-10810008D01*
X10751015Y-10810008D02*
X10770063Y-10800484D01*
X10960539Y-10800484D02*
X10979586Y-10800484D01*
X10979586Y-10800484D02*
X10998634Y-10810008D01*
X10998634Y-10810008D02*
X11008158Y-10819531D01*
X11008158Y-10819531D02*
X11017682Y-10838579D01*
X11017682Y-10838579D02*
X11027205Y-10876674D01*
X11027205Y-10876674D02*
X11027205Y-10924293D01*
X11027205Y-10924293D02*
X11017682Y-10962389D01*
X11017682Y-10962389D02*
X11008158Y-10981436D01*
X11008158Y-10981436D02*
X10998634Y-10990960D01*
X10998634Y-10990960D02*
X10979586Y-11000484D01*
X10979586Y-11000484D02*
X10960539Y-11000484D01*
X10960539Y-11000484D02*
X10941491Y-10990960D01*
X10941491Y-10990960D02*
X10931967Y-10981436D01*
X10931967Y-10981436D02*
X10922444Y-10962389D01*
X10922444Y-10962389D02*
X10912920Y-10924293D01*
X10912920Y-10924293D02*
X10912920Y-10876674D01*
X10912920Y-10876674D02*
X10922444Y-10838579D01*
X10922444Y-10838579D02*
X10931967Y-10819531D01*
X10931967Y-10819531D02*
X10941491Y-10810008D01*
X10941491Y-10810008D02*
X10960539Y-10800484D01*
X11112920Y-11000484D02*
X11112920Y-10867150D01*
X11112920Y-10886198D02*
X11122444Y-10876674D01*
X11122444Y-10876674D02*
X11141491Y-10867150D01*
X11141491Y-10867150D02*
X11170063Y-10867150D01*
X11170063Y-10867150D02*
X11189110Y-10876674D01*
X11189110Y-10876674D02*
X11198634Y-10895722D01*
X11198634Y-10895722D02*
X11198634Y-11000484D01*
X11198634Y-10895722D02*
X11208158Y-10876674D01*
X11208158Y-10876674D02*
X11227205Y-10867150D01*
X11227205Y-10867150D02*
X11255777Y-10867150D01*
X11255777Y-10867150D02*
X11274824Y-10876674D01*
X11274824Y-10876674D02*
X11284348Y-10895722D01*
X11284348Y-10895722D02*
X11284348Y-11000484D01*
X11379586Y-11000484D02*
X11379586Y-10867150D01*
X11379586Y-10886198D02*
X11389110Y-10876674D01*
X11389110Y-10876674D02*
X11408158Y-10867150D01*
X11408158Y-10867150D02*
X11436729Y-10867150D01*
X11436729Y-10867150D02*
X11455777Y-10876674D01*
X11455777Y-10876674D02*
X11465301Y-10895722D01*
X11465301Y-10895722D02*
X11465301Y-11000484D01*
X11465301Y-10895722D02*
X11474824Y-10876674D01*
X11474824Y-10876674D02*
X11493872Y-10867150D01*
X11493872Y-10867150D02*
X11522443Y-10867150D01*
X11522443Y-10867150D02*
X11541491Y-10876674D01*
X11541491Y-10876674D02*
X11551015Y-10895722D01*
X11551015Y-10895722D02*
X11551015Y-11000484D01*
X11941491Y-10790960D02*
X11770063Y-11048103D01*
X12198634Y-10800484D02*
X12217682Y-10800484D01*
X12217682Y-10800484D02*
X12236729Y-10810008D01*
X12236729Y-10810008D02*
X12246253Y-10819531D01*
X12246253Y-10819531D02*
X12255777Y-10838579D01*
X12255777Y-10838579D02*
X12265301Y-10876674D01*
X12265301Y-10876674D02*
X12265301Y-10924293D01*
X12265301Y-10924293D02*
X12255777Y-10962389D01*
X12255777Y-10962389D02*
X12246253Y-10981436D01*
X12246253Y-10981436D02*
X12236729Y-10990960D01*
X12236729Y-10990960D02*
X12217682Y-11000484D01*
X12217682Y-11000484D02*
X12198634Y-11000484D01*
X12198634Y-11000484D02*
X12179586Y-10990960D01*
X12179586Y-10990960D02*
X12170063Y-10981436D01*
X12170063Y-10981436D02*
X12160539Y-10962389D01*
X12160539Y-10962389D02*
X12151015Y-10924293D01*
X12151015Y-10924293D02*
X12151015Y-10876674D01*
X12151015Y-10876674D02*
X12160539Y-10838579D01*
X12160539Y-10838579D02*
X12170063Y-10819531D01*
X12170063Y-10819531D02*
X12179586Y-10810008D01*
X12179586Y-10810008D02*
X12198634Y-10800484D01*
X12351015Y-10981436D02*
X12360539Y-10990960D01*
X12360539Y-10990960D02*
X12351015Y-11000484D01*
X12351015Y-11000484D02*
X12341491Y-10990960D01*
X12341491Y-10990960D02*
X12351015Y-10981436D01*
X12351015Y-10981436D02*
X12351015Y-11000484D01*
X12484348Y-10800484D02*
X12503396Y-10800484D01*
X12503396Y-10800484D02*
X12522444Y-10810008D01*
X12522444Y-10810008D02*
X12531967Y-10819531D01*
X12531967Y-10819531D02*
X12541491Y-10838579D01*
X12541491Y-10838579D02*
X12551015Y-10876674D01*
X12551015Y-10876674D02*
X12551015Y-10924293D01*
X12551015Y-10924293D02*
X12541491Y-10962389D01*
X12541491Y-10962389D02*
X12531967Y-10981436D01*
X12531967Y-10981436D02*
X12522444Y-10990960D01*
X12522444Y-10990960D02*
X12503396Y-11000484D01*
X12503396Y-11000484D02*
X12484348Y-11000484D01*
X12484348Y-11000484D02*
X12465301Y-10990960D01*
X12465301Y-10990960D02*
X12455777Y-10981436D01*
X12455777Y-10981436D02*
X12446253Y-10962389D01*
X12446253Y-10962389D02*
X12436729Y-10924293D01*
X12436729Y-10924293D02*
X12436729Y-10876674D01*
X12436729Y-10876674D02*
X12446253Y-10838579D01*
X12446253Y-10838579D02*
X12455777Y-10819531D01*
X12455777Y-10819531D02*
X12465301Y-10810008D01*
X12465301Y-10810008D02*
X12484348Y-10800484D01*
X12627206Y-10819531D02*
X12636729Y-10810008D01*
X12636729Y-10810008D02*
X12655777Y-10800484D01*
X12655777Y-10800484D02*
X12703396Y-10800484D01*
X12703396Y-10800484D02*
X12722444Y-10810008D01*
X12722444Y-10810008D02*
X12731967Y-10819531D01*
X12731967Y-10819531D02*
X12741491Y-10838579D01*
X12741491Y-10838579D02*
X12741491Y-10857627D01*
X12741491Y-10857627D02*
X12731967Y-10886198D01*
X12731967Y-10886198D02*
X12617682Y-11000484D01*
X12617682Y-11000484D02*
X12741491Y-11000484D01*
X12808158Y-10800484D02*
X12931967Y-10800484D01*
X12931967Y-10800484D02*
X12865301Y-10876674D01*
X12865301Y-10876674D02*
X12893872Y-10876674D01*
X12893872Y-10876674D02*
X12912920Y-10886198D01*
X12912920Y-10886198D02*
X12922444Y-10895722D01*
X12922444Y-10895722D02*
X12931967Y-10914770D01*
X12931967Y-10914770D02*
X12931967Y-10962389D01*
X12931967Y-10962389D02*
X12922444Y-10981436D01*
X12922444Y-10981436D02*
X12912920Y-10990960D01*
X12912920Y-10990960D02*
X12893872Y-11000484D01*
X12893872Y-11000484D02*
X12836729Y-11000484D01*
X12836729Y-11000484D02*
X12817682Y-10990960D01*
X12817682Y-10990960D02*
X12808158Y-10981436D01*
X13103396Y-10800484D02*
X13065301Y-10800484D01*
X13065301Y-10800484D02*
X13046253Y-10810008D01*
X13046253Y-10810008D02*
X13036729Y-10819531D01*
X13036729Y-10819531D02*
X13017682Y-10848103D01*
X13017682Y-10848103D02*
X13008158Y-10886198D01*
X13008158Y-10886198D02*
X13008158Y-10962389D01*
X13008158Y-10962389D02*
X13017682Y-10981436D01*
X13017682Y-10981436D02*
X13027206Y-10990960D01*
X13027206Y-10990960D02*
X13046253Y-11000484D01*
X13046253Y-11000484D02*
X13084348Y-11000484D01*
X13084348Y-11000484D02*
X13103396Y-10990960D01*
X13103396Y-10990960D02*
X13112920Y-10981436D01*
X13112920Y-10981436D02*
X13122444Y-10962389D01*
X13122444Y-10962389D02*
X13122444Y-10914770D01*
X13122444Y-10914770D02*
X13112920Y-10895722D01*
X13112920Y-10895722D02*
X13103396Y-10886198D01*
X13103396Y-10886198D02*
X13084348Y-10876674D01*
X13084348Y-10876674D02*
X13046253Y-10876674D01*
X13046253Y-10876674D02*
X13027206Y-10886198D01*
X13027206Y-10886198D02*
X13017682Y-10895722D01*
X13017682Y-10895722D02*
X13008158Y-10914770D01*
X13198634Y-10800484D02*
X13198634Y-10838579D01*
X13274825Y-10800484D02*
X13274825Y-10838579D01*
X13570063Y-11076674D02*
X13560539Y-11067150D01*
X13560539Y-11067150D02*
X13541491Y-11038579D01*
X13541491Y-11038579D02*
X13531968Y-11019531D01*
X13531968Y-11019531D02*
X13522444Y-10990960D01*
X13522444Y-10990960D02*
X13512920Y-10943341D01*
X13512920Y-10943341D02*
X13512920Y-10905246D01*
X13512920Y-10905246D02*
X13522444Y-10857627D01*
X13522444Y-10857627D02*
X13531968Y-10829055D01*
X13531968Y-10829055D02*
X13541491Y-10810008D01*
X13541491Y-10810008D02*
X13560539Y-10781436D01*
X13560539Y-10781436D02*
X13570063Y-10771912D01*
X13684348Y-10800484D02*
X13703396Y-10800484D01*
X13703396Y-10800484D02*
X13722444Y-10810008D01*
X13722444Y-10810008D02*
X13731968Y-10819531D01*
X13731968Y-10819531D02*
X13741491Y-10838579D01*
X13741491Y-10838579D02*
X13751015Y-10876674D01*
X13751015Y-10876674D02*
X13751015Y-10924293D01*
X13751015Y-10924293D02*
X13741491Y-10962389D01*
X13741491Y-10962389D02*
X13731968Y-10981436D01*
X13731968Y-10981436D02*
X13722444Y-10990960D01*
X13722444Y-10990960D02*
X13703396Y-11000484D01*
X13703396Y-11000484D02*
X13684348Y-11000484D01*
X13684348Y-11000484D02*
X13665301Y-10990960D01*
X13665301Y-10990960D02*
X13655777Y-10981436D01*
X13655777Y-10981436D02*
X13646253Y-10962389D01*
X13646253Y-10962389D02*
X13636729Y-10924293D01*
X13636729Y-10924293D02*
X13636729Y-10876674D01*
X13636729Y-10876674D02*
X13646253Y-10838579D01*
X13646253Y-10838579D02*
X13655777Y-10819531D01*
X13655777Y-10819531D02*
X13665301Y-10810008D01*
X13665301Y-10810008D02*
X13684348Y-10800484D01*
X13989110Y-11000484D02*
X13989110Y-10800484D01*
X14074825Y-11000484D02*
X14074825Y-10895722D01*
X14074825Y-10895722D02*
X14065301Y-10876674D01*
X14065301Y-10876674D02*
X14046253Y-10867150D01*
X14046253Y-10867150D02*
X14017682Y-10867150D01*
X14017682Y-10867150D02*
X13998634Y-10876674D01*
X13998634Y-10876674D02*
X13989110Y-10886198D01*
X14198634Y-11000484D02*
X14179587Y-10990960D01*
X14179587Y-10990960D02*
X14170063Y-10981436D01*
X14170063Y-10981436D02*
X14160539Y-10962389D01*
X14160539Y-10962389D02*
X14160539Y-10905246D01*
X14160539Y-10905246D02*
X14170063Y-10886198D01*
X14170063Y-10886198D02*
X14179587Y-10876674D01*
X14179587Y-10876674D02*
X14198634Y-10867150D01*
X14198634Y-10867150D02*
X14227206Y-10867150D01*
X14227206Y-10867150D02*
X14246253Y-10876674D01*
X14246253Y-10876674D02*
X14255777Y-10886198D01*
X14255777Y-10886198D02*
X14265301Y-10905246D01*
X14265301Y-10905246D02*
X14265301Y-10962389D01*
X14265301Y-10962389D02*
X14255777Y-10981436D01*
X14255777Y-10981436D02*
X14246253Y-10990960D01*
X14246253Y-10990960D02*
X14227206Y-11000484D01*
X14227206Y-11000484D02*
X14198634Y-11000484D01*
X14379587Y-11000484D02*
X14360539Y-10990960D01*
X14360539Y-10990960D02*
X14351015Y-10971912D01*
X14351015Y-10971912D02*
X14351015Y-10800484D01*
X14531968Y-10990960D02*
X14512920Y-11000484D01*
X14512920Y-11000484D02*
X14474825Y-11000484D01*
X14474825Y-11000484D02*
X14455777Y-10990960D01*
X14455777Y-10990960D02*
X14446253Y-10971912D01*
X14446253Y-10971912D02*
X14446253Y-10895722D01*
X14446253Y-10895722D02*
X14455777Y-10876674D01*
X14455777Y-10876674D02*
X14474825Y-10867150D01*
X14474825Y-10867150D02*
X14512920Y-10867150D01*
X14512920Y-10867150D02*
X14531968Y-10876674D01*
X14531968Y-10876674D02*
X14541491Y-10895722D01*
X14541491Y-10895722D02*
X14541491Y-10914770D01*
X14541491Y-10914770D02*
X14446253Y-10933817D01*
X14617682Y-10990960D02*
X14636730Y-11000484D01*
X14636730Y-11000484D02*
X14674825Y-11000484D01*
X14674825Y-11000484D02*
X14693872Y-10990960D01*
X14693872Y-10990960D02*
X14703396Y-10971912D01*
X14703396Y-10971912D02*
X14703396Y-10962389D01*
X14703396Y-10962389D02*
X14693872Y-10943341D01*
X14693872Y-10943341D02*
X14674825Y-10933817D01*
X14674825Y-10933817D02*
X14646253Y-10933817D01*
X14646253Y-10933817D02*
X14627206Y-10924293D01*
X14627206Y-10924293D02*
X14617682Y-10905246D01*
X14617682Y-10905246D02*
X14617682Y-10895722D01*
X14617682Y-10895722D02*
X14627206Y-10876674D01*
X14627206Y-10876674D02*
X14646253Y-10867150D01*
X14646253Y-10867150D02*
X14674825Y-10867150D01*
X14674825Y-10867150D02*
X14693872Y-10876674D01*
X14941492Y-10924293D02*
X15093873Y-10924293D01*
X15017682Y-11000484D02*
X15017682Y-10848103D01*
X15427206Y-10867150D02*
X15427206Y-11000484D01*
X15379587Y-10790960D02*
X15331968Y-10933817D01*
X15331968Y-10933817D02*
X15455777Y-10933817D01*
X15674825Y-10990960D02*
X15693873Y-11000484D01*
X15693873Y-11000484D02*
X15731968Y-11000484D01*
X15731968Y-11000484D02*
X15751015Y-10990960D01*
X15751015Y-10990960D02*
X15760539Y-10971912D01*
X15760539Y-10971912D02*
X15760539Y-10962389D01*
X15760539Y-10962389D02*
X15751015Y-10943341D01*
X15751015Y-10943341D02*
X15731968Y-10933817D01*
X15731968Y-10933817D02*
X15703396Y-10933817D01*
X15703396Y-10933817D02*
X15684349Y-10924293D01*
X15684349Y-10924293D02*
X15674825Y-10905246D01*
X15674825Y-10905246D02*
X15674825Y-10895722D01*
X15674825Y-10895722D02*
X15684349Y-10876674D01*
X15684349Y-10876674D02*
X15703396Y-10867150D01*
X15703396Y-10867150D02*
X15731968Y-10867150D01*
X15731968Y-10867150D02*
X15751015Y-10876674D01*
X15874825Y-11000484D02*
X15855777Y-10990960D01*
X15855777Y-10990960D02*
X15846254Y-10971912D01*
X15846254Y-10971912D02*
X15846254Y-10800484D01*
X15979587Y-11000484D02*
X15960539Y-10990960D01*
X15960539Y-10990960D02*
X15951015Y-10981436D01*
X15951015Y-10981436D02*
X15941492Y-10962389D01*
X15941492Y-10962389D02*
X15941492Y-10905246D01*
X15941492Y-10905246D02*
X15951015Y-10886198D01*
X15951015Y-10886198D02*
X15960539Y-10876674D01*
X15960539Y-10876674D02*
X15979587Y-10867150D01*
X15979587Y-10867150D02*
X16008158Y-10867150D01*
X16008158Y-10867150D02*
X16027206Y-10876674D01*
X16027206Y-10876674D02*
X16036730Y-10886198D01*
X16036730Y-10886198D02*
X16046254Y-10905246D01*
X16046254Y-10905246D02*
X16046254Y-10962389D01*
X16046254Y-10962389D02*
X16036730Y-10981436D01*
X16036730Y-10981436D02*
X16027206Y-10990960D01*
X16027206Y-10990960D02*
X16008158Y-11000484D01*
X16008158Y-11000484D02*
X15979587Y-11000484D01*
X16103396Y-10867150D02*
X16179587Y-10867150D01*
X16131968Y-10800484D02*
X16131968Y-10971912D01*
X16131968Y-10971912D02*
X16141492Y-10990960D01*
X16141492Y-10990960D02*
X16160539Y-11000484D01*
X16160539Y-11000484D02*
X16179587Y-11000484D01*
X16236730Y-10990960D02*
X16255777Y-11000484D01*
X16255777Y-11000484D02*
X16293873Y-11000484D01*
X16293873Y-11000484D02*
X16312920Y-10990960D01*
X16312920Y-10990960D02*
X16322444Y-10971912D01*
X16322444Y-10971912D02*
X16322444Y-10962389D01*
X16322444Y-10962389D02*
X16312920Y-10943341D01*
X16312920Y-10943341D02*
X16293873Y-10933817D01*
X16293873Y-10933817D02*
X16265301Y-10933817D01*
X16265301Y-10933817D02*
X16246254Y-10924293D01*
X16246254Y-10924293D02*
X16236730Y-10905246D01*
X16236730Y-10905246D02*
X16236730Y-10895722D01*
X16236730Y-10895722D02*
X16246254Y-10876674D01*
X16246254Y-10876674D02*
X16265301Y-10867150D01*
X16265301Y-10867150D02*
X16293873Y-10867150D01*
X16293873Y-10867150D02*
X16312920Y-10876674D01*
X16389111Y-11076674D02*
X16398635Y-11067150D01*
X16398635Y-11067150D02*
X16417682Y-11038579D01*
X16417682Y-11038579D02*
X16427206Y-11019531D01*
X16427206Y-11019531D02*
X16436730Y-10990960D01*
X16436730Y-10990960D02*
X16446254Y-10943341D01*
X16446254Y-10943341D02*
X16446254Y-10905246D01*
X16446254Y-10905246D02*
X16436730Y-10857627D01*
X16436730Y-10857627D02*
X16427206Y-10829055D01*
X16427206Y-10829055D02*
X16417682Y-10810008D01*
X16417682Y-10810008D02*
X16398635Y-10781436D01*
X16398635Y-10781436D02*
X16389111Y-10771912D01*
D10*
X9960000Y-11138000D02*
X9960000Y-11208000D01*
X9925000Y-11173000D02*
X9995000Y-11173000D01*
D11*
X10293872Y-11064484D02*
X10312920Y-11064484D01*
X10312920Y-11064484D02*
X10331967Y-11074008D01*
X10331967Y-11074008D02*
X10341491Y-11083531D01*
X10341491Y-11083531D02*
X10351015Y-11102579D01*
X10351015Y-11102579D02*
X10360539Y-11140674D01*
X10360539Y-11140674D02*
X10360539Y-11188293D01*
X10360539Y-11188293D02*
X10351015Y-11226388D01*
X10351015Y-11226388D02*
X10341491Y-11245436D01*
X10341491Y-11245436D02*
X10331967Y-11254960D01*
X10331967Y-11254960D02*
X10312920Y-11264484D01*
X10312920Y-11264484D02*
X10293872Y-11264484D01*
X10293872Y-11264484D02*
X10274824Y-11254960D01*
X10274824Y-11254960D02*
X10265301Y-11245436D01*
X10265301Y-11245436D02*
X10255777Y-11226388D01*
X10255777Y-11226388D02*
X10246253Y-11188293D01*
X10246253Y-11188293D02*
X10246253Y-11140674D01*
X10246253Y-11140674D02*
X10255777Y-11102579D01*
X10255777Y-11102579D02*
X10265301Y-11083531D01*
X10265301Y-11083531D02*
X10274824Y-11074008D01*
X10274824Y-11074008D02*
X10293872Y-11064484D01*
X10446253Y-11245436D02*
X10455777Y-11254960D01*
X10455777Y-11254960D02*
X10446253Y-11264484D01*
X10446253Y-11264484D02*
X10436729Y-11254960D01*
X10436729Y-11254960D02*
X10446253Y-11245436D01*
X10446253Y-11245436D02*
X10446253Y-11264484D01*
X10522444Y-11064484D02*
X10655777Y-11064484D01*
X10655777Y-11064484D02*
X10570063Y-11264484D01*
X10770063Y-11064484D02*
X10789110Y-11064484D01*
X10789110Y-11064484D02*
X10808158Y-11074008D01*
X10808158Y-11074008D02*
X10817682Y-11083531D01*
X10817682Y-11083531D02*
X10827205Y-11102579D01*
X10827205Y-11102579D02*
X10836729Y-11140674D01*
X10836729Y-11140674D02*
X10836729Y-11188293D01*
X10836729Y-11188293D02*
X10827205Y-11226388D01*
X10827205Y-11226388D02*
X10817682Y-11245436D01*
X10817682Y-11245436D02*
X10808158Y-11254960D01*
X10808158Y-11254960D02*
X10789110Y-11264484D01*
X10789110Y-11264484D02*
X10770063Y-11264484D01*
X10770063Y-11264484D02*
X10751015Y-11254960D01*
X10751015Y-11254960D02*
X10741491Y-11245436D01*
X10741491Y-11245436D02*
X10731967Y-11226388D01*
X10731967Y-11226388D02*
X10722444Y-11188293D01*
X10722444Y-11188293D02*
X10722444Y-11140674D01*
X10722444Y-11140674D02*
X10731967Y-11102579D01*
X10731967Y-11102579D02*
X10741491Y-11083531D01*
X10741491Y-11083531D02*
X10751015Y-11074008D01*
X10751015Y-11074008D02*
X10770063Y-11064484D01*
X10960539Y-11064484D02*
X10979586Y-11064484D01*
X10979586Y-11064484D02*
X10998634Y-11074008D01*
X10998634Y-11074008D02*
X11008158Y-11083531D01*
X11008158Y-11083531D02*
X11017682Y-11102579D01*
X11017682Y-11102579D02*
X11027205Y-11140674D01*
X11027205Y-11140674D02*
X11027205Y-11188293D01*
X11027205Y-11188293D02*
X11017682Y-11226388D01*
X11017682Y-11226388D02*
X11008158Y-11245436D01*
X11008158Y-11245436D02*
X10998634Y-11254960D01*
X10998634Y-11254960D02*
X10979586Y-11264484D01*
X10979586Y-11264484D02*
X10960539Y-11264484D01*
X10960539Y-11264484D02*
X10941491Y-11254960D01*
X10941491Y-11254960D02*
X10931967Y-11245436D01*
X10931967Y-11245436D02*
X10922444Y-11226388D01*
X10922444Y-11226388D02*
X10912920Y-11188293D01*
X10912920Y-11188293D02*
X10912920Y-11140674D01*
X10912920Y-11140674D02*
X10922444Y-11102579D01*
X10922444Y-11102579D02*
X10931967Y-11083531D01*
X10931967Y-11083531D02*
X10941491Y-11074008D01*
X10941491Y-11074008D02*
X10960539Y-11064484D01*
X11112920Y-11264484D02*
X11112920Y-11131150D01*
X11112920Y-11150198D02*
X11122444Y-11140674D01*
X11122444Y-11140674D02*
X11141491Y-11131150D01*
X11141491Y-11131150D02*
X11170063Y-11131150D01*
X11170063Y-11131150D02*
X11189110Y-11140674D01*
X11189110Y-11140674D02*
X11198634Y-11159722D01*
X11198634Y-11159722D02*
X11198634Y-11264484D01*
X11198634Y-11159722D02*
X11208158Y-11140674D01*
X11208158Y-11140674D02*
X11227205Y-11131150D01*
X11227205Y-11131150D02*
X11255777Y-11131150D01*
X11255777Y-11131150D02*
X11274824Y-11140674D01*
X11274824Y-11140674D02*
X11284348Y-11159722D01*
X11284348Y-11159722D02*
X11284348Y-11264484D01*
X11379586Y-11264484D02*
X11379586Y-11131150D01*
X11379586Y-11150198D02*
X11389110Y-11140674D01*
X11389110Y-11140674D02*
X11408158Y-11131150D01*
X11408158Y-11131150D02*
X11436729Y-11131150D01*
X11436729Y-11131150D02*
X11455777Y-11140674D01*
X11455777Y-11140674D02*
X11465301Y-11159722D01*
X11465301Y-11159722D02*
X11465301Y-11264484D01*
X11465301Y-11159722D02*
X11474824Y-11140674D01*
X11474824Y-11140674D02*
X11493872Y-11131150D01*
X11493872Y-11131150D02*
X11522443Y-11131150D01*
X11522443Y-11131150D02*
X11541491Y-11140674D01*
X11541491Y-11140674D02*
X11551015Y-11159722D01*
X11551015Y-11159722D02*
X11551015Y-11264484D01*
X11941491Y-11054960D02*
X11770063Y-11312103D01*
X12198634Y-11064484D02*
X12217682Y-11064484D01*
X12217682Y-11064484D02*
X12236729Y-11074008D01*
X12236729Y-11074008D02*
X12246253Y-11083531D01*
X12246253Y-11083531D02*
X12255777Y-11102579D01*
X12255777Y-11102579D02*
X12265301Y-11140674D01*
X12265301Y-11140674D02*
X12265301Y-11188293D01*
X12265301Y-11188293D02*
X12255777Y-11226388D01*
X12255777Y-11226388D02*
X12246253Y-11245436D01*
X12246253Y-11245436D02*
X12236729Y-11254960D01*
X12236729Y-11254960D02*
X12217682Y-11264484D01*
X12217682Y-11264484D02*
X12198634Y-11264484D01*
X12198634Y-11264484D02*
X12179586Y-11254960D01*
X12179586Y-11254960D02*
X12170063Y-11245436D01*
X12170063Y-11245436D02*
X12160539Y-11226388D01*
X12160539Y-11226388D02*
X12151015Y-11188293D01*
X12151015Y-11188293D02*
X12151015Y-11140674D01*
X12151015Y-11140674D02*
X12160539Y-11102579D01*
X12160539Y-11102579D02*
X12170063Y-11083531D01*
X12170063Y-11083531D02*
X12179586Y-11074008D01*
X12179586Y-11074008D02*
X12198634Y-11064484D01*
X12351015Y-11245436D02*
X12360539Y-11254960D01*
X12360539Y-11254960D02*
X12351015Y-11264484D01*
X12351015Y-11264484D02*
X12341491Y-11254960D01*
X12341491Y-11254960D02*
X12351015Y-11245436D01*
X12351015Y-11245436D02*
X12351015Y-11264484D01*
X12484348Y-11064484D02*
X12503396Y-11064484D01*
X12503396Y-11064484D02*
X12522444Y-11074008D01*
X12522444Y-11074008D02*
X12531967Y-11083531D01*
X12531967Y-11083531D02*
X12541491Y-11102579D01*
X12541491Y-11102579D02*
X12551015Y-11140674D01*
X12551015Y-11140674D02*
X12551015Y-11188293D01*
X12551015Y-11188293D02*
X12541491Y-11226388D01*
X12541491Y-11226388D02*
X12531967Y-11245436D01*
X12531967Y-11245436D02*
X12522444Y-11254960D01*
X12522444Y-11254960D02*
X12503396Y-11264484D01*
X12503396Y-11264484D02*
X12484348Y-11264484D01*
X12484348Y-11264484D02*
X12465301Y-11254960D01*
X12465301Y-11254960D02*
X12455777Y-11245436D01*
X12455777Y-11245436D02*
X12446253Y-11226388D01*
X12446253Y-11226388D02*
X12436729Y-11188293D01*
X12436729Y-11188293D02*
X12436729Y-11140674D01*
X12436729Y-11140674D02*
X12446253Y-11102579D01*
X12446253Y-11102579D02*
X12455777Y-11083531D01*
X12455777Y-11083531D02*
X12465301Y-11074008D01*
X12465301Y-11074008D02*
X12484348Y-11064484D01*
X12627206Y-11083531D02*
X12636729Y-11074008D01*
X12636729Y-11074008D02*
X12655777Y-11064484D01*
X12655777Y-11064484D02*
X12703396Y-11064484D01*
X12703396Y-11064484D02*
X12722444Y-11074008D01*
X12722444Y-11074008D02*
X12731967Y-11083531D01*
X12731967Y-11083531D02*
X12741491Y-11102579D01*
X12741491Y-11102579D02*
X12741491Y-11121627D01*
X12741491Y-11121627D02*
X12731967Y-11150198D01*
X12731967Y-11150198D02*
X12617682Y-11264484D01*
X12617682Y-11264484D02*
X12741491Y-11264484D01*
X12808158Y-11064484D02*
X12941491Y-11064484D01*
X12941491Y-11064484D02*
X12855777Y-11264484D01*
X13103396Y-11064484D02*
X13065301Y-11064484D01*
X13065301Y-11064484D02*
X13046253Y-11074008D01*
X13046253Y-11074008D02*
X13036729Y-11083531D01*
X13036729Y-11083531D02*
X13017682Y-11112103D01*
X13017682Y-11112103D02*
X13008158Y-11150198D01*
X13008158Y-11150198D02*
X13008158Y-11226388D01*
X13008158Y-11226388D02*
X13017682Y-11245436D01*
X13017682Y-11245436D02*
X13027206Y-11254960D01*
X13027206Y-11254960D02*
X13046253Y-11264484D01*
X13046253Y-11264484D02*
X13084348Y-11264484D01*
X13084348Y-11264484D02*
X13103396Y-11254960D01*
X13103396Y-11254960D02*
X13112920Y-11245436D01*
X13112920Y-11245436D02*
X13122444Y-11226388D01*
X13122444Y-11226388D02*
X13122444Y-11178770D01*
X13122444Y-11178770D02*
X13112920Y-11159722D01*
X13112920Y-11159722D02*
X13103396Y-11150198D01*
X13103396Y-11150198D02*
X13084348Y-11140674D01*
X13084348Y-11140674D02*
X13046253Y-11140674D01*
X13046253Y-11140674D02*
X13027206Y-11150198D01*
X13027206Y-11150198D02*
X13017682Y-11159722D01*
X13017682Y-11159722D02*
X13008158Y-11178770D01*
X13198634Y-11064484D02*
X13198634Y-11102579D01*
X13274825Y-11064484D02*
X13274825Y-11102579D01*
X13570063Y-11340674D02*
X13560539Y-11331150D01*
X13560539Y-11331150D02*
X13541491Y-11302579D01*
X13541491Y-11302579D02*
X13531968Y-11283531D01*
X13531968Y-11283531D02*
X13522444Y-11254960D01*
X13522444Y-11254960D02*
X13512920Y-11207341D01*
X13512920Y-11207341D02*
X13512920Y-11169246D01*
X13512920Y-11169246D02*
X13522444Y-11121627D01*
X13522444Y-11121627D02*
X13531968Y-11093055D01*
X13531968Y-11093055D02*
X13541491Y-11074008D01*
X13541491Y-11074008D02*
X13560539Y-11045436D01*
X13560539Y-11045436D02*
X13570063Y-11035912D01*
X13751015Y-11264484D02*
X13636729Y-11264484D01*
X13693872Y-11264484D02*
X13693872Y-11064484D01*
X13693872Y-11064484D02*
X13674825Y-11093055D01*
X13674825Y-11093055D02*
X13655777Y-11112103D01*
X13655777Y-11112103D02*
X13636729Y-11121627D01*
X13827206Y-11083531D02*
X13836729Y-11074008D01*
X13836729Y-11074008D02*
X13855777Y-11064484D01*
X13855777Y-11064484D02*
X13903396Y-11064484D01*
X13903396Y-11064484D02*
X13922444Y-11074008D01*
X13922444Y-11074008D02*
X13931968Y-11083531D01*
X13931968Y-11083531D02*
X13941491Y-11102579D01*
X13941491Y-11102579D02*
X13941491Y-11121627D01*
X13941491Y-11121627D02*
X13931968Y-11150198D01*
X13931968Y-11150198D02*
X13817682Y-11264484D01*
X13817682Y-11264484D02*
X13941491Y-11264484D01*
X14179587Y-11264484D02*
X14179587Y-11064484D01*
X14265301Y-11264484D02*
X14265301Y-11159722D01*
X14265301Y-11159722D02*
X14255777Y-11140674D01*
X14255777Y-11140674D02*
X14236730Y-11131150D01*
X14236730Y-11131150D02*
X14208158Y-11131150D01*
X14208158Y-11131150D02*
X14189110Y-11140674D01*
X14189110Y-11140674D02*
X14179587Y-11150198D01*
X14389110Y-11264484D02*
X14370063Y-11254960D01*
X14370063Y-11254960D02*
X14360539Y-11245436D01*
X14360539Y-11245436D02*
X14351015Y-11226388D01*
X14351015Y-11226388D02*
X14351015Y-11169246D01*
X14351015Y-11169246D02*
X14360539Y-11150198D01*
X14360539Y-11150198D02*
X14370063Y-11140674D01*
X14370063Y-11140674D02*
X14389110Y-11131150D01*
X14389110Y-11131150D02*
X14417682Y-11131150D01*
X14417682Y-11131150D02*
X14436730Y-11140674D01*
X14436730Y-11140674D02*
X14446253Y-11150198D01*
X14446253Y-11150198D02*
X14455777Y-11169246D01*
X14455777Y-11169246D02*
X14455777Y-11226388D01*
X14455777Y-11226388D02*
X14446253Y-11245436D01*
X14446253Y-11245436D02*
X14436730Y-11254960D01*
X14436730Y-11254960D02*
X14417682Y-11264484D01*
X14417682Y-11264484D02*
X14389110Y-11264484D01*
X14570063Y-11264484D02*
X14551015Y-11254960D01*
X14551015Y-11254960D02*
X14541491Y-11235912D01*
X14541491Y-11235912D02*
X14541491Y-11064484D01*
X14722444Y-11254960D02*
X14703396Y-11264484D01*
X14703396Y-11264484D02*
X14665301Y-11264484D01*
X14665301Y-11264484D02*
X14646253Y-11254960D01*
X14646253Y-11254960D02*
X14636730Y-11235912D01*
X14636730Y-11235912D02*
X14636730Y-11159722D01*
X14636730Y-11159722D02*
X14646253Y-11140674D01*
X14646253Y-11140674D02*
X14665301Y-11131150D01*
X14665301Y-11131150D02*
X14703396Y-11131150D01*
X14703396Y-11131150D02*
X14722444Y-11140674D01*
X14722444Y-11140674D02*
X14731968Y-11159722D01*
X14731968Y-11159722D02*
X14731968Y-11178770D01*
X14731968Y-11178770D02*
X14636730Y-11197817D01*
X14808158Y-11254960D02*
X14827206Y-11264484D01*
X14827206Y-11264484D02*
X14865301Y-11264484D01*
X14865301Y-11264484D02*
X14884349Y-11254960D01*
X14884349Y-11254960D02*
X14893872Y-11235912D01*
X14893872Y-11235912D02*
X14893872Y-11226388D01*
X14893872Y-11226388D02*
X14884349Y-11207341D01*
X14884349Y-11207341D02*
X14865301Y-11197817D01*
X14865301Y-11197817D02*
X14836730Y-11197817D01*
X14836730Y-11197817D02*
X14817682Y-11188293D01*
X14817682Y-11188293D02*
X14808158Y-11169246D01*
X14808158Y-11169246D02*
X14808158Y-11159722D01*
X14808158Y-11159722D02*
X14817682Y-11140674D01*
X14817682Y-11140674D02*
X14836730Y-11131150D01*
X14836730Y-11131150D02*
X14865301Y-11131150D01*
X14865301Y-11131150D02*
X14884349Y-11140674D01*
X14960539Y-11340674D02*
X14970063Y-11331150D01*
X14970063Y-11331150D02*
X14989111Y-11302579D01*
X14989111Y-11302579D02*
X14998634Y-11283531D01*
X14998634Y-11283531D02*
X15008158Y-11254960D01*
X15008158Y-11254960D02*
X15017682Y-11207341D01*
X15017682Y-11207341D02*
X15017682Y-11169246D01*
X15017682Y-11169246D02*
X15008158Y-11121627D01*
X15008158Y-11121627D02*
X14998634Y-11093055D01*
X14998634Y-11093055D02*
X14989111Y-11074008D01*
X14989111Y-11074008D02*
X14970063Y-11045436D01*
X14970063Y-11045436D02*
X14960539Y-11035912D01*
D10*
X9983841Y-11463941D02*
X9983841Y-11410059D01*
X9929959Y-11410059D01*
X9929959Y-11463941D01*
X9983841Y-11463941D01*
D11*
X10293872Y-11328484D02*
X10312920Y-11328484D01*
X10312920Y-11328484D02*
X10331967Y-11338008D01*
X10331967Y-11338008D02*
X10341491Y-11347531D01*
X10341491Y-11347531D02*
X10351015Y-11366579D01*
X10351015Y-11366579D02*
X10360539Y-11404674D01*
X10360539Y-11404674D02*
X10360539Y-11452293D01*
X10360539Y-11452293D02*
X10351015Y-11490388D01*
X10351015Y-11490388D02*
X10341491Y-11509436D01*
X10341491Y-11509436D02*
X10331967Y-11518960D01*
X10331967Y-11518960D02*
X10312920Y-11528484D01*
X10312920Y-11528484D02*
X10293872Y-11528484D01*
X10293872Y-11528484D02*
X10274824Y-11518960D01*
X10274824Y-11518960D02*
X10265301Y-11509436D01*
X10265301Y-11509436D02*
X10255777Y-11490388D01*
X10255777Y-11490388D02*
X10246253Y-11452293D01*
X10246253Y-11452293D02*
X10246253Y-11404674D01*
X10246253Y-11404674D02*
X10255777Y-11366579D01*
X10255777Y-11366579D02*
X10265301Y-11347531D01*
X10265301Y-11347531D02*
X10274824Y-11338008D01*
X10274824Y-11338008D02*
X10293872Y-11328484D01*
X10446253Y-11509436D02*
X10455777Y-11518960D01*
X10455777Y-11518960D02*
X10446253Y-11528484D01*
X10446253Y-11528484D02*
X10436729Y-11518960D01*
X10436729Y-11518960D02*
X10446253Y-11509436D01*
X10446253Y-11509436D02*
X10446253Y-11528484D01*
X10522444Y-11328484D02*
X10655777Y-11328484D01*
X10655777Y-11328484D02*
X10570063Y-11528484D01*
X10817682Y-11328484D02*
X10779586Y-11328484D01*
X10779586Y-11328484D02*
X10760539Y-11338008D01*
X10760539Y-11338008D02*
X10751015Y-11347531D01*
X10751015Y-11347531D02*
X10731967Y-11376103D01*
X10731967Y-11376103D02*
X10722444Y-11414198D01*
X10722444Y-11414198D02*
X10722444Y-11490388D01*
X10722444Y-11490388D02*
X10731967Y-11509436D01*
X10731967Y-11509436D02*
X10741491Y-11518960D01*
X10741491Y-11518960D02*
X10760539Y-11528484D01*
X10760539Y-11528484D02*
X10798634Y-11528484D01*
X10798634Y-11528484D02*
X10817682Y-11518960D01*
X10817682Y-11518960D02*
X10827205Y-11509436D01*
X10827205Y-11509436D02*
X10836729Y-11490388D01*
X10836729Y-11490388D02*
X10836729Y-11442769D01*
X10836729Y-11442769D02*
X10827205Y-11423722D01*
X10827205Y-11423722D02*
X10817682Y-11414198D01*
X10817682Y-11414198D02*
X10798634Y-11404674D01*
X10798634Y-11404674D02*
X10760539Y-11404674D01*
X10760539Y-11404674D02*
X10741491Y-11414198D01*
X10741491Y-11414198D02*
X10731967Y-11423722D01*
X10731967Y-11423722D02*
X10722444Y-11442769D01*
X10912920Y-11347531D02*
X10922444Y-11338008D01*
X10922444Y-11338008D02*
X10941491Y-11328484D01*
X10941491Y-11328484D02*
X10989110Y-11328484D01*
X10989110Y-11328484D02*
X11008158Y-11338008D01*
X11008158Y-11338008D02*
X11017682Y-11347531D01*
X11017682Y-11347531D02*
X11027205Y-11366579D01*
X11027205Y-11366579D02*
X11027205Y-11385627D01*
X11027205Y-11385627D02*
X11017682Y-11414198D01*
X11017682Y-11414198D02*
X10903396Y-11528484D01*
X10903396Y-11528484D02*
X11027205Y-11528484D01*
X11112920Y-11528484D02*
X11112920Y-11395150D01*
X11112920Y-11414198D02*
X11122444Y-11404674D01*
X11122444Y-11404674D02*
X11141491Y-11395150D01*
X11141491Y-11395150D02*
X11170063Y-11395150D01*
X11170063Y-11395150D02*
X11189110Y-11404674D01*
X11189110Y-11404674D02*
X11198634Y-11423722D01*
X11198634Y-11423722D02*
X11198634Y-11528484D01*
X11198634Y-11423722D02*
X11208158Y-11404674D01*
X11208158Y-11404674D02*
X11227205Y-11395150D01*
X11227205Y-11395150D02*
X11255777Y-11395150D01*
X11255777Y-11395150D02*
X11274824Y-11404674D01*
X11274824Y-11404674D02*
X11284348Y-11423722D01*
X11284348Y-11423722D02*
X11284348Y-11528484D01*
X11379586Y-11528484D02*
X11379586Y-11395150D01*
X11379586Y-11414198D02*
X11389110Y-11404674D01*
X11389110Y-11404674D02*
X11408158Y-11395150D01*
X11408158Y-11395150D02*
X11436729Y-11395150D01*
X11436729Y-11395150D02*
X11455777Y-11404674D01*
X11455777Y-11404674D02*
X11465301Y-11423722D01*
X11465301Y-11423722D02*
X11465301Y-11528484D01*
X11465301Y-11423722D02*
X11474824Y-11404674D01*
X11474824Y-11404674D02*
X11493872Y-11395150D01*
X11493872Y-11395150D02*
X11522443Y-11395150D01*
X11522443Y-11395150D02*
X11541491Y-11404674D01*
X11541491Y-11404674D02*
X11551015Y-11423722D01*
X11551015Y-11423722D02*
X11551015Y-11528484D01*
X11941491Y-11318960D02*
X11770063Y-11576103D01*
X12198634Y-11328484D02*
X12217682Y-11328484D01*
X12217682Y-11328484D02*
X12236729Y-11338008D01*
X12236729Y-11338008D02*
X12246253Y-11347531D01*
X12246253Y-11347531D02*
X12255777Y-11366579D01*
X12255777Y-11366579D02*
X12265301Y-11404674D01*
X12265301Y-11404674D02*
X12265301Y-11452293D01*
X12265301Y-11452293D02*
X12255777Y-11490388D01*
X12255777Y-11490388D02*
X12246253Y-11509436D01*
X12246253Y-11509436D02*
X12236729Y-11518960D01*
X12236729Y-11518960D02*
X12217682Y-11528484D01*
X12217682Y-11528484D02*
X12198634Y-11528484D01*
X12198634Y-11528484D02*
X12179586Y-11518960D01*
X12179586Y-11518960D02*
X12170063Y-11509436D01*
X12170063Y-11509436D02*
X12160539Y-11490388D01*
X12160539Y-11490388D02*
X12151015Y-11452293D01*
X12151015Y-11452293D02*
X12151015Y-11404674D01*
X12151015Y-11404674D02*
X12160539Y-11366579D01*
X12160539Y-11366579D02*
X12170063Y-11347531D01*
X12170063Y-11347531D02*
X12179586Y-11338008D01*
X12179586Y-11338008D02*
X12198634Y-11328484D01*
X12351015Y-11509436D02*
X12360539Y-11518960D01*
X12360539Y-11518960D02*
X12351015Y-11528484D01*
X12351015Y-11528484D02*
X12341491Y-11518960D01*
X12341491Y-11518960D02*
X12351015Y-11509436D01*
X12351015Y-11509436D02*
X12351015Y-11528484D01*
X12484348Y-11328484D02*
X12503396Y-11328484D01*
X12503396Y-11328484D02*
X12522444Y-11338008D01*
X12522444Y-11338008D02*
X12531967Y-11347531D01*
X12531967Y-11347531D02*
X12541491Y-11366579D01*
X12541491Y-11366579D02*
X12551015Y-11404674D01*
X12551015Y-11404674D02*
X12551015Y-11452293D01*
X12551015Y-11452293D02*
X12541491Y-11490388D01*
X12541491Y-11490388D02*
X12531967Y-11509436D01*
X12531967Y-11509436D02*
X12522444Y-11518960D01*
X12522444Y-11518960D02*
X12503396Y-11528484D01*
X12503396Y-11528484D02*
X12484348Y-11528484D01*
X12484348Y-11528484D02*
X12465301Y-11518960D01*
X12465301Y-11518960D02*
X12455777Y-11509436D01*
X12455777Y-11509436D02*
X12446253Y-11490388D01*
X12446253Y-11490388D02*
X12436729Y-11452293D01*
X12436729Y-11452293D02*
X12436729Y-11404674D01*
X12436729Y-11404674D02*
X12446253Y-11366579D01*
X12446253Y-11366579D02*
X12455777Y-11347531D01*
X12455777Y-11347531D02*
X12465301Y-11338008D01*
X12465301Y-11338008D02*
X12484348Y-11328484D01*
X12617682Y-11328484D02*
X12741491Y-11328484D01*
X12741491Y-11328484D02*
X12674825Y-11404674D01*
X12674825Y-11404674D02*
X12703396Y-11404674D01*
X12703396Y-11404674D02*
X12722444Y-11414198D01*
X12722444Y-11414198D02*
X12731967Y-11423722D01*
X12731967Y-11423722D02*
X12741491Y-11442769D01*
X12741491Y-11442769D02*
X12741491Y-11490388D01*
X12741491Y-11490388D02*
X12731967Y-11509436D01*
X12731967Y-11509436D02*
X12722444Y-11518960D01*
X12722444Y-11518960D02*
X12703396Y-11528484D01*
X12703396Y-11528484D02*
X12646253Y-11528484D01*
X12646253Y-11528484D02*
X12627206Y-11518960D01*
X12627206Y-11518960D02*
X12617682Y-11509436D01*
X12865301Y-11328484D02*
X12884348Y-11328484D01*
X12884348Y-11328484D02*
X12903396Y-11338008D01*
X12903396Y-11338008D02*
X12912920Y-11347531D01*
X12912920Y-11347531D02*
X12922444Y-11366579D01*
X12922444Y-11366579D02*
X12931967Y-11404674D01*
X12931967Y-11404674D02*
X12931967Y-11452293D01*
X12931967Y-11452293D02*
X12922444Y-11490388D01*
X12922444Y-11490388D02*
X12912920Y-11509436D01*
X12912920Y-11509436D02*
X12903396Y-11518960D01*
X12903396Y-11518960D02*
X12884348Y-11528484D01*
X12884348Y-11528484D02*
X12865301Y-11528484D01*
X12865301Y-11528484D02*
X12846253Y-11518960D01*
X12846253Y-11518960D02*
X12836729Y-11509436D01*
X12836729Y-11509436D02*
X12827206Y-11490388D01*
X12827206Y-11490388D02*
X12817682Y-11452293D01*
X12817682Y-11452293D02*
X12817682Y-11404674D01*
X12817682Y-11404674D02*
X12827206Y-11366579D01*
X12827206Y-11366579D02*
X12836729Y-11347531D01*
X12836729Y-11347531D02*
X12846253Y-11338008D01*
X12846253Y-11338008D02*
X12865301Y-11328484D01*
X13055777Y-11328484D02*
X13074825Y-11328484D01*
X13074825Y-11328484D02*
X13093872Y-11338008D01*
X13093872Y-11338008D02*
X13103396Y-11347531D01*
X13103396Y-11347531D02*
X13112920Y-11366579D01*
X13112920Y-11366579D02*
X13122444Y-11404674D01*
X13122444Y-11404674D02*
X13122444Y-11452293D01*
X13122444Y-11452293D02*
X13112920Y-11490388D01*
X13112920Y-11490388D02*
X13103396Y-11509436D01*
X13103396Y-11509436D02*
X13093872Y-11518960D01*
X13093872Y-11518960D02*
X13074825Y-11528484D01*
X13074825Y-11528484D02*
X13055777Y-11528484D01*
X13055777Y-11528484D02*
X13036729Y-11518960D01*
X13036729Y-11518960D02*
X13027206Y-11509436D01*
X13027206Y-11509436D02*
X13017682Y-11490388D01*
X13017682Y-11490388D02*
X13008158Y-11452293D01*
X13008158Y-11452293D02*
X13008158Y-11404674D01*
X13008158Y-11404674D02*
X13017682Y-11366579D01*
X13017682Y-11366579D02*
X13027206Y-11347531D01*
X13027206Y-11347531D02*
X13036729Y-11338008D01*
X13036729Y-11338008D02*
X13055777Y-11328484D01*
X13198634Y-11328484D02*
X13198634Y-11366579D01*
X13274825Y-11328484D02*
X13274825Y-11366579D01*
X13570063Y-11604674D02*
X13560539Y-11595150D01*
X13560539Y-11595150D02*
X13541491Y-11566579D01*
X13541491Y-11566579D02*
X13531968Y-11547531D01*
X13531968Y-11547531D02*
X13522444Y-11518960D01*
X13522444Y-11518960D02*
X13512920Y-11471341D01*
X13512920Y-11471341D02*
X13512920Y-11433246D01*
X13512920Y-11433246D02*
X13522444Y-11385627D01*
X13522444Y-11385627D02*
X13531968Y-11357055D01*
X13531968Y-11357055D02*
X13541491Y-11338008D01*
X13541491Y-11338008D02*
X13560539Y-11309436D01*
X13560539Y-11309436D02*
X13570063Y-11299912D01*
X13674825Y-11414198D02*
X13655777Y-11404674D01*
X13655777Y-11404674D02*
X13646253Y-11395150D01*
X13646253Y-11395150D02*
X13636729Y-11376103D01*
X13636729Y-11376103D02*
X13636729Y-11366579D01*
X13636729Y-11366579D02*
X13646253Y-11347531D01*
X13646253Y-11347531D02*
X13655777Y-11338008D01*
X13655777Y-11338008D02*
X13674825Y-11328484D01*
X13674825Y-11328484D02*
X13712920Y-11328484D01*
X13712920Y-11328484D02*
X13731968Y-11338008D01*
X13731968Y-11338008D02*
X13741491Y-11347531D01*
X13741491Y-11347531D02*
X13751015Y-11366579D01*
X13751015Y-11366579D02*
X13751015Y-11376103D01*
X13751015Y-11376103D02*
X13741491Y-11395150D01*
X13741491Y-11395150D02*
X13731968Y-11404674D01*
X13731968Y-11404674D02*
X13712920Y-11414198D01*
X13712920Y-11414198D02*
X13674825Y-11414198D01*
X13674825Y-11414198D02*
X13655777Y-11423722D01*
X13655777Y-11423722D02*
X13646253Y-11433246D01*
X13646253Y-11433246D02*
X13636729Y-11452293D01*
X13636729Y-11452293D02*
X13636729Y-11490388D01*
X13636729Y-11490388D02*
X13646253Y-11509436D01*
X13646253Y-11509436D02*
X13655777Y-11518960D01*
X13655777Y-11518960D02*
X13674825Y-11528484D01*
X13674825Y-11528484D02*
X13712920Y-11528484D01*
X13712920Y-11528484D02*
X13731968Y-11518960D01*
X13731968Y-11518960D02*
X13741491Y-11509436D01*
X13741491Y-11509436D02*
X13751015Y-11490388D01*
X13751015Y-11490388D02*
X13751015Y-11452293D01*
X13751015Y-11452293D02*
X13741491Y-11433246D01*
X13741491Y-11433246D02*
X13731968Y-11423722D01*
X13731968Y-11423722D02*
X13712920Y-11414198D01*
X13989110Y-11528484D02*
X13989110Y-11328484D01*
X14074825Y-11528484D02*
X14074825Y-11423722D01*
X14074825Y-11423722D02*
X14065301Y-11404674D01*
X14065301Y-11404674D02*
X14046253Y-11395150D01*
X14046253Y-11395150D02*
X14017682Y-11395150D01*
X14017682Y-11395150D02*
X13998634Y-11404674D01*
X13998634Y-11404674D02*
X13989110Y-11414198D01*
X14198634Y-11528484D02*
X14179587Y-11518960D01*
X14179587Y-11518960D02*
X14170063Y-11509436D01*
X14170063Y-11509436D02*
X14160539Y-11490388D01*
X14160539Y-11490388D02*
X14160539Y-11433246D01*
X14160539Y-11433246D02*
X14170063Y-11414198D01*
X14170063Y-11414198D02*
X14179587Y-11404674D01*
X14179587Y-11404674D02*
X14198634Y-11395150D01*
X14198634Y-11395150D02*
X14227206Y-11395150D01*
X14227206Y-11395150D02*
X14246253Y-11404674D01*
X14246253Y-11404674D02*
X14255777Y-11414198D01*
X14255777Y-11414198D02*
X14265301Y-11433246D01*
X14265301Y-11433246D02*
X14265301Y-11490388D01*
X14265301Y-11490388D02*
X14255777Y-11509436D01*
X14255777Y-11509436D02*
X14246253Y-11518960D01*
X14246253Y-11518960D02*
X14227206Y-11528484D01*
X14227206Y-11528484D02*
X14198634Y-11528484D01*
X14379587Y-11528484D02*
X14360539Y-11518960D01*
X14360539Y-11518960D02*
X14351015Y-11499912D01*
X14351015Y-11499912D02*
X14351015Y-11328484D01*
X14531968Y-11518960D02*
X14512920Y-11528484D01*
X14512920Y-11528484D02*
X14474825Y-11528484D01*
X14474825Y-11528484D02*
X14455777Y-11518960D01*
X14455777Y-11518960D02*
X14446253Y-11499912D01*
X14446253Y-11499912D02*
X14446253Y-11423722D01*
X14446253Y-11423722D02*
X14455777Y-11404674D01*
X14455777Y-11404674D02*
X14474825Y-11395150D01*
X14474825Y-11395150D02*
X14512920Y-11395150D01*
X14512920Y-11395150D02*
X14531968Y-11404674D01*
X14531968Y-11404674D02*
X14541491Y-11423722D01*
X14541491Y-11423722D02*
X14541491Y-11442769D01*
X14541491Y-11442769D02*
X14446253Y-11461817D01*
X14617682Y-11518960D02*
X14636730Y-11528484D01*
X14636730Y-11528484D02*
X14674825Y-11528484D01*
X14674825Y-11528484D02*
X14693872Y-11518960D01*
X14693872Y-11518960D02*
X14703396Y-11499912D01*
X14703396Y-11499912D02*
X14703396Y-11490388D01*
X14703396Y-11490388D02*
X14693872Y-11471341D01*
X14693872Y-11471341D02*
X14674825Y-11461817D01*
X14674825Y-11461817D02*
X14646253Y-11461817D01*
X14646253Y-11461817D02*
X14627206Y-11452293D01*
X14627206Y-11452293D02*
X14617682Y-11433246D01*
X14617682Y-11433246D02*
X14617682Y-11423722D01*
X14617682Y-11423722D02*
X14627206Y-11404674D01*
X14627206Y-11404674D02*
X14646253Y-11395150D01*
X14646253Y-11395150D02*
X14674825Y-11395150D01*
X14674825Y-11395150D02*
X14693872Y-11404674D01*
X14770063Y-11604674D02*
X14779587Y-11595150D01*
X14779587Y-11595150D02*
X14798634Y-11566579D01*
X14798634Y-11566579D02*
X14808158Y-11547531D01*
X14808158Y-11547531D02*
X14817682Y-11518960D01*
X14817682Y-11518960D02*
X14827206Y-11471341D01*
X14827206Y-11471341D02*
X14827206Y-11433246D01*
X14827206Y-11433246D02*
X14817682Y-11385627D01*
X14817682Y-11385627D02*
X14808158Y-11357055D01*
X14808158Y-11357055D02*
X14798634Y-11338008D01*
X14798634Y-11338008D02*
X14779587Y-11309436D01*
X14779587Y-11309436D02*
X14770063Y-11299912D01*
D10*
X9945000Y-11751000D02*
X9995000Y-11701000D01*
X9945000Y-11651000D01*
X9895000Y-11701000D01*
X9945000Y-11751000D01*
D11*
X10360539Y-11792484D02*
X10246253Y-11792484D01*
X10303396Y-11792484D02*
X10303396Y-11592484D01*
X10303396Y-11592484D02*
X10284348Y-11621055D01*
X10284348Y-11621055D02*
X10265301Y-11640103D01*
X10265301Y-11640103D02*
X10246253Y-11649627D01*
X10446253Y-11773436D02*
X10455777Y-11782960D01*
X10455777Y-11782960D02*
X10446253Y-11792484D01*
X10446253Y-11792484D02*
X10436729Y-11782960D01*
X10436729Y-11782960D02*
X10446253Y-11773436D01*
X10446253Y-11773436D02*
X10446253Y-11792484D01*
X10579586Y-11592484D02*
X10598634Y-11592484D01*
X10598634Y-11592484D02*
X10617682Y-11602008D01*
X10617682Y-11602008D02*
X10627205Y-11611531D01*
X10627205Y-11611531D02*
X10636729Y-11630579D01*
X10636729Y-11630579D02*
X10646253Y-11668674D01*
X10646253Y-11668674D02*
X10646253Y-11716293D01*
X10646253Y-11716293D02*
X10636729Y-11754388D01*
X10636729Y-11754388D02*
X10627205Y-11773436D01*
X10627205Y-11773436D02*
X10617682Y-11782960D01*
X10617682Y-11782960D02*
X10598634Y-11792484D01*
X10598634Y-11792484D02*
X10579586Y-11792484D01*
X10579586Y-11792484D02*
X10560539Y-11782960D01*
X10560539Y-11782960D02*
X10551015Y-11773436D01*
X10551015Y-11773436D02*
X10541491Y-11754388D01*
X10541491Y-11754388D02*
X10531967Y-11716293D01*
X10531967Y-11716293D02*
X10531967Y-11668674D01*
X10531967Y-11668674D02*
X10541491Y-11630579D01*
X10541491Y-11630579D02*
X10551015Y-11611531D01*
X10551015Y-11611531D02*
X10560539Y-11602008D01*
X10560539Y-11602008D02*
X10579586Y-11592484D01*
X10770063Y-11592484D02*
X10789110Y-11592484D01*
X10789110Y-11592484D02*
X10808158Y-11602008D01*
X10808158Y-11602008D02*
X10817682Y-11611531D01*
X10817682Y-11611531D02*
X10827205Y-11630579D01*
X10827205Y-11630579D02*
X10836729Y-11668674D01*
X10836729Y-11668674D02*
X10836729Y-11716293D01*
X10836729Y-11716293D02*
X10827205Y-11754388D01*
X10827205Y-11754388D02*
X10817682Y-11773436D01*
X10817682Y-11773436D02*
X10808158Y-11782960D01*
X10808158Y-11782960D02*
X10789110Y-11792484D01*
X10789110Y-11792484D02*
X10770063Y-11792484D01*
X10770063Y-11792484D02*
X10751015Y-11782960D01*
X10751015Y-11782960D02*
X10741491Y-11773436D01*
X10741491Y-11773436D02*
X10731967Y-11754388D01*
X10731967Y-11754388D02*
X10722444Y-11716293D01*
X10722444Y-11716293D02*
X10722444Y-11668674D01*
X10722444Y-11668674D02*
X10731967Y-11630579D01*
X10731967Y-11630579D02*
X10741491Y-11611531D01*
X10741491Y-11611531D02*
X10751015Y-11602008D01*
X10751015Y-11602008D02*
X10770063Y-11592484D01*
X10960539Y-11592484D02*
X10979586Y-11592484D01*
X10979586Y-11592484D02*
X10998634Y-11602008D01*
X10998634Y-11602008D02*
X11008158Y-11611531D01*
X11008158Y-11611531D02*
X11017682Y-11630579D01*
X11017682Y-11630579D02*
X11027205Y-11668674D01*
X11027205Y-11668674D02*
X11027205Y-11716293D01*
X11027205Y-11716293D02*
X11017682Y-11754388D01*
X11017682Y-11754388D02*
X11008158Y-11773436D01*
X11008158Y-11773436D02*
X10998634Y-11782960D01*
X10998634Y-11782960D02*
X10979586Y-11792484D01*
X10979586Y-11792484D02*
X10960539Y-11792484D01*
X10960539Y-11792484D02*
X10941491Y-11782960D01*
X10941491Y-11782960D02*
X10931967Y-11773436D01*
X10931967Y-11773436D02*
X10922444Y-11754388D01*
X10922444Y-11754388D02*
X10912920Y-11716293D01*
X10912920Y-11716293D02*
X10912920Y-11668674D01*
X10912920Y-11668674D02*
X10922444Y-11630579D01*
X10922444Y-11630579D02*
X10931967Y-11611531D01*
X10931967Y-11611531D02*
X10941491Y-11602008D01*
X10941491Y-11602008D02*
X10960539Y-11592484D01*
X11112920Y-11792484D02*
X11112920Y-11659150D01*
X11112920Y-11678198D02*
X11122444Y-11668674D01*
X11122444Y-11668674D02*
X11141491Y-11659150D01*
X11141491Y-11659150D02*
X11170063Y-11659150D01*
X11170063Y-11659150D02*
X11189110Y-11668674D01*
X11189110Y-11668674D02*
X11198634Y-11687722D01*
X11198634Y-11687722D02*
X11198634Y-11792484D01*
X11198634Y-11687722D02*
X11208158Y-11668674D01*
X11208158Y-11668674D02*
X11227205Y-11659150D01*
X11227205Y-11659150D02*
X11255777Y-11659150D01*
X11255777Y-11659150D02*
X11274824Y-11668674D01*
X11274824Y-11668674D02*
X11284348Y-11687722D01*
X11284348Y-11687722D02*
X11284348Y-11792484D01*
X11379586Y-11792484D02*
X11379586Y-11659150D01*
X11379586Y-11678198D02*
X11389110Y-11668674D01*
X11389110Y-11668674D02*
X11408158Y-11659150D01*
X11408158Y-11659150D02*
X11436729Y-11659150D01*
X11436729Y-11659150D02*
X11455777Y-11668674D01*
X11455777Y-11668674D02*
X11465301Y-11687722D01*
X11465301Y-11687722D02*
X11465301Y-11792484D01*
X11465301Y-11687722D02*
X11474824Y-11668674D01*
X11474824Y-11668674D02*
X11493872Y-11659150D01*
X11493872Y-11659150D02*
X11522443Y-11659150D01*
X11522443Y-11659150D02*
X11541491Y-11668674D01*
X11541491Y-11668674D02*
X11551015Y-11687722D01*
X11551015Y-11687722D02*
X11551015Y-11792484D01*
X11941491Y-11582960D02*
X11770063Y-11840103D01*
X12198634Y-11592484D02*
X12217682Y-11592484D01*
X12217682Y-11592484D02*
X12236729Y-11602008D01*
X12236729Y-11602008D02*
X12246253Y-11611531D01*
X12246253Y-11611531D02*
X12255777Y-11630579D01*
X12255777Y-11630579D02*
X12265301Y-11668674D01*
X12265301Y-11668674D02*
X12265301Y-11716293D01*
X12265301Y-11716293D02*
X12255777Y-11754388D01*
X12255777Y-11754388D02*
X12246253Y-11773436D01*
X12246253Y-11773436D02*
X12236729Y-11782960D01*
X12236729Y-11782960D02*
X12217682Y-11792484D01*
X12217682Y-11792484D02*
X12198634Y-11792484D01*
X12198634Y-11792484D02*
X12179586Y-11782960D01*
X12179586Y-11782960D02*
X12170063Y-11773436D01*
X12170063Y-11773436D02*
X12160539Y-11754388D01*
X12160539Y-11754388D02*
X12151015Y-11716293D01*
X12151015Y-11716293D02*
X12151015Y-11668674D01*
X12151015Y-11668674D02*
X12160539Y-11630579D01*
X12160539Y-11630579D02*
X12170063Y-11611531D01*
X12170063Y-11611531D02*
X12179586Y-11602008D01*
X12179586Y-11602008D02*
X12198634Y-11592484D01*
X12351015Y-11773436D02*
X12360539Y-11782960D01*
X12360539Y-11782960D02*
X12351015Y-11792484D01*
X12351015Y-11792484D02*
X12341491Y-11782960D01*
X12341491Y-11782960D02*
X12351015Y-11773436D01*
X12351015Y-11773436D02*
X12351015Y-11792484D01*
X12484348Y-11592484D02*
X12503396Y-11592484D01*
X12503396Y-11592484D02*
X12522444Y-11602008D01*
X12522444Y-11602008D02*
X12531967Y-11611531D01*
X12531967Y-11611531D02*
X12541491Y-11630579D01*
X12541491Y-11630579D02*
X12551015Y-11668674D01*
X12551015Y-11668674D02*
X12551015Y-11716293D01*
X12551015Y-11716293D02*
X12541491Y-11754388D01*
X12541491Y-11754388D02*
X12531967Y-11773436D01*
X12531967Y-11773436D02*
X12522444Y-11782960D01*
X12522444Y-11782960D02*
X12503396Y-11792484D01*
X12503396Y-11792484D02*
X12484348Y-11792484D01*
X12484348Y-11792484D02*
X12465301Y-11782960D01*
X12465301Y-11782960D02*
X12455777Y-11773436D01*
X12455777Y-11773436D02*
X12446253Y-11754388D01*
X12446253Y-11754388D02*
X12436729Y-11716293D01*
X12436729Y-11716293D02*
X12436729Y-11668674D01*
X12436729Y-11668674D02*
X12446253Y-11630579D01*
X12446253Y-11630579D02*
X12455777Y-11611531D01*
X12455777Y-11611531D02*
X12465301Y-11602008D01*
X12465301Y-11602008D02*
X12484348Y-11592484D01*
X12617682Y-11592484D02*
X12741491Y-11592484D01*
X12741491Y-11592484D02*
X12674825Y-11668674D01*
X12674825Y-11668674D02*
X12703396Y-11668674D01*
X12703396Y-11668674D02*
X12722444Y-11678198D01*
X12722444Y-11678198D02*
X12731967Y-11687722D01*
X12731967Y-11687722D02*
X12741491Y-11706769D01*
X12741491Y-11706769D02*
X12741491Y-11754388D01*
X12741491Y-11754388D02*
X12731967Y-11773436D01*
X12731967Y-11773436D02*
X12722444Y-11782960D01*
X12722444Y-11782960D02*
X12703396Y-11792484D01*
X12703396Y-11792484D02*
X12646253Y-11792484D01*
X12646253Y-11792484D02*
X12627206Y-11782960D01*
X12627206Y-11782960D02*
X12617682Y-11773436D01*
X12836729Y-11792484D02*
X12874825Y-11792484D01*
X12874825Y-11792484D02*
X12893872Y-11782960D01*
X12893872Y-11782960D02*
X12903396Y-11773436D01*
X12903396Y-11773436D02*
X12922444Y-11744865D01*
X12922444Y-11744865D02*
X12931967Y-11706769D01*
X12931967Y-11706769D02*
X12931967Y-11630579D01*
X12931967Y-11630579D02*
X12922444Y-11611531D01*
X12922444Y-11611531D02*
X12912920Y-11602008D01*
X12912920Y-11602008D02*
X12893872Y-11592484D01*
X12893872Y-11592484D02*
X12855777Y-11592484D01*
X12855777Y-11592484D02*
X12836729Y-11602008D01*
X12836729Y-11602008D02*
X12827206Y-11611531D01*
X12827206Y-11611531D02*
X12817682Y-11630579D01*
X12817682Y-11630579D02*
X12817682Y-11678198D01*
X12817682Y-11678198D02*
X12827206Y-11697246D01*
X12827206Y-11697246D02*
X12836729Y-11706769D01*
X12836729Y-11706769D02*
X12855777Y-11716293D01*
X12855777Y-11716293D02*
X12893872Y-11716293D01*
X12893872Y-11716293D02*
X12912920Y-11706769D01*
X12912920Y-11706769D02*
X12922444Y-11697246D01*
X12922444Y-11697246D02*
X12931967Y-11678198D01*
X13103396Y-11659150D02*
X13103396Y-11792484D01*
X13055777Y-11582960D02*
X13008158Y-11725817D01*
X13008158Y-11725817D02*
X13131967Y-11725817D01*
X13198634Y-11592484D02*
X13198634Y-11630579D01*
X13274825Y-11592484D02*
X13274825Y-11630579D01*
X13570063Y-11868674D02*
X13560539Y-11859150D01*
X13560539Y-11859150D02*
X13541491Y-11830579D01*
X13541491Y-11830579D02*
X13531968Y-11811531D01*
X13531968Y-11811531D02*
X13522444Y-11782960D01*
X13522444Y-11782960D02*
X13512920Y-11735341D01*
X13512920Y-11735341D02*
X13512920Y-11697246D01*
X13512920Y-11697246D02*
X13522444Y-11649627D01*
X13522444Y-11649627D02*
X13531968Y-11621055D01*
X13531968Y-11621055D02*
X13541491Y-11602008D01*
X13541491Y-11602008D02*
X13560539Y-11573436D01*
X13560539Y-11573436D02*
X13570063Y-11563912D01*
X13731968Y-11659150D02*
X13731968Y-11792484D01*
X13684348Y-11582960D02*
X13636729Y-11725817D01*
X13636729Y-11725817D02*
X13760539Y-11725817D01*
X13827206Y-11611531D02*
X13836729Y-11602008D01*
X13836729Y-11602008D02*
X13855777Y-11592484D01*
X13855777Y-11592484D02*
X13903396Y-11592484D01*
X13903396Y-11592484D02*
X13922444Y-11602008D01*
X13922444Y-11602008D02*
X13931968Y-11611531D01*
X13931968Y-11611531D02*
X13941491Y-11630579D01*
X13941491Y-11630579D02*
X13941491Y-11649627D01*
X13941491Y-11649627D02*
X13931968Y-11678198D01*
X13931968Y-11678198D02*
X13817682Y-11792484D01*
X13817682Y-11792484D02*
X13941491Y-11792484D01*
X14179587Y-11792484D02*
X14179587Y-11592484D01*
X14265301Y-11792484D02*
X14265301Y-11687722D01*
X14265301Y-11687722D02*
X14255777Y-11668674D01*
X14255777Y-11668674D02*
X14236730Y-11659150D01*
X14236730Y-11659150D02*
X14208158Y-11659150D01*
X14208158Y-11659150D02*
X14189110Y-11668674D01*
X14189110Y-11668674D02*
X14179587Y-11678198D01*
X14389110Y-11792484D02*
X14370063Y-11782960D01*
X14370063Y-11782960D02*
X14360539Y-11773436D01*
X14360539Y-11773436D02*
X14351015Y-11754388D01*
X14351015Y-11754388D02*
X14351015Y-11697246D01*
X14351015Y-11697246D02*
X14360539Y-11678198D01*
X14360539Y-11678198D02*
X14370063Y-11668674D01*
X14370063Y-11668674D02*
X14389110Y-11659150D01*
X14389110Y-11659150D02*
X14417682Y-11659150D01*
X14417682Y-11659150D02*
X14436730Y-11668674D01*
X14436730Y-11668674D02*
X14446253Y-11678198D01*
X14446253Y-11678198D02*
X14455777Y-11697246D01*
X14455777Y-11697246D02*
X14455777Y-11754388D01*
X14455777Y-11754388D02*
X14446253Y-11773436D01*
X14446253Y-11773436D02*
X14436730Y-11782960D01*
X14436730Y-11782960D02*
X14417682Y-11792484D01*
X14417682Y-11792484D02*
X14389110Y-11792484D01*
X14570063Y-11792484D02*
X14551015Y-11782960D01*
X14551015Y-11782960D02*
X14541491Y-11763912D01*
X14541491Y-11763912D02*
X14541491Y-11592484D01*
X14722444Y-11782960D02*
X14703396Y-11792484D01*
X14703396Y-11792484D02*
X14665301Y-11792484D01*
X14665301Y-11792484D02*
X14646253Y-11782960D01*
X14646253Y-11782960D02*
X14636730Y-11763912D01*
X14636730Y-11763912D02*
X14636730Y-11687722D01*
X14636730Y-11687722D02*
X14646253Y-11668674D01*
X14646253Y-11668674D02*
X14665301Y-11659150D01*
X14665301Y-11659150D02*
X14703396Y-11659150D01*
X14703396Y-11659150D02*
X14722444Y-11668674D01*
X14722444Y-11668674D02*
X14731968Y-11687722D01*
X14731968Y-11687722D02*
X14731968Y-11706769D01*
X14731968Y-11706769D02*
X14636730Y-11725817D01*
X14808158Y-11782960D02*
X14827206Y-11792484D01*
X14827206Y-11792484D02*
X14865301Y-11792484D01*
X14865301Y-11792484D02*
X14884349Y-11782960D01*
X14884349Y-11782960D02*
X14893872Y-11763912D01*
X14893872Y-11763912D02*
X14893872Y-11754388D01*
X14893872Y-11754388D02*
X14884349Y-11735341D01*
X14884349Y-11735341D02*
X14865301Y-11725817D01*
X14865301Y-11725817D02*
X14836730Y-11725817D01*
X14836730Y-11725817D02*
X14817682Y-11716293D01*
X14817682Y-11716293D02*
X14808158Y-11697246D01*
X14808158Y-11697246D02*
X14808158Y-11687722D01*
X14808158Y-11687722D02*
X14817682Y-11668674D01*
X14817682Y-11668674D02*
X14836730Y-11659150D01*
X14836730Y-11659150D02*
X14865301Y-11659150D01*
X14865301Y-11659150D02*
X14884349Y-11668674D01*
X14960539Y-11868674D02*
X14970063Y-11859150D01*
X14970063Y-11859150D02*
X14989111Y-11830579D01*
X14989111Y-11830579D02*
X14998634Y-11811531D01*
X14998634Y-11811531D02*
X15008158Y-11782960D01*
X15008158Y-11782960D02*
X15017682Y-11735341D01*
X15017682Y-11735341D02*
X15017682Y-11697246D01*
X15017682Y-11697246D02*
X15008158Y-11649627D01*
X15008158Y-11649627D02*
X14998634Y-11621055D01*
X14998634Y-11621055D02*
X14989111Y-11602008D01*
X14989111Y-11602008D02*
X14970063Y-11573436D01*
X14970063Y-11573436D02*
X14960539Y-11563912D01*
D12*
X9881000Y-11908000D02*
X9995000Y-12022000D01*
X9995000Y-11908000D02*
X9881000Y-12022000D01*
X9995000Y-11965000D02*
G75*
G02*
X9881000Y-11965000I-57000J0D01*
G01*
X9881000Y-11965000D02*
G75*
G02*
X9995000Y-11965000I57000J0D01*
G01*
D11*
X10360539Y-12056484D02*
X10246253Y-12056484D01*
X10303396Y-12056484D02*
X10303396Y-11856484D01*
X10303396Y-11856484D02*
X10284348Y-11885055D01*
X10284348Y-11885055D02*
X10265301Y-11904103D01*
X10265301Y-11904103D02*
X10246253Y-11913627D01*
X10446253Y-12037436D02*
X10455777Y-12046960D01*
X10455777Y-12046960D02*
X10446253Y-12056484D01*
X10446253Y-12056484D02*
X10436729Y-12046960D01*
X10436729Y-12046960D02*
X10446253Y-12037436D01*
X10446253Y-12037436D02*
X10446253Y-12056484D01*
X10646253Y-12056484D02*
X10531967Y-12056484D01*
X10589110Y-12056484D02*
X10589110Y-11856484D01*
X10589110Y-11856484D02*
X10570063Y-11885055D01*
X10570063Y-11885055D02*
X10551015Y-11904103D01*
X10551015Y-11904103D02*
X10531967Y-11913627D01*
X10817682Y-11923150D02*
X10817682Y-12056484D01*
X10770063Y-11846960D02*
X10722444Y-11989817D01*
X10722444Y-11989817D02*
X10846253Y-11989817D01*
X10960539Y-11856484D02*
X10979586Y-11856484D01*
X10979586Y-11856484D02*
X10998634Y-11866008D01*
X10998634Y-11866008D02*
X11008158Y-11875531D01*
X11008158Y-11875531D02*
X11017682Y-11894579D01*
X11017682Y-11894579D02*
X11027205Y-11932674D01*
X11027205Y-11932674D02*
X11027205Y-11980293D01*
X11027205Y-11980293D02*
X11017682Y-12018388D01*
X11017682Y-12018388D02*
X11008158Y-12037436D01*
X11008158Y-12037436D02*
X10998634Y-12046960D01*
X10998634Y-12046960D02*
X10979586Y-12056484D01*
X10979586Y-12056484D02*
X10960539Y-12056484D01*
X10960539Y-12056484D02*
X10941491Y-12046960D01*
X10941491Y-12046960D02*
X10931967Y-12037436D01*
X10931967Y-12037436D02*
X10922444Y-12018388D01*
X10922444Y-12018388D02*
X10912920Y-11980293D01*
X10912920Y-11980293D02*
X10912920Y-11932674D01*
X10912920Y-11932674D02*
X10922444Y-11894579D01*
X10922444Y-11894579D02*
X10931967Y-11875531D01*
X10931967Y-11875531D02*
X10941491Y-11866008D01*
X10941491Y-11866008D02*
X10960539Y-11856484D01*
X11112920Y-12056484D02*
X11112920Y-11923150D01*
X11112920Y-11942198D02*
X11122444Y-11932674D01*
X11122444Y-11932674D02*
X11141491Y-11923150D01*
X11141491Y-11923150D02*
X11170063Y-11923150D01*
X11170063Y-11923150D02*
X11189110Y-11932674D01*
X11189110Y-11932674D02*
X11198634Y-11951722D01*
X11198634Y-11951722D02*
X11198634Y-12056484D01*
X11198634Y-11951722D02*
X11208158Y-11932674D01*
X11208158Y-11932674D02*
X11227205Y-11923150D01*
X11227205Y-11923150D02*
X11255777Y-11923150D01*
X11255777Y-11923150D02*
X11274824Y-11932674D01*
X11274824Y-11932674D02*
X11284348Y-11951722D01*
X11284348Y-11951722D02*
X11284348Y-12056484D01*
X11379586Y-12056484D02*
X11379586Y-11923150D01*
X11379586Y-11942198D02*
X11389110Y-11932674D01*
X11389110Y-11932674D02*
X11408158Y-11923150D01*
X11408158Y-11923150D02*
X11436729Y-11923150D01*
X11436729Y-11923150D02*
X11455777Y-11932674D01*
X11455777Y-11932674D02*
X11465301Y-11951722D01*
X11465301Y-11951722D02*
X11465301Y-12056484D01*
X11465301Y-11951722D02*
X11474824Y-11932674D01*
X11474824Y-11932674D02*
X11493872Y-11923150D01*
X11493872Y-11923150D02*
X11522443Y-11923150D01*
X11522443Y-11923150D02*
X11541491Y-11932674D01*
X11541491Y-11932674D02*
X11551015Y-11951722D01*
X11551015Y-11951722D02*
X11551015Y-12056484D01*
X11941491Y-11846960D02*
X11770063Y-12104103D01*
X12198634Y-11856484D02*
X12217682Y-11856484D01*
X12217682Y-11856484D02*
X12236729Y-11866008D01*
X12236729Y-11866008D02*
X12246253Y-11875531D01*
X12246253Y-11875531D02*
X12255777Y-11894579D01*
X12255777Y-11894579D02*
X12265301Y-11932674D01*
X12265301Y-11932674D02*
X12265301Y-11980293D01*
X12265301Y-11980293D02*
X12255777Y-12018388D01*
X12255777Y-12018388D02*
X12246253Y-12037436D01*
X12246253Y-12037436D02*
X12236729Y-12046960D01*
X12236729Y-12046960D02*
X12217682Y-12056484D01*
X12217682Y-12056484D02*
X12198634Y-12056484D01*
X12198634Y-12056484D02*
X12179586Y-12046960D01*
X12179586Y-12046960D02*
X12170063Y-12037436D01*
X12170063Y-12037436D02*
X12160539Y-12018388D01*
X12160539Y-12018388D02*
X12151015Y-11980293D01*
X12151015Y-11980293D02*
X12151015Y-11932674D01*
X12151015Y-11932674D02*
X12160539Y-11894579D01*
X12160539Y-11894579D02*
X12170063Y-11875531D01*
X12170063Y-11875531D02*
X12179586Y-11866008D01*
X12179586Y-11866008D02*
X12198634Y-11856484D01*
X12351015Y-12037436D02*
X12360539Y-12046960D01*
X12360539Y-12046960D02*
X12351015Y-12056484D01*
X12351015Y-12056484D02*
X12341491Y-12046960D01*
X12341491Y-12046960D02*
X12351015Y-12037436D01*
X12351015Y-12037436D02*
X12351015Y-12056484D01*
X12484348Y-11856484D02*
X12503396Y-11856484D01*
X12503396Y-11856484D02*
X12522444Y-11866008D01*
X12522444Y-11866008D02*
X12531967Y-11875531D01*
X12531967Y-11875531D02*
X12541491Y-11894579D01*
X12541491Y-11894579D02*
X12551015Y-11932674D01*
X12551015Y-11932674D02*
X12551015Y-11980293D01*
X12551015Y-11980293D02*
X12541491Y-12018388D01*
X12541491Y-12018388D02*
X12531967Y-12037436D01*
X12531967Y-12037436D02*
X12522444Y-12046960D01*
X12522444Y-12046960D02*
X12503396Y-12056484D01*
X12503396Y-12056484D02*
X12484348Y-12056484D01*
X12484348Y-12056484D02*
X12465301Y-12046960D01*
X12465301Y-12046960D02*
X12455777Y-12037436D01*
X12455777Y-12037436D02*
X12446253Y-12018388D01*
X12446253Y-12018388D02*
X12436729Y-11980293D01*
X12436729Y-11980293D02*
X12436729Y-11932674D01*
X12436729Y-11932674D02*
X12446253Y-11894579D01*
X12446253Y-11894579D02*
X12455777Y-11875531D01*
X12455777Y-11875531D02*
X12465301Y-11866008D01*
X12465301Y-11866008D02*
X12484348Y-11856484D01*
X12722444Y-11923150D02*
X12722444Y-12056484D01*
X12674825Y-11846960D02*
X12627206Y-11989817D01*
X12627206Y-11989817D02*
X12751015Y-11989817D01*
X12912920Y-11923150D02*
X12912920Y-12056484D01*
X12865301Y-11846960D02*
X12817682Y-11989817D01*
X12817682Y-11989817D02*
X12941491Y-11989817D01*
X13027206Y-12056484D02*
X13065301Y-12056484D01*
X13065301Y-12056484D02*
X13084348Y-12046960D01*
X13084348Y-12046960D02*
X13093872Y-12037436D01*
X13093872Y-12037436D02*
X13112920Y-12008865D01*
X13112920Y-12008865D02*
X13122444Y-11970769D01*
X13122444Y-11970769D02*
X13122444Y-11894579D01*
X13122444Y-11894579D02*
X13112920Y-11875531D01*
X13112920Y-11875531D02*
X13103396Y-11866008D01*
X13103396Y-11866008D02*
X13084348Y-11856484D01*
X13084348Y-11856484D02*
X13046253Y-11856484D01*
X13046253Y-11856484D02*
X13027206Y-11866008D01*
X13027206Y-11866008D02*
X13017682Y-11875531D01*
X13017682Y-11875531D02*
X13008158Y-11894579D01*
X13008158Y-11894579D02*
X13008158Y-11942198D01*
X13008158Y-11942198D02*
X13017682Y-11961246D01*
X13017682Y-11961246D02*
X13027206Y-11970769D01*
X13027206Y-11970769D02*
X13046253Y-11980293D01*
X13046253Y-11980293D02*
X13084348Y-11980293D01*
X13084348Y-11980293D02*
X13103396Y-11970769D01*
X13103396Y-11970769D02*
X13112920Y-11961246D01*
X13112920Y-11961246D02*
X13122444Y-11942198D01*
X13198634Y-11856484D02*
X13198634Y-11894579D01*
X13274825Y-11856484D02*
X13274825Y-11894579D01*
X13570063Y-12132674D02*
X13560539Y-12123150D01*
X13560539Y-12123150D02*
X13541491Y-12094579D01*
X13541491Y-12094579D02*
X13531968Y-12075531D01*
X13531968Y-12075531D02*
X13522444Y-12046960D01*
X13522444Y-12046960D02*
X13512920Y-11999341D01*
X13512920Y-11999341D02*
X13512920Y-11961246D01*
X13512920Y-11961246D02*
X13522444Y-11913627D01*
X13522444Y-11913627D02*
X13531968Y-11885055D01*
X13531968Y-11885055D02*
X13541491Y-11866008D01*
X13541491Y-11866008D02*
X13560539Y-11837436D01*
X13560539Y-11837436D02*
X13570063Y-11827912D01*
X13731968Y-11856484D02*
X13693872Y-11856484D01*
X13693872Y-11856484D02*
X13674825Y-11866008D01*
X13674825Y-11866008D02*
X13665301Y-11875531D01*
X13665301Y-11875531D02*
X13646253Y-11904103D01*
X13646253Y-11904103D02*
X13636729Y-11942198D01*
X13636729Y-11942198D02*
X13636729Y-12018388D01*
X13636729Y-12018388D02*
X13646253Y-12037436D01*
X13646253Y-12037436D02*
X13655777Y-12046960D01*
X13655777Y-12046960D02*
X13674825Y-12056484D01*
X13674825Y-12056484D02*
X13712920Y-12056484D01*
X13712920Y-12056484D02*
X13731968Y-12046960D01*
X13731968Y-12046960D02*
X13741491Y-12037436D01*
X13741491Y-12037436D02*
X13751015Y-12018388D01*
X13751015Y-12018388D02*
X13751015Y-11970769D01*
X13751015Y-11970769D02*
X13741491Y-11951722D01*
X13741491Y-11951722D02*
X13731968Y-11942198D01*
X13731968Y-11942198D02*
X13712920Y-11932674D01*
X13712920Y-11932674D02*
X13674825Y-11932674D01*
X13674825Y-11932674D02*
X13655777Y-11942198D01*
X13655777Y-11942198D02*
X13646253Y-11951722D01*
X13646253Y-11951722D02*
X13636729Y-11970769D01*
X13989110Y-12056484D02*
X13989110Y-11856484D01*
X14074825Y-12056484D02*
X14074825Y-11951722D01*
X14074825Y-11951722D02*
X14065301Y-11932674D01*
X14065301Y-11932674D02*
X14046253Y-11923150D01*
X14046253Y-11923150D02*
X14017682Y-11923150D01*
X14017682Y-11923150D02*
X13998634Y-11932674D01*
X13998634Y-11932674D02*
X13989110Y-11942198D01*
X14198634Y-12056484D02*
X14179587Y-12046960D01*
X14179587Y-12046960D02*
X14170063Y-12037436D01*
X14170063Y-12037436D02*
X14160539Y-12018388D01*
X14160539Y-12018388D02*
X14160539Y-11961246D01*
X14160539Y-11961246D02*
X14170063Y-11942198D01*
X14170063Y-11942198D02*
X14179587Y-11932674D01*
X14179587Y-11932674D02*
X14198634Y-11923150D01*
X14198634Y-11923150D02*
X14227206Y-11923150D01*
X14227206Y-11923150D02*
X14246253Y-11932674D01*
X14246253Y-11932674D02*
X14255777Y-11942198D01*
X14255777Y-11942198D02*
X14265301Y-11961246D01*
X14265301Y-11961246D02*
X14265301Y-12018388D01*
X14265301Y-12018388D02*
X14255777Y-12037436D01*
X14255777Y-12037436D02*
X14246253Y-12046960D01*
X14246253Y-12046960D02*
X14227206Y-12056484D01*
X14227206Y-12056484D02*
X14198634Y-12056484D01*
X14379587Y-12056484D02*
X14360539Y-12046960D01*
X14360539Y-12046960D02*
X14351015Y-12027912D01*
X14351015Y-12027912D02*
X14351015Y-11856484D01*
X14531968Y-12046960D02*
X14512920Y-12056484D01*
X14512920Y-12056484D02*
X14474825Y-12056484D01*
X14474825Y-12056484D02*
X14455777Y-12046960D01*
X14455777Y-12046960D02*
X14446253Y-12027912D01*
X14446253Y-12027912D02*
X14446253Y-11951722D01*
X14446253Y-11951722D02*
X14455777Y-11932674D01*
X14455777Y-11932674D02*
X14474825Y-11923150D01*
X14474825Y-11923150D02*
X14512920Y-11923150D01*
X14512920Y-11923150D02*
X14531968Y-11932674D01*
X14531968Y-11932674D02*
X14541491Y-11951722D01*
X14541491Y-11951722D02*
X14541491Y-11970769D01*
X14541491Y-11970769D02*
X14446253Y-11989817D01*
X14617682Y-12046960D02*
X14636730Y-12056484D01*
X14636730Y-12056484D02*
X14674825Y-12056484D01*
X14674825Y-12056484D02*
X14693872Y-12046960D01*
X14693872Y-12046960D02*
X14703396Y-12027912D01*
X14703396Y-12027912D02*
X14703396Y-12018388D01*
X14703396Y-12018388D02*
X14693872Y-11999341D01*
X14693872Y-11999341D02*
X14674825Y-11989817D01*
X14674825Y-11989817D02*
X14646253Y-11989817D01*
X14646253Y-11989817D02*
X14627206Y-11980293D01*
X14627206Y-11980293D02*
X14617682Y-11961246D01*
X14617682Y-11961246D02*
X14617682Y-11951722D01*
X14617682Y-11951722D02*
X14627206Y-11932674D01*
X14627206Y-11932674D02*
X14646253Y-11923150D01*
X14646253Y-11923150D02*
X14674825Y-11923150D01*
X14674825Y-11923150D02*
X14693872Y-11932674D01*
X14770063Y-12132674D02*
X14779587Y-12123150D01*
X14779587Y-12123150D02*
X14798634Y-12094579D01*
X14798634Y-12094579D02*
X14808158Y-12075531D01*
X14808158Y-12075531D02*
X14817682Y-12046960D01*
X14817682Y-12046960D02*
X14827206Y-11999341D01*
X14827206Y-11999341D02*
X14827206Y-11961246D01*
X14827206Y-11961246D02*
X14817682Y-11913627D01*
X14817682Y-11913627D02*
X14808158Y-11885055D01*
X14808158Y-11885055D02*
X14798634Y-11866008D01*
X14798634Y-11866008D02*
X14779587Y-11837436D01*
X14779587Y-11837436D02*
X14770063Y-11827912D01*
D13*
X9875000Y-12169000D02*
X9995000Y-12289000D01*
X9995000Y-12169000D02*
X9875000Y-12289000D01*
X9935000Y-12169000D02*
X9935000Y-12289000D01*
X9875000Y-12229000D02*
X9995000Y-12229000D01*
D11*
X10360539Y-12320484D02*
X10246253Y-12320484D01*
X10303396Y-12320484D02*
X10303396Y-12120484D01*
X10303396Y-12120484D02*
X10284348Y-12149055D01*
X10284348Y-12149055D02*
X10265301Y-12168103D01*
X10265301Y-12168103D02*
X10246253Y-12177627D01*
X10446253Y-12301436D02*
X10455777Y-12310960D01*
X10455777Y-12310960D02*
X10446253Y-12320484D01*
X10446253Y-12320484D02*
X10436729Y-12310960D01*
X10436729Y-12310960D02*
X10446253Y-12301436D01*
X10446253Y-12301436D02*
X10446253Y-12320484D01*
X10531967Y-12139531D02*
X10541491Y-12130008D01*
X10541491Y-12130008D02*
X10560539Y-12120484D01*
X10560539Y-12120484D02*
X10608158Y-12120484D01*
X10608158Y-12120484D02*
X10627205Y-12130008D01*
X10627205Y-12130008D02*
X10636729Y-12139531D01*
X10636729Y-12139531D02*
X10646253Y-12158579D01*
X10646253Y-12158579D02*
X10646253Y-12177627D01*
X10646253Y-12177627D02*
X10636729Y-12206198D01*
X10636729Y-12206198D02*
X10522444Y-12320484D01*
X10522444Y-12320484D02*
X10646253Y-12320484D01*
X10770063Y-12120484D02*
X10789110Y-12120484D01*
X10789110Y-12120484D02*
X10808158Y-12130008D01*
X10808158Y-12130008D02*
X10817682Y-12139531D01*
X10817682Y-12139531D02*
X10827205Y-12158579D01*
X10827205Y-12158579D02*
X10836729Y-12196674D01*
X10836729Y-12196674D02*
X10836729Y-12244293D01*
X10836729Y-12244293D02*
X10827205Y-12282388D01*
X10827205Y-12282388D02*
X10817682Y-12301436D01*
X10817682Y-12301436D02*
X10808158Y-12310960D01*
X10808158Y-12310960D02*
X10789110Y-12320484D01*
X10789110Y-12320484D02*
X10770063Y-12320484D01*
X10770063Y-12320484D02*
X10751015Y-12310960D01*
X10751015Y-12310960D02*
X10741491Y-12301436D01*
X10741491Y-12301436D02*
X10731967Y-12282388D01*
X10731967Y-12282388D02*
X10722444Y-12244293D01*
X10722444Y-12244293D02*
X10722444Y-12196674D01*
X10722444Y-12196674D02*
X10731967Y-12158579D01*
X10731967Y-12158579D02*
X10741491Y-12139531D01*
X10741491Y-12139531D02*
X10751015Y-12130008D01*
X10751015Y-12130008D02*
X10770063Y-12120484D01*
X10960539Y-12120484D02*
X10979586Y-12120484D01*
X10979586Y-12120484D02*
X10998634Y-12130008D01*
X10998634Y-12130008D02*
X11008158Y-12139531D01*
X11008158Y-12139531D02*
X11017682Y-12158579D01*
X11017682Y-12158579D02*
X11027205Y-12196674D01*
X11027205Y-12196674D02*
X11027205Y-12244293D01*
X11027205Y-12244293D02*
X11017682Y-12282388D01*
X11017682Y-12282388D02*
X11008158Y-12301436D01*
X11008158Y-12301436D02*
X10998634Y-12310960D01*
X10998634Y-12310960D02*
X10979586Y-12320484D01*
X10979586Y-12320484D02*
X10960539Y-12320484D01*
X10960539Y-12320484D02*
X10941491Y-12310960D01*
X10941491Y-12310960D02*
X10931967Y-12301436D01*
X10931967Y-12301436D02*
X10922444Y-12282388D01*
X10922444Y-12282388D02*
X10912920Y-12244293D01*
X10912920Y-12244293D02*
X10912920Y-12196674D01*
X10912920Y-12196674D02*
X10922444Y-12158579D01*
X10922444Y-12158579D02*
X10931967Y-12139531D01*
X10931967Y-12139531D02*
X10941491Y-12130008D01*
X10941491Y-12130008D02*
X10960539Y-12120484D01*
X11112920Y-12320484D02*
X11112920Y-12187150D01*
X11112920Y-12206198D02*
X11122444Y-12196674D01*
X11122444Y-12196674D02*
X11141491Y-12187150D01*
X11141491Y-12187150D02*
X11170063Y-12187150D01*
X11170063Y-12187150D02*
X11189110Y-12196674D01*
X11189110Y-12196674D02*
X11198634Y-12215722D01*
X11198634Y-12215722D02*
X11198634Y-12320484D01*
X11198634Y-12215722D02*
X11208158Y-12196674D01*
X11208158Y-12196674D02*
X11227205Y-12187150D01*
X11227205Y-12187150D02*
X11255777Y-12187150D01*
X11255777Y-12187150D02*
X11274824Y-12196674D01*
X11274824Y-12196674D02*
X11284348Y-12215722D01*
X11284348Y-12215722D02*
X11284348Y-12320484D01*
X11379586Y-12320484D02*
X11379586Y-12187150D01*
X11379586Y-12206198D02*
X11389110Y-12196674D01*
X11389110Y-12196674D02*
X11408158Y-12187150D01*
X11408158Y-12187150D02*
X11436729Y-12187150D01*
X11436729Y-12187150D02*
X11455777Y-12196674D01*
X11455777Y-12196674D02*
X11465301Y-12215722D01*
X11465301Y-12215722D02*
X11465301Y-12320484D01*
X11465301Y-12215722D02*
X11474824Y-12196674D01*
X11474824Y-12196674D02*
X11493872Y-12187150D01*
X11493872Y-12187150D02*
X11522443Y-12187150D01*
X11522443Y-12187150D02*
X11541491Y-12196674D01*
X11541491Y-12196674D02*
X11551015Y-12215722D01*
X11551015Y-12215722D02*
X11551015Y-12320484D01*
X11941491Y-12110960D02*
X11770063Y-12368103D01*
X12198634Y-12120484D02*
X12217682Y-12120484D01*
X12217682Y-12120484D02*
X12236729Y-12130008D01*
X12236729Y-12130008D02*
X12246253Y-12139531D01*
X12246253Y-12139531D02*
X12255777Y-12158579D01*
X12255777Y-12158579D02*
X12265301Y-12196674D01*
X12265301Y-12196674D02*
X12265301Y-12244293D01*
X12265301Y-12244293D02*
X12255777Y-12282388D01*
X12255777Y-12282388D02*
X12246253Y-12301436D01*
X12246253Y-12301436D02*
X12236729Y-12310960D01*
X12236729Y-12310960D02*
X12217682Y-12320484D01*
X12217682Y-12320484D02*
X12198634Y-12320484D01*
X12198634Y-12320484D02*
X12179586Y-12310960D01*
X12179586Y-12310960D02*
X12170063Y-12301436D01*
X12170063Y-12301436D02*
X12160539Y-12282388D01*
X12160539Y-12282388D02*
X12151015Y-12244293D01*
X12151015Y-12244293D02*
X12151015Y-12196674D01*
X12151015Y-12196674D02*
X12160539Y-12158579D01*
X12160539Y-12158579D02*
X12170063Y-12139531D01*
X12170063Y-12139531D02*
X12179586Y-12130008D01*
X12179586Y-12130008D02*
X12198634Y-12120484D01*
X12351015Y-12301436D02*
X12360539Y-12310960D01*
X12360539Y-12310960D02*
X12351015Y-12320484D01*
X12351015Y-12320484D02*
X12341491Y-12310960D01*
X12341491Y-12310960D02*
X12351015Y-12301436D01*
X12351015Y-12301436D02*
X12351015Y-12320484D01*
X12484348Y-12120484D02*
X12503396Y-12120484D01*
X12503396Y-12120484D02*
X12522444Y-12130008D01*
X12522444Y-12130008D02*
X12531967Y-12139531D01*
X12531967Y-12139531D02*
X12541491Y-12158579D01*
X12541491Y-12158579D02*
X12551015Y-12196674D01*
X12551015Y-12196674D02*
X12551015Y-12244293D01*
X12551015Y-12244293D02*
X12541491Y-12282388D01*
X12541491Y-12282388D02*
X12531967Y-12301436D01*
X12531967Y-12301436D02*
X12522444Y-12310960D01*
X12522444Y-12310960D02*
X12503396Y-12320484D01*
X12503396Y-12320484D02*
X12484348Y-12320484D01*
X12484348Y-12320484D02*
X12465301Y-12310960D01*
X12465301Y-12310960D02*
X12455777Y-12301436D01*
X12455777Y-12301436D02*
X12446253Y-12282388D01*
X12446253Y-12282388D02*
X12436729Y-12244293D01*
X12436729Y-12244293D02*
X12436729Y-12196674D01*
X12436729Y-12196674D02*
X12446253Y-12158579D01*
X12446253Y-12158579D02*
X12455777Y-12139531D01*
X12455777Y-12139531D02*
X12465301Y-12130008D01*
X12465301Y-12130008D02*
X12484348Y-12120484D01*
X12722444Y-12187150D02*
X12722444Y-12320484D01*
X12674825Y-12110960D02*
X12627206Y-12253817D01*
X12627206Y-12253817D02*
X12751015Y-12253817D01*
X12808158Y-12120484D02*
X12941491Y-12120484D01*
X12941491Y-12120484D02*
X12855777Y-12320484D01*
X13008158Y-12139531D02*
X13017682Y-12130008D01*
X13017682Y-12130008D02*
X13036729Y-12120484D01*
X13036729Y-12120484D02*
X13084348Y-12120484D01*
X13084348Y-12120484D02*
X13103396Y-12130008D01*
X13103396Y-12130008D02*
X13112920Y-12139531D01*
X13112920Y-12139531D02*
X13122444Y-12158579D01*
X13122444Y-12158579D02*
X13122444Y-12177627D01*
X13122444Y-12177627D02*
X13112920Y-12206198D01*
X13112920Y-12206198D02*
X12998634Y-12320484D01*
X12998634Y-12320484D02*
X13122444Y-12320484D01*
X13198634Y-12120484D02*
X13198634Y-12158579D01*
X13274825Y-12120484D02*
X13274825Y-12158579D01*
X13570063Y-12396674D02*
X13560539Y-12387150D01*
X13560539Y-12387150D02*
X13541491Y-12358579D01*
X13541491Y-12358579D02*
X13531968Y-12339531D01*
X13531968Y-12339531D02*
X13522444Y-12310960D01*
X13522444Y-12310960D02*
X13512920Y-12263341D01*
X13512920Y-12263341D02*
X13512920Y-12225246D01*
X13512920Y-12225246D02*
X13522444Y-12177627D01*
X13522444Y-12177627D02*
X13531968Y-12149055D01*
X13531968Y-12149055D02*
X13541491Y-12130008D01*
X13541491Y-12130008D02*
X13560539Y-12101436D01*
X13560539Y-12101436D02*
X13570063Y-12091912D01*
X13751015Y-12320484D02*
X13636729Y-12320484D01*
X13693872Y-12320484D02*
X13693872Y-12120484D01*
X13693872Y-12120484D02*
X13674825Y-12149055D01*
X13674825Y-12149055D02*
X13655777Y-12168103D01*
X13655777Y-12168103D02*
X13636729Y-12177627D01*
X13989110Y-12320484D02*
X13989110Y-12120484D01*
X14074825Y-12320484D02*
X14074825Y-12215722D01*
X14074825Y-12215722D02*
X14065301Y-12196674D01*
X14065301Y-12196674D02*
X14046253Y-12187150D01*
X14046253Y-12187150D02*
X14017682Y-12187150D01*
X14017682Y-12187150D02*
X13998634Y-12196674D01*
X13998634Y-12196674D02*
X13989110Y-12206198D01*
X14198634Y-12320484D02*
X14179587Y-12310960D01*
X14179587Y-12310960D02*
X14170063Y-12301436D01*
X14170063Y-12301436D02*
X14160539Y-12282388D01*
X14160539Y-12282388D02*
X14160539Y-12225246D01*
X14160539Y-12225246D02*
X14170063Y-12206198D01*
X14170063Y-12206198D02*
X14179587Y-12196674D01*
X14179587Y-12196674D02*
X14198634Y-12187150D01*
X14198634Y-12187150D02*
X14227206Y-12187150D01*
X14227206Y-12187150D02*
X14246253Y-12196674D01*
X14246253Y-12196674D02*
X14255777Y-12206198D01*
X14255777Y-12206198D02*
X14265301Y-12225246D01*
X14265301Y-12225246D02*
X14265301Y-12282388D01*
X14265301Y-12282388D02*
X14255777Y-12301436D01*
X14255777Y-12301436D02*
X14246253Y-12310960D01*
X14246253Y-12310960D02*
X14227206Y-12320484D01*
X14227206Y-12320484D02*
X14198634Y-12320484D01*
X14379587Y-12320484D02*
X14360539Y-12310960D01*
X14360539Y-12310960D02*
X14351015Y-12291912D01*
X14351015Y-12291912D02*
X14351015Y-12120484D01*
X14531968Y-12310960D02*
X14512920Y-12320484D01*
X14512920Y-12320484D02*
X14474825Y-12320484D01*
X14474825Y-12320484D02*
X14455777Y-12310960D01*
X14455777Y-12310960D02*
X14446253Y-12291912D01*
X14446253Y-12291912D02*
X14446253Y-12215722D01*
X14446253Y-12215722D02*
X14455777Y-12196674D01*
X14455777Y-12196674D02*
X14474825Y-12187150D01*
X14474825Y-12187150D02*
X14512920Y-12187150D01*
X14512920Y-12187150D02*
X14531968Y-12196674D01*
X14531968Y-12196674D02*
X14541491Y-12215722D01*
X14541491Y-12215722D02*
X14541491Y-12234769D01*
X14541491Y-12234769D02*
X14446253Y-12253817D01*
X14608158Y-12396674D02*
X14617682Y-12387150D01*
X14617682Y-12387150D02*
X14636730Y-12358579D01*
X14636730Y-12358579D02*
X14646253Y-12339531D01*
X14646253Y-12339531D02*
X14655777Y-12310960D01*
X14655777Y-12310960D02*
X14665301Y-12263341D01*
X14665301Y-12263341D02*
X14665301Y-12225246D01*
X14665301Y-12225246D02*
X14655777Y-12177627D01*
X14655777Y-12177627D02*
X14646253Y-12149055D01*
X14646253Y-12149055D02*
X14636730Y-12130008D01*
X14636730Y-12130008D02*
X14617682Y-12101436D01*
X14617682Y-12101436D02*
X14608158Y-12091912D01*
X9795000Y-12393000D02*
X9995000Y-12593000D01*
X9995000Y-12393000D02*
X9795000Y-12593000D01*
X9965711Y-12563711D02*
X9965711Y-12422289D01*
X9824289Y-12422289D01*
X9824289Y-12563711D01*
X9965711Y-12563711D01*
X10236729Y-12384484D02*
X10360539Y-12384484D01*
X10360539Y-12384484D02*
X10293872Y-12460674D01*
X10293872Y-12460674D02*
X10322444Y-12460674D01*
X10322444Y-12460674D02*
X10341491Y-12470198D01*
X10341491Y-12470198D02*
X10351015Y-12479722D01*
X10351015Y-12479722D02*
X10360539Y-12498769D01*
X10360539Y-12498769D02*
X10360539Y-12546388D01*
X10360539Y-12546388D02*
X10351015Y-12565436D01*
X10351015Y-12565436D02*
X10341491Y-12574960D01*
X10341491Y-12574960D02*
X10322444Y-12584484D01*
X10322444Y-12584484D02*
X10265301Y-12584484D01*
X10265301Y-12584484D02*
X10246253Y-12574960D01*
X10246253Y-12574960D02*
X10236729Y-12565436D01*
X10446253Y-12565436D02*
X10455777Y-12574960D01*
X10455777Y-12574960D02*
X10446253Y-12584484D01*
X10446253Y-12584484D02*
X10436729Y-12574960D01*
X10436729Y-12574960D02*
X10446253Y-12565436D01*
X10446253Y-12565436D02*
X10446253Y-12584484D01*
X10522444Y-12384484D02*
X10646253Y-12384484D01*
X10646253Y-12384484D02*
X10579586Y-12460674D01*
X10579586Y-12460674D02*
X10608158Y-12460674D01*
X10608158Y-12460674D02*
X10627205Y-12470198D01*
X10627205Y-12470198D02*
X10636729Y-12479722D01*
X10636729Y-12479722D02*
X10646253Y-12498769D01*
X10646253Y-12498769D02*
X10646253Y-12546388D01*
X10646253Y-12546388D02*
X10636729Y-12565436D01*
X10636729Y-12565436D02*
X10627205Y-12574960D01*
X10627205Y-12574960D02*
X10608158Y-12584484D01*
X10608158Y-12584484D02*
X10551015Y-12584484D01*
X10551015Y-12584484D02*
X10531967Y-12574960D01*
X10531967Y-12574960D02*
X10522444Y-12565436D01*
X10770063Y-12384484D02*
X10789110Y-12384484D01*
X10789110Y-12384484D02*
X10808158Y-12394008D01*
X10808158Y-12394008D02*
X10817682Y-12403531D01*
X10817682Y-12403531D02*
X10827205Y-12422579D01*
X10827205Y-12422579D02*
X10836729Y-12460674D01*
X10836729Y-12460674D02*
X10836729Y-12508293D01*
X10836729Y-12508293D02*
X10827205Y-12546388D01*
X10827205Y-12546388D02*
X10817682Y-12565436D01*
X10817682Y-12565436D02*
X10808158Y-12574960D01*
X10808158Y-12574960D02*
X10789110Y-12584484D01*
X10789110Y-12584484D02*
X10770063Y-12584484D01*
X10770063Y-12584484D02*
X10751015Y-12574960D01*
X10751015Y-12574960D02*
X10741491Y-12565436D01*
X10741491Y-12565436D02*
X10731967Y-12546388D01*
X10731967Y-12546388D02*
X10722444Y-12508293D01*
X10722444Y-12508293D02*
X10722444Y-12460674D01*
X10722444Y-12460674D02*
X10731967Y-12422579D01*
X10731967Y-12422579D02*
X10741491Y-12403531D01*
X10741491Y-12403531D02*
X10751015Y-12394008D01*
X10751015Y-12394008D02*
X10770063Y-12384484D01*
X10912920Y-12403531D02*
X10922444Y-12394008D01*
X10922444Y-12394008D02*
X10941491Y-12384484D01*
X10941491Y-12384484D02*
X10989110Y-12384484D01*
X10989110Y-12384484D02*
X11008158Y-12394008D01*
X11008158Y-12394008D02*
X11017682Y-12403531D01*
X11017682Y-12403531D02*
X11027205Y-12422579D01*
X11027205Y-12422579D02*
X11027205Y-12441627D01*
X11027205Y-12441627D02*
X11017682Y-12470198D01*
X11017682Y-12470198D02*
X10903396Y-12584484D01*
X10903396Y-12584484D02*
X11027205Y-12584484D01*
X11112920Y-12584484D02*
X11112920Y-12451150D01*
X11112920Y-12470198D02*
X11122444Y-12460674D01*
X11122444Y-12460674D02*
X11141491Y-12451150D01*
X11141491Y-12451150D02*
X11170063Y-12451150D01*
X11170063Y-12451150D02*
X11189110Y-12460674D01*
X11189110Y-12460674D02*
X11198634Y-12479722D01*
X11198634Y-12479722D02*
X11198634Y-12584484D01*
X11198634Y-12479722D02*
X11208158Y-12460674D01*
X11208158Y-12460674D02*
X11227205Y-12451150D01*
X11227205Y-12451150D02*
X11255777Y-12451150D01*
X11255777Y-12451150D02*
X11274824Y-12460674D01*
X11274824Y-12460674D02*
X11284348Y-12479722D01*
X11284348Y-12479722D02*
X11284348Y-12584484D01*
X11379586Y-12584484D02*
X11379586Y-12451150D01*
X11379586Y-12470198D02*
X11389110Y-12460674D01*
X11389110Y-12460674D02*
X11408158Y-12451150D01*
X11408158Y-12451150D02*
X11436729Y-12451150D01*
X11436729Y-12451150D02*
X11455777Y-12460674D01*
X11455777Y-12460674D02*
X11465301Y-12479722D01*
X11465301Y-12479722D02*
X11465301Y-12584484D01*
X11465301Y-12479722D02*
X11474824Y-12460674D01*
X11474824Y-12460674D02*
X11493872Y-12451150D01*
X11493872Y-12451150D02*
X11522443Y-12451150D01*
X11522443Y-12451150D02*
X11541491Y-12460674D01*
X11541491Y-12460674D02*
X11551015Y-12479722D01*
X11551015Y-12479722D02*
X11551015Y-12584484D01*
X11941491Y-12374960D02*
X11770063Y-12632103D01*
X12198634Y-12384484D02*
X12217682Y-12384484D01*
X12217682Y-12384484D02*
X12236729Y-12394008D01*
X12236729Y-12394008D02*
X12246253Y-12403531D01*
X12246253Y-12403531D02*
X12255777Y-12422579D01*
X12255777Y-12422579D02*
X12265301Y-12460674D01*
X12265301Y-12460674D02*
X12265301Y-12508293D01*
X12265301Y-12508293D02*
X12255777Y-12546388D01*
X12255777Y-12546388D02*
X12246253Y-12565436D01*
X12246253Y-12565436D02*
X12236729Y-12574960D01*
X12236729Y-12574960D02*
X12217682Y-12584484D01*
X12217682Y-12584484D02*
X12198634Y-12584484D01*
X12198634Y-12584484D02*
X12179586Y-12574960D01*
X12179586Y-12574960D02*
X12170063Y-12565436D01*
X12170063Y-12565436D02*
X12160539Y-12546388D01*
X12160539Y-12546388D02*
X12151015Y-12508293D01*
X12151015Y-12508293D02*
X12151015Y-12460674D01*
X12151015Y-12460674D02*
X12160539Y-12422579D01*
X12160539Y-12422579D02*
X12170063Y-12403531D01*
X12170063Y-12403531D02*
X12179586Y-12394008D01*
X12179586Y-12394008D02*
X12198634Y-12384484D01*
X12351015Y-12565436D02*
X12360539Y-12574960D01*
X12360539Y-12574960D02*
X12351015Y-12584484D01*
X12351015Y-12584484D02*
X12341491Y-12574960D01*
X12341491Y-12574960D02*
X12351015Y-12565436D01*
X12351015Y-12565436D02*
X12351015Y-12584484D01*
X12551015Y-12584484D02*
X12436729Y-12584484D01*
X12493872Y-12584484D02*
X12493872Y-12384484D01*
X12493872Y-12384484D02*
X12474825Y-12413055D01*
X12474825Y-12413055D02*
X12455777Y-12432103D01*
X12455777Y-12432103D02*
X12436729Y-12441627D01*
X12617682Y-12384484D02*
X12741491Y-12384484D01*
X12741491Y-12384484D02*
X12674825Y-12460674D01*
X12674825Y-12460674D02*
X12703396Y-12460674D01*
X12703396Y-12460674D02*
X12722444Y-12470198D01*
X12722444Y-12470198D02*
X12731967Y-12479722D01*
X12731967Y-12479722D02*
X12741491Y-12498769D01*
X12741491Y-12498769D02*
X12741491Y-12546388D01*
X12741491Y-12546388D02*
X12731967Y-12565436D01*
X12731967Y-12565436D02*
X12722444Y-12574960D01*
X12722444Y-12574960D02*
X12703396Y-12584484D01*
X12703396Y-12584484D02*
X12646253Y-12584484D01*
X12646253Y-12584484D02*
X12627206Y-12574960D01*
X12627206Y-12574960D02*
X12617682Y-12565436D01*
X12865301Y-12384484D02*
X12884348Y-12384484D01*
X12884348Y-12384484D02*
X12903396Y-12394008D01*
X12903396Y-12394008D02*
X12912920Y-12403531D01*
X12912920Y-12403531D02*
X12922444Y-12422579D01*
X12922444Y-12422579D02*
X12931967Y-12460674D01*
X12931967Y-12460674D02*
X12931967Y-12508293D01*
X12931967Y-12508293D02*
X12922444Y-12546388D01*
X12922444Y-12546388D02*
X12912920Y-12565436D01*
X12912920Y-12565436D02*
X12903396Y-12574960D01*
X12903396Y-12574960D02*
X12884348Y-12584484D01*
X12884348Y-12584484D02*
X12865301Y-12584484D01*
X12865301Y-12584484D02*
X12846253Y-12574960D01*
X12846253Y-12574960D02*
X12836729Y-12565436D01*
X12836729Y-12565436D02*
X12827206Y-12546388D01*
X12827206Y-12546388D02*
X12817682Y-12508293D01*
X12817682Y-12508293D02*
X12817682Y-12460674D01*
X12817682Y-12460674D02*
X12827206Y-12422579D01*
X12827206Y-12422579D02*
X12836729Y-12403531D01*
X12836729Y-12403531D02*
X12846253Y-12394008D01*
X12846253Y-12394008D02*
X12865301Y-12384484D01*
X13055777Y-12384484D02*
X13074825Y-12384484D01*
X13074825Y-12384484D02*
X13093872Y-12394008D01*
X13093872Y-12394008D02*
X13103396Y-12403531D01*
X13103396Y-12403531D02*
X13112920Y-12422579D01*
X13112920Y-12422579D02*
X13122444Y-12460674D01*
X13122444Y-12460674D02*
X13122444Y-12508293D01*
X13122444Y-12508293D02*
X13112920Y-12546388D01*
X13112920Y-12546388D02*
X13103396Y-12565436D01*
X13103396Y-12565436D02*
X13093872Y-12574960D01*
X13093872Y-12574960D02*
X13074825Y-12584484D01*
X13074825Y-12584484D02*
X13055777Y-12584484D01*
X13055777Y-12584484D02*
X13036729Y-12574960D01*
X13036729Y-12574960D02*
X13027206Y-12565436D01*
X13027206Y-12565436D02*
X13017682Y-12546388D01*
X13017682Y-12546388D02*
X13008158Y-12508293D01*
X13008158Y-12508293D02*
X13008158Y-12460674D01*
X13008158Y-12460674D02*
X13017682Y-12422579D01*
X13017682Y-12422579D02*
X13027206Y-12403531D01*
X13027206Y-12403531D02*
X13036729Y-12394008D01*
X13036729Y-12394008D02*
X13055777Y-12384484D01*
X13198634Y-12384484D02*
X13198634Y-12422579D01*
X13274825Y-12384484D02*
X13274825Y-12422579D01*
X13570063Y-12660674D02*
X13560539Y-12651150D01*
X13560539Y-12651150D02*
X13541491Y-12622579D01*
X13541491Y-12622579D02*
X13531968Y-12603531D01*
X13531968Y-12603531D02*
X13522444Y-12574960D01*
X13522444Y-12574960D02*
X13512920Y-12527341D01*
X13512920Y-12527341D02*
X13512920Y-12489246D01*
X13512920Y-12489246D02*
X13522444Y-12441627D01*
X13522444Y-12441627D02*
X13531968Y-12413055D01*
X13531968Y-12413055D02*
X13541491Y-12394008D01*
X13541491Y-12394008D02*
X13560539Y-12365436D01*
X13560539Y-12365436D02*
X13570063Y-12355912D01*
X13636729Y-12403531D02*
X13646253Y-12394008D01*
X13646253Y-12394008D02*
X13665301Y-12384484D01*
X13665301Y-12384484D02*
X13712920Y-12384484D01*
X13712920Y-12384484D02*
X13731968Y-12394008D01*
X13731968Y-12394008D02*
X13741491Y-12403531D01*
X13741491Y-12403531D02*
X13751015Y-12422579D01*
X13751015Y-12422579D02*
X13751015Y-12441627D01*
X13751015Y-12441627D02*
X13741491Y-12470198D01*
X13741491Y-12470198D02*
X13627206Y-12584484D01*
X13627206Y-12584484D02*
X13751015Y-12584484D01*
X13989110Y-12584484D02*
X13989110Y-12384484D01*
X14074825Y-12584484D02*
X14074825Y-12479722D01*
X14074825Y-12479722D02*
X14065301Y-12460674D01*
X14065301Y-12460674D02*
X14046253Y-12451150D01*
X14046253Y-12451150D02*
X14017682Y-12451150D01*
X14017682Y-12451150D02*
X13998634Y-12460674D01*
X13998634Y-12460674D02*
X13989110Y-12470198D01*
X14198634Y-12584484D02*
X14179587Y-12574960D01*
X14179587Y-12574960D02*
X14170063Y-12565436D01*
X14170063Y-12565436D02*
X14160539Y-12546388D01*
X14160539Y-12546388D02*
X14160539Y-12489246D01*
X14160539Y-12489246D02*
X14170063Y-12470198D01*
X14170063Y-12470198D02*
X14179587Y-12460674D01*
X14179587Y-12460674D02*
X14198634Y-12451150D01*
X14198634Y-12451150D02*
X14227206Y-12451150D01*
X14227206Y-12451150D02*
X14246253Y-12460674D01*
X14246253Y-12460674D02*
X14255777Y-12470198D01*
X14255777Y-12470198D02*
X14265301Y-12489246D01*
X14265301Y-12489246D02*
X14265301Y-12546388D01*
X14265301Y-12546388D02*
X14255777Y-12565436D01*
X14255777Y-12565436D02*
X14246253Y-12574960D01*
X14246253Y-12574960D02*
X14227206Y-12584484D01*
X14227206Y-12584484D02*
X14198634Y-12584484D01*
X14379587Y-12584484D02*
X14360539Y-12574960D01*
X14360539Y-12574960D02*
X14351015Y-12555912D01*
X14351015Y-12555912D02*
X14351015Y-12384484D01*
X14531968Y-12574960D02*
X14512920Y-12584484D01*
X14512920Y-12584484D02*
X14474825Y-12584484D01*
X14474825Y-12584484D02*
X14455777Y-12574960D01*
X14455777Y-12574960D02*
X14446253Y-12555912D01*
X14446253Y-12555912D02*
X14446253Y-12479722D01*
X14446253Y-12479722D02*
X14455777Y-12460674D01*
X14455777Y-12460674D02*
X14474825Y-12451150D01*
X14474825Y-12451150D02*
X14512920Y-12451150D01*
X14512920Y-12451150D02*
X14531968Y-12460674D01*
X14531968Y-12460674D02*
X14541491Y-12479722D01*
X14541491Y-12479722D02*
X14541491Y-12498769D01*
X14541491Y-12498769D02*
X14446253Y-12517817D01*
X14617682Y-12574960D02*
X14636730Y-12584484D01*
X14636730Y-12584484D02*
X14674825Y-12584484D01*
X14674825Y-12584484D02*
X14693872Y-12574960D01*
X14693872Y-12574960D02*
X14703396Y-12555912D01*
X14703396Y-12555912D02*
X14703396Y-12546388D01*
X14703396Y-12546388D02*
X14693872Y-12527341D01*
X14693872Y-12527341D02*
X14674825Y-12517817D01*
X14674825Y-12517817D02*
X14646253Y-12517817D01*
X14646253Y-12517817D02*
X14627206Y-12508293D01*
X14627206Y-12508293D02*
X14617682Y-12489246D01*
X14617682Y-12489246D02*
X14617682Y-12479722D01*
X14617682Y-12479722D02*
X14627206Y-12460674D01*
X14627206Y-12460674D02*
X14646253Y-12451150D01*
X14646253Y-12451150D02*
X14674825Y-12451150D01*
X14674825Y-12451150D02*
X14693872Y-12460674D01*
X14770063Y-12660674D02*
X14779587Y-12651150D01*
X14779587Y-12651150D02*
X14798634Y-12622579D01*
X14798634Y-12622579D02*
X14808158Y-12603531D01*
X14808158Y-12603531D02*
X14817682Y-12574960D01*
X14817682Y-12574960D02*
X14827206Y-12527341D01*
X14827206Y-12527341D02*
X14827206Y-12489246D01*
X14827206Y-12489246D02*
X14817682Y-12441627D01*
X14817682Y-12441627D02*
X14808158Y-12413055D01*
X14808158Y-12413055D02*
X14798634Y-12394008D01*
X14798634Y-12394008D02*
X14779587Y-12365436D01*
X14779587Y-12365436D02*
X14770063Y-12355912D01*
M02*
